<svg xmlns="http://www.w3.org/2000/svg" width="173.596" height="156.802" viewBox="0 0 173.596 156.802"><path opacity=".75" fill="#BC9C64" d="M148.4 22.294c-.22-.287 1.877-5.397 2.213-5.84 0 0 1.635-.89 1.65-.897.384-.6-.12-1.546.31-2.125.67-.884 2.49-.99 3.28-1.795 3.074-3.126 1.87-5.446-.457-8.307-.642-.792-1.186-2.83-2.153-3.228-1.22-.52-9.375 1.12-11.203 1.34-10.402 1.22-20.802 2.374-31.2 3.473C73.966 8.825 37.01 12.003 0 14.455c0 0 .7 3.252 1.056 4.882.614 2.84 1.23 5.683 1.846 8.524 1.85 8.5 3.986 16.99 5.61 25.547 1.803 9.548 1.643 19.438 2.08 29.108.756 16.45 1.49 32.905 2.23 49.357.584.6.79 1.423 1.334 1.97.542.543 2.253.33 2.452.538.214.203-.565.412-.552.714.065 1.015 2.594.73 3.054.48 2.28-1.243-1.475-1.58 2.95-.9.76.12 5.94-1.316 6.658.216 1.42 3.002 1.327 17.673 1.65 21.917 34.693-2.55 69.388-5.486 104.02-8.77 0 0 1.77-1.86 1.505-2.922-.08-.346-4.135-2.182-2.79-3.15.706-.505 3.064.246 3.613-.395.41-.475-.518-2.773-.378-3.41.126-.63 1.646-1.622 1.566-2.25-.16-1.44-4.24 2.93-3.91-2.336.07-1.124 3.42-3.23 2.54-4.423-1.608-2.154-1.672 4.156-5.172 2.63-.872-.38 3.147-2.83 2.625-3.735-2.258-3.896-2.045 4.242-4.042 1.818-.25-.294 1.532-2.485 1.482-2.92-.708-6.39-.69 4.69-1.4-1.693-.174-1.544 1.535-.593 1.917-1.825.077-.227.293-.47.23-.71-.313-1.057-2.962-2.793-2.85-3.85.027-.312.563-.284.852-.436.924-.466 4.59 3.975 5.874 1.09.095-.23-.256-.44-.38-.657-1.098-1.89-3.164 1.457-3.666-3.054-.032-.23-.278-.55-.087-.68.298-.193 5.79.723 5.372-.593-.256-.795-2.356-.998-2.62-1.78-.337-.987 1.018-2.535.8-3.557-.144-.646-2.56-1.82-1.23-2.804.294-.214.646.273.96.412.594.258 6.354-2.914 5.435-5.115-.07-.163-4.568.11-3.805-1.647.71-1.625 5.448.193 5.265-1.29-.164-1.373-3.55-.442-4.31-.895-2.623-1.593 2.063-.843 2.293-.95l.97-1.956c.638-1.296 2.86-1.26 2.62-3.302l-.75-1.3c1.532-1.933 3.127 1.74 3.193 1.71.397-.136.6-2.493.86-2.87.464-.682 1.814-.92 2.206-1.644.538-1.01-.933-3.03-.505-4.104.466-1.123 1.703-.87 1.534-2.257-.026-.234.073-.512-.078-.688-1.712-1.934-2.996-.483-1.97-3.94.073-.236-.04-.69.218-.713 1.145-.133.613 2.266.906 2.666.34.455 2.76-1.936 2.702-2.4-.156-1.27-2.545-.466-3.113-1.02-.565-.556-1.057-4.166.763-3.57 1.802.604-.45 2.464-.256 2.82.516.89 2.715-1.07 2.78-1.73.046-.572-2.055-4.06-1.17-4.715 2.087-1.58.82 1.65 1.417 1.916l1.852-1.14c1.472-.926 1.19.384 2.172-.028 2.443-1.04.58-4.96-.17-6.233 0 0-.087-.69-.12-1.03-.044-.348-.345-.754-.134-1.03.385-.524 2.396.06 2.92-.35.75-.58.503-3.257 1.327-3.64.74-.34 1.684.724 2.426.4.447-.19.285-4.35-.016-4.87-.46-.784-3.93-.797-3.766-1.627.16-.72 2.447-1.024 2.75-1.718.235-.533-1.192-4.044-1.68-3.98-1.42.175-.155 1.412-1.577 1.588-.01 0 .292-4.214 2.4-4.467 1.73-.21-.137 3.735 3.736 1.63 1.514-.826-3.478-1.82-2.347-4.583.826-2.006 2.984.8 4.065-.504.64-.79-1.403-1.13-.85-1.99.22-.335 3.658-1.89 3.21-2.49-1-1.35-6.226-.935-4.484-2.925.917-1.052 4.376-1.01 5.028-2.015.39-.604-.164-1.592.317-2.132.33-.38 2.04.127 2.308-.29 1.23-1.907-3.104-.94-1.598-3.284 1.063-1.655 5.233.587 2.48-1.94-.79-.725-.99-.917-1.78-1.635-5.83.737-11.654 1.46-17.49 2.165-.543.073-4.726.928-4.99.6"/><path fill="#FFF" d="M77.388 87.548l.36-3.67c-.963-.103-1.65-.295-2.066-.575-.415-.28-.705-.71-.87-1.295l-5.267-19.354-7.565.42-8.864 17.94c-.685 1.393-1.203 2.354-1.556 2.882-.353.527-.72.89-1.102 1.087-.382.196-1 .368-1.85.51l-.468 3.677 10.28-.57.413-3.672c-1.026.057-1.693.02-2.003-.106s-.476-.403-.5-.826c-.023-.423.494-1.69 1.55-3.808l7.855-.437c.51 1.6.788 2.75.827 3.46.025.46-.195.8-.66 1.03-.467.226-1.29.37-2.473.437l-.42 3.673 14.374-.8zM59.563 76.443l3.344-7.466.072-.005 1.81 7.18-5.23.29zm46.765 9.5l.373-3.434c-.614-.03-1.12-.1-1.51-.21-.382-.11-.67-.26-.85-.44s-.39-.49-.63-.91l-3.74-6.586c1.99-.79 3.448-1.783 4.375-2.984.926-1.2 1.336-2.77 1.23-4.7-.085-1.506-.52-2.68-1.304-3.52-.784-.84-1.814-1.41-3.09-1.71-1.275-.296-2.726-.4-4.355-.31L81.33 62l-.433 3.674c1.44.03 2.186.448 2.23 1.256.03.532-.033 1.268-.187 2.21l-1.457 12.39c-.07.68-.325 1.21-.765 1.584-.44.377-1.182.618-2.23.724l-.432 3.674 13.557-.752.43-3.672c-.778-.092-1.354-.268-1.726-.53-.372-.266-.57-.626-.595-1.084-.02-.35.018-.86.115-1.533l.464-4.07 1.34-.073 5.026 10.688 9.666-.537zm-15.14-18.316c.094-.706.227-1.222.396-1.547.17-.324.4-.545.69-.664.29-.12.712-.194 1.267-.225 1.03-.052 1.87.098 2.53.45.667.36 1.027 1.076 1.087 2.15.045.81-.122 1.515-.5 2.116-.378.604-.903 1.067-1.575 1.395-.672.328-1.417.515-2.24.56l-2.152.12.503-4.35z"/></svg>