<?xml version="1.0" encoding="utf-8"?>
<!-- Generator: Adobe Illustrator 15.0.0, SVG Export Plug-In . SVG Version: 6.00 Build 0)  -->
<!DOCTYPE svg PUBLIC "-//W3C//DTD SVG 1.1//EN" "http://www.w3.org/Graphics/SVG/1.1/DTD/svg11.dtd">
<svg version="1.1" id="Layer_1" xmlns="http://www.w3.org/2000/svg" xmlns:xlink="http://www.w3.org/1999/xlink" x="0px" y="0px"
	 width="173.596px" height="156.802px" viewBox="0 0 173.596 156.802" enable-background="new 0 0 173.596 156.802"
	 xml:space="preserve">
<g id="arkansas">
	<path id="AR" opacity="0.75" fill="#BC9C64" d="M148.401,22.294c-0.221-0.287,1.876-5.397,2.212-5.841c0,0,1.635-0.889,1.649-0.896
		c0.385-0.601-0.119-1.546,0.312-2.125c0.669-0.884,2.489-0.989,3.279-1.795c3.074-3.126,1.871-5.446-0.457-8.307
		c-0.642-0.792-1.186-2.831-2.153-3.228c-1.22-0.521-9.375,1.12-11.203,1.339c-10.402,1.222-20.802,2.375-31.199,3.474
		C73.965,8.826,37.01,12.003,0,14.456c0,0,0.699,3.251,1.056,4.881c0.614,2.839,1.231,5.683,1.846,8.524
		c1.85,8.496,3.986,16.985,5.611,25.542c1.802,9.548,1.642,19.438,2.078,29.108c0.757,16.45,1.491,32.904,2.23,49.356
		c0.585,0.6,0.79,1.423,1.335,1.971c0.542,0.542,2.253,0.33,2.452,0.537c0.214,0.203-0.565,0.412-0.552,0.714
		c0.065,1.014,2.594,0.732,3.054,0.479c2.281-1.243-1.475-1.579,2.95-0.898c0.759,0.117,5.941-1.318,6.658,0.214
		c1.419,3.002,1.327,17.673,1.65,21.917c34.693-2.551,69.388-5.487,104.021-8.771c0,0,1.768-1.861,1.504-2.922
		c-0.08-0.347-4.135-2.183-2.79-3.15c0.706-0.506,3.064,0.245,3.613-0.396c0.41-0.475-0.518-2.773-0.378-3.411
		c0.126-0.628,1.646-1.621,1.566-2.25c-0.161-1.44-4.241,2.932-3.911-2.335c0.071-1.123,3.422-3.23,2.542-4.422
		c-1.609-2.154-1.673,4.156-5.173,2.632c-0.872-0.378,3.147-2.829,2.625-3.736c-2.258-3.896-2.045,4.242-4.042,1.818
		c-0.25-0.295,1.532-2.486,1.482-2.921c-0.708-6.389-0.689,4.692-1.4-1.693c-0.174-1.543,1.535-0.592,1.917-1.824
		c0.077-0.227,0.293-0.469,0.229-0.709c-0.312-1.058-2.961-2.794-2.848-3.852c0.026-0.311,0.562-0.283,0.851-0.435
		c0.924-0.464,4.589,3.977,5.874,1.089c0.095-0.227-0.256-0.436-0.381-0.654c-1.097-1.891-3.163,1.457-3.665-3.054
		c-0.032-0.231-0.278-0.55-0.087-0.681c0.298-0.191,5.789,0.725,5.372-0.591c-0.251-0.795-2.351-0.998-2.614-1.78
		c-0.338-0.987,1.017-2.535,0.801-3.557c-0.146-0.646-2.56-1.821-1.231-2.804c0.293-0.214,0.645,0.273,0.958,0.412
		c0.594,0.258,6.354-2.914,5.435-5.115c-0.071-0.162-4.568,0.111-3.805-1.646c0.711-1.625,5.446,0.193,5.263-1.289
		c-0.164-1.374-3.55-0.443-4.31-0.896c-2.623-1.595,2.063-0.845,2.293-0.949l0.972-1.959c0.637-1.296,2.858-1.259,2.618-3.302
		l-0.75-1.3c1.533-1.934,3.128,1.738,3.194,1.709c0.394-0.136,0.6-2.493,0.858-2.869c0.462-0.683,1.812-0.92,2.204-1.645
		c0.538-1.011-0.933-3.03-0.505-4.104c0.467-1.122,1.704-0.867,1.535-2.256c-0.026-0.234,0.073-0.512-0.078-0.688
		c-1.712-1.933-2.996-0.482-1.971-3.938c0.074-0.236-0.04-0.69,0.219-0.713c1.145-0.133,0.613,2.266,0.906,2.666
		c0.338,0.456,2.761-1.935,2.703-2.401c-0.156-1.268-2.545-0.464-3.113-1.019c-0.565-0.555-1.057-4.165,0.763-3.569
		c1.802,0.604-0.451,2.464-0.256,2.821c0.518,0.888,2.717-1.069,2.78-1.729c0.048-0.574-2.053-4.062-1.168-4.717
		c2.087-1.58,0.819,1.65,1.417,1.916l1.852-1.143c1.474-0.924,1.191,0.386,2.174-0.026c2.444-1.041,0.579-4.959-0.169-6.234
		c0,0-0.087-0.69-0.122-1.029c-0.042-0.347-0.343-0.753-0.132-1.028c0.386-0.524,2.397,0.061,2.919-0.35
		c0.75-0.581,0.505-3.257,1.329-3.639c0.74-0.342,1.683,0.723,2.425,0.4c0.447-0.192,0.285-4.35-0.016-4.871
		c-0.46-0.784-3.929-0.797-3.766-1.627c0.158-0.72,2.445-1.024,2.75-1.718c0.233-0.533-1.194-4.044-1.681-3.979
		c-1.421,0.174-0.156,1.411-1.578,1.587c-0.011,0,0.293-4.214,2.399-4.467c1.733-0.209-0.135,3.736,3.738,1.63
		c1.515-0.825-3.477-1.82-2.346-4.582c0.827-2.006,2.985,0.799,4.066-0.504c0.642-0.79-1.401-1.129-0.846-1.988
		c0.217-0.336,3.656-1.889,3.21-2.489c-1-1.35-6.228-0.937-4.486-2.927c0.917-1.052,4.376-1.009,5.028-2.015
		c0.391-0.604-0.164-1.592,0.317-2.132c0.33-0.383,2.04,0.125,2.306-0.293c1.231-1.906-3.104-0.939-1.598-3.283
		c1.065-1.655,5.235,0.587,2.483-1.941c-0.792-0.724-0.99-0.916-1.781-1.634c-5.829,0.736-11.654,1.458-17.488,2.164
		C152.849,21.767,148.666,22.622,148.401,22.294"/>
	<path fill="#FFFFFF" d="M77.388,87.548l0.359-3.67c-0.962-0.103-1.65-0.295-2.065-0.575c-0.415-0.279-0.705-0.711-0.871-1.295
		l-5.266-19.354l-7.565,0.42l-8.864,17.94c-0.685,1.393-1.203,2.354-1.556,2.882c-0.353,0.527-0.719,0.89-1.102,1.087
		c-0.382,0.196-0.999,0.368-1.85,0.511l-0.468,3.676l10.279-0.57l0.414-3.672c-1.026,0.057-1.693,0.021-2.003-0.106
		s-0.476-0.403-0.499-0.826c-0.024-0.423,0.493-1.691,1.549-3.808l7.855-0.437c0.511,1.595,0.788,2.747,0.827,3.459
		c0.025,0.458-0.195,0.801-0.661,1.026c-0.466,0.226-1.29,0.371-2.472,0.437l-0.414,3.673L77.388,87.548z M59.563,76.443
		l3.344-7.466l0.072-0.005l1.813,7.181L59.563,76.443z"/>
	<path fill="#FFFFFF" d="M106.328,85.943l0.373-3.434c-0.619-0.026-1.122-0.095-1.51-0.207c-0.387-0.111-0.671-0.259-0.851-0.442
		s-0.39-0.487-0.632-0.909l-3.741-6.583c1.989-0.789,3.447-1.783,4.374-2.984c0.925-1.202,1.335-2.769,1.228-4.699
		c-0.084-1.508-0.519-2.682-1.303-3.522c-0.784-0.84-1.814-1.409-3.089-1.709c-1.276-0.297-2.727-0.401-4.356-0.311l-15.492,0.858
		l-0.432,3.673c1.441,0.029,2.186,0.448,2.229,1.256c0.03,0.532-0.032,1.268-0.186,2.209l-1.457,12.391
		c-0.071,0.681-0.325,1.21-0.765,1.584c-0.439,0.377-1.182,0.618-2.229,0.724l-0.433,3.674l13.557-0.752l0.431-3.672
		c-0.779-0.092-1.355-0.268-1.727-0.531c-0.372-0.265-0.569-0.625-0.595-1.083c-0.02-0.351,0.018-0.861,0.115-1.533l0.464-4.075
		l1.339-0.073l5.022,10.688L106.328,85.943z M91.189,67.627c0.093-0.706,0.226-1.222,0.395-1.547c0.17-0.324,0.4-0.545,0.69-0.664
		c0.29-0.119,0.712-0.194,1.267-0.225c1.026-0.057,1.87,0.093,2.53,0.449c0.662,0.357,1.022,1.072,1.082,2.146
		c0.045,0.81-0.122,1.515-0.5,2.116c-0.378,0.604-0.903,1.067-1.575,1.395c-0.672,0.328-1.417,0.515-2.238,0.561l-2.154,0.12
		L91.189,67.627z"/>
</g>
</svg>
