<?xml version="1.0" encoding="utf-8"?>
<!-- Generator: Adobe Illustrator 15.0.2, SVG Export Plug-In . SVG Version: 6.00 Build 0)  -->
<!DOCTYPE svg PUBLIC "-//W3C//DTD SVG 1.1//EN" "http://www.w3.org/Graphics/SVG/1.1/DTD/svg11.dtd">
<svg version="1.1" id="Layer_1" xmlns="http://www.w3.org/2000/svg" xmlns:xlink="http://www.w3.org/1999/xlink" x="0px" y="0px"
	 width="216.995px" height="196.002px" viewBox="0 0 216.995 196.002" enable-background="new 0 0 216.995 196.002"
	 xml:space="preserve">
<path opacity="0.75" fill="#BC9C64" d="M185.502,27.867c-0.277-0.359,2.345-6.746,2.765-7.301c0,0,2.044-1.111,2.062-1.121
	c0.481-0.75-0.148-1.932,0.39-2.656c0.836-1.104,3.11-1.235,4.099-2.244c3.842-3.907,2.34-6.808-0.57-10.382
	c-0.803-0.991-1.482-3.539-2.691-4.035c-1.525-0.652-11.719,1.4-14.003,1.674c-13.003,1.527-26.003,2.968-38.999,4.342
	C92.456,11.033,46.263,15.004,0,18.069c0,0,0.874,4.063,1.32,6.101c0.768,3.55,1.539,7.104,2.307,10.656
	c2.312,10.621,4.983,21.23,7.014,31.928c2.252,11.936,2.052,24.299,2.597,36.385c0.946,20.564,1.864,41.131,2.788,61.697
	c0.732,0.748,0.987,1.777,1.669,2.463c0.677,0.676,2.817,0.412,3.065,0.67c0.268,0.254-0.707,0.516-0.69,0.895
	c0.081,1.266,3.243,0.914,3.817,0.598c2.852-1.553-1.843-1.973,3.688-1.123c0.949,0.146,7.426-1.646,8.323,0.268
	c1.774,3.754,1.659,22.092,2.062,27.396c43.366-3.188,86.735-6.859,130.026-10.963c0,0,2.21-2.326,1.88-3.652
	c-0.1-0.434-5.169-2.729-3.488-3.938c0.883-0.633,3.832,0.305,4.517-0.496c0.512-0.592-0.647-3.465-0.474-4.264
	c0.158-0.785,2.059-2.025,1.959-2.813c-0.201-1.801-5.301,3.666-4.889-2.918c0.09-1.404,4.277-4.039,3.178-5.527
	c-2.012-2.693-2.09,5.195-6.467,3.289c-1.09-0.471,3.935-3.535,3.282-4.67c-2.823-4.869-2.556,5.303-5.053,2.273
	c-0.313-0.369,1.915-3.107,1.853-3.652c-0.885-7.984-0.861,5.867-1.75-2.117c-0.218-1.928,1.92-0.738,2.397-2.279
	c0.096-0.283,0.366-0.586,0.287-0.887c-0.39-1.32-3.702-3.49-3.56-4.813c0.031-0.389,0.702-0.355,1.063-0.545
	c1.154-0.58,5.736,4.971,7.342,1.361c0.118-0.283-0.32-0.545-0.477-0.816c-1.371-2.365-3.953,1.82-4.58-3.818
	c-0.041-0.289-0.348-0.688-0.109-0.85c0.373-0.24,7.236,0.906,6.715-0.74c-0.314-0.992-2.939-1.246-3.267-2.225
	c-0.423-1.234,1.271-3.168,1.001-4.445c-0.182-0.809-3.2-2.277-1.539-3.506c0.365-0.268,0.806,0.342,1.197,0.516
	c0.744,0.322,7.943-3.643,6.795-6.395c-0.09-0.201-5.711,0.141-4.756-2.057c0.889-2.031,6.807,0.242,6.578-1.611
	c-0.205-1.717-4.438-0.555-5.387-1.119c-3.279-1.994,2.579-1.057,2.867-1.188l1.215-2.449c0.796-1.619,3.573-1.572,3.273-4.127
	l-0.938-1.625c1.916-2.418,3.91,2.174,3.993,2.137c0.492-0.17,0.75-3.117,1.073-3.586c0.577-0.854,2.266-1.15,2.755-2.057
	c0.673-1.264-1.166-3.787-0.631-5.131c0.584-1.402,2.13-1.084,1.919-2.818c-0.033-0.295,0.092-0.641-0.097-0.861
	c-2.141-2.416-3.746-0.604-2.463-4.922c0.092-0.295-0.051-0.863,0.272-0.891c1.431-0.166,0.767,2.832,1.133,3.332
	c0.423,0.57,3.451-2.418,3.379-3.002c-0.194-1.584-3.181-0.58-3.891-1.273c-0.707-0.693-1.321-5.205,0.954-4.461
	c2.253,0.756-0.564,3.08-0.32,3.525c0.646,1.111,3.396-1.336,3.475-2.16c0.061-0.717-2.565-5.076-1.459-5.896
	c2.608-1.975,1.023,2.064,1.771,2.395l2.315-1.428c1.842-1.154,1.488,0.484,2.717-0.033c3.056-1.301,0.725-6.197-0.211-7.793
	c0,0-0.108-0.861-0.151-1.285c-0.054-0.434-0.429-0.941-0.165-1.285c0.482-0.656,2.996,0.074,3.648-0.438
	c0.938-0.727,0.632-4.07,1.662-4.549c0.924-0.426,2.104,0.904,3.031,0.5c0.559-0.24,0.356-5.438-0.02-6.088
	c-0.575-0.98-4.911-0.996-4.707-2.033c0.197-0.9,3.056-1.281,3.438-2.148c0.291-0.666-1.492-5.055-2.101-4.973
	c-1.776,0.217-0.195,1.764-1.972,1.984c-0.015,0,0.365-5.268,2.998-5.584c2.166-0.262-0.168,4.67,4.674,2.037
	c1.893-1.031-4.346-2.275-2.934-5.727c1.034-2.508,3.732,0.998,5.083-0.631c0.804-0.988-1.751-1.41-1.057-2.484
	c0.271-0.42,4.57-2.361,4.013-3.111c-1.249-1.688-7.785-1.172-5.607-3.66c1.146-1.314,5.47-1.26,6.284-2.518
	c0.489-0.754-0.204-1.99,0.396-2.666c0.413-0.477,2.55,0.156,2.883-0.365c1.539-2.383-3.88-1.174-1.998-4.104
	c1.331-2.069,6.543,0.734,3.104-2.428c-0.99-0.904-1.238-1.145-2.227-2.041c-7.286,0.92-14.568,1.822-21.859,2.705
	C191.061,27.209,185.833,28.277,185.502,27.867"/>
</svg>
