<?xml version="1.0" encoding="utf-8"?>
<!-- Generator: Adobe Illustrator 15.0.0, SVG Export Plug-In . SVG Version: 6.00 Build 0)  -->
<!DOCTYPE svg PUBLIC "-//W3C//DTD SVG 1.1//EN" "http://www.w3.org/Graphics/SVG/1.1/DTD/svg11.dtd">
<svg version="1.1" id="Layer_1" xmlns="http://www.w3.org/2000/svg" xmlns:xlink="http://www.w3.org/1999/xlink" x="0px" y="0px"
	 width="207.204px" height="134.398px" viewBox="0 0 207.204 134.398" enable-background="new 0 0 207.204 134.398"
	 xml:space="preserve">
<g id="iowa">
	<path id="IA" opacity="0.75" fill="#CBB082" d="M0.443,12.599c-1.666,1.667,1.867,3.907,2.268,4.871
		c0.151,0.365,0.027,0.787,0.051,1.178c0.016,0.396,0.031,0.791,0.044,1.181c0.021,0.392,0.221,0.823,0.057,1.179
		c-0.209,0.469-2.303,0.449-1.485,1.482c0.258,0.328,0.904,0.282,1.057,0.666c0.117,0.27-0.599,0.457-0.48,0.735
		c0.096,0.238,3.624,0.167,3.833,4.792c0.065,1.392-1.967,2.509-1.914,3.633c0.026,0.795,1.275,2.451,0.673,3.519
		c-0.39,0.669-1.976,2.63-1.922,3.625c0.005,0.291,0.602,0.4,0.548,0.683L1.646,40.92c-0.37,0.544-1.225,4.448-0.843,5
		c0.412,0.589,3.809,2.052,3.771,2.677c-0.019,0.419-1.032,0.335-1.017,0.755c0.028,0.416,0.819,0.333,1.081,0.659
		c0.843,1.049,1.369,2.853,1.751,4.18c0,0,2.823,0.885,2.707,2.004c-0.125,1.161-1.127,3.174-0.853,4.291
		c0.323,1.3,2.38,2.142,2.777,3.421c0.39,1.217-0.979,3.012-0.33,4.267c0.573,1.089,2.157,1.636,2.76,2.709
		c0.451,0.789,0.165,2.047,0.663,2.804c0.694,1.076,2.742,1.532,3.291,2.684c0.465,0.97-0.186,2.509,0.178,3.533
		c0.506,1.472,2.483,2.607,2.848,4.115c0.416,1.785-0.423,3.517-0.825,5.002c-0.521,1.953,0.973,2.729,1.276,4.192
		c0.142,0.708-0.903,1.582-0.436,2.142c0.647,0.779,2.068-0.953,2.623-0.837c1.432,0.304-0.157,2.188,0.14,2.822
		c0.317,0.694,2.435,0.589,2.738,1.282c0.551,1.322-1.371,3.688-0.819,5.004c0.49,1.161,2.373-0.041,2.238,2.007
		c-0.051,0.857-1.87,1.976-1.414,3.62c0.447,1.682,2.066-0.189,2.706,0.564c0.292,0.359-1,4.254-0.821,5.005
		c0.662,2.685,2.382,4.528,2.549,7.657c0.104,2.102-1.381,4.59-1.292,6.438c0.075,1.276,2.792,2.488,3.535,5.48
		c32.202-0.861,64.222-3.264,96.264-6.651c8.57-0.914,17.037-2.034,25.545-3.487c2.447-0.41,8.314-1.48,8.35-1.43
		c1.811,2.812,3.471,4.692,6.289,6.451c1.544,0.967,1.697,1.98,3.545,2.701c0.314,0.127,0.953,0.373,0.953,0.373
		c5.16-0.553-0.745-6.917-0.287-7.79c1-1.946,7.836-4.302,8.129-5.15c0.803-2.427,0.668-4.94,1.356-7.267
		c0.634-2.123,3.26-3.93,3.646-6.104c1.288-7.364-9.582-7.592-4.805-18.68c0.631-1.451,9.323-1.867,10.968-2.681
		c1.333-0.651,2.077-2.49,3.362-3.241c1.803-1.047,5.493-1.456,6.531-3.633c0.936-1.951-0.238-5.072,0.735-7.217
		c0.56-1.234,2.263-1.957,2.814-3.199c0.741-1.679,1.339-6.154,1.146-7.985c-0.699-6.528-6.227-5.524-9.652-9.526
		c-1.287-1.512-0.645-3.54-2.525-4.691c-1.46-0.895-7.009-3.248-6.014-4.995c-1.293-11.035-12.083-3.783-14.691-9.01
		c-0.728-1.447-0.398-3.401-1.076-4.872c-0.35-0.761-1.394-1.196-1.784-1.945c-1.066-2.046-2.267-5.97-2.479-8.274
		c-0.229-2.441,2.875-5.21,2.305-7.39c-0.639-2.45-2.699-1.719-3.979-3.123C165.99,4.182,166.134,0,166.134,0
		s-0.834,0.095-1.246,0.142c-1.668,0.183-3.323,0.359-4.988,0.539c-3.738,0.402-7.483,0.795-11.23,1.175
		c-12.089,1.248-24.193,2.396-36.299,3.462C76.83,8.435,41.22,10.78,5.578,12.375C4.728,12.415,0.992,12.044,0.443,12.599"/>
	<path fill="#FFFFFF" d="M93.665,86.575l0.422-3.589c-0.762-0.088-1.324-0.262-1.688-0.52s-0.557-0.61-0.582-1.059
		c-0.014-0.248,0.018-0.746,0.095-1.496l1.342-11.961c0.093-0.88,0.347-1.525,0.762-1.932s1.14-0.663,2.175-0.768l0.404-3.589
		l-12.999,0.721l-0.422,3.591C84.583,66,85.31,66.41,85.354,67.2c0.025,0.459-0.03,1.178-0.165,2.155l-1.44,12.109
		c-0.069,0.678-0.318,1.197-0.748,1.56c-0.429,0.36-1.156,0.593-2.178,0.696l-0.422,3.59L93.665,86.575z"/>
	<path fill="#FFFFFF" d="M123.712,84.909l0.352-3.585c-0.939-0.102-1.611-0.289-2.018-0.562c-0.405-0.273-0.689-0.695-0.852-1.266
		l-5.146-18.913l-7.392,0.41l-8.663,17.53c-0.669,1.363-1.176,2.301-1.52,2.817s-0.703,0.87-1.076,1.062
		c-0.374,0.193-0.977,0.359-1.809,0.5l-0.457,3.592l10.045-0.557l0.404-3.59c-1.002,0.057-1.655,0.021-1.957-0.104
		c-0.303-0.125-0.465-0.395-0.488-0.807c-0.022-0.414,0.481-1.653,1.515-3.721l7.676-0.426c0.5,1.558,0.77,2.684,0.809,3.379
		c0.023,0.449-0.191,0.783-0.646,1.004c-0.455,0.22-1.26,0.361-2.417,0.426l-0.402,3.59L123.712,84.909z M106.294,74.059
		l3.268-7.296l0.071-0.004l1.771,7.017L106.294,74.059z"/>
</g>
</svg>
