<svg xmlns="http://www.w3.org/2000/svg" width="207.204" height="134.398" viewBox="0 0 207.204 134.398"><path opacity=".75" fill="#CBB082" d="M.443 12.6c-1.666 1.666 1.867 3.906 2.268 4.87.156.365.03.787.056 1.178.016.396.03.79.044 1.18.02.393.22.824.056 1.18-.21.47-2.303.45-1.485 1.482.26.328.905.282 1.058.666.117.27-.6.457-.48.735.096.24 3.624.17 3.833 4.797.064 1.392-1.97 2.51-1.915 3.633.026.794 1.275 2.45.673 3.52-.39.667-1.976 2.63-1.922 3.623.005.29.602.4.548.684l-1.527.777c-.37.545-1.225 4.45-.843 5 .412.59 3.81 2.053 3.77 2.678-.018.42-1.03.336-1.016.756.028.416.82.333 1.08.66.844 1.048 1.37 2.852 1.752 4.18 0 0 2.82.884 2.704 2.003-.125 1.16-1.127 3.175-.853 4.29.325 1.3 2.38 2.144 2.78 3.42.39 1.22-.98 3.015-.33 4.27.57 1.09 2.155 1.636 2.76 2.71.45.788.163 2.046.66 2.803.695 1.077 2.743 1.533 3.29 2.685.467.97-.184 2.51.18 3.534.506 1.47 2.483 2.607 2.848 4.115.415 1.785-.424 3.517-.826 5-.52 1.955.974 2.73 1.277 4.194.143.708-.9 1.58-.435 2.14.647.78 2.068-.95 2.623-.835 1.43.303-.16 2.187.14 2.82.315.695 2.433.59 2.736 1.283.55 1.322-1.37 3.688-.82 5.004.49 1.16 2.374-.04 2.24 2.008-.052.857-1.87 1.976-1.415 3.62.45 1.682 2.067-.19 2.707.564.29.36-1 4.255-.82 5.006.66 2.685 2.38 4.528 2.547 7.657.104 2.1-1.38 4.59-1.292 6.437.075 1.276 2.792 2.488 3.535 5.48 32.202-.86 64.222-3.264 96.264-6.65 8.57-.915 17.037-2.035 25.545-3.488 2.446-.41 8.313-1.48 8.35-1.43 1.81 2.81 3.47 4.69 6.29 6.45 1.542.966 1.695 1.98 3.543 2.7.315.127.954.373.954.373 5.16-.554-.744-6.918-.286-7.79 1-1.947 7.836-4.303 8.13-5.15.802-2.428.667-4.94 1.355-7.268.634-2.123 3.26-3.93 3.646-6.104 1.29-7.364-9.58-7.592-4.804-18.68.63-1.45 9.324-1.867 10.97-2.68 1.333-.652 2.077-2.49 3.362-3.242 1.803-1.046 5.493-1.455 6.53-3.632.937-1.95-.237-5.072.736-7.217.56-1.232 2.263-1.955 2.814-3.197.74-1.68 1.34-6.154 1.146-7.985-.7-6.527-6.228-5.523-9.653-9.525-1.288-1.51-.646-3.54-2.526-4.69-1.46-.895-7.01-3.248-6.013-4.995-1.293-11.035-12.083-3.783-14.69-9.01-.73-1.447-.4-3.4-1.077-4.872-.35-.76-1.394-1.195-1.784-1.944-1.066-2.047-2.267-5.97-2.48-8.275-.228-2.44 2.876-5.21 2.306-7.39-.64-2.45-2.7-1.72-3.98-3.124-1.283-1.397-1.14-5.58-1.14-5.58l-1.245.143c-1.667.183-3.322.36-4.987.54-3.737.4-7.482.794-11.23 1.174-12.09 1.247-24.192 2.395-36.3 3.46-35.54 3.11-71.15 5.453-106.79 7.05-.85.04-4.586-.33-5.135.223"/><path fill="#FFF" d="M93.665 86.575l.422-3.59c-.762-.087-1.324-.26-1.688-.52s-.56-.61-.587-1.058c-.014-.248.018-.746.095-1.496l1.342-11.96c.093-.88.347-1.52.762-1.93s1.14-.66 2.175-.77l.404-3.59-13 .726-.42 3.59c1.41.028 2.136.438 2.18 1.228.025.46-.03 1.18-.165 2.156l-1.44 12.11c-.07.676-.32 1.195-.75 1.56-.43.36-1.157.59-2.18.694l-.42 3.59 13.264-.734zm30.047-1.665l.352-3.586c-.94-.102-1.61-.29-2.018-.562-.405-.273-.69-.695-.852-1.266l-5.146-18.913-7.392.41-8.663 17.53c-.67 1.363-1.176 2.3-1.52 2.817s-.703.87-1.076 1.062c-.374.193-.977.36-1.81.5l-.456 3.592 10.05-.557.404-3.59c-1 .057-1.654.02-1.956-.104-.303-.125-.465-.395-.488-.807-.023-.414.48-1.653 1.514-3.72l7.677-.427c.5 1.553.77 2.68.81 3.374.024.45-.19.783-.645 1.004-.456.22-1.26.36-2.418.426l-.402 3.59 14.042-.78zm-17.418-10.85l3.268-7.297.07-.004 1.772 7.012-5.11.283z"/></svg>