<?xml version="1.0" encoding="utf-8"?>
<!-- Generator: Adobe Illustrator 15.0.0, SVG Export Plug-In . SVG Version: 6.00 Build 0)  -->
<!DOCTYPE svg PUBLIC "-//W3C//DTD SVG 1.1//EN" "http://www.w3.org/Graphics/SVG/1.1/DTD/svg11.dtd">
<svg version="1.1" id="Layer_1" xmlns="http://www.w3.org/2000/svg" xmlns:xlink="http://www.w3.org/1999/xlink" x="0px" y="0px"
	 width="259px" height="168px" viewBox="0 0 259 168" enable-background="new 0 0 259 168" xml:space="preserve">
<g opacity="0.75">
	<defs>
		<rect id="SVGID_1_" opacity="0.75" width="259" height="168"/>
	</defs>
	<clipPath id="SVGID_2_">
		<use xlink:href="#SVGID_1_"  overflow="visible"/>
	</clipPath>
	<path clip-path="url(#SVGID_2_)" fill="#CBB082" class="statePath" d="M0.554,15.75c-2.082,2.083,2.334,4.884,2.834,6.088
		c0.189,0.456,0.034,0.984,0.064,1.472c0.02,0.495,0.038,0.989,0.055,1.477c0.026,0.49,0.277,1.028,0.071,1.474
		c-0.261,0.586-2.879,0.561-1.856,1.853c0.322,0.41,1.13,0.352,1.321,0.832c0.146,0.337-0.749,0.571-0.6,0.919
		c0.12,0.297,4.53,0.209,4.791,5.989c0.081,1.74-2.459,3.136-2.392,4.542c0.033,0.994,1.594,3.063,0.841,4.398
		c-0.487,0.837-2.47,3.288-2.402,4.532c0.006,0.364,0.752,0.5,0.685,0.854l-1.909,0.971c-0.462,0.68-1.531,5.56-1.054,6.25
		c0.515,0.736,4.761,2.565,4.713,3.346c-0.023,0.524-1.29,0.419-1.271,0.944c0.035,0.52,1.024,0.417,1.351,0.824
		c1.054,1.312,1.711,3.566,2.189,5.225c0,0,3.528,1.106,3.383,2.505c-0.157,1.451-1.409,3.968-1.066,5.364
		c0.403,1.625,2.975,2.677,3.471,4.276c0.487,1.521-1.224,3.765-0.413,5.334c0.716,1.361,2.696,2.046,3.45,3.387
		c0.564,0.986,0.206,2.558,0.828,3.505c0.868,1.344,3.428,1.915,4.114,3.354c0.581,1.212-0.232,3.136,0.223,4.417
		c0.632,1.839,3.104,3.258,3.559,5.143c0.52,2.231-0.528,4.396-1.031,6.252c-0.652,2.442,1.216,3.413,1.595,5.241
		c0.178,0.885-1.128,1.978-0.544,2.678c0.809,0.974,2.585-1.192,3.278-1.047c1.79,0.38-0.196,2.736,0.175,3.528
		c0.396,0.868,3.044,0.736,3.423,1.602c0.689,1.653-1.714,4.611-1.024,6.255c0.612,1.452,2.966-0.05,2.798,2.509
		c-0.064,1.072-2.338,2.469-1.767,4.525c0.558,2.103,2.582-0.237,3.382,0.706c0.365,0.449-1.25,5.318-1.027,6.256
		c0.828,3.356,2.978,5.66,3.187,9.572c0.13,2.627-1.727,5.736-1.615,8.047c0.094,1.595,3.489,3.109,4.418,6.85
		c40.252-1.076,80.278-4.08,120.33-8.314c10.713-1.143,21.297-2.542,31.931-4.36c3.059-0.512,10.394-1.849,10.437-1.786
		c2.263,3.516,4.339,5.865,7.862,8.063c1.93,1.209,2.121,2.476,4.431,3.377c0.393,0.158,1.191,0.466,1.191,0.466
		c6.45-0.69-0.931-8.646-0.359-9.737c1.25-2.433,9.796-5.378,10.162-6.438c1.003-3.033,0.834-6.176,1.695-9.083
		c0.792-2.654,4.075-4.912,4.557-7.629c1.61-9.206-11.977-9.49-6.005-23.35c0.788-1.815,11.653-2.334,13.709-3.351
		c1.666-0.815,2.597-3.113,4.203-4.051c2.254-1.31,6.866-1.821,8.163-4.542c1.171-2.438-0.297-6.341,0.92-9.021
		c0.699-1.543,2.828-2.446,3.518-3.998c0.927-2.099,1.673-7.693,1.432-9.982c-0.874-8.16-7.783-6.905-12.065-11.908
		c-1.61-1.89-0.806-4.425-3.158-5.864c-1.824-1.119-8.76-4.06-7.516-6.244c-1.616-13.794-15.104-4.729-18.364-11.263
		c-0.91-1.809-0.498-4.251-1.346-6.09c-0.436-0.951-1.742-1.495-2.23-2.431c-1.333-2.558-2.834-7.463-3.099-10.343
		c-0.287-3.052,3.594-6.513,2.881-9.237c-0.799-3.062-3.375-2.149-4.973-3.903c-1.6-1.754-1.418-6.981-1.418-6.981
		s-1.043,0.119-1.558,0.177c-2.085,0.229-4.154,0.449-6.236,0.673c-4.672,0.503-9.354,0.994-14.038,1.469
		c-15.111,1.56-30.242,2.996-45.373,4.328c-44.426,3.896-88.938,6.828-133.491,8.821C5.909,15.521,1.241,15.057,0.554,15.75"/>
</g>
</svg>
