<svg xmlns="http://www.w3.org/2000/svg" width="207.204" height="134.398" viewBox="0 0 207.204 134.398"><path opacity=".75" fill="#CBB082" d="M.443 12.6c-1.666 1.666 1.867 3.906 2.268 4.87.16.365.03.787.06 1.178.015.396.03.79.043 1.18.02.393.22.824.057 1.18-.21.47-2.304.45-1.486 1.482.26.328.905.282 1.058.666.117.27-.6.457-.48.735.096.24 3.624.17 3.833 4.8.064 1.39-1.97 2.51-1.915 3.633.026.795 1.275 2.45.673 3.52-.39.668-1.975 2.63-1.92 3.624.004.29.6.4.547.684l-1.527.778c-.37.545-1.225 4.45-.843 5 .412.59 3.81 2.053 3.77 2.678-.018.42-1.03.336-1.016.756.03.416.82.333 1.08.66.845 1.048 1.37 2.85 1.753 4.18 0 0 2.82.884 2.704 2.003-.123 1.16-1.125 3.175-.85 4.29.324 1.3 2.38 2.144 2.78 3.42.39 1.22-.98 3.015-.33 4.27.57 1.09 2.154 1.636 2.76 2.71.45.788.162 2.046.66 2.803.694 1.077 2.742 1.533 3.29 2.685.466.97-.185 2.51.18 3.535.505 1.47 2.482 2.607 2.847 4.115.415 1.784-.424 3.516-.826 5-.52 1.954.975 2.73 1.278 4.193.143.708-.9 1.58-.435 2.14.647.78 2.068-.95 2.623-.835 1.43.304-.16 2.188.14 2.82.316.696 2.434.59 2.737 1.284.55 1.324-1.37 3.69-.82 5.006.49 1.16 2.374-.04 2.24 2.008-.052.857-1.87 1.976-1.415 3.62.45 1.682 2.067-.19 2.707.564.29.36-1 4.255-.82 5.006.66 2.685 2.38 4.528 2.546 7.657.105 2.1-1.38 4.59-1.29 6.438.074 1.276 2.79 2.488 3.534 5.48 32.2-.86 64.22-3.264 96.263-6.65 8.57-.915 17.037-2.035 25.545-3.488 2.447-.41 8.314-1.48 8.35-1.43 1.81 2.81 3.47 4.69 6.29 6.45 1.543.965 1.696 1.98 3.544 2.7.316.126.955.372.955.372 5.16-.554-.744-6.918-.286-7.79 1-1.947 7.835-4.303 8.13-5.15.8-2.428.666-4.94 1.354-7.268.634-2.124 3.26-3.93 3.646-6.105 1.29-7.364-9.58-7.592-4.804-18.68.63-1.45 9.323-1.867 10.97-2.68 1.332-.652 2.076-2.49 3.36-3.242 1.804-1.046 5.494-1.455 6.53-3.632.938-1.95-.236-5.07.737-7.216.56-1.234 2.263-1.957 2.814-3.2.74-1.68 1.34-6.153 1.148-7.984-.7-6.527-6.228-5.523-9.653-9.525-1.287-1.51-.645-3.54-2.525-4.69-1.46-.894-7.01-3.247-6.014-4.994-1.293-11.034-12.083-3.782-14.69-9.01-.73-1.446-.4-3.4-1.077-4.87-.35-.76-1.396-1.196-1.786-1.945-1.065-2.046-2.266-5.97-2.48-8.274-.227-2.44 2.877-5.21 2.307-7.39-.64-2.45-2.7-1.72-3.98-3.123C166 4.2 166.14.017 166.14.017l-1.244.143c-1.667.183-3.322.36-4.987.54-3.738.4-7.483.794-11.23 1.174-12.09 1.245-24.193 2.393-36.3 3.46-35.54 3.11-71.15 5.45-106.79 7.05-.85.04-4.587-.33-5.136.22"/><path fill="#FFF" d="M93.665 86.575l.422-3.59c-.762-.087-1.324-.26-1.688-.52s-.56-.61-.59-1.058c-.014-.248.02-.746.095-1.496l1.342-11.96c.092-.88.346-1.52.76-1.93s1.14-.66 2.176-.77l.404-3.59-13 .73-.42 3.59c1.41.027 2.136.437 2.18 1.227.025.46-.03 1.18-.165 2.156l-1.44 12.11c-.07.677-.32 1.196-.75 1.56-.43.36-1.157.59-2.18.695l-.42 3.59 13.264-.734zm30.047-1.665l.352-3.586c-.94-.102-1.61-.29-2.018-.562-.405-.273-.69-.695-.852-1.266l-5.146-18.913-7.392.41-8.663 17.53c-.67 1.363-1.176 2.3-1.52 2.817s-.703.87-1.076 1.062c-.374.193-.977.36-1.81.5l-.456 3.592 10.05-.557.407-3.59c-1 .057-1.654.02-1.956-.104-.303-.125-.465-.395-.49-.807-.02-.414.48-1.653 1.516-3.72l7.677-.427c.5 1.55.77 2.68.81 3.37.024.45-.19.784-.645 1.005-.456.22-1.26.36-2.418.426l-.404 3.59 14.042-.78zm-17.418-10.85l3.268-7.297.07-.004 1.772 7.01-5.11.282z"/></svg>