<svg xmlns="http://www.w3.org/2000/svg" width="207.204" height="134.398" viewBox="0 0 207.204 134.398"><path opacity=".75" fill="#CBB082" d="M.443 12.6c-1.666 1.666 1.867 3.906 2.268 4.87.152.365.028.787.052 1.178.016.396.03.79.044 1.18.02.393.22.824.057 1.18-.21.47-2.303.45-1.485 1.482.258.328.904.282 1.057.666.117.27-.6.457-.48.735.096.24 3.624.168 3.833 4.793.065 1.392-1.967 2.51-1.914 3.633.026.795 1.275 2.45.673 3.52-.39.668-1.976 2.63-1.922 3.624.005.29.602.4.548.683l-1.527.777c-.37.544-1.225 4.448-.843 5 .412.59 3.81 2.052 3.77 2.677-.018.42-1.03.335-1.016.755.028.416.82.333 1.08.66.844 1.048 1.37 2.852 1.752 4.18 0 0 2.822.884 2.706 2.003-.125 1.16-1.127 3.174-.853 4.29.323 1.3 2.38 2.143 2.777 3.422.39 1.217-.98 3.012-.33 4.267.573 1.09 2.157 1.636 2.76 2.71.45.788.165 2.046.663 2.803.694 1.076 2.742 1.532 3.29 2.684.466.97-.185 2.51.18 3.534.505 1.472 2.482 2.607 2.847 4.115.416 1.784-.423 3.516-.825 5-.52 1.954.973 2.73 1.276 4.193.143.708-.902 1.582-.435 2.142.647.78 2.068-.953 2.623-.837 1.432.304-.157 2.188.14 2.822.317.694 2.435.59 2.738 1.282.55 1.322-1.37 3.688-.82 5.004.49 1.16 2.374-.04 2.24 2.007-.052.857-1.87 1.976-1.415 3.62.448 1.682 2.067-.19 2.707.564.292.36-1 4.254-.82 5.005.66 2.685 2.38 4.528 2.548 7.657.104 2.1-1.38 4.59-1.292 6.437.075 1.276 2.792 2.488 3.535 5.48 32.202-.86 64.222-3.264 96.264-6.65 8.57-.915 17.037-2.035 25.545-3.488 2.447-.41 8.314-1.48 8.35-1.43 1.81 2.81 3.47 4.69 6.29 6.45 1.543.967 1.696 1.98 3.544 2.7.315.128.954.374.954.374 5.16-.553-.745-6.917-.287-7.79 1-1.946 7.836-4.302 8.13-5.15.802-2.427.667-4.94 1.355-7.267.634-2.123 3.26-3.93 3.646-6.104 1.288-7.364-9.582-7.592-4.805-18.68.63-1.45 9.323-1.867 10.968-2.68 1.334-.652 2.078-2.49 3.363-3.242 1.803-1.046 5.493-1.455 6.53-3.632.937-1.95-.237-5.072.736-7.217.56-1.233 2.262-1.956 2.813-3.198.74-1.68 1.34-6.154 1.146-7.985-.7-6.528-6.228-5.524-9.653-9.526-1.287-1.51-.645-3.54-2.525-4.69-1.46-.895-7.01-3.248-6.014-4.995-1.293-11.035-12.083-3.783-14.69-9.01-.73-1.447-.4-3.4-1.077-4.872-.35-.76-1.393-1.196-1.783-1.945-1.066-2.046-2.267-5.97-2.48-8.274-.228-2.44 2.876-5.21 2.306-7.39-.64-2.45-2.7-1.72-3.98-3.123-1.283-1.398-1.14-5.58-1.14-5.58l-1.245.142c-1.668.183-3.323.36-4.988.54-3.738.4-7.483.794-11.23 1.174-12.09 1.248-24.193 2.396-36.3 3.462C76.83 8.435 41.22 10.78 5.58 12.375c-.85.04-4.586-.33-5.135.224"/><path fill="#FFF" d="M93.665 86.575l.422-3.59c-.762-.087-1.324-.26-1.688-.52s-.558-.61-.583-1.058c-.014-.248.018-.746.095-1.496l1.342-11.96c.093-.88.347-1.525.762-1.932s1.14-.663 2.175-.768l.405-3.59-13 .722-.42 3.59c1.408.028 2.135.438 2.18 1.228.024.46-.03 1.178-.166 2.155l-1.44 12.11c-.07.677-.32 1.196-.75 1.56-.428.36-1.155.592-2.177.695l-.422 3.59 13.265-.735zM123.712 84.91l.352-3.586c-.94-.102-1.61-.29-2.018-.562-.405-.273-.69-.695-.852-1.266l-5.146-18.913-7.392.41-8.663 17.53c-.67 1.363-1.176 2.3-1.52 2.817s-.703.87-1.076 1.062c-.374.193-.977.36-1.81.5l-.456 3.592 10.046-.557.404-3.59c-1.002.057-1.655.02-1.957-.104-.303-.125-.465-.395-.488-.807-.022-.414.48-1.653 1.515-3.72l7.676-.427c.5 1.557.77 2.683.81 3.378.022.45-.192.783-.647 1.004-.456.22-1.26.36-2.418.426l-.402 3.59 14.042-.78zm-17.418-10.85l3.268-7.297.07-.004 1.772 7.016-5.11.283z"/></svg>