<svg xmlns="http://www.w3.org/2000/svg" width="140.002" height="235.999" viewBox="0 0 140.002 235.999"><path opacity=".75" fill="#fec154" d="M139.416 152.058c-.346-.89-1.314-1.685-1.545-2.598-.09-.39 0-.793 0-1.182.01-.402.01-.79.01-1.184 0-.396.13-.816 0-1.187-.84-2.252-4.18-4.23-5.51-6.25-1.28-1.956 2.03-2.46 2.208-3.888.17-1.2-2.393-2.69-2.294-3.9.104-1.33 2.66-1.69 2.963-2.59.744-2.2-1.995-13.09-2.45-16.01-4.21-27.55-8.43-55.098-12.65-82.645l.026-.074c-4.572-2.733-4.34-9.555-7.173-13.8-.518-.77-1.766-.78-2.455-1.312-1.66-1.266-3.626-5.36-3.995-7.333-.47-2.5.066-4.79-.19-7.345-.03-.252-.092-.514-.126-.768h-.017c-29.613 4-59.278 7.712-88.95 11.148-1.005 1.733 4.586 4.07 6.057 4.964 1.895 1.146 1.248 3.163 2.547 4.665 3.45 3.98 9.02 2.98 9.72 9.47.198 1.82-.4 6.27-1.15 7.936-.554 1.233-2.27 1.95-2.834 3.183-.984 2.13.2 5.23-.744 7.175-1.045 2.163-4.76 2.568-6.58 3.61-1.294.746-2.043 2.574-3.386 3.224-1.656.805-10.416 1.22-11.05 2.662C5.024 69.05 15.976 69.28 14.68 76.6c-.39 2.163-3.04 3.956-3.674 6.07-.693 2.31-.558 4.812-1.366 7.222-.295.842-7.186 3.182-8.192 5.12-.46.87 5.49 7.192.287 7.74 0 0-.806.44-1.006.813-1.07 1.94-.67 5.02-.62 7.123.09 2.854.39 5.682 1.724 8.292.45.892 1.65 1.687 1.94 2.62.27.852-.507 2.01-.24 2.855.3.955 1.516 1.706 1.943 2.615.472.992.31 2.527.926 3.436 2.106 3.074 7.347 4.646 10.2 6.656 1.09.77 1.55 2.4 2.585 3.247 3.12 2.53 8.604 3.29 10.35 7.31.647 1.473.407 3.37 1.125 4.81.26.53 1.087.7 1.278 1.27.706 2.173-.49 7.23 3.84 8.72 2.494.87 3.834-3.14 5.685-4.19.96-.54 9.79 3.28 10.69 4.365 1.2 1.455-1.544 3.76-1.63 5.135-.06 1.114 1.06 2.298 1 3.414-.308 5.086-7.97 12.113-4.1 17.42 1.15 1.578 3.524 3.965 5.175 5.02.84.533 2.204.44 2.986 1.048.63.492.78 1.427 1.385 1.944 1.25 1.094 5.21 1.12 5.98 2.086.744.932-1.08 1.754.353 2.777 1.918 1.376 1.786-1.19 3.29-1.11.61.02.795.942 1.313 1.24.85.505 2.227.44 3 1.03 1.21.934 1.56 3 2.807 3.877 1.143.815 3.847.475 4.785 1.495.954 1.06.166 4.22.74 5.546.8 1.905 3.463 3.165 4.138 5.107 1.047 2.992-2.437 3.393-2.004 6.605l1.797.47.28 2.074c.664 1.472 2.73 2.316 3.4 3.79.293.637-.14 1.51.28 2.07.215.305 3.36 1.706 3.7 1.625 1.96-.5-2.81-2.38-1.04-3.39 1.647-.93 2.594 3.25 3.987 3.705 1.358.45 1.72-.835 2.96.31 0 0-.45-.403-.67-.612-1.262-1.16-1.384-1.62-1.615-3.305-.05-.384 3.75-6.627 4.26-6.93 4.97-2.854 13.62 4.476 19.11 3.696.342-.05.29-.636.438-.94 3.14-6.723-5.645-5.154-2.366-12.197.78-1.675 2.543-.485 3.867-1.27.008 0 .928-1.538.928-1.538 1.93-1.608 4.966-1.417 7.145-2.458.403-.19.956-.42 1.025-.86.51-2.998-3.783-3.38-3.76-5.81.027-2.385 2.65-5.32 3.466-7.575 0 0-3.145-2.21-2.435-3.41l1.807-.74c.01-.017-1.52-6.05-1.51-6.146.117-.684 1.588-.52 1.727-1.2.438-2.16-1.668.68-.716-1.604.34-.82 1.88-1.136 2.274-1.937.097-.21.047-.51-.11-.687-1.707-2.057-2.548-1.75-1.297-4.768.826-2 .69.34 1.675-.25.44-.26-.15-1.39.338-1.466.313-.047.453.404.675.604.22.206.42.782.67.61.34-.238.13-.808.194-1.207.358-2.25 1.068-1.85 1.95-3.37.457-.786-.14-2.11.124-2.857.53-1.49 2.45-1.81 3.01-2.58.29-.396-1.11-2.18-.983-2.688.162-.707 1.242-.94 1.447-1.636l-.325-2.075c.81-1.93 4.29-1.707 2.34-6.742"/><path fill="#FFF" d="M61.168 113.465l.442-3.76c-.798-.093-1.388-.274-1.768-.545-.38-.27-.584-.64-.61-1.11-.014-.258.018-.782.1-1.566l1.405-12.533c.098-.92.363-1.59.798-2.02.435-.42 1.195-.69 2.28-.8l.422-3.76-13.617.756-.442 3.76c1.477.03 2.238.46 2.283 1.287.03.48-.03 1.234-.17 2.26l-1.51 12.687c-.07.71-.33 1.253-.78 1.63-.45.378-1.21.62-2.28.73l-.44 3.76 13.896-.77zm25.107-1.39l3.703-9.65-3.332-1.413c-.597 1.297-1.23 2.388-1.9 3.274-.67.886-1.396 1.627-2.182 2.222-.784.594-1.61 1.043-2.48 1.346s-1.767.48-2.693.53c-.64.035-1.1-.02-1.38-.165-.28-.15-.43-.4-.45-.74-.02-.34.01-.78.08-1.33l1.63-13.12c.12-.95.395-1.63.818-2.044.422-.414 1.176-.676 2.26-.786l.443-3.76-13.62.755-.443 3.76c1.476.03 2.237.46 2.283 1.286.03.546-.037 1.3-.19 2.26l-1.49 12.69c-.078.695-.34 1.24-.79 1.62-.45.385-1.21.63-2.28.74l-.442 3.76 22.457-1.243z"/></svg>