<svg xmlns="http://www.w3.org/2000/svg" width="140.002" height="235.999" viewBox="0 0 140.002 235.999"><path opacity=".75" fill="#E2BE7D" d="M139.416 152.058c-.346-.89-1.314-1.685-1.545-2.598-.096-.39 0-.793 0-1.182.01-.402.01-.79.01-1.184 0-.396.13-.816 0-1.187-.84-2.252-4.187-4.23-5.515-6.25-1.284-1.956 2.026-2.46 2.205-3.888.168-1.198-2.394-2.69-2.295-3.9.104-1.326 2.66-1.687 2.963-2.59.744-2.194-1.995-13.084-2.45-16.003-4.21-27.548-8.43-55.097-12.648-82.644l.024-.074c-4.572-2.734-4.34-9.556-7.173-13.8-.517-.77-1.765-.78-2.454-1.313-1.662-1.266-3.627-5.36-3.996-7.333-.47-2.5.066-4.79-.19-7.347-.03-.252-.092-.514-.126-.768h-.017C76.597 3.994 46.933 7.705 17.26 11.142c-1.005 1.733 4.586 4.07 6.057 4.964 1.895 1.146 1.248 3.163 2.547 4.665 3.45 3.978 9.02 2.98 9.72 9.47.197 1.816-.4 6.268-1.15 7.934-.555 1.233-2.27 1.95-2.835 3.183-.982 2.128.2 5.23-.742 7.173-1.046 2.162-4.762 2.567-6.58 3.61-1.295.745-2.044 2.573-3.387 3.223-1.656.807-10.416 1.22-11.05 2.664-4.814 11.02 6.138 11.247 4.84 18.567-.387 2.163-3.038 3.956-3.672 6.07-.693 2.31-.558 4.812-1.366 7.222-.296.843-7.187 3.183-8.193 5.12-.46.87 5.49 7.193.288 7.742 0 0-.806.44-1.006.813-1.065 1.94-.668 5.02-.616 7.123.09 2.854.392 5.682 1.726 8.292.45.892 1.648 1.687 1.94 2.62.268.852-.507 2.01-.24 2.855.298.955 1.516 1.706 1.943 2.615.472.992.31 2.527.926 3.436 2.107 3.074 7.348 4.646 10.2 6.656 1.09.772 1.552 2.402 2.586 3.248 3.118 2.533 8.604 3.294 10.35 7.31.647 1.478.407 3.372 1.125 4.812.26.532 1.085.703 1.276 1.272.705 2.177-.49 7.23 3.84 8.72 2.493.872 3.833-3.14 5.684-4.187.96-.54 9.788 3.28 10.69 4.366 1.2 1.457-1.543 3.762-1.63 5.137-.06 1.113 1.06 2.297.998 3.413-.305 5.087-7.97 12.114-4.1 17.422 1.152 1.577 3.527 3.964 5.178 5.02.84.532 2.206.438 2.988 1.047.63.493.78 1.428 1.385 1.945 1.25 1.095 5.21 1.12 5.977 2.087.745.932-1.08 1.754.354 2.777 1.916 1.377 1.784-1.188 3.288-1.112.61.02.795.943 1.313 1.242.85.504 2.227.438 3 1.03 1.208.933 1.56 3 2.807 3.876 1.144.818 3.848.478 4.786 1.498.955 1.06.167 4.22.742 5.545.8 1.905 3.463 3.165 4.138 5.107 1.046 2.993-2.438 3.394-2.005 6.606l1.798.47.28 2.075c.664 1.473 2.728 2.317 3.4 3.79.293.638-.14 1.51.28 2.07.215.306 3.358 1.707 3.7 1.626 1.96-.502-2.81-2.38-1.04-3.39 1.647-.93 2.594 3.25 3.987 3.704 1.356.447 1.72-.837 2.96.31 0 0-.45-.405-.67-.614-1.264-1.16-1.386-1.62-1.617-3.307-.05-.383 3.75-6.626 4.26-6.928 4.97-2.855 13.62 4.475 19.11 3.695.342-.05.29-.636.438-.94 3.14-6.723-5.646-5.154-2.367-12.197.78-1.674 2.543-.484 3.867-1.27.006 0 .926-1.537.926-1.537 1.93-1.606 4.967-1.415 7.146-2.456.404-.187.957-.42 1.026-.858.51-2.998-3.784-3.382-3.76-5.812.026-2.384 2.648-5.318 3.465-7.574 0 0-3.144-2.21-2.434-3.413l1.806-.74c.008-.016-1.522-6.048-1.51-6.145.115-.683 1.586-.52 1.725-1.2.438-2.157-1.668.68-.716-1.603.342-.82 1.882-1.133 2.275-1.934.096-.212.046-.512-.112-.687-1.707-2.057-2.548-1.75-1.297-4.768.826-2 .69.34 1.675-.25.438-.26-.152-1.39.336-1.465.314-.047.454.404.676.604.22.208.42.784.67.61.34-.236.13-.806.192-1.205.358-2.25 1.068-1.85 1.95-3.368.457-.787-.14-2.11.124-2.858.532-1.49 2.45-1.81 3.01-2.58.293-.395-1.11-2.18-.982-2.687.162-.706 1.242-.94 1.447-1.635l-.327-2.077c.81-1.928 4.29-1.707 2.34-6.742"/><path fill="#FFF" d="M61.168 113.465l.442-3.76c-.798-.093-1.388-.274-1.768-.545-.38-.27-.584-.64-.61-1.11-.014-.258.018-.782.1-1.566l1.405-12.533c.098-.92.363-1.596.798-2.023.435-.426 1.195-.695 2.28-.804l.422-3.76-13.617.755-.442 3.76c1.477.03 2.238.46 2.283 1.287.028.48-.03 1.234-.17 2.26l-1.51 12.687c-.07.71-.333 1.254-.782 1.632-.45.378-1.21.622-2.283.73l-.442 3.76 13.895-.77zM86.275 112.074l3.703-9.65-3.332-1.412c-.597 1.297-1.23 2.388-1.9 3.274-.67.886-1.396 1.627-2.182 2.222-.784.594-1.61 1.043-2.48 1.346s-1.767.48-2.693.53c-.642.035-1.103-.02-1.383-.165-.28-.147-.43-.392-.45-.738-.02-.333.007-.775.076-1.324l1.633-13.122c.12-.948.393-1.63.816-2.043.422-.414 1.176-.676 2.26-.786l.443-3.76-13.62.754-.442 3.762c1.476.03 2.237.458 2.283 1.286.03.544-.033 1.297-.19 2.26l-1.49 12.687c-.074.697-.335 1.238-.785 1.623-.45.384-1.21.63-2.28.74l-.443 3.76 22.458-1.244z"/></svg>