<svg xmlns="http://www.w3.org/2000/svg" width="140.002" height="235.999" viewBox="0 0 140.002 235.999"><path opacity=".75" fill="#E2BE7D" d="M139.416 152.058c-.346-.89-1.314-1.685-1.545-2.598-.093-.39 0-.793 0-1.182.01-.402.01-.79.01-1.184 0-.396.13-.816 0-1.187-.84-2.252-4.184-4.23-5.512-6.25-1.284-1.956 2.026-2.46 2.205-3.888.17-1.2-2.393-2.69-2.294-3.9.103-1.33 2.66-1.69 2.962-2.59.744-2.197-1.995-13.087-2.45-16.006-4.21-27.548-8.43-55.097-12.65-82.644l.026-.073c-4.572-2.734-4.34-9.556-7.173-13.8-.517-.77-1.765-.78-2.454-1.313-1.662-1.266-3.627-5.36-3.996-7.333-.47-2.5.066-4.79-.19-7.345-.03-.252-.092-.514-.126-.768h-.017c-29.613 3.998-59.277 7.71-88.95 11.146-1.004 1.733 4.587 4.07 6.058 4.964 1.895 1.146 1.248 3.163 2.547 4.665 3.45 3.98 9.02 2.98 9.72 9.47.197 1.818-.4 6.27-1.15 7.936-.555 1.233-2.27 1.95-2.835 3.183-.984 2.128.2 5.23-.744 7.173-1.046 2.163-4.762 2.568-6.58 3.61-1.295.746-2.044 2.574-3.387 3.224-1.658.807-10.418 1.22-11.05 2.664C5.023 69.05 15.975 69.28 14.68 76.6c-.39 2.163-3.04 3.956-3.674 6.07-.693 2.31-.558 4.812-1.366 7.222-.295.842-7.186 3.182-8.192 5.12-.46.87 5.49 7.192.287 7.74 0 0-.806.44-1.006.813-1.066 1.94-.67 5.02-.617 7.123.09 2.854.392 5.682 1.726 8.292.45.892 1.65 1.687 1.94 2.62.27.852-.507 2.01-.24 2.855.3.955 1.516 1.706 1.943 2.615.472.992.31 2.527.926 3.436 2.106 3.074 7.347 4.646 10.2 6.656 1.09.77 1.55 2.4 2.585 3.247 3.118 2.533 8.604 3.294 10.35 7.31.647 1.478.407 3.372 1.125 4.812.26.53 1.087.7 1.278 1.27.705 2.176-.49 7.23 3.84 8.72 2.493.87 3.833-3.14 5.684-4.188.96-.54 9.79 3.28 10.69 4.366 1.2 1.456-1.542 3.76-1.63 5.136-.06 1.113 1.06 2.297 1 3.413-.306 5.086-7.97 12.113-4.1 17.42 1.15 1.578 3.526 3.965 5.177 5.02.84.533 2.204.44 2.986 1.048.63.492.78 1.427 1.385 1.944 1.25 1.094 5.21 1.12 5.978 2.086.744.932-1.08 1.754.353 2.777 1.918 1.377 1.786-1.188 3.29-1.112.61.02.795.944 1.313 1.243.85.504 2.227.438 3 1.03 1.208.933 1.56 3 2.807 3.876 1.143.817 3.847.477 4.785 1.497.955 1.06.167 4.22.742 5.546.8 1.905 3.462 3.165 4.137 5.107 1.046 2.993-2.438 3.394-2.005 6.606l1.797.47.28 2.074c.664 1.473 2.728 2.317 3.4 3.79.293.638-.14 1.51.28 2.07.215.306 3.358 1.707 3.7 1.626 1.96-.5-2.81-2.38-1.04-3.39 1.647-.93 2.594 3.25 3.987 3.705 1.356.448 1.72-.836 2.96.31 0 0-.45-.404-.67-.613-1.264-1.16-1.386-1.62-1.617-3.305-.05-.383 3.75-6.626 4.26-6.928 4.97-2.855 13.62 4.475 19.11 3.695.342-.05.29-.636.438-.94 3.14-6.723-5.646-5.154-2.367-12.197.78-1.674 2.543-.484 3.867-1.27.006 0 .926-1.537.926-1.537 1.93-1.607 4.968-1.416 7.147-2.457.403-.187.956-.42 1.025-.858.51-2.998-3.784-3.382-3.76-5.812.026-2.383 2.648-5.317 3.465-7.573 0 0-3.145-2.21-2.435-3.412l1.806-.74c.01-.016-1.52-6.048-1.51-6.145.117-.684 1.588-.52 1.727-1.2.438-2.158-1.668.68-.716-1.604.342-.82 1.882-1.134 2.275-1.935.096-.21.046-.51-.112-.686-1.707-2.057-2.548-1.75-1.297-4.768.826-2 .69.34 1.675-.25.44-.26-.15-1.39.338-1.465.313-.046.453.405.675.605.22.207.42.783.67.61.34-.237.13-.807.192-1.206.358-2.25 1.068-1.85 1.95-3.368.457-.787-.14-2.11.124-2.858.53-1.49 2.45-1.81 3.01-2.58.292-.396-1.11-2.18-.983-2.688.162-.706 1.242-.94 1.447-1.635l-.327-2.076c.81-1.928 4.29-1.707 2.34-6.742"/><path fill="#FFF" d="M61.168 113.465l.442-3.76c-.798-.093-1.388-.274-1.768-.545-.38-.27-.584-.64-.61-1.11-.014-.258.018-.782.1-1.566l1.405-12.533c.098-.92.363-1.593.798-2.02.435-.426 1.195-.695 2.28-.804l.422-3.76-13.617.755-.442 3.76c1.477.03 2.238.46 2.283 1.287.03.48-.03 1.234-.17 2.26l-1.51 12.687c-.07.71-.33 1.254-.78 1.632-.45.378-1.21.622-2.282.73l-.442 3.76 13.895-.77zm25.107-1.39l3.703-9.65-3.332-1.413c-.597 1.297-1.23 2.388-1.9 3.274-.67.886-1.396 1.627-2.182 2.222-.784.594-1.61 1.043-2.48 1.346s-1.767.48-2.693.53c-.64.035-1.1-.02-1.38-.165-.28-.15-.43-.395-.45-.74-.02-.334.007-.776.076-1.325l1.633-13.122c.12-.948.392-1.63.815-2.043.422-.413 1.176-.675 2.26-.785l.443-3.76-13.62.754-.442 3.76c1.476.03 2.237.46 2.283 1.286.03.544-.034 1.297-.19 2.26l-1.49 12.687c-.075.697-.336 1.238-.786 1.623-.45.384-1.21.63-2.28.74l-.443 3.76 22.458-1.244z"/></svg>