<?xml version="1.0" encoding="utf-8"?>
<!-- Generator: Adobe Illustrator 15.0.2, SVG Export Plug-In . SVG Version: 6.00 Build 0)  -->
<!DOCTYPE svg PUBLIC "-//W3C//DTD SVG 1.1//EN" "http://www.w3.org/Graphics/SVG/1.1/DTD/svg11.dtd">
<svg version="1.1" id="Layer_1" xmlns="http://www.w3.org/2000/svg" xmlns:xlink="http://www.w3.org/1999/xlink" x="0px" y="0px"
	 width="175.001px" height="295px" viewBox="0 0 175.001 295" enable-background="new 0 0 175.001 295" xml:space="preserve">
<path opacity="0.75" fill="#E2BE7D" d="M174.27,190.072c-0.433-1.111-1.643-2.105-1.932-3.248c-0.12-0.484,0-0.99,0-1.477
	c0.013-0.502,0.013-0.987,0.013-1.479c0-0.496,0.16-1.021,0-1.484c-1.05-2.814-5.234-5.289-6.895-7.812
	c-1.605-2.444,2.533-3.075,2.756-4.86c0.21-1.496-2.991-3.358-2.868-4.875c0.129-1.656,3.324-2.106,3.703-3.235
	c0.931-2.743-2.493-16.356-3.062-20.005c-5.264-34.435-10.538-68.871-15.812-103.305l0.03-0.092
	c-5.715-3.416-5.426-11.944-8.966-17.25c-0.646-0.961-2.207-0.975-3.068-1.639c-2.078-1.583-4.534-6.7-4.996-9.167
	c-0.586-3.125,0.083-5.988-0.239-9.184c-0.036-0.315-0.112-0.642-0.155-0.96h-0.021C95.745,4.993,58.666,9.632,21.576,13.928
	c-1.257,2.167,5.732,5.089,7.57,6.205c2.369,1.433,1.56,3.953,3.184,5.831c4.312,4.973,11.273,3.726,12.151,11.837
	c0.245,2.271-0.503,7.836-1.438,9.918c-0.695,1.542-2.84,2.439-3.545,3.979c-1.227,2.661,0.252,6.54-0.926,8.968
	c-1.308,2.702-5.953,3.209-8.224,4.514c-1.62,0.93-2.557,3.215-4.235,4.027c-2.072,1.009-13.021,1.525-13.814,3.33
	c-6.018,13.777,7.673,14.059,6.051,23.209c-0.484,2.703-3.797,4.945-4.59,7.586c-0.867,2.887-0.697,6.016-1.708,9.029
	c-0.37,1.055-8.983,3.979-10.241,6.399c-0.574,1.087,6.863,8.993,0.361,9.679c0,0-1.008,0.549-1.258,1.017
	c-1.332,2.427-0.835,6.274-0.77,8.903c0.111,3.568,0.49,7.102,2.157,10.365c0.562,1.115,2.06,2.109,2.427,3.277
	c0.334,1.063-0.635,2.51-0.303,3.565c0.374,1.194,1.896,2.133,2.43,3.269c0.59,1.24,0.389,3.16,1.158,4.295
	c2.632,3.844,9.184,5.809,12.75,8.322c1.363,0.965,1.939,3.002,3.232,4.059c3.897,3.166,10.754,4.117,12.939,9.139
	c0.807,1.846,0.507,4.214,1.404,6.012c0.324,0.666,1.356,0.879,1.594,1.592c0.881,2.721-0.613,9.037,4.801,10.899
	c3.115,1.09,4.789-3.924,7.104-5.233c1.199-0.676,12.234,4.1,13.361,5.457c1.5,1.821-1.928,4.703-2.037,6.422
	c-0.074,1.392,1.325,2.871,1.247,4.267c-0.381,6.358-9.963,15.144-5.123,21.776c1.439,1.973,4.408,4.955,6.471,6.273
	c1.052,0.667,2.758,0.549,3.735,1.311c0.789,0.617,0.976,1.785,1.731,2.432c1.565,1.368,6.513,1.4,7.472,2.607
	c0.931,1.166-1.348,2.192,0.443,3.473c2.393,1.72,2.229-1.486,4.109-1.393c0.764,0.026,0.994,1.18,1.641,1.553
	c1.063,0.631,2.782,0.549,3.749,1.287c1.511,1.168,1.948,3.75,3.508,4.847c1.43,1.022,4.811,0.597,5.983,1.873
	c1.193,1.321,0.209,5.276,0.928,6.93c1,2.384,4.328,3.958,5.172,6.386c1.308,3.741-3.048,4.244-2.506,8.26l2.247,0.588l0.35,2.592
	c0.83,1.841,3.41,2.896,4.252,4.738c0.365,0.798-0.174,1.887,0.35,2.589c0.27,0.381,4.198,2.133,4.627,2.03
	c2.45-0.627-3.514-2.973-1.3-4.235c2.058-1.161,3.241,4.06,4.983,4.63c1.694,0.559,2.149-1.047,3.698,0.389
	c0,0-0.562-0.51-0.837-0.77c-1.579-1.45-1.731-2.023-2.021-4.135c-0.063-0.479,4.688-8.281,5.325-8.658
	c6.213-3.566,17.022,5.594,23.889,4.619c0.426-0.061,0.362-0.795,0.545-1.174c3.923-8.403-7.058-6.444-2.959-15.248
	c0.975-2.092,3.179-0.604,4.834-1.586c0.007,0,1.157-1.922,1.157-1.922c2.413-2.01,6.209-1.77,8.932-3.072
	c0.506-0.232,1.197-0.524,1.283-1.072c0.639-3.747-4.73-4.227-4.7-7.266c0.033-2.979,3.312-6.646,4.331-9.467
	c0,0-3.929-2.763-3.041-4.266l2.257-0.925c0.01-0.021-1.9-7.562-1.885-7.683c0.143-0.854,1.98-0.648,2.154-1.5
	c0.548-2.697-2.085,0.852-0.896-2.004c0.429-1.023,2.354-1.414,2.846-2.416c0.12-0.266,0.058-0.64-0.14-0.859
	c-2.134-2.568-3.185-2.186-1.622-5.959c1.033-2.5,0.864,0.428,2.094-0.312c0.546-0.325-0.191-1.735,0.419-1.831
	c0.394-0.059,0.568,0.506,0.846,0.756c0.274,0.258,0.524,0.978,0.838,0.76c0.425-0.295,0.163-1.006,0.239-1.506
	c0.447-2.812,1.336-2.313,2.437-4.209c0.572-0.984-0.173-2.639,0.156-3.574c0.665-1.862,3.062-2.26,3.763-3.221
	c0.366-0.496-1.389-2.729-1.229-3.361c0.203-0.883,1.553-1.174,1.809-2.043l-0.409-2.596
	C172.358,196.089,176.707,196.366,174.27,190.072"/>
</svg>
