<?xml version="1.0" encoding="utf-8"?>
<!-- Generator: Adobe Illustrator 15.0.0, SVG Export Plug-In . SVG Version: 6.00 Build 0)  -->
<!DOCTYPE svg PUBLIC "-//W3C//DTD SVG 1.1//EN" "http://www.w3.org/Graphics/SVG/1.1/DTD/svg11.dtd">
<svg version="1.1" id="Layer_1" xmlns="http://www.w3.org/2000/svg" xmlns:xlink="http://www.w3.org/1999/xlink" x="0px" y="0px"
	 width="140.002px" height="235.999px" viewBox="0 0 140.002 235.999" enable-background="new 0 0 140.002 235.999"
	 xml:space="preserve">
<g id="illinois">
	<path id="IL" opacity="0.75" fill="#E2BE7D" d="M139.416,152.058c-0.346-0.89-1.314-1.685-1.545-2.598
		c-0.097-0.389,0-0.793,0-1.182c0.01-0.402,0.01-0.79,0.01-1.184c0-0.396,0.128-0.816,0-1.187c-0.84-2.252-4.188-4.231-5.516-6.249
		c-1.284-1.957,2.026-2.461,2.205-3.889c0.168-1.197-2.394-2.688-2.295-3.9c0.104-1.325,2.659-1.686,2.963-2.588
		c0.744-2.195-1.995-13.085-2.45-16.004c-4.21-27.548-8.43-55.097-12.648-82.644l0.024-0.074c-4.572-2.733-4.341-9.555-7.173-13.8
		c-0.518-0.769-1.766-0.78-2.455-1.312c-1.662-1.266-3.627-5.36-3.996-7.333c-0.47-2.5,0.066-4.791-0.191-7.347
		c-0.03-0.252-0.091-0.514-0.125-0.768h-0.017C76.596,3.995,46.933,7.706,17.261,11.143c-1.006,1.733,4.585,4.071,6.056,4.964
		c1.895,1.146,1.248,3.163,2.547,4.665c3.45,3.978,9.019,2.98,9.721,9.469c0.196,1.817-0.402,6.269-1.15,7.935
		c-0.556,1.233-2.272,1.951-2.836,3.183c-0.981,2.129,0.202,5.232-0.741,7.174c-1.046,2.162-4.762,2.567-6.579,3.611
		c-1.296,0.744-2.045,2.572-3.388,3.222c-1.657,0.807-10.417,1.22-11.051,2.664c-4.814,11.021,6.138,11.247,4.84,18.567
		c-0.387,2.163-3.038,3.956-3.672,6.069c-0.693,2.31-0.558,4.813-1.366,7.223c-0.296,0.844-7.187,3.184-8.193,5.12
		c-0.459,0.87,5.49,7.194,0.289,7.743c0,0-0.806,0.439-1.006,0.813c-1.065,1.941-0.668,5.019-0.616,7.123
		c0.089,2.854,0.392,5.682,1.726,8.292c0.45,0.892,1.648,1.687,1.941,2.621c0.267,0.851-0.508,2.008-0.242,2.854
		c0.299,0.955,1.517,1.706,1.944,2.615c0.472,0.992,0.311,2.527,0.926,3.436c2.106,3.074,7.347,4.646,10.2,6.656
		c1.09,0.772,1.551,2.402,2.585,3.248c3.118,2.533,8.604,3.294,10.351,7.311c0.646,1.477,0.406,3.371,1.124,4.811
		c0.259,0.532,1.084,0.703,1.275,1.272c0.705,2.177-0.49,7.229,3.841,8.72c2.492,0.872,3.832-3.139,5.683-4.187
		c0.959-0.54,9.788,3.279,10.689,4.366c1.2,1.457-1.542,3.762-1.629,5.137c-0.06,1.113,1.06,2.297,0.998,3.413
		c-0.305,5.087-7.97,12.114-4.099,17.422c1.151,1.577,3.526,3.964,5.177,5.019c0.841,0.533,2.206,0.439,2.988,1.048
		c0.631,0.493,0.781,1.428,1.385,1.945c1.252,1.095,5.21,1.121,5.978,2.087c0.745,0.932-1.079,1.754,0.354,2.777
		c1.915,1.376,1.783-1.189,3.287-1.113c0.611,0.021,0.795,0.943,1.313,1.242c0.85,0.504,2.226,0.438,2.999,1.029
		c1.208,0.934,1.559,3,2.807,3.877c1.144,0.818,3.848,0.478,4.786,1.498c0.955,1.059,0.167,4.221,0.742,5.545
		c0.801,1.906,3.463,3.166,4.138,5.108c1.046,2.993-2.438,3.394-2.005,6.606l1.798,0.471l0.279,2.074
		c0.665,1.473,2.729,2.317,3.401,3.79c0.293,0.638-0.139,1.51,0.28,2.071c0.215,0.305,3.358,1.706,3.701,1.625
		c1.96-0.502-2.811-2.379-1.04-3.389c1.646-0.93,2.593,3.248,3.986,3.703c1.356,0.447,1.721-0.837,2.96,0.311
		c0,0-0.45-0.406-0.67-0.615c-1.264-1.16-1.386-1.619-1.617-3.307c-0.05-0.383,3.751-6.626,4.261-6.928
		c4.97-2.854,13.618,4.476,19.11,3.696c0.341-0.05,0.29-0.636,0.437-0.94c3.139-6.723-5.646-5.154-2.367-12.197
		c0.78-1.674,2.543-0.484,3.867-1.269c0.006,0,0.926-1.538,0.926-1.538c1.93-1.607,4.967-1.416,7.146-2.457
		c0.404-0.187,0.957-0.42,1.026-0.858c0.511-2.998-3.784-3.382-3.76-5.812c0.026-2.384,2.648-5.318,3.465-7.574
		c0,0-3.144-2.211-2.434-3.413l1.806-0.739c0.009-0.017-1.521-6.049-1.508-6.146c0.114-0.683,1.585-0.52,1.724-1.199
		c0.438-2.158-1.668,0.68-0.716-1.604c0.343-0.818,1.883-1.132,2.276-1.933c0.096-0.212,0.046-0.512-0.112-0.687
		c-1.707-2.056-2.548-1.749-1.297-4.767c0.826-2,0.69,0.341,1.675-0.25c0.437-0.26-0.153-1.389,0.335-1.465
		c0.314-0.047,0.454,0.404,0.676,0.604c0.221,0.207,0.42,0.783,0.671,0.609c0.34-0.236,0.13-0.806,0.191-1.205
		c0.358-2.25,1.068-1.851,1.949-3.368c0.458-0.787-0.139-2.11,0.125-2.858c0.532-1.49,2.449-1.809,3.011-2.578
		c0.292-0.396-1.111-2.182-0.983-2.688c0.162-0.706,1.242-0.939,1.447-1.635l-0.327-2.077
		C137.887,156.872,141.366,157.093,139.416,152.058"/>
	<path fill="#FFFFFF" d="M61.168,113.465l0.442-3.761c-0.798-0.092-1.388-0.273-1.768-0.544c-0.381-0.269-0.584-0.639-0.61-1.109
		c-0.014-0.259,0.018-0.783,0.099-1.567l1.406-12.533c0.098-0.922,0.363-1.597,0.798-2.024c0.435-0.426,1.195-0.695,2.279-0.804
		l0.423-3.761L50.62,88.118l-0.442,3.761c1.477,0.029,2.238,0.458,2.283,1.286c0.027,0.481-0.031,1.234-0.172,2.259l-1.509,12.688
		c-0.071,0.71-0.333,1.254-0.782,1.632c-0.451,0.378-1.211,0.622-2.283,0.73l-0.442,3.761L61.168,113.465z"/>
	<path fill="#FFFFFF" d="M86.275,112.074l3.703-9.649l-3.332-1.413c-0.597,1.297-1.23,2.388-1.9,3.274
		c-0.669,0.886-1.396,1.627-2.182,2.222c-0.784,0.594-1.611,1.043-2.48,1.346s-1.767,0.479-2.693,0.53
		c-0.643,0.035-1.104-0.019-1.384-0.165c-0.281-0.146-0.431-0.391-0.45-0.737c-0.019-0.333,0.007-0.775,0.076-1.324l1.633-13.122
		c0.121-0.948,0.393-1.629,0.816-2.043c0.422-0.414,1.176-0.676,2.261-0.786l0.442-3.76l-13.62,0.754l-0.442,3.761
		c1.476,0.029,2.237,0.458,2.283,1.286c0.03,0.544-0.033,1.297-0.191,2.26l-1.49,12.687c-0.073,0.697-0.334,1.238-0.784,1.623
		c-0.45,0.384-1.21,0.631-2.281,0.74l-0.443,3.761L86.275,112.074z"/>
</g>
</svg>
