<svg xmlns="http://www.w3.org/2000/svg" width="244.801" height="136.803" viewBox="0 0 244.801 136.803"><path opacity=".75" fill="#AE8F5B" d="M39.61 88.72c-.065.44-.622.675-1.022.862-2.173 1.047-5.203.854-7.13 2.47 0 0-.917 1.546-.923 1.546-1.32.788-3.083-.406-3.856 1.274-3.28 7.082 5.49 5.504 2.36 12.26-.15.306-.1.895-.44.946-5.48.783-14.11-6.58-19.07-3.715-.51.303-4.297 6.578-4.25 6.962.23 1.693.353 2.158 1.613 3.324l.67.62c.65 4.81-.968 2.98-1.52 5.86-.285 1.44 3.35 1.2 2.08 2.54-.656.71-2.484-.277-2.09 1.71.178.903 1.42 1.71 1.528 2.62.097.92-1.16 4.407-2.312 4.557-1.688.233-3.14-2.41-4.38-2.24-.887.112-.274 1.742-.287 2.16-.05 1.445-.59 4.32-.59 4.32 11.536-1.7 23.06-3.46 34.586-5.3 1.803-.285 11.444-1.21 12.33-1.998 1.98-1.78-2.515-6.277-1.72-7.547.267-.413 4.405-.243 5.02-.276 3.057-.17 1.98.8 3.3 1.16 2.277.614 7.225-1.35 9.586-1.79 4.865-.918 30.19-6.33 33.073-5.743.31.068.395.653.69.604l1.48-1.67c2.498-1.23 19.37-2.135 23.415-2.61 8.042-.916 15.556-2.776 23.47-4.274 8.714-1.65 17.647-2.475 26.404-3.916 5.593-.926 11.183-1.827 16.793-2.65 1.952-.29 4.932-.19 6.565-1.276.33-.224.976-.65.976-.65s.478-.574.708-.855c.99-1.21 2.44-2.198 3.82-2.945 2.67-1.438 10.43-4.318 12.254-6.152.897-.884.393-3.567 1.38-4.594 1.425-1.49 5.245-1.435 6.307-3.508.18-.35-.044-.78-.063-1.18-.016-.396-.042-.794-.068-1.19-.015-.39-.19-.81-.05-1.18.56-1.5 3.36-2.206 3.88-3.72.433-1.216-1.268-2.29-.188-3.55 2.716-3.147 7.048-4.965 9.96-7.943 4.05-4.124 7.36-9.396 10.89-13.966-1.184-.933-3.842 1.21-5.87-.12-.392-.254.018-1.026-.316-1.367-1.427-1.488-4.32-1.03-5.762-2.315-.88-.775-1.01-2.392-1.89-3.18-.803-.735-2.48-.655-3.23-1.44-.764-.807-.573-2.5-1.32-3.316-.45-.49-2.194-.31-2.52-.88-1.704-2.988 1.39-.576-2.57-3.75-2.675-2.155-4.925-4.59-4.04-7.767 0-.003.954-.926.954-.926.308-2.23-1.446-3.08-2.166-4.57-.12-.248.023-.55.03-.817.01-.273.027-.55.035-.822.02-.18.025-.537.025-.537-3.82-4.476-7.16-3.066-9.733-5.092-1.423-1.12-1.523-5.844-3.146-6.525-.825-.343-6.45 4.49-6.917 5.077 0 .007-.652 2.3-.652 2.3-.352.37-2.35.5-2.874.61-.263.053-1.85 1.124-1.913 1.124-.87-.05-1.78-1.384-2.627-1.61-.374-.1-.764-.003-1.15-.003H186c-.38 0-.783.117-1.14 0-.567-.177-.784-1.11-1.392-1.145-3.814-.268-3.867 5.796-8.34 3.867-1.48-.64-2.823-3.34-4.282-4.166-3.13-1.753-8.197 2.543-11.37.125-1.945-1.473-3.02-5.24-4.808-6.95-.866-.832-2.7-.734-3.69-1.436-.53-.38-1.56-2.36-2.177-2.447-1.243-.15-3.243 2.744-4.51 3.036-1.715.395-3.49-2.2-4.91-1.93-1.145.22-2.32 2.6-2.32 2.6-4.2 3.93 2.23 2.342.094 6.437-.016.037-.853 1.25-.28 1.488.65.25 2.6-1.26 2.878.167 0 .01-.696 2.28-.696 2.29.045.726 1.29 1.316.953 1.966l-1.788-.37c-1.1.1-3.314.945-4.257 1.515-1.62.99-3.988 5.16-5.817 5.386-.73.09-4.563-4.17-8.64-.56-1.68 1.486 2.52 6.37 2.086 8.21-.34 1.39-4.87 3.772-5.45 4.566-1.267 1.75-.115 4.797-1.636 6.73-2.05 2.613-3.698.537-4.86 1.586-2.853 2.574.34 11.1-1.796 12.46 0 0-2.218.387-2.23.393 0 0-.645 1.18-.645 1.184-.51.15-8.39-2.197-8.875-3.11-.513-.973-1.536-4.733-3.62-4.38-1.625.28 1.898 1.86 1.596 2.58-.588 1.37-3.807 1.42-3.93 1.623L91.21 55.6c-.17.77-2.25 1.12-2.554 1.86-.424 1.04 1.258 3.19.717 4.16-.004 0-2.116 1.06-2.124 1.065-.707.98.39 2.444-1.217 3.056-.35.14-.83.44-1.11.19-.274-.24.073-.724.113-1.09.02-.36.364-.84.09-1.08-.463-.42-2.713.78-3.345.557-.867-.305-2.053-3.56-3.38-3.012-.95.398-1.58 1.97-2.446 2.54-.79.532-2.63.54-3.242 1.245-1.43 1.64.018 4.78-2.45 6.09-.393.21-.904-.21-1.23-.51-2.21-1.977-6.01-3.96-9.29-4.22-1.51-.12-4.235 2.23-5.482 1.565-2.206-1.163.653-.817-1.585-1.358-.307-.068-.27.617-.206.927.396 1.86 2.705 2.67.094 4.255-3.004 1.81-.436-2.547-2.123-2.525-1.02.016-2.127 1.69-3.144 1.907-1.82.39-2.875-2.022-4.35-2.19-2.94-.325 2.833 5.486-.73 6.52-.734.205-2.25-1.154-2.76-.903l-.15.63c-.815 2.264-3.43 5.22-3.457 7.61-.02 2.44 4.26 2.825 3.753 5.84"/><path fill="#FFF" d="M149.898 57.885c.007.122-.04.237-.136.347-.1.11-.31.312-.635.61l-6.618 5.712.5-4.366c.126-.8.37-1.393.733-1.78.363-.385 1.047-.643 2.052-.772l.446-3.483-13.262.735-.436 3.703c1.454.03 2.203.46 2.25 1.27.03.54-.034 1.28-.19 2.23l-1.466 12.49c-.07.687-.33 1.22-.77 1.598-.445.38-1.19.62-2.25.73l-.434 3.7 13.59-.75.45-3.466c-1.53-.062-2.32-.555-2.37-1.48-.03-.535.032-1.276.19-2.225l.394-3.41 1.847-1.363 2.75 5.01c.446.804.684 1.456.71 1.955.043.754-.632 1.23-2.024 1.43l-.41 3.463 14.504-.804.433-3.706c-.62 0-1.115-.05-1.48-.146-.365-.098-.704-.27-1.017-.52-.312-.25-.595-.56-.847-.925-.253-.365-.575-.89-.966-1.576l-5.02-8.982c2.107-1.836 3.682-3.15 4.724-3.94 1.044-.79 1.875-1.31 2.496-1.56.62-.245 1.432-.426 2.44-.543l.323-3.698-11.986.663-.41 3.482c1.245.003 1.875.127 1.887.37zm30.742-1.32c.012.183-.356.813-1.102 1.892l-3.19 4.495-1.708-3.73c-.486-1.07-.736-1.734-.75-1.99-.043-.766.744-1.194 2.362-1.284l.374-3.48-13.755.762-.39 3.7c.755.19 1.31.414 1.666.668.355.255.717.72 1.083 1.395l4.184 7.784c.273.522.414.85.42.984.01.17-.033.7-.13 1.59l-.354 3.223c-.07.7-.328 1.236-.77 1.608-.445.373-1.193.613-2.25.72l-.435 3.7 14.01-.774.437-3.703c-.92-.06-1.586-.22-2.003-.485-.42-.264-.645-.7-.68-1.308-.013-.23.047-.9.18-2.006l.31-2.67c.05-.418.2-.817.447-1.197l6.144-8.357c.67-.904 1.354-1.558 2.05-1.96.697-.407 1.515-.635 2.45-.687l.27-3.694-10.453.58-.41 3.48c1.302-.038 1.968.212 1.998.75z"/></svg>