<svg xmlns="http://www.w3.org/2000/svg" width="244.801" height="136.803" viewBox="0 0 244.801 136.803"><path opacity=".75" fill="#AE8F5B" d="M39.61 88.72c-.065.44-.622.675-1.022.862-2.173 1.047-5.203.854-7.13 2.47 0 0-.917 1.546-.923 1.546-1.32.788-3.083-.406-3.856 1.274-3.274 7.082 5.49 5.504 2.36 12.26-.146.306-.098.895-.438.946-5.477.783-14.106-6.58-19.065-3.715-.51.303-4.298 6.578-4.25 6.962.23 1.693.352 2.158 1.612 3.324.22.206.67.62.67.62.65 4.81-.968 2.983-1.52 5.865-.285 1.44 3.35 1.2 2.08 2.54-.656.71-2.484-.276-2.09 1.708.178.905 1.42 1.71 1.528 2.623.096.918-1.16 4.406-2.313 4.556-1.688.233-3.142-2.41-4.38-2.242-.887.114-.274 1.744-.287 2.16-.05 1.447-.59 4.32-.59 4.32 11.535-1.7 23.06-3.457 34.585-5.3 1.804-.283 11.445-1.207 12.33-1.996 1.98-1.78-2.514-6.276-1.718-7.546.266-.413 4.404-.243 5.02-.276 3.056-.174 1.98.797 3.298 1.156 2.276.615 7.224-1.35 9.585-1.79 4.865-.917 30.19-6.328 33.073-5.742.31.068.397.653.69.604 0 0 1.48-1.67 1.483-1.67 2.497-1.232 19.37-2.135 23.414-2.61 8.042-.916 15.556-2.776 23.47-4.274 8.714-1.65 17.647-2.475 26.404-3.916 5.594-.925 11.184-1.826 16.794-2.65 1.953-.29 4.933-.19 6.566-1.275.332-.224.977-.65.977-.65s.477-.574.707-.855c.99-1.206 2.44-2.195 3.82-2.942 2.67-1.438 10.43-4.318 12.254-6.152.897-.884.393-3.567 1.38-4.594 1.425-1.49 5.245-1.433 6.307-3.506.18-.35-.043-.78-.062-1.18-.016-.396-.042-.794-.068-1.19-.014-.39-.19-.81-.05-1.18.56-1.5 3.36-2.206 3.88-3.72.434-1.216-1.267-2.29-.187-3.55 2.716-3.147 7.048-4.965 9.96-7.943 4.05-4.124 7.36-9.396 10.89-13.966-1.184-.932-3.842 1.21-5.87-.118-.392-.255.018-1.027-.316-1.368-1.428-1.485-4.32-1.03-5.763-2.312-.88-.775-1.01-2.392-1.886-3.18-.804-.735-2.48-.655-3.23-1.44-.765-.807-.574-2.5-1.32-3.316-.45-.49-2.195-.31-2.52-.88-1.705-2.988 1.39-.576-2.572-3.752-2.675-2.153-4.925-4.59-4.04-7.765 0-.003.954-.926.954-.926.308-2.23-1.446-3.08-2.166-4.57-.12-.246.025-.55.033-.815.008-.274.026-.55.034-.823.02-.18.024-.537.024-.537-3.82-4.476-7.16-3.066-9.732-5.092-1.422-1.123-1.522-5.846-3.145-6.527-.823-.343-6.45 4.49-6.915 5.077 0 .006-.653 2.298-.653 2.3-.354.37-2.35.497-2.876.608-.263.054-1.85 1.125-1.913 1.125-.87-.05-1.78-1.385-2.627-1.612-.373-.1-.763-.002-1.15-.002-.38 0-.764 0-1.146-.002-.38 0-.783.117-1.14 0-.567-.177-.784-1.108-1.392-1.145-3.815-.268-3.868 5.796-8.34 3.867-1.48-.642-2.824-3.343-4.283-4.167-3.13-1.752-8.197 2.544-11.37.126-1.945-1.474-3.02-5.24-4.808-6.95-.866-.833-2.7-.735-3.69-1.437-.53-.38-1.56-2.36-2.177-2.446-1.248-.15-3.248 2.742-4.514 3.034-1.715.395-3.49-2.202-4.91-1.93-1.145.22-2.32 2.6-2.32 2.6-4.2 3.93 2.23 2.342.094 6.437-.017.037-.854 1.25-.28 1.488.65.248 2.6-1.26 2.877.166 0 .01-.697 2.28-.697 2.29.044.727 1.29 1.317.952 1.967l-1.787-.37c-1.1.1-3.313.945-4.256 1.515-1.62.99-3.987 5.16-5.816 5.386-.73.09-4.563-4.17-8.64-.56-1.68 1.486 2.52 6.37 2.086 8.21-.34 1.39-4.868 3.772-5.447 4.566-1.268 1.75-.116 4.796-1.637 6.73-2.05 2.612-3.698.536-4.86 1.585-2.853 2.573.34 11.1-1.796 12.46 0 0-2.217.386-2.23.392 0 0-.644 1.18-.644 1.184-.51.153-8.39-2.195-8.875-3.108-.513-.972-1.536-4.732-3.62-4.38-1.625.28 1.898 1.862 1.596 2.582-.587 1.37-3.806 1.417-3.928 1.622l1.062 1.723c-.17.768-2.247 1.118-2.552 1.86-.425 1.04 1.257 3.188.716 4.16-.005 0-2.117 1.06-2.125 1.064-.703.98.39 2.443-1.213 3.055-.35.137-.83.44-1.108.19-.275-.244.072-.727.112-1.09.02-.362.365-.842.092-1.084-.464-.422-2.714.78-3.346.557-.867-.305-2.053-3.56-3.38-3.012-.95.398-1.58 1.97-2.446 2.54-.79.532-2.63.54-3.242 1.245-1.433 1.64.016 4.777-2.45 6.09-.395.21-.906-.213-1.23-.51-2.21-1.978-6.01-3.96-9.29-4.22-1.51-.12-4.237 2.227-5.484 1.564-2.207-1.163.652-.817-1.586-1.358-.308-.068-.27.617-.207.927.397 1.86 2.706 2.67.095 4.255-3.003 1.813-.435-2.544-2.122-2.522-1.02.017-2.127 1.69-3.144 1.908-1.82.388-2.874-2.023-4.35-2.19-2.938-.326 2.834 5.485-.73 6.518-.733.206-2.25-1.153-2.76-.902l-.15.627c-.814 2.265-3.43 5.218-3.456 7.61-.022 2.44 4.26 2.826 3.753 5.84"/><path fill="#FFF" d="M149.898 57.885c.007.122-.04.237-.136.347-.1.11-.31.312-.635.61l-6.618 5.712.505-4.366c.127-.8.372-1.393.734-1.78.363-.385 1.047-.643 2.052-.772l.447-3.483-13.263.735-.436 3.703c1.454.03 2.203.454 2.25 1.27.03.534-.034 1.276-.19 2.224l-1.466 12.49c-.072.687-.33 1.22-.77 1.598-.444.38-1.192.62-2.248.73l-.435 3.7 13.59-.75.45-3.466c-1.528-.062-2.318-.555-2.37-1.48-.03-.535.033-1.276.19-2.225l.395-3.41 1.846-1.363 2.75 5.01c.446.803.684 1.455.71 1.954.043.755-.632 1.23-2.024 1.43l-.412 3.464 14.504-.804.433-3.705c-.62 0-1.114-.05-1.48-.146-.364-.098-.703-.27-1.016-.52-.313-.25-.596-.56-.848-.925-.253-.364-.575-.89-.966-1.575l-5.02-8.982c2.107-1.838 3.682-3.15 4.724-3.94 1.042-.79 1.873-1.31 2.494-1.56.62-.247 1.434-.428 2.44-.545l.325-3.697-11.986.664-.41 3.482c1.245.004 1.875.128 1.887.37zm30.742-1.32c.012.183-.356.813-1.102 1.892l-3.19 4.495-1.708-3.73c-.486-1.07-.736-1.734-.75-1.99-.043-.766.744-1.194 2.362-1.284l.374-3.48-13.755.762-.396 3.7c.755.19 1.31.414 1.666.668.354.255.716.72 1.082 1.395l4.185 7.784c.272.522.413.85.42.984.01.17-.034.7-.13 1.584l-.355 3.223c-.07.7-.327 1.236-.77 1.608-.444.372-1.192.612-2.248.72l-.436 3.7 14.01-.775.437-3.704c-.92-.06-1.586-.22-2.003-.483-.418-.264-.643-.7-.677-1.308-.013-.23.047-.9.18-2.005l.312-2.672c.05-.417.198-.816.446-1.196l6.144-8.357c.67-.903 1.354-1.557 2.05-1.96.697-.406 1.515-.634 2.45-.686l.272-3.696-10.455.58-.41 3.48c1.302-.036 1.968.214 1.998.75z"/></svg>