<svg xmlns="http://www.w3.org/2000/svg" width="244.801" height="136.803" viewBox="0 0 244.801 136.803"><path opacity=".75" fill="#AE8F5B" d="M39.61 88.72c-.065.44-.622.675-1.022.862-2.173 1.047-5.203.854-7.13 2.47 0 0-.917 1.546-.923 1.546-1.32.788-3.083-.406-3.856 1.274-3.276 7.082 5.49 5.504 2.36 12.26-.148.306-.1.895-.44.946-5.477.783-14.106-6.58-19.065-3.715-.51.303-4.298 6.578-4.25 6.962.23 1.693.352 2.158 1.612 3.324l.67.62c.65 4.81-.968 2.98-1.52 5.863-.285 1.44 3.35 1.2 2.08 2.54-.656.71-2.484-.276-2.09 1.708.178.906 1.42 1.71 1.528 2.624.096.918-1.16 4.406-2.313 4.556-1.688.234-3.142-2.41-4.38-2.24-.887.113-.274 1.743-.287 2.16-.05 1.446-.59 4.32-.59 4.32 11.535-1.7 23.06-3.458 34.585-5.3 1.805-.284 11.446-1.208 12.33-1.997 1.98-1.78-2.513-6.276-1.717-7.546.266-.413 4.404-.243 5.02-.276 3.056-.172 1.98.8 3.298 1.158 2.278.615 7.226-1.35 9.587-1.79 4.865-.917 30.19-6.328 33.073-5.742.31.068.396.653.69.604 0 0 1.48-1.67 1.482-1.67 2.497-1.233 19.37-2.136 23.414-2.61 8.042-.917 15.556-2.777 23.47-4.275 8.714-1.65 17.647-2.475 26.404-3.916 5.594-.927 11.184-1.828 16.794-2.65 1.953-.29 4.933-.19 6.566-1.277.332-.224.977-.65.977-.65s.477-.574.707-.855c.99-1.207 2.44-2.196 3.82-2.943 2.67-1.438 10.43-4.318 12.254-6.152.897-.884.393-3.567 1.38-4.594 1.425-1.49 5.245-1.433 6.307-3.506.18-.35-.043-.78-.062-1.18-.016-.396-.042-.794-.068-1.19-.014-.39-.19-.81-.05-1.18.56-1.5 3.36-2.206 3.88-3.72.434-1.216-1.267-2.29-.187-3.55 2.716-3.147 7.048-4.965 9.96-7.943 4.05-4.123 7.36-9.395 10.89-13.965-1.184-.932-3.842 1.21-5.87-.118-.392-.255.018-1.027-.316-1.368-1.428-1.486-4.32-1.03-5.763-2.313-.88-.775-1.01-2.392-1.888-3.18-.804-.735-2.48-.655-3.23-1.44-.765-.807-.574-2.5-1.32-3.316-.45-.49-2.195-.31-2.52-.88-1.705-2.987 1.39-.575-2.572-3.75-2.674-2.154-4.924-4.59-4.04-7.766 0-.003.955-.926.955-.926.308-2.23-1.446-3.08-2.166-4.57-.12-.247.023-.55.03-.816.01-.274.027-.55.035-.823.02-.18.024-.537.024-.537-3.82-4.476-7.16-3.066-9.733-5.092-1.422-1.122-1.522-5.845-3.145-6.526-.823-.343-6.45 4.49-6.915 5.077 0 .007-.653 2.3-.653 2.3-.354.37-2.35.498-2.876.61-.264.053-1.85 1.124-1.914 1.124-.87-.05-1.78-1.385-2.627-1.612-.374-.1-.764-.002-1.15-.002H186c-.38 0-.783.116-1.14 0-.567-.178-.784-1.11-1.392-1.146-3.814-.268-3.867 5.796-8.34 3.867-1.48-.64-2.823-3.34-4.282-4.165-3.13-1.752-8.197 2.544-11.37.126-1.945-1.473-3.02-5.24-4.808-6.95-.866-.832-2.7-.734-3.69-1.436-.53-.38-1.56-2.36-2.177-2.446-1.247-.15-3.247 2.742-4.513 3.034-1.716.396-3.49-2.2-4.91-1.93-1.146.22-2.32 2.6-2.32 2.6-4.2 3.93 2.23 2.343.093 6.438-.017.037-.854 1.25-.28 1.488.65.248 2.6-1.26 2.877.166 0 .01-.697 2.28-.697 2.29.044.727 1.29 1.317.952 1.967l-1.787-.37c-1.1.1-3.313.945-4.256 1.515-1.62.99-3.988 5.16-5.817 5.386-.73.09-4.563-4.17-8.64-.56-1.68 1.487 2.52 6.37 2.086 8.21-.34 1.39-4.87 3.773-5.448 4.567-1.268 1.75-.116 4.796-1.637 6.73-2.05 2.612-3.698.536-4.86 1.585-2.853 2.574.34 11.1-1.796 12.46 0 0-2.218.387-2.23.393 0 0-.645 1.18-.645 1.184-.51.152-8.39-2.196-8.875-3.11-.513-.972-1.536-4.732-3.62-4.38-1.625.28 1.898 1.86 1.596 2.58-.588 1.37-3.807 1.42-3.93 1.624l1.063 1.723c-.17.768-2.248 1.118-2.553 1.86-.424 1.04 1.258 3.188.717 4.16-.005 0-2.117 1.06-2.125 1.064-.704.98.39 2.444-1.214 3.056-.35.137-.83.44-1.11.19-.274-.244.073-.727.113-1.09.02-.362.364-.842.09-1.084-.463-.42-2.713.78-3.345.558-.868-.305-2.054-3.56-3.38-3.012-.95.398-1.58 1.97-2.447 2.54-.79.532-2.63.54-3.242 1.245-1.432 1.64.017 4.778-2.45 6.09-.394.21-.905-.212-1.23-.51-2.21-1.977-6.01-3.96-9.29-4.22-1.51-.12-4.236 2.228-5.483 1.565-2.207-1.163.652-.817-1.586-1.358-.307-.068-.27.617-.206.927.398 1.86 2.707 2.67.096 4.255-3.004 1.812-.436-2.545-2.123-2.523-1.02.016-2.127 1.69-3.144 1.907-1.82.388-2.875-2.023-4.35-2.19-2.94-.326 2.833 5.485-.73 6.518-.734.206-2.25-1.153-2.76-.902l-.15.628c-.815 2.266-3.43 5.22-3.457 7.61-.022 2.44 4.26 2.827 3.753 5.84"/><path fill="#FFF" d="M149.898 57.885c.007.122-.04.237-.136.347-.1.11-.31.312-.635.61l-6.618 5.712.503-4.366c.127-.8.372-1.393.734-1.78.363-.385 1.047-.643 2.052-.772l.446-3.483-13.263.735-.436 3.703c1.454.03 2.203.456 2.25 1.27.03.536-.034 1.278-.19 2.226l-1.466 12.49c-.07.687-.33 1.22-.77 1.598-.443.38-1.19.62-2.247.73l-.435 3.7 13.59-.75.45-3.466c-1.53-.062-2.32-.555-2.37-1.48-.03-.535.032-1.276.19-2.225l.394-3.41 1.846-1.363 2.75 5.01c.446.802.684 1.454.71 1.953.043.755-.632 1.23-2.024 1.43l-.412 3.464 14.504-.804.433-3.705c-.62 0-1.114-.05-1.48-.146-.364-.098-.703-.27-1.016-.52-.313-.25-.596-.56-.848-.925-.253-.364-.575-.89-.966-1.575l-5.02-8.982c2.108-1.838 3.683-3.15 4.725-3.94 1.042-.79 1.873-1.31 2.494-1.56.62-.247 1.432-.428 2.44-.545l.323-3.697-11.986.664-.41 3.482c1.245.004 1.875.128 1.887.37zm30.742-1.32c.012.183-.356.813-1.102 1.892l-3.19 4.495-1.708-3.73c-.486-1.07-.736-1.734-.75-1.99-.043-.766.744-1.194 2.362-1.284l.374-3.48-13.755.762-.394 3.7c.755.19 1.31.414 1.666.668.355.255.717.72 1.083 1.395l4.185 7.784c.272.522.413.85.42.984.01.17-.034.7-.13 1.586l-.355 3.223c-.07.7-.327 1.235-.77 1.607-.444.372-1.192.612-2.248.72l-.436 3.7 14.01-.775.437-3.703c-.92-.06-1.586-.22-2.003-.484-.418-.264-.643-.7-.677-1.308-.013-.23.047-.9.18-2.005l.312-2.67c.05-.418.197-.817.445-1.197l6.144-8.357c.67-.904 1.353-1.558 2.05-1.96.696-.407 1.514-.635 2.45-.687l.27-3.696-10.454.58-.41 3.48c1.302-.036 1.968.214 1.998.75z"/></svg>