<?xml version="1.0" encoding="utf-8"?>
<!-- Generator: Adobe Illustrator 15.0.0, SVG Export Plug-In . SVG Version: 6.00 Build 0)  -->
<!DOCTYPE svg PUBLIC "-//W3C//DTD SVG 1.1//EN" "http://www.w3.org/Graphics/SVG/1.1/DTD/svg11.dtd">
<svg version="1.1" id="Layer_1" xmlns="http://www.w3.org/2000/svg" xmlns:xlink="http://www.w3.org/1999/xlink" x="0px" y="0px"
	 width="244.801px" height="136.803px" viewBox="0 0 244.801 136.803" enable-background="new 0 0 244.801 136.803"
	 xml:space="preserve">
<g id="kentucky">
	<path id="KY" opacity="0.75" fill="#AE8F5B" d="M39.611,88.719c-0.066,0.441-0.623,0.676-1.023,0.863
		c-2.173,1.047-5.203,0.854-7.129,2.47c0,0-0.918,1.546-0.924,1.546c-1.32,0.788-3.083-0.406-3.856,1.274
		c-3.271,7.082,5.491,5.504,2.36,12.261c-0.143,0.305-0.095,0.894-0.435,0.945c-5.477,0.783-14.106-6.581-19.065-3.715
		c-0.509,0.303-4.297,6.578-4.249,6.962c0.23,1.693,0.352,2.158,1.612,3.324c0.221,0.209,0.669,0.62,0.669,0.62
		c0.652,4.813-0.966,2.986-1.517,5.868c-0.286,1.441,3.348,1.2,2.08,2.541c-0.657,0.71-2.485-0.277-2.091,1.707
		c0.178,0.905,1.42,1.71,1.528,2.623c0.096,0.918-1.161,4.406-2.313,4.556c-1.688,0.233-3.142-2.409-4.379-2.242
		c-0.888,0.113-0.275,1.743-0.288,2.161c-0.05,1.445-0.592,4.32-0.592,4.32c11.536-1.701,23.062-3.459,34.586-5.301
		c1.804-0.284,11.445-1.208,12.331-1.997c1.979-1.78-2.515-6.276-1.719-7.546c0.266-0.412,4.404-0.242,5.02-0.275
		c3.056-0.174,1.979,0.797,3.298,1.156c2.276,0.615,7.224-1.349,9.585-1.789c4.865-0.918,30.191-6.329,33.073-5.743
		c0.309,0.068,0.396,0.653,0.689,0.604c0,0,1.479-1.67,1.483-1.67c2.497-1.232,19.37-2.135,23.414-2.61
		c8.044-0.916,15.558-2.776,23.473-4.274c8.713-1.651,17.646-2.475,26.403-3.916c5.593-0.925,11.183-1.826,16.793-2.651
		c1.953-0.29,4.933-0.19,6.566-1.274c0.332-0.224,0.977-0.651,0.977-0.651s0.476-0.573,0.706-0.854
		c0.989-1.206,2.441-2.195,3.821-2.942c2.668-1.438,10.429-4.318,12.253-6.152c0.895-0.884,0.391-3.567,1.378-4.594
		c1.425-1.49,5.245-1.433,6.307-3.506c0.181-0.351-0.043-0.781-0.062-1.18c-0.016-0.396-0.042-0.794-0.068-1.19
		c-0.014-0.39-0.191-0.81-0.051-1.18c0.561-1.501,3.362-2.206,3.88-3.719c0.435-1.217-1.266-2.291-0.186-3.55
		c2.717-3.148,7.049-4.966,9.962-7.944c4.049-4.124,7.359-9.396,10.888-13.966c-1.183-0.931-3.841,1.211-5.868-0.117
		c-0.393-0.253,0.017-1.025-0.317-1.366c-1.428-1.485-4.319-1.029-5.763-2.312c-0.882-0.776-1.012-2.393-1.887-3.182
		c-0.804-0.734-2.48-0.654-3.231-1.441c-0.764-0.805-0.573-2.499-1.318-3.314c-0.45-0.49-2.196-0.311-2.52-0.881
		c-1.706-2.987,1.39-0.575-2.573-3.751c-2.675-2.153-4.925-4.59-4.039-7.765c0-0.003,0.953-0.926,0.953-0.926
		c0.308-2.232-1.446-3.08-2.166-4.57c-0.121-0.248,0.024-0.549,0.032-0.817c0.008-0.274,0.026-0.549,0.034-0.823
		c0.019-0.179,0.024-0.538,0.024-0.538c-3.82-4.476-7.163-3.066-9.734-5.092c-1.422-1.124-1.522-5.847-3.145-6.528
		c-0.824-0.343-6.451,4.49-6.916,5.077c0,0.006-0.653,2.298-0.653,2.301c-0.354,0.37-2.351,0.496-2.876,0.607
		c-0.262,0.052-1.85,1.123-1.912,1.123c-0.871-0.05-1.781-1.385-2.627-1.612c-0.372-0.1-0.762-0.002-1.151-0.002
		c-0.38,0-0.762,0-1.144-0.003c-0.38,0-0.783,0.117-1.141,0c-0.566-0.177-0.783-1.108-1.391-1.145
		c-3.815-0.268-3.868,5.796-8.339,3.867c-1.48-0.641-2.825-3.342-4.284-4.166c-3.128-1.752-8.195,2.544-11.371,0.126
		c-1.942-1.472-3.018-5.24-4.805-6.949c-0.867-0.832-2.701-0.734-3.69-1.436c-0.531-0.38-1.562-2.361-2.178-2.446
		c-1.248-0.15-3.248,2.742-4.514,3.034c-1.715,0.394-3.489-2.203-4.909-1.931c-1.146,0.222-2.32,2.599-2.32,2.599
		c-4.2,3.931,2.23,2.343,0.093,6.438c-0.017,0.037-0.854,1.25-0.279,1.488c0.649,0.248,2.598-1.259,2.876,0.166
		c0,0.008-0.698,2.28-0.698,2.288c0.044,0.728,1.29,1.318,0.952,1.968l-1.787-0.37c-1.099,0.1-3.312,0.945-4.255,1.515
		c-1.619,0.992-3.987,5.161-5.816,5.387c-0.731,0.089-4.563-4.169-8.639-0.56c-1.68,1.486,2.518,6.37,2.085,8.211
		c-0.34,1.39-4.868,3.771-5.447,4.565c-1.268,1.751-0.116,4.796-1.637,6.73c-2.049,2.612-3.698,0.536-4.859,1.585
		c-2.854,2.573,0.339,11.098-1.797,12.459c0,0-2.217,0.387-2.229,0.393c0,0-0.645,1.179-0.645,1.184
		c-0.51,0.153-8.389-2.195-8.875-3.108c-0.513-0.971-1.536-4.731-3.619-4.38c-1.626,0.28,1.897,1.863,1.595,2.583
		c-0.586,1.37-3.805,1.417-3.927,1.622l1.062,1.723c-0.17,0.768-2.247,1.118-2.552,1.86c-0.425,1.04,1.257,3.188,0.716,4.159
		c-0.004,0-2.116,1.06-2.124,1.065c-0.703,0.981,0.39,2.443-1.213,3.055c-0.351,0.137-0.83,0.441-1.109,0.189
		c-0.275-0.243,0.072-0.726,0.112-1.089c0.021-0.362,0.365-0.842,0.092-1.084c-0.464-0.422-2.714,0.781-3.346,0.557
		c-0.867-0.304-2.053-3.559-3.38-3.011c-0.95,0.398-1.579,1.969-2.446,2.539c-0.79,0.533-2.63,0.541-3.242,1.246
		c-1.433,1.642,0.016,4.778-2.45,6.092c-0.395,0.209-0.906-0.214-1.23-0.512c-2.21-1.977-6.009-3.96-9.291-4.219
		c-1.509-0.122-4.236,2.227-5.483,1.564c-2.207-1.163,0.652-0.817-1.586-1.358c-0.308-0.068-0.271,0.617-0.207,0.927
		c0.397,1.859,2.706,2.669,0.095,4.255c-3.003,1.813-0.435-2.544-2.122-2.522c-1.019,0.017-2.127,1.689-3.144,1.908
		c-1.82,0.388-2.874-2.023-4.35-2.189c-2.938-0.327,2.834,5.484-0.729,6.517c-0.734,0.206-2.252-1.153-2.762-0.902l-0.148,0.627
		c-0.815,2.264-3.431,5.217-3.457,7.61C35.836,85.32,40.118,85.706,39.611,88.719"/>
	<path fill="#FFFFFF" d="M149.898,57.885c0.007,0.122-0.039,0.237-0.136,0.347c-0.099,0.109-0.31,0.312-0.635,0.611l-6.618,5.711
		l0.508-4.366c0.127-0.8,0.372-1.393,0.734-1.78c0.363-0.385,1.047-0.643,2.052-0.772l0.447-3.483l-13.262,0.735l-0.436,3.703
		c1.453,0.029,2.202,0.451,2.248,1.266c0.029,0.535-0.033,1.277-0.188,2.225l-1.467,12.489c-0.072,0.688-0.329,1.221-0.771,1.599
		c-0.443,0.378-1.191,0.621-2.247,0.729l-0.435,3.702l13.59-0.752l0.448-3.466c-1.527-0.062-2.317-0.555-2.368-1.479
		c-0.03-0.536,0.032-1.277,0.188-2.226l0.396-3.408l1.846-1.365l2.748,5.009c0.447,0.804,0.685,1.456,0.712,1.955
		c0.042,0.755-0.633,1.232-2.025,1.431l-0.412,3.463l14.504-0.804l0.435-3.703c-0.622-0.001-1.115-0.05-1.48-0.146
		c-0.365-0.096-0.704-0.269-1.017-0.52c-0.313-0.251-0.596-0.56-0.848-0.923c-0.252-0.364-0.574-0.889-0.965-1.575l-5.019-8.983
		c2.106-1.837,3.681-3.15,4.723-3.94c1.042-0.79,1.873-1.309,2.494-1.558c0.62-0.248,1.434-0.429,2.44-0.546l0.325-3.697
		l-11.986,0.664l-0.41,3.482C149.256,57.518,149.886,57.642,149.898,57.885L149.898,57.885z"/>
	<path fill="#FFFFFF" d="M180.641,56.565c0.011,0.183-0.357,0.813-1.103,1.892l-3.191,4.495l-1.707-3.73
		c-0.486-1.07-0.736-1.734-0.751-1.99c-0.042-0.766,0.745-1.194,2.363-1.284l0.374-3.48l-13.755,0.762l-0.399,3.701
		c0.755,0.19,1.311,0.413,1.666,0.667c0.355,0.255,0.717,0.72,1.083,1.395l4.184,7.784c0.272,0.522,0.413,0.85,0.42,0.984
		c0.01,0.17-0.034,0.697-0.131,1.581l-0.354,3.223c-0.07,0.7-0.327,1.236-0.77,1.608c-0.444,0.372-1.192,0.612-2.248,0.719
		l-0.436,3.702l14.011-0.776l0.436-3.703c-0.919-0.059-1.586-0.22-2.003-0.483c-0.418-0.264-0.643-0.7-0.677-1.308
		c-0.013-0.231,0.047-0.9,0.181-2.005l0.311-2.671c0.05-0.417,0.198-0.816,0.446-1.196l6.143-8.357
		c0.67-0.903,1.354-1.557,2.051-1.961c0.696-0.405,1.514-0.633,2.45-0.685l0.271-3.693l-10.453,0.579l-0.411,3.482
		C179.945,55.78,180.611,56.03,180.641,56.565L180.641,56.565z"/>
</g>
</svg>
