<?xml version="1.0" encoding="utf-8"?>
<!-- Generator: Adobe Illustrator 15.0.2, SVG Export Plug-In . SVG Version: 6.00 Build 0)  -->
<!DOCTYPE svg PUBLIC "-//W3C//DTD SVG 1.1//EN" "http://www.w3.org/Graphics/SVG/1.1/DTD/svg11.dtd">
<svg version="1.1" id="Layer_1" xmlns="http://www.w3.org/2000/svg" xmlns:xlink="http://www.w3.org/1999/xlink" x="0px" y="0px"
	 width="306.002px" height="171.004px" viewBox="0 0 306.002 171.004" enable-background="new 0 0 306.002 171.004"
	 xml:space="preserve">
<path opacity="0.75" fill="#AE8F5B" d="M49.515,110.898c-0.083,0.551-0.779,0.845-1.28,1.079c-2.716,1.309-6.503,1.067-8.911,3.087
	c0,0-1.146,1.934-1.153,1.934c-1.651,0.984-3.854-0.509-4.821,1.592c-4.089,8.853,6.864,6.881,2.951,15.326
	c-0.18,0.383-0.119,1.118-0.544,1.182c-6.846,0.979-17.634-8.227-23.831-4.645c-0.638,0.379-5.372,8.223-5.313,8.703
	c0.288,2.117,0.44,2.698,2.016,4.155c0.275,0.261,0.837,0.774,0.837,0.774c0.814,6.017-1.207,3.733-1.896,7.336
	c-0.358,1.801,4.185,1.5,2.6,3.176c-0.821,0.887-3.106-0.348-2.612,2.134c0.222,1.131,1.773,2.137,1.91,3.278
	c0.118,1.146-1.452,5.508-2.893,5.695c-2.108,0.29-3.927-3.012-5.473-2.804c-1.11,0.142-0.345,2.181-0.361,2.701
	C0.678,167.409,0,171.004,0,171.004c14.42-2.127,28.826-4.324,43.232-6.625c2.255-0.356,14.307-1.512,15.414-2.498
	c2.474-2.226-3.145-7.846-2.149-9.433c0.332-0.515,5.507-0.303,6.275-0.343c3.82-0.219,2.474,0.996,4.122,1.443
	c2.845,0.77,9.03-1.685,11.98-2.234c6.082-1.148,37.74-7.912,41.343-7.18c0.385,0.084,0.493,0.816,0.861,0.754
	c0,0,1.849-2.088,1.854-2.088c3.121-1.539,24.213-2.668,29.268-3.262c10.056-1.145,19.446-3.47,29.34-5.343
	c10.892-2.063,22.058-3.094,33.004-4.896c6.991-1.156,13.979-2.281,20.992-3.313c2.441-0.362,6.165-0.237,8.208-1.593
	c0.415-0.28,1.222-0.814,1.222-0.814s0.594-0.716,0.882-1.068c1.237-1.508,3.052-2.743,4.775-3.678
	c3.337-1.797,13.036-5.397,15.317-7.689c1.118-1.105,0.488-4.459,1.722-5.742c1.781-1.863,6.558-1.791,7.884-4.383
	c0.226-0.439-0.054-0.977-0.076-1.475c-0.021-0.496-0.053-0.992-0.086-1.488c-0.018-0.487-0.239-1.012-0.063-1.475
	c0.7-1.875,4.202-2.757,4.85-4.648c0.544-1.521-1.582-2.863-0.232-4.438c3.396-3.935,8.812-6.207,12.453-9.93
	c5.061-5.155,9.199-11.745,13.61-17.457c-1.479-1.164-4.803,1.514-7.337-0.146c-0.489-0.316,0.021-1.282-0.396-1.708
	c-1.784-1.856-5.399-1.286-7.203-2.889c-1.102-0.97-1.264-2.991-2.358-3.978c-1.005-0.917-3.101-0.818-4.038-1.801
	c-0.955-1.006-0.718-3.123-1.648-4.143c-0.563-0.613-2.746-0.389-3.15-1.102c-2.133-3.733,1.737-0.719-3.217-4.689
	c-3.343-2.691-6.155-5.738-5.048-9.706c0-0.004,1.191-1.158,1.191-1.158c0.384-2.79-1.809-3.849-2.707-5.712
	c-0.152-0.31,0.029-0.687,0.04-1.022c0.01-0.343,0.032-0.686,0.043-1.029c0.022-0.224,0.029-0.672,0.029-0.672
	c-4.774-5.594-8.953-3.833-12.168-6.365c-1.776-1.405-1.902-7.309-3.93-8.16c-1.031-0.429-8.065,5.613-8.646,6.346
	c0,0.007-0.816,2.873-0.816,2.876c-0.444,0.462-2.938,0.62-3.595,0.759c-0.328,0.065-2.313,1.404-2.392,1.404
	c-1.088-0.062-2.226-1.731-3.282-2.015c-0.466-0.125-0.952-0.003-1.439-0.003c-0.475,0-0.952,0-1.43-0.004
	c-0.476,0-0.979,0.146-1.427,0c-0.707-0.221-0.979-1.385-1.737-1.431c-4.77-0.334-4.835,7.245-10.423,4.834
	c-1.852-0.801-3.532-4.178-5.356-5.207c-3.909-2.19-10.244,3.18-14.214,0.158c-2.427-1.84-3.771-6.55-6.006-8.687
	c-1.084-1.039-3.376-0.917-4.612-1.795c-0.664-0.475-1.954-2.951-2.723-3.057c-1.561-0.188-4.061,3.427-5.643,3.792
	c-2.143,0.492-4.36-2.753-6.136-2.414c-1.432,0.277-2.901,3.249-2.901,3.249c-5.25,4.914,2.789,2.929,0.116,8.047
	c-0.02,0.046-1.067,1.563-0.349,1.86c0.812,0.31,3.247-1.573,3.595,0.208c0,0.01-0.872,2.85-0.872,2.859
	c0.054,0.91,1.612,1.648,1.19,2.46l-2.234-0.462c-1.373,0.125-4.139,1.181-5.319,1.893c-2.022,1.24-4.983,6.451-7.27,6.734
	c-0.915,0.112-5.704-5.211-10.798-0.699c-2.101,1.857,3.146,7.962,2.605,10.264c-0.425,1.738-6.086,4.713-6.809,5.706
	c-1.585,2.189-0.146,5.995-2.046,8.413c-2.562,3.265-4.623,0.669-6.075,1.981c-3.568,3.216,0.424,13.872-2.246,15.574
	c0,0-2.771,0.484-2.785,0.491c0,0-0.806,1.474-0.806,1.48c-0.637,0.191-10.486-2.744-11.094-3.885
	c-0.641-1.214-1.921-5.914-4.523-5.475c-2.033,0.35,2.371,2.328,1.993,3.229c-0.732,1.712-4.756,1.771-4.908,2.028l1.326,2.153
	c-0.212,0.96-2.809,1.398-3.189,2.325c-0.53,1.3,1.571,3.984,0.896,5.198c-0.006,0-2.646,1.325-2.656,1.332
	c-0.879,1.227,0.488,3.054-1.516,3.819c-0.438,0.171-1.037,0.551-1.387,0.237c-0.345-0.304,0.091-0.907,0.141-1.362
	c0.025-0.452,0.457-1.052,0.115-1.355c-0.58-0.527-3.394,0.977-4.183,0.696c-1.084-0.38-2.565-4.449-4.225-3.764
	c-1.188,0.498-1.975,2.461-3.059,3.173c-0.987,0.666-3.286,0.676-4.053,1.557c-1.791,2.052,0.021,5.973-3.062,7.616
	c-0.494,0.26-1.135-0.269-1.539-0.641c-2.763-2.471-7.512-4.95-11.613-5.273c-1.887-0.152-5.296,2.783-6.855,1.955
	c-2.759-1.454,0.816-1.022-1.981-1.698c-0.385-0.086-0.339,0.771-0.259,1.158c0.497,2.325,3.383,3.336,0.118,5.319
	c-3.754,2.266-0.544-3.18-2.652-3.152c-1.273,0.021-2.659,2.11-3.93,2.385c-2.275,0.484-3.593-2.529-5.437-2.737
	c-3.674-0.409,3.542,6.856-0.912,8.146c-0.918,0.258-2.814-1.44-3.452-1.127l-0.186,0.783c-1.02,2.83-4.288,6.521-4.321,9.512
	C44.796,106.65,50.147,107.133,49.515,110.898"/>
</svg>
