<svg xmlns="http://www.w3.org/2000/svg" width="203.202" height="159.998" viewBox="0 0 203.202 159.998"><path opacity=".75" fill="#D9B67B" d="M201.146 146.306c-.214.04-.504-.09-.633.09-.134.187.315.61.104.683-2.25.825-4.504-5.638-5.868-5.45-1.487.204-.22 1.42-1.705 1.613l-.81-1.277c-.512-.168-4.344 1.087-4.493-.09-.097-.67 2.463-1.027 1.793-.933-1.616.215-2.743-.328-4.24-.124-.57.065-3.142.81-3.435.1-.193-.457.43-2.323.318-2.467-1.26-1.655-5.11-.024-6.543-1.223-1.4-1.182-1.46-3.82-2.453-4.206-.22-.085-.86-.116-.664-.257.273-.2.676.003 1.017.006.678.008 1.36.008 2.043.01.344.003.86.308 1.014.003.86-1.668-2.082-2.604-2.55-3-.22-.195.578.08.872.112.29.047.577.092.858.12.288.045.603-.002.863.12 1.36.618 3.378.682 5.014.968.08.01-.066-.175-.137-.217-.42-.284-.683-.44-.87-.536-.298-.02-.542-.285 0 0 .232.014.468-.118.384-.79-.18-1.352-2.847 2.607-3.397-1.637-.12-.946 2.75-.89 3.04-1.1.437-.326.98-3.617 1.423-3.68 1.633-.208.673 3.07 3.4 1.646.374-.2 1.078.217 1.243-.164.328-.75-1.407-1.088-1.517-1.89-.08-.627 1.545-1.136 1.07-1.535-.318-.272-.927.428-1.245.157-.554-.45.896-1.67.35-2.13-.512-.43-1.117 1.025-1.784.933l-.794-1.283c.144-1.65 1.44.442 2.48-.336.197-.135-.048-.45-.082-.675-.27-2.014-2.622.666-3.207-.27-.673-1.063 1.96-2.74 1.954-2.816-.083-.64-1.2-.416-1.78-.693-.7-.33-1.33-1.416-2.048-1.13-.662.29.008 1.524-.36 2.145-.437.76-1.892.935-2.31 1.702-1.38 2.526 1.116 8.044-4.776 4.803-1.447-.792-.284-1.856-.573-2.01-1.444-.795-5.35 1.75-5.34-2.1.004-1.988 7.508-.74 6.867-5.77-.243-1.873-2.582 1.736-2.94 1.782-1.48.19-.166-2.346-.35-2.743-1.02-2.284-.893 3.41-1.433 3.67-1.654.805-2.217-3.38-4.08-2.26-.866.512-2.638 4.42-4.39 5.43-3.015 1.743-19.002 1.35-15.784-5.017.365-.71 6.85-8.48 7.177-8.533 1.874-.303 6.437.364 7.79 1.813.003.003.875 1.98.875 1.98.31.213.74.014 1.11.026.74.03 1.48.05 2.22.074.37.014.75-.096 1.108.023.853.303 1.562 1.2 2.66 1.06.66-.086 1.192-1.257 1.775-.93.384.214-.497 3.395 4.707 2.18.282-.078 3.16-1.2 1.29.17-.192.144-.802.342-.584.43 1.267.49 2.358-.927 3.46-1.925-1.3-.992-1.304 1.106-2.48-.294-2.65-3.185-2.43-6.99-5.126-10.48-1.266-1.636-3.546-2.165-4.866-3.556-.63-.686-.537-1.967-.96-2.665-.008 0-1.403-1.207-1.415-1.207-.722-2.457 4.85-13.77 2.58-14.312-3.23-.746-12.173 1.566-15.863 2.02-12.617 1.566-25.237 3.055-37.87 4.447-.407.06-.814.1-1.223.148-3.37.366-11.743 2.347-14.667 1.58-.304-.075-.713-.31-.684-.626.085-.69 2.45-1.476 2.25-2.32-.227-1.017-2.41-1.52-2.75-2.5-.26-.777 1.13-2.09.95-2.887-.164-.68-1.78-1.72-2.14-2.57-.035-.065 4.337-.536 4.773-1.897.46-1.424-2.886-2.41-2.35-4.628.406-1.664 3.01 2.424 3.07-.334.023-1.455-2.57-2.875-1.73-4.69.274-.604 3.918-1.874 2.765-3.09-.49-.53-3.462 1.18-3.208-1.064.21-1.905 2.873.224 3.67-.39.813-.62.17-3.42.78-4.274.372-.514 2.79-.783 2.468-1.9-.42-1.465-2.4 1.54-1.884-1.304.066-.354.064-.736.19-1.07 1.025-2.57 2.692.315 3.015-.683.488-1.543 1.336-4.11 2.483-5.517.8-1.006 2.763-1.38 3.42-2.482.674-1.14-3.756-1.83-3.345-2.42.256-.36 2.67.56 3.117.347.53-.252 2.53-3.656 1.964-4.42-.857-1.16-4.687 3.29-5.46.613-1.078-3.7 5.94-3.352 6.285-4.206l-.23-2.072c.265-.434 3.037-.338 2.265-1.653-.422-.73-2.633-.39-3.182-1.04-.62-.733.556-3.354.223-3.54-1.26-.656-3.516 1.133-4.913-.14-2.93-2.688 3.368-1.718 3.473-1.79.864-.64-2.714-2.168-2.727-2.494-.024-.805 2.666-1.702 2.112-3.042-1.025-2.483-3.994 3.66-5.35 1.304-1.706-2.992 3.354-2.728 3.082-5.257-.18-1.52-3.937-.653-4.438-1.604-.45-.834 4.562-7.567 2.097-8.64-2.732-1.196-.113 4.496-3.91 3.24-1.776-.597.37-2.94.822-3.604C68.93 3.34 34.462 6.323 0 8.914c.735 9.972 1.47 19.933 2.2 29.906.17 2.404-.056 10.73.913 12.44.977 1.714 4.44 2.96 5.86 4.43 1.847 1.935 3.216 4.85 3.636 7.395.2 1.244-.71 3.002-.297 4.2.54 1.545 2.916 1.686 3.7 2.72.24.315.355.753.295 1.14-.04.312-.578.437-.56.74.12 1.43 3.965 3.216 4.072 4.56.058.795-1.23 1.37-1.065 2.17.12.616 2.223 1.34 2.61 1.87.503.658.26 2.16.85 2.72.31.302 2.367.1 2.52.49.35.897-1.135 2.59-.956 3.556.116.7 2.17 1.935 2.07 2.616l-1.797.833c-.97 1.723 1.413 2.106 1.454 2.67 0 0-1.075 2.16-1.08 2.16-.514 2.636.18 5.874-1.2 8.447-.466.86-1.976 1.35-2.32 2.266l.16 2.068c-.304.835-1.818.813-1.708 2.218.09 1.222 1.805 2.67 1.573 4.03-.333 1.86-2.27 1.865-1.55 4.288 1.892 6.436 3.81 8.93-.084 15.25l-.08.11c.8.684 1.14 2.11.97 3.278-.06.392-.74 2.646-1.045 2.854-1.615 1.05-5.16.185-2.878 3.678.145.23 1.93 1.906 2.035 1.922 1.09.117 3.118-2.703 4.19-3.095 3.657-1.354 14.16-2.28 18.184-2.185 7.44.167 14.257 4.3 21.414 5.717 3.046.59 6.36.555 9.455.815 1.663.145 4.31.883 5.916.5 1.3-.318 2.32-1.965 3.58-2.426 1.206-.45 2.864.125 4.03-.408 3.03-1.384-.173-.207.242-1.404.043-.112 1.85-.088 1.89-.2.457-1.323-3.104.337-3.15.324-.204-.09-1.54-2.392-1.516-2.627.016-.62 1.585-1.074 1.12-1.49-.412-.367-2.548 1.215-3.073.996-.11-.047-.94-2.65-.897-2.684.292-.315.84-.084 1.254-.125.42-.047.872-.29 1.26-.12.42.173-.323 1.414.13 1.366.227-.02 5.136-2.98 5.374-3.305.277-.376-.406-1.01-.135-1.38.47-.62 1.544.644 1.95.5.99-.38 1.29-.82 2.657-.97.34-.027.742-.29 1.036-.107 2.267 1.384-2.44.95-.9 3.56.23.405-.21 1.075.133 1.377.398.35 6.687-2.73 8.643-2.28 1.67.375-.164 2.853.08 3.796.613 2.328 2.51-.177 3.566.666.857.695.42 4.105.425 4.115.314.353 3.416-1.05 3.97-.983 1.51.2 3.596 2.93 5.695 2.02.74-.328.787-6.523 2.12-5.35 1.91 1.67-2.168 3.28-.79 5.896 1.35 2.56 4.848 2.304 6.197 4.166.42.583.81 4.634-.818 4.248-1.19-.278-.48-2.886-1.008-3.353-.36-.314-.74 1-1.184.827l-1.03-1.73c-1.818-1.472-1.757 1.09-2.792 1.797-.36.258-1.03-.55-1.3-.2-.196.27.345.58.528.866 1.148 1.94 9.192 4.59 10.875 4.11.723-.207.274-1.422 1.754-1.583.21-.03.61-.284.63-.075.063.62-1.362.938-1.113 1.514.07.16 2.287-.357 2.526-.294.908.248 1.84 1.7 2.758 1.768 2.625.19.824-1.912 1.027-2.2.29-.39.87.487 1.347.538.63.06 1.337-.532 1.9-.217.637.358.067 1.378-.473 1.44-.21.024-.803-.062-.64.074.332.286 3.76.252 3.87.242.79-.09.617-1.823 1.026-2.196.457-.436 1.13 1.76 1.418 1.212.51-.962-1.397-3.557.154-4.177.41-.172.613-.183.755-.148.053-.228.155-.52.39-1.035.84-1.8-1.92-.857-.242-2.052.195-.135.36-.45.586-.412 1.515.215 2.123 1.14 3.322.995.818-.103 1.212-2.923 1.563-2.966 2.17-.267 1.418 2.52 1.85 3.014.35.39.685-.85 1.153-1.066 1.344-.602 2.263 2.272 3.236 2.147.505-.06-.026-1.383.47-1.436.727-.095 1.016 1.54.882 1.97-.594 1.827.09 2 1.12 4.022.763 1.483-.66-.178-.468 1.44.118.92 1.664-.8 2.407-1.334.005-.004 1.764-1.25 1.777-1.253.7-.618 1.75-1.595 2.26-2.37 1.503-2.29-1.954-.605-1.67-3.258.067-.723 1.167-2.065 1.72-1.605.155.14.42-.052.63-.084.05-.004.16.04.155-.012-.14-1.12-1.52-6.703-1.63-6.74-1.43-.51-3.07.656-4.488-.133-.244-.144-.544-1.15-.787-1.29-.082-.045-.122-.05-.19-.098-.36.436-1.406-.716 0 0 .084-.1.14-.264.105-.59-.01-.04-.543-.194-.17-1.374.052-.16 2.588.71 8.675 3.077.69.282 1.787-.516 2.51-.31l1.422 1.202c1.356-.17-.06-1.815.366-2.13.253-.175 2.035.872 2.06 1.125l-1.17.85c-.387 2.257 2.343.252 2.607.358l-.456 1.446c.105.177.43-.156.626-.08.29.114.61.32.71.604.383 1.03-2.7 1.378-2.237 2.373l2.087-.27c.427-.054 2.148.474 2.396.386 0-.01 1.704-1.61 1.71-1.61 2.152-1.29.606 2.527 1.7 3.248.65.43 2.46.11 3.243.264l1.338.52c.19-.136-.047-.453-.08-.684-.026-.23-.224-.5-.09-.683.123-.176.424-.054.625-.084.21-.02.602-.295.625-.085.043.313-.54.448-.538.77.05 1.884 3.583 2.976 3.602 2.993.412.503-.09 3.183 1.624 2.557 2.55-.918.674-2.182 1.123-3.62.07-.24-.023-.8.23-.727.584.167.173 1.364.652 1.763 2.64 2.186-.254 1.723-1.294 3.185l.187 1.36c-.382 1.51-1.51 2.903-1.983 4.434-.21.657 1.35-.43 1.797-.934.27-.297.335-.736.51-1.104 1.015-2.278 1.78-2.673 3.28-4.266.345-.364-.048-1.49.446-1.452.815.065 2.953 5.33 4.43 4.263.58-.427-.812-1.245-.9-1.96-.075-.55 1-2.92 1.52-2.992.315-.036.423.64.725.588.5-.06-.965-.79-.815-1.27.26-.838 1.94 1.16 2.072 1.103l.984-2.218c-.533-1.41-2.906.52-3.145.434-.218-.078-.066-.455-.098-.68-.094-.722 6.948-3.743 1.522-2.998"/><path fill="#FFF" d="M54.387 68.49l3.705-9.654-3.333-1.415c-.6 1.3-1.235 2.395-1.905 3.28-.67.888-1.398 1.63-2.183 2.224-.785.597-1.613 1.045-2.482 1.348-.87.304-1.767.48-2.694.53-.644.037-1.105-.02-1.386-.164s-.43-.39-.45-.737c-.017-.334.007-.775.077-1.324l1.635-13.13c.12-.95.393-1.63.816-2.046.422-.415 1.177-.676 2.262-.786l.442-3.762-13.627.756-.443 3.763c1.477.03 2.24.46 2.285 1.288.03.544-.035 1.3-.19 2.262l-1.49 12.69c-.074.698-.335 1.24-.785 1.624s-1.21.63-2.283.74l-.446 3.764 22.47-1.247zm31.703-1.757l.37-3.76c-.986-.106-1.69-.303-2.116-.59-.424-.286-.723-.728-.89-1.326L78.056 41.23l-7.75.43-9.08 18.38c-.703 1.426-1.234 2.41-1.595 2.95-.36.542-.734.913-1.125 1.115-.392.2-1.023.375-1.896.522l-.48 3.766 10.53-.583.424-3.763c-1.05.06-1.735.022-2.052-.11s-.486-.412-.51-.845c-.023-.433.506-1.733 1.588-3.9l8.047-.447c.525 1.633.807 2.814.848 3.543.026.47-.2.82-.676 1.052-.478.23-1.32.38-2.534.447l-.424 3.762 14.72-.82zM67.83 55.357l3.427-7.648.074-.01 1.86 7.357-5.36.296z"/></svg>