<?xml version="1.0" encoding="utf-8"?>
<!-- Generator: Adobe Illustrator 15.0.0, SVG Export Plug-In . SVG Version: 6.00 Build 0)  -->
<!DOCTYPE svg PUBLIC "-//W3C//DTD SVG 1.1//EN" "http://www.w3.org/Graphics/SVG/1.1/DTD/svg11.dtd">
<svg version="1.1" id="Layer_1" xmlns="http://www.w3.org/2000/svg" xmlns:xlink="http://www.w3.org/1999/xlink" x="0px" y="0px"
	 width="203.202px" height="159.998px" viewBox="0 0 203.202 159.998" enable-background="new 0 0 203.202 159.998"
	 xml:space="preserve">
<g id="louisiana">
	<path id="LA" opacity="0.75" fill="#D9B67B" d="M201.146,146.306c-0.214,0.039-0.504-0.091-0.633,0.09
		c-0.134,0.187,0.315,0.611,0.104,0.683c-2.249,0.829-4.504-5.634-5.868-5.449c-1.483,0.207-0.216,1.419-1.701,1.616l-0.809-1.277
		c-0.513-0.167-4.345,1.088-4.494-0.09c-0.097-0.67,2.463-1.026,1.793-0.932c-1.616,0.215-2.743-0.328-4.241-0.124
		c-0.57,0.065-3.141,0.808-3.434,0.1c-0.194-0.457,0.428-2.323,0.317-2.467c-1.26-1.655-5.111-0.024-6.542-1.223
		c-1.401-1.184-1.461-3.823-2.453-4.208c-0.22-0.085-0.861-0.116-0.664-0.257c0.272-0.201,0.675,0.003,1.016,0.006
		c0.678,0.008,1.359,0.008,2.043,0.011c0.344,0.002,0.86,0.307,1.014,0.002c0.86-1.668-2.082-2.604-2.55-2.999
		c-0.22-0.196,0.578,0.079,0.872,0.111c0.291,0.048,0.577,0.093,0.858,0.121c0.288,0.045,0.603-0.002,0.863,0.119
		c1.359,0.619,3.378,0.683,5.014,0.969c0.081,0.011-0.066-0.175-0.137-0.217c-0.42-0.283-0.683-0.439-0.869-0.535
		c-0.299-0.021-0.543-0.285,0,0c0.231,0.014,0.467-0.118,0.383-0.791c-0.179-1.351-2.846,2.608-3.396-1.636
		c-0.12-0.945,2.749-0.888,3.04-1.1c0.436-0.325,0.979-3.616,1.422-3.678c1.633-0.209,0.673,3.069,3.399,1.645
		c0.375-0.201,1.079,0.217,1.244-0.164c0.328-0.747-1.407-1.086-1.517-1.891c-0.079-0.624,1.546-1.133,1.068-1.532
		c-0.315-0.271-0.924,0.429-1.242,0.158c-0.554-0.449,0.896-1.671,0.35-2.131c-0.512-0.43-1.117,1.026-1.784,0.934l-0.795-1.283
		c0.144-1.649,1.44,0.442,2.48-0.336c0.197-0.136-0.048-0.452-0.082-0.676c-0.271-2.015-2.622,0.665-3.207-0.271
		c-0.672-1.063,1.961-2.74,1.955-2.816c-0.084-0.641-1.202-0.416-1.782-0.693c-0.701-0.331-1.331-1.417-2.048-1.131
		c-0.662,0.291,0.008,1.524-0.359,2.145c-0.438,0.761-1.893,0.936-2.312,1.703c-1.379,2.526,1.117,8.044-4.775,4.803
		c-1.446-0.794-0.283-1.858-0.572-2.01c-1.444-0.797-5.35,1.748-5.339-2.103c0.003-1.987,7.507-0.741,6.866-5.77
		c-0.244-1.872-2.583,1.737-2.94,1.783c-1.479,0.189-0.167-2.347-0.351-2.744c-1.021-2.283-0.893,3.408-1.433,3.67
		c-1.654,0.806-2.217-3.382-4.08-2.261c-0.866,0.514-2.638,4.422-4.389,5.431c-3.016,1.744-19.003,1.351-15.785-5.016
		c0.365-0.709,6.849-8.479,7.177-8.533c1.873-0.303,6.436,0.364,7.789,1.813c0.003,0.003,0.875,1.98,0.875,1.98
		c0.31,0.213,0.739,0.014,1.11,0.026c0.739,0.03,1.48,0.051,2.221,0.075c0.369,0.014,0.75-0.096,1.107,0.023
		c0.853,0.304,1.562,1.202,2.661,1.062c0.658-0.087,1.191-1.258,1.774-0.932c0.383,0.215-0.498,3.396,4.706,2.182
		c0.282-0.079,3.16-1.202,1.289,0.17c-0.191,0.143-0.801,0.341-0.583,0.429c1.265,0.489,2.356-0.927,3.459-1.925
		c-1.299-0.992-1.305,1.106-2.478-0.294c-2.653-3.185-2.432-6.989-5.129-10.479c-1.266-1.637-3.546-2.166-4.866-3.557
		c-0.631-0.686-0.536-1.967-0.961-2.665c-0.006,0-1.401-1.206-1.413-1.206c-0.722-2.457,4.851-13.771,2.581-14.312
		c-3.231-0.747-12.174,1.565-15.864,2.018c-12.615,1.567-25.235,3.056-37.868,4.448c-0.407,0.061-0.814,0.099-1.223,0.148
		c-3.37,0.366-11.743,2.347-14.667,1.581c-0.305-0.076-0.714-0.312-0.685-0.627c0.086-0.688,2.45-1.475,2.25-2.321
		c-0.226-1.015-2.41-1.52-2.749-2.497c-0.26-0.778,1.129-2.091,0.948-2.888c-0.162-0.679-1.78-1.719-2.139-2.569
		c-0.034-0.066,4.338-0.537,4.774-1.898c0.462-1.424-2.884-2.409-2.347-4.628c0.405-1.663,3.009,2.425,3.069-0.333
		c0.023-1.456-2.569-2.876-1.729-4.692c0.273-0.604,3.917-1.874,2.764-3.092c-0.491-0.527-3.462,1.181-3.208-1.062
		c0.212-1.904,2.874,0.225,3.672-0.39c0.812-0.619,0.168-3.42,0.78-4.273c0.371-0.514,2.788-0.783,2.467-1.901
		c-0.419-1.464-2.401,1.541-1.884-1.303c0.065-0.354,0.063-0.736,0.188-1.069c1.026-2.571,2.693,0.314,3.016-0.684
		c0.488-1.542,1.336-4.109,2.483-5.516c0.8-1.007,2.763-1.38,3.419-2.483c0.675-1.142-3.755-1.83-3.344-2.423
		c0.257-0.359,2.672,0.562,3.118,0.348c0.53-0.252,2.53-3.656,1.964-4.419c-0.858-1.16-4.688,3.288-5.462,0.612
		c-1.077-3.699,5.942-3.351,6.286-4.205l-0.23-2.073c0.265-0.435,3.037-0.339,2.265-1.654c-0.422-0.729-2.633-0.389-3.182-1.041
		c-0.619-0.731,0.556-3.352,0.223-3.538c-1.262-0.656-3.517,1.133-4.914-0.141c-2.931-2.687,3.368-1.717,3.473-1.789
		c0.864-0.639-2.714-2.168-2.727-2.494c-0.023-0.806,2.667-1.703,2.113-3.043c-1.025-2.483-3.994,3.659-5.35,1.304
		c-1.706-2.992,3.354-2.728,3.082-5.257c-0.181-1.519-3.937-0.653-4.438-1.604c-0.45-0.835,4.562-7.568,2.097-8.64
		c-2.732-1.197-0.113,4.495-3.909,3.238c-1.777-0.597,0.37-2.939,0.821-3.604C68.932,3.34,34.463,6.322,0,8.913
		c0.735,9.972,1.47,19.933,2.199,29.906c0.171,2.407-0.055,10.732,0.914,12.44c0.977,1.717,4.441,2.962,5.861,4.434
		c1.846,1.934,3.215,4.851,3.635,7.394c0.205,1.244-0.708,3.002-0.293,4.201c0.541,1.544,2.916,1.685,3.701,2.72
		c0.239,0.314,0.354,0.752,0.294,1.138c-0.04,0.313-0.578,0.438-0.562,0.742c0.121,1.43,3.967,3.215,4.074,4.56
		c0.058,0.794-1.23,1.369-1.065,2.168c0.121,0.617,2.223,1.34,2.609,1.872c0.504,0.657,0.26,2.158,0.851,2.72
		c0.31,0.301,2.367,0.098,2.519,0.489c0.351,0.897-1.134,2.59-0.955,3.556c0.116,0.698,2.168,1.933,2.068,2.614l-1.795,0.833
		c-0.971,1.725,1.413,2.108,1.454,2.672c0,0-1.073,2.16-1.077,2.16c-0.515,2.636,0.179,5.874-1.202,8.447
		c-0.465,0.86-1.975,1.351-2.32,2.267c0,0,0.159,2.064,0.159,2.068c-0.302,0.834-1.816,0.812-1.706,2.217
		c0.091,1.222,1.806,2.668,1.574,4.031c-0.333,1.859-2.271,1.864-1.55,4.287c1.892,6.437,3.809,8.931-0.084,15.251l-0.078,0.11
		c0.798,0.684,1.14,2.11,0.969,3.278c-0.06,0.392-0.738,2.646-1.045,2.854c-1.614,1.051-5.158,0.185-2.877,3.678
		c0.145,0.23,1.929,1.906,2.035,1.922c1.089,0.117,3.118-2.703,4.191-3.095c3.656-1.354,14.158-2.28,18.183-2.185
		c7.438,0.167,14.257,4.3,21.414,5.717c3.045,0.591,6.359,0.556,9.454,0.816c1.664,0.146,4.311,0.884,5.917,0.501
		c1.299-0.318,2.32-1.965,3.581-2.426c1.203-0.45,2.861,0.125,4.026-0.408c3.029-1.383-0.173-0.206,0.242-1.403
		c0.042-0.111,1.848-0.087,1.89-0.198c0.456-1.324-3.105,0.336-3.15,0.323c-0.205-0.091-1.539-2.392-1.517-2.627
		c0.016-0.62,1.585-1.072,1.121-1.491c-0.413-0.364-2.549,1.218-3.074,0.999c-0.111-0.048-0.94-2.65-0.898-2.685
		c0.292-0.315,0.841-0.084,1.254-0.125c0.42-0.048,0.872-0.291,1.26-0.121c0.42,0.173-0.323,1.414,0.131,1.366
		c0.226-0.019,5.135-2.981,5.373-3.305c0.276-0.376-0.407-1.011-0.136-1.382c0.47-0.617,1.546,0.646,1.952,0.5
		c0.99-0.381,1.289-0.82,2.657-0.97c0.341-0.025,0.742-0.287,1.036-0.105c2.268,1.383-2.441,0.948-0.9,3.559
		c0.231,0.405-0.208,1.075,0.134,1.377c0.398,0.35,6.687-2.728,8.643-2.28c1.669,0.376-0.163,2.854,0.082,3.797
		c0.612,2.327,2.51-0.178,3.565,0.665c0.857,0.696,0.419,4.106,0.425,4.116c0.313,0.354,3.415-1.051,3.971-0.982
		c1.51,0.199,3.594,2.929,5.693,2.02c0.74-0.328,0.787-6.523,2.12-5.349c1.909,1.669-2.168,3.278-0.79,5.895
		c1.35,2.56,4.848,2.303,6.197,4.165c0.422,0.582,0.809,4.633-0.817,4.247c-1.191-0.278-0.48-2.886-1.008-3.353
		c-0.359-0.314-0.738,1.001-1.183,0.827l-1.031-1.729c-1.817-1.473-1.756,1.088-2.791,1.796c-0.359,0.259-1.031-0.549-1.299-0.199
		c-0.197,0.27,0.344,0.58,0.527,0.866c1.148,1.94,9.192,4.588,10.875,4.109c0.722-0.207,0.273-1.422,1.753-1.583
		c0.21-0.029,0.61-0.283,0.63-0.074c0.063,0.621-1.362,0.938-1.113,1.514c0.071,0.159,2.286-0.356,2.525-0.293
		c0.908,0.249,1.84,1.7,2.758,1.769c2.625,0.19,0.824-1.912,1.027-2.2c0.288-0.389,0.869,0.487,1.346,0.538
		c0.63,0.061,1.336-0.532,1.901-0.217c0.635,0.357,0.065,1.377-0.475,1.44c-0.21,0.023-0.801-0.063-0.639,0.073
		c0.333,0.286,3.762,0.252,3.872,0.242c0.792-0.09,0.617-1.822,1.026-2.195c0.456-0.434,1.128,1.761,1.417,1.214
		c0.509-0.962-1.397-3.557,0.154-4.177c0.412-0.172,0.614-0.183,0.756-0.148c0.052-0.228,0.154-0.519,0.391-1.035
		c0.84-1.801-1.921-0.857-0.244-2.052c0.194-0.136,0.359-0.45,0.585-0.413c1.515,0.215,2.123,1.139,3.322,0.995
		c0.819-0.103,1.213-2.923,1.564-2.966c2.168-0.267,1.417,2.521,1.85,3.014c0.348,0.39,0.684-0.852,1.152-1.069
		c1.344-0.602,2.263,2.272,3.236,2.147c0.505-0.058-0.026-1.383,0.468-1.436c0.729-0.095,1.018,1.539,0.884,1.971
		c-0.593,1.826,0.089,1.999,1.121,4.021c0.763,1.483-0.659-0.178-0.468,1.44c0.118,0.919,1.664-0.8,2.407-1.334
		c0.005-0.006,1.764-1.252,1.777-1.255c0.7-0.617,1.75-1.594,2.26-2.37c1.502-2.29-1.955-0.604-1.672-3.257
		c0.068-0.722,1.168-2.064,1.719-1.604c0.157,0.141,0.42-0.052,0.63-0.084c0.052-0.006,0.162,0.037,0.157-0.014
		c-0.14-1.122-1.52-6.704-1.63-6.741c-1.431-0.509-3.071,0.656-4.488-0.133c-0.244-0.143-0.544-1.149-0.787-1.289
		c-0.081-0.045-0.121-0.052-0.188-0.098c-0.36,0.437-1.407-0.715,0,0c0.083-0.101,0.139-0.263,0.104-0.591
		c-0.01-0.04-0.543-0.192-0.17-1.372c0.052-0.16,2.588,0.711,8.675,3.078c0.689,0.281,1.787-0.517,2.51-0.311l1.422,1.202
		c1.357-0.169-0.061-1.814,0.367-2.131c0.255-0.173,2.037,0.874,2.061,1.127l-1.168,0.849c-0.388,2.258,2.342,0.253,2.606,0.359
		l-0.456,1.446c0.104,0.177,0.428-0.156,0.625-0.08c0.29,0.114,0.608,0.32,0.711,0.604c0.381,1.03-2.703,1.378-2.239,2.373
		l2.089-0.271c0.426-0.053,2.147,0.475,2.395,0.387c0.002-0.009,1.705-1.61,1.709-1.61c2.154-1.289,0.608,2.526,1.703,3.247
		c0.65,0.429,2.459,0.111,3.242,0.264l1.338,0.52c0.191-0.136-0.048-0.453-0.081-0.684c-0.026-0.229-0.224-0.5-0.089-0.683
		c0.122-0.176,0.423-0.054,0.624-0.084c0.213-0.019,0.604-0.295,0.627-0.085c0.043,0.312-0.541,0.447-0.538,0.768
		c0.05,1.885,3.583,2.977,3.602,2.994c0.413,0.504-0.089,3.184,1.625,2.558c2.55-0.918,0.674-2.182,1.123-3.621
		c0.07-0.238-0.024-0.8,0.228-0.726c0.585,0.167,0.174,1.364,0.653,1.763c2.639,2.185-0.254,1.722-1.294,3.184l0.187,1.36
		c-0.383,1.51-1.51,2.902-1.984,4.433c-0.21,0.656,1.352-0.432,1.798-0.935c0.271-0.297,0.336-0.736,0.51-1.104
		c1.016-2.277,1.78-2.672,3.281-4.265c0.345-0.363-0.048-1.488,0.446-1.451c0.814,0.065,2.952,5.33,4.429,4.263
		c0.582-0.429-0.812-1.247-0.901-1.962c-0.075-0.549,0.998-2.921,1.518-2.992c0.317-0.036,0.425,0.639,0.727,0.588
		c0.499-0.061-0.966-0.791-0.816-1.269c0.262-0.839,1.939,1.159,2.073,1.102l0.984-2.217c-0.533-1.411-2.906,0.518-3.145,0.433
		c-0.218-0.078-0.066-0.455-0.098-0.681C199.53,148.582,206.572,145.561,201.146,146.306"/>
	<path fill="#FFFFFF" d="M54.387,68.49l3.705-9.654l-3.333-1.415c-0.597,1.299-1.231,2.391-1.901,3.276
		c-0.67,0.888-1.398,1.629-2.183,2.224c-0.785,0.596-1.613,1.044-2.482,1.347c-0.87,0.303-1.768,0.479-2.695,0.53
		c-0.644,0.036-1.105-0.02-1.386-0.165s-0.431-0.391-0.45-0.737c-0.018-0.334,0.006-0.775,0.076-1.324l1.635-13.13
		c0.121-0.949,0.393-1.631,0.816-2.046c0.423-0.414,1.178-0.675,2.263-0.785l0.442-3.763l-13.627,0.755l-0.443,3.763
		c1.477,0.03,2.239,0.459,2.285,1.287c0.03,0.544-0.034,1.299-0.19,2.262l-1.492,12.694c-0.073,0.698-0.334,1.239-0.784,1.624
		c-0.45,0.385-1.211,0.631-2.283,0.74l-0.443,3.764L54.387,68.49z"/>
	<path fill="#FFFFFF" d="M86.091,66.733l0.369-3.76c-0.986-0.106-1.691-0.303-2.116-0.589c-0.424-0.287-0.723-0.729-0.891-1.327
		L78.057,41.23l-7.75,0.43l-9.081,18.379c-0.702,1.427-1.233,2.412-1.594,2.952c-0.36,0.541-0.737,0.912-1.128,1.114
		c-0.392,0.201-1.023,0.375-1.896,0.522l-0.479,3.766l10.531-0.583l0.424-3.763c-1.051,0.059-1.735,0.022-2.052-0.109
		s-0.488-0.413-0.511-0.846c-0.024-0.433,0.505-1.733,1.587-3.901l8.047-0.446c0.525,1.633,0.807,2.814,0.848,3.543
		c0.026,0.47-0.2,0.82-0.676,1.052c-0.477,0.23-1.321,0.38-2.533,0.447l-0.424,3.762L86.091,66.733z M67.831,55.357l3.426-7.648
		l0.074-0.005l1.859,7.356L67.831,55.357z"/>
</g>
</svg>
