<svg xmlns="http://www.w3.org/2000/svg" width="203.202" height="159.998" viewBox="0 0 203.202 159.998"><path opacity=".75" fill="#D9B67B" d="M201.146 146.306c-.214.04-.504-.09-.633.09-.134.187.315.61.104.683-2.25.823-4.504-5.64-5.868-5.45-1.49.202-.22 1.42-1.707 1.61l-.81-1.276c-.512-.168-4.344 1.087-4.493-.09-.096-.67 2.464-1.027 1.794-.933-1.616.216-2.743-.327-4.24-.123-.57.065-3.142.81-3.435.1-.195-.457.43-2.323.316-2.467-1.26-1.654-5.11-.023-6.543-1.222-1.4-1.182-1.46-3.82-2.453-4.206-.22-.085-.86-.116-.663-.257.273-.2.676.003 1.017.006.678.01 1.36.01 2.043.01.344.005.86.31 1.014.005.86-1.668-2.08-2.604-2.55-3-.22-.195.58.08.874.112.29.047.577.092.858.12.29.045.604-.002.864.12 1.36.618 3.378.682 5.014.968.08.01-.066-.175-.137-.217-.42-.284-.682-.44-.87-.536-.297-.02-.54-.284 0 0 .233.015.47-.117.385-.79-.18-1.35-2.847 2.608-3.397-1.636-.12-.946 2.75-.89 3.04-1.1.438-.326.98-3.617 1.424-3.68 1.634-.208.674 3.07 3.4 1.646.375-.2 1.08.217 1.244-.164.328-.75-1.407-1.088-1.517-1.89-.08-.627 1.546-1.136 1.07-1.535-.317-.27-.926.43-1.244.158-.554-.45.896-1.67.35-2.13-.512-.43-1.117 1.026-1.784.934l-.794-1.282c.144-1.65 1.44.442 2.48-.336.197-.135-.048-.45-.082-.675-.27-2.013-2.622.667-3.207-.27-.674-1.062 1.96-2.74 1.953-2.815-.084-.64-1.2-.415-1.78-.692-.7-.33-1.33-1.416-2.05-1.13-.66.29.01 1.524-.36 2.145-.436.76-1.89.935-2.31 1.702-1.38 2.526 1.117 8.044-4.775 4.803-1.447-.792-.284-1.856-.573-2.01-1.444-.795-5.35 1.75-5.34-2.1.004-1.988 7.508-.74 6.867-5.77-.244-1.873-2.583 1.736-2.94 1.782-1.48.19-.167-2.346-.35-2.743-1.02-2.284-.894 3.41-1.434 3.67-1.654.805-2.217-3.38-4.08-2.26-.866.512-2.638 4.42-4.39 5.43-3.015 1.743-19.002 1.35-15.784-5.017.365-.71 6.85-8.48 7.177-8.533 1.874-.303 6.437.364 7.79 1.813l.875 1.98c.31.213.74.014 1.11.026.74.03 1.48.05 2.22.075.37.014.75-.096 1.108.023.853.303 1.562 1.2 2.66 1.06.66-.086 1.192-1.257 1.775-.93.384.214-.497 3.395 4.707 2.18.282-.078 3.16-1.2 1.29.17-.192.144-.802.342-.584.43 1.268.49 2.36-.927 3.46-1.925-1.3-.992-1.303 1.106-2.48-.294-2.65-3.186-2.43-6.99-5.125-10.48-1.266-1.637-3.546-2.166-4.866-3.557-.63-.686-.538-1.967-.96-2.665-.01 0-1.404-1.207-1.416-1.207-.722-2.456 4.85-13.77 2.58-14.31-3.23-.747-12.173 1.565-15.863 2.02-12.616 1.565-25.236 3.054-37.87 4.446-.406.06-.813.1-1.222.15-3.37.365-11.743 2.346-14.667 1.58-.303-.076-.712-.31-.683-.627.085-.69 2.45-1.477 2.25-2.32-.227-1.018-2.41-1.52-2.75-2.5-.26-.778 1.13-2.09.95-2.888-.164-.68-1.78-1.72-2.14-2.57-.035-.065 4.337-.536 4.773-1.897.46-1.425-2.887-2.41-2.35-4.63.405-1.663 3.01 2.425 3.07-.333.022-1.455-2.57-2.875-1.73-4.69.273-.604 3.917-1.874 2.764-3.09-.49-.53-3.462 1.18-3.208-1.064.21-1.905 2.873.224 3.67-.39.813-.62.17-3.42.78-4.274.372-.515 2.79-.784 2.468-1.9-.42-1.466-2.4 1.54-1.884-1.305.066-.355.064-.737.19-1.07 1.025-2.57 2.692.314 3.015-.684.488-1.543 1.336-4.11 2.483-5.517.8-1.007 2.763-1.38 3.42-2.483.674-1.14-3.756-1.83-3.345-2.42.256-.36 2.67.56 3.117.347.53-.252 2.53-3.656 1.964-4.42-.857-1.16-4.687 3.29-5.46.613-1.078-3.7 5.94-3.352 6.285-4.206l-.23-2.07c.263-.435 3.035-.34 2.263-1.654-.422-.73-2.633-.39-3.182-1.04-.62-.733.557-3.354.224-3.54-1.26-.656-3.516 1.133-4.913-.14-2.93-2.688 3.37-1.718 3.474-1.79.864-.64-2.714-2.168-2.727-2.494-.024-.805 2.666-1.702 2.112-3.042-1.026-2.483-3.995 3.66-5.35 1.304-1.707-2.992 3.353-2.728 3.08-5.257-.18-1.52-3.936-.653-4.437-1.604-.45-.835 4.562-7.568 2.097-8.64-2.73-1.197-.112 4.495-3.91 3.24-1.775-.598.37-2.94.823-3.605C68.93 3.34 34.463 6.323 0 8.915c.735 9.97 1.47 19.932 2.2 29.905.17 2.404-.056 10.73.913 12.44.977 1.714 4.44 2.96 5.86 4.43 1.847 1.935 3.216 4.85 3.636 7.395.2 1.244-.71 3.002-.3 4.2.54 1.545 2.917 1.686 3.7 2.72.24.315.356.753.296 1.14-.04.312-.578.437-.56.74.12 1.43 3.965 3.216 4.072 4.56.057.795-1.23 1.37-1.066 2.17.12.616 2.223 1.34 2.61 1.87.503.658.26 2.16.85 2.72.31.302 2.367.1 2.52.49.35.897-1.135 2.59-.956 3.556.116.7 2.17 1.937 2.07 2.618l-1.797.833c-.97 1.724 1.413 2.107 1.454 2.67 0 0-1.075 2.16-1.08 2.16-.514 2.637.18 5.875-1.2 8.448-.466.86-1.976 1.35-2.32 2.266l.16 2.068c-.304.836-1.818.814-1.708 2.22.09 1.22 1.805 2.67 1.573 4.03-.334 1.86-2.27 1.864-1.55 4.287 1.89 6.435 3.81 8.93-.085 15.25l-.08.11c.8.683 1.14 2.11.97 3.277-.06.392-.74 2.646-1.045 2.854-1.614 1.05-5.16.185-2.877 3.678.145.23 1.93 1.906 2.035 1.922 1.09.116 3.118-2.704 4.19-3.096 3.657-1.354 14.16-2.28 18.184-2.185 7.44.165 14.257 4.3 21.414 5.715 3.046.59 6.36.555 9.455.815 1.665.146 4.31.884 5.918.5 1.3-.317 2.32-1.964 3.58-2.425 1.206-.45 2.864.125 4.03-.408 3.03-1.384-.173-.207.242-1.404.042-.112 1.85-.088 1.89-.2.456-1.323-3.105.337-3.15.324-.205-.09-1.54-2.392-1.517-2.627.016-.62 1.585-1.074 1.12-1.49-.412-.367-2.548 1.215-3.073.996-.11-.047-.94-2.65-.897-2.684.292-.315.84-.084 1.254-.125.42-.047.872-.29 1.26-.12.42.173-.323 1.414.13 1.366.227-.02 5.136-2.98 5.374-3.305.28-.376-.404-1.01-.133-1.38.47-.62 1.544.644 1.95.5.99-.38 1.29-.82 2.657-.97.34-.027.742-.29 1.036-.107 2.266 1.386-2.44.95-.9 3.56.23.407-.21 1.077.132 1.38.398.35 6.687-2.73 8.643-2.28 1.67.374-.164 2.852.08 3.795.613 2.328 2.51-.177 3.566.666.86.696.42 4.106.427 4.116.314.353 3.416-1.05 3.97-.983 1.51.2 3.596 2.93 5.695 2.02.74-.328.788-6.523 2.12-5.35 1.91 1.67-2.167 3.28-.79 5.896 1.35 2.56 4.85 2.303 6.198 4.165.42.583.81 4.634-.818 4.248-1.19-.278-.48-2.886-1.008-3.353-.36-.315-.74 1-1.184.826l-1.03-1.73c-1.818-1.472-1.757 1.09-2.792 1.797-.36.258-1.03-.55-1.3-.2-.196.27.345.58.528.866 1.148 1.94 9.192 4.59 10.875 4.11.723-.21.274-1.424 1.754-1.585.21-.03.61-.284.63-.075.063.62-1.362.94-1.113 1.515.07.16 2.288-.357 2.527-.294.908.25 1.84 1.7 2.758 1.77 2.625.19.824-1.912 1.027-2.2.29-.39.87.487 1.348.538.63.06 1.337-.532 1.9-.217.637.36.067 1.38-.473 1.44-.21.025-.803-.06-.64.075.332.286 3.76.252 3.87.242.79-.09.617-1.823 1.026-2.196.458-.435 1.13 1.76 1.42 1.213.51-.962-1.398-3.557.153-4.177.41-.172.613-.183.755-.148.054-.228.156-.52.39-1.035.84-1.8-1.92-.857-.24-2.052.194-.134.36-.45.585-.41 1.515.214 2.123 1.14 3.322.994.818-.103 1.212-2.923 1.563-2.966 2.17-.267 1.418 2.52 1.85 3.014.35.39.685-.85 1.153-1.065 1.344-.602 2.263 2.272 3.236 2.147.504-.06-.027-1.383.47-1.436.726-.095 1.015 1.54.88 1.97-.593 1.827.09 2 1.12 4.022.764 1.483-.66-.178-.467 1.44.118.92 1.664-.8 2.407-1.334.005-.004 1.764-1.25 1.777-1.253.7-.617 1.75-1.594 2.26-2.37 1.503-2.29-1.954-.604-1.67-3.257.067-.723 1.167-2.065 1.72-1.605.155.14.42-.05.63-.083.05-.004.16.04.155-.012-.14-1.12-1.52-6.703-1.63-6.74-1.43-.51-3.07.656-4.49-.133-.243-.145-.543-1.15-.786-1.29-.082-.046-.122-.05-.19-.1-.36.437-1.406-.715 0 0 .084-.1.14-.263.105-.59-.01-.04-.543-.193-.17-1.373.05-.16 2.588.71 8.675 3.076.69.282 1.787-.516 2.51-.31l1.422 1.202c1.356-.17-.06-1.815.366-2.13.253-.175 2.035.872 2.06 1.125l-1.17.85c-.387 2.258 2.343.253 2.607.36l-.457 1.445c.105.177.43-.156.626-.08.29.114.61.32.71.604.38 1.03-2.7 1.377-2.24 2.372l2.088-.27c.426-.054 2.147.474 2.395.386 0-.01 1.704-1.61 1.71-1.61 2.152-1.29.606 2.527 1.7 3.248.65.43 2.46.11 3.243.264l1.338.52c.19-.136-.047-.453-.08-.684-.026-.23-.224-.5-.09-.683.123-.176.424-.054.625-.084.21-.02.602-.295.625-.085.043.313-.54.448-.538.77.05 1.884 3.583 2.976 3.602 2.993.41.503-.09 3.183 1.623 2.557 2.55-.918.674-2.182 1.123-3.62.07-.24-.023-.8.23-.727.584.167.173 1.364.652 1.763 2.64 2.187-.255 1.724-1.295 3.186l.187 1.36c-.382 1.51-1.51 2.903-1.983 4.434-.21.656 1.35-.43 1.796-.935.27-.297.335-.736.51-1.104 1.015-2.276 1.78-2.67 3.28-4.264.345-.364-.048-1.49.446-1.452.814.065 2.952 5.33 4.43 4.263.58-.427-.813-1.245-.9-1.96-.076-.55 1-2.92 1.52-2.992.314-.036.422.64.724.588.5-.06-.965-.79-.815-1.27.26-.838 1.94 1.16 2.07 1.103l.985-2.218c-.533-1.41-2.906.52-3.145.434-.218-.077-.066-.454-.098-.68-.094-.72 6.948-3.742 1.522-2.997"/><path fill="#FFF" d="M54.387 68.49l3.705-9.654-3.333-1.415c-.6 1.3-1.237 2.397-1.907 3.28-.67.89-1.398 1.63-2.183 2.226-.784.597-1.612 1.045-2.48 1.348-.87.304-1.768.48-2.695.53-.644.037-1.105-.02-1.386-.164s-.43-.39-.45-.738c-.02-.334.005-.775.075-1.324l1.635-13.13c.12-.95.394-1.63.817-2.046.422-.415 1.177-.676 2.262-.786l.44-3.762-13.627.756-.443 3.763c1.478.03 2.24.46 2.286 1.288.03.546-.035 1.3-.19 2.264l-1.49 12.69c-.074.698-.335 1.24-.785 1.624s-1.21.63-2.28.74l-.447 3.764 22.47-1.246zm31.703-1.757l.37-3.76c-.986-.106-1.69-.303-2.116-.59-.424-.286-.723-.728-.89-1.326L78.056 41.23l-7.75.43-9.08 18.38c-.703 1.426-1.234 2.41-1.595 2.95-.36.542-.732.913-1.123 1.115-.392.2-1.023.375-1.896.522l-.48 3.766 10.53-.583.425-3.763c-1.05.06-1.735.022-2.052-.11s-.486-.412-.51-.845c-.023-.433.506-1.733 1.588-3.9l8.048-.447c.525 1.633.807 2.814.848 3.543.026.47-.2.82-.676 1.052-.48.23-1.32.38-2.535.447l-.424 3.762 14.72-.82zM67.83 55.357l3.427-7.648.074-.01 1.86 7.355-5.36.296z"/></svg>