<svg xmlns="http://www.w3.org/2000/svg" width="203.202" height="159.998" viewBox="0 0 203.202 159.998"><path opacity=".75" fill="#D9B67B" d="M201.146 146.306c-.214.04-.504-.09-.633.09-.134.187.315.61.104.683-2.25.828-4.504-5.635-5.868-5.45-1.484.207-.217 1.42-1.702 1.616l-.81-1.277c-.512-.168-4.344 1.087-4.493-.09-.097-.67 2.463-1.027 1.793-.933-1.616.215-2.743-.328-4.24-.124-.57.065-3.142.808-3.435.1-.194-.457.428-2.323.317-2.467-1.26-1.655-5.11-.024-6.542-1.223-1.4-1.184-1.46-3.823-2.453-4.208-.22-.085-.86-.116-.664-.257.273-.2.676.003 1.017.006.678.008 1.36.008 2.043.01.344.003.86.308 1.014.003.86-1.668-2.082-2.604-2.55-3-.22-.195.578.08.872.112.29.047.577.092.858.12.288.045.603-.002.863.12 1.36.618 3.378.682 5.014.968.082.01-.065-.175-.136-.217-.42-.282-.683-.438-.87-.534-.298-.02-.542-.285 0 0 .232.014.468-.118.384-.79-.18-1.352-2.846 2.607-3.396-1.637-.12-.946 2.75-.89 3.04-1.1.436-.326.98-3.617 1.422-3.68 1.633-.208.673 3.07 3.4 1.646.374-.2 1.078.217 1.243-.164.328-.747-1.407-1.086-1.517-1.89-.08-.625 1.546-1.134 1.068-1.533-.315-.272-.924.428-1.242.157-.554-.45.896-1.67.35-2.13-.512-.43-1.117 1.025-1.784.933l-.795-1.283c.144-1.65 1.44.442 2.48-.336.197-.135-.048-.45-.082-.675-.27-2.015-2.622.665-3.207-.27-.672-1.064 1.96-2.74 1.955-2.817-.084-.64-1.202-.416-1.782-.693-.7-.33-1.33-1.417-2.047-1.13-.662.29.008 1.523-.36 2.144-.437.76-1.892.935-2.31 1.702-1.38 2.526 1.116 8.044-4.776 4.803-1.446-.794-.283-1.858-.572-2.01-1.444-.797-5.35 1.748-5.34-2.103.004-1.987 7.508-.74 6.867-5.77-.244-1.872-2.583 1.737-2.94 1.783-1.48.19-.167-2.347-.35-2.744-1.022-2.282-.894 3.41-1.434 3.67-1.654.807-2.217-3.38-4.08-2.26-.866.514-2.638 4.422-4.39 5.43-3.015 1.745-19.002 1.352-15.784-5.015.365-.71 6.85-8.48 7.177-8.533 1.874-.303 6.437.364 7.79 1.813.003.003.875 1.98.875 1.98.31.213.74.014 1.11.026.74.03 1.48.052 2.22.076.37.014.75-.096 1.108.023.853.303 1.562 1.2 2.66 1.06.66-.086 1.192-1.257 1.775-.93.383.214-.498 3.395 4.706 2.18.282-.078 3.16-1.2 1.29.17-.192.144-.802.342-.584.43 1.265.49 2.356-.927 3.46-1.925-1.3-.992-1.306 1.106-2.48-.294-2.652-3.184-2.43-6.988-5.128-10.478-1.266-1.637-3.546-2.166-4.866-3.557-.63-.686-.536-1.967-.96-2.665-.007 0-1.402-1.206-1.414-1.206-.722-2.457 4.85-13.77 2.58-14.312-3.23-.747-12.173 1.565-15.863 2.018-12.616 1.567-25.236 3.056-37.87 4.448-.406.06-.813.1-1.222.148-3.37.366-11.743 2.347-14.667 1.58-.304-.075-.713-.31-.684-.626.086-.688 2.45-1.475 2.25-2.32-.226-1.016-2.41-1.52-2.75-2.498-.26-.778 1.13-2.09.95-2.888-.163-.68-1.78-1.72-2.14-2.57-.034-.065 4.338-.536 4.774-1.897.462-1.424-2.884-2.41-2.347-4.628.405-1.664 3.01 2.424 3.07-.334.022-1.456-2.57-2.876-1.73-4.692.273-.604 3.917-1.874 2.764-3.092-.49-.527-3.462 1.18-3.208-1.062.21-1.904 2.873.225 3.67-.39.813-.62.17-3.42.78-4.273.372-.514 2.79-.783 2.468-1.9-.42-1.465-2.4 1.54-1.884-1.304.065-.354.063-.736.188-1.07 1.026-2.57 2.693.315 3.016-.683.488-1.542 1.336-4.11 2.483-5.516.8-1.007 2.764-1.38 3.42-2.483.675-1.14-3.755-1.83-3.344-2.422.257-.36 2.672.562 3.118.348.53-.252 2.53-3.656 1.964-4.42-.858-1.16-4.688 3.29-5.462.613-1.077-3.7 5.942-3.352 6.286-4.206l-.23-2.073c.265-.434 3.037-.338 2.265-1.653-.422-.73-2.633-.39-3.182-1.04-.62-.732.556-3.353.223-3.54-1.262-.655-3.517 1.134-4.914-.14-2.93-2.687 3.368-1.717 3.473-1.79.864-.638-2.714-2.167-2.727-2.493-.023-.806 2.667-1.703 2.113-3.043-1.025-2.482-3.994 3.66-5.35 1.305-1.706-2.992 3.354-2.728 3.082-5.257-.18-1.52-3.937-.653-4.438-1.604-.45-.835 4.562-7.568 2.097-8.64-2.732-1.197-.113 4.495-3.91 3.238-1.776-.597.37-2.94.822-3.604C68.932 3.34 34.463 6.322 0 8.913c.735 9.972 1.47 19.933 2.2 29.906.17 2.406-.056 10.73.913 12.44.977 1.716 4.44 2.96 5.86 4.433 1.847 1.934 3.216 4.85 3.636 7.394.204 1.244-.71 3.002-.294 4.2.54 1.545 2.916 1.686 3.7 2.72.24.315.355.753.295 1.14-.04.312-.577.437-.56.74.12 1.43 3.966 3.216 4.073 4.56.058.795-1.23 1.37-1.065 2.17.12.616 2.223 1.34 2.61 1.87.503.658.26 2.16.85 2.72.31.302 2.367.1 2.52.49.35.897-1.135 2.59-.956 3.556.116.698 2.168 1.933 2.068 2.614l-1.795.833c-.97 1.725 1.413 2.108 1.454 2.672 0 0-1.074 2.16-1.078 2.16-.515 2.636.18 5.874-1.202 8.447-.465.86-1.975 1.35-2.32 2.266l.16 2.068c-.303.834-1.817.812-1.707 2.217.09 1.223 1.806 2.67 1.574 4.032-.333 1.86-2.27 1.864-1.55 4.287 1.892 6.436 3.81 8.93-.084 15.25l-.078.11c.798.684 1.14 2.11.97 3.278-.06.392-.74 2.646-1.046 2.854-1.615 1.05-5.16.185-2.878 3.678.145.23 1.93 1.906 2.035 1.922 1.09.117 3.118-2.703 4.19-3.095 3.657-1.354 14.16-2.28 18.184-2.185 7.44.167 14.258 4.3 21.415 5.717 3.045.59 6.36.555 9.454.815 1.663.146 4.31.884 5.916.5 1.3-.317 2.32-1.964 3.58-2.425 1.204-.45 2.862.125 4.027-.408 3.03-1.383-.173-.206.242-1.403.042-.112 1.848-.088 1.89-.2.456-1.323-3.105.337-3.15.324-.205-.09-1.54-2.392-1.517-2.627.016-.62 1.585-1.072 1.12-1.49-.412-.365-2.548 1.217-3.073.998-.11-.048-.94-2.65-.898-2.685.292-.315.84-.084 1.254-.125.42-.048.873-.29 1.26-.12.42.172-.322 1.413.132 1.365.226-.02 5.135-2.98 5.373-3.305.276-.376-.407-1.01-.136-1.382.47-.617 1.545.646 1.95.5.99-.38 1.29-.82 2.658-.97.34-.025.742-.287 1.036-.105 2.268 1.383-2.44.948-.9 3.56.23.404-.208 1.074.134 1.376.398.35 6.687-2.728 8.643-2.28 1.67.376-.162 2.854.083 3.797.612 2.328 2.51-.177 3.565.666.857.696.42 4.106.425 4.116.313.354 3.415-1.05 3.97-.982 1.51.2 3.595 2.93 5.694 2.02.74-.328.787-6.523 2.12-5.35 1.91 1.67-2.168 3.28-.79 5.896 1.35 2.56 4.848 2.303 6.197 4.165.422.583.81 4.634-.817 4.248-1.19-.278-.48-2.886-1.008-3.353-.36-.314-.74 1-1.184.827l-1.03-1.73c-1.818-1.472-1.757 1.09-2.792 1.797-.36.258-1.03-.55-1.3-.2-.196.27.345.58.528.866 1.148 1.94 9.192 4.588 10.875 4.11.722-.208.273-1.423 1.753-1.584.21-.03.61-.283.63-.074.063.62-1.362.938-1.113 1.514.07.16 2.286-.356 2.525-.293.908.248 1.84 1.7 2.758 1.768 2.625.19.824-1.912 1.027-2.2.288-.39.87.487 1.346.538.63.06 1.336-.532 1.9-.217.636.356.066 1.376-.474 1.44-.21.022-.802-.064-.64.072.333.286 3.762.252 3.872.242.792-.09.617-1.822 1.026-2.195.456-.435 1.128 1.76 1.417 1.213.51-.962-1.397-3.557.154-4.177.41-.172.613-.183.755-.148.052-.228.154-.52.39-1.035.84-1.8-1.92-.857-.243-2.052.194-.135.36-.45.585-.412 1.515.215 2.123 1.14 3.322.995.818-.103 1.212-2.923 1.563-2.966 2.168-.267 1.417 2.52 1.85 3.014.348.39.684-.85 1.152-1.068 1.344-.602 2.263 2.272 3.236 2.147.506-.06-.025-1.384.47-1.437.728-.095 1.017 1.54.883 1.97-.593 1.827.09 2 1.12 4.022.764 1.483-.658-.178-.467 1.44.118.92 1.664-.8 2.407-1.334.005-.005 1.764-1.25 1.777-1.254.7-.617 1.75-1.594 2.26-2.37 1.502-2.29-1.955-.604-1.672-3.257.068-.723 1.168-2.065 1.72-1.605.156.14.42-.052.63-.084.05-.005.16.038.156-.013-.14-1.122-1.52-6.704-1.63-6.74-1.43-.51-3.07.655-4.488-.134-.244-.143-.544-1.15-.787-1.29-.082-.044-.122-.05-.19-.097-.36.437-1.406-.715 0 0 .084-.1.14-.263.105-.59-.01-.04-.543-.193-.17-1.373.052-.16 2.588.71 8.675 3.078.69.282 1.787-.516 2.51-.31l1.422 1.202c1.357-.17-.06-1.814.367-2.13.254-.174 2.036.873 2.06 1.126l-1.168.85c-.388 2.257 2.342.252 2.606.358l-.456 1.446c.104.177.428-.156.625-.08.29.114.608.32.71.604.382 1.03-2.702 1.378-2.238 2.373l2.088-.272c.426-.053 2.147.475 2.395.387.002-.01 1.705-1.61 1.71-1.61 2.153-1.29.607 2.526 1.702 3.247.65.43 2.46.11 3.242.264l1.338.52c.19-.136-.048-.453-.08-.684-.027-.23-.225-.5-.09-.683.122-.177.423-.055.624-.085.212-.02.603-.295.626-.085.043.312-.54.447-.538.768.05 1.885 3.583 2.977 3.602 2.994.413.504-.09 3.184 1.625 2.558 2.55-.918.674-2.182 1.123-3.62.07-.24-.024-.8.228-.727.585.167.174 1.364.653 1.763 2.638 2.185-.255 1.722-1.295 3.184l.187 1.36c-.383 1.51-1.51 2.902-1.984 4.433-.21.656 1.352-.432 1.798-.935.27-.297.336-.736.51-1.104 1.016-2.277 1.78-2.672 3.28-4.265.346-.364-.047-1.49.447-1.452.814.065 2.952 5.33 4.43 4.263.58-.428-.813-1.246-.902-1.96-.074-.55 1-2.922 1.52-2.993.316-.036.424.64.726.588.5-.06-.966-.79-.816-1.27.262-.838 1.94 1.16 2.073 1.103l.984-2.217c-.533-1.41-2.906.52-3.145.434-.218-.078-.066-.455-.098-.68-.094-.722 6.948-3.743 1.522-2.998"/><path fill="#FFF" d="M54.387 68.49l3.705-9.654-3.333-1.415c-.598 1.3-1.232 2.392-1.902 3.277-.67.888-1.398 1.63-2.183 2.224-.785.597-1.613 1.045-2.482 1.348-.87.303-1.768.48-2.695.53-.644.036-1.105-.02-1.386-.165s-.43-.39-.45-.737c-.018-.334.006-.775.076-1.324l1.635-13.13c.12-.95.393-1.63.816-2.046.422-.414 1.177-.675 2.262-.785l.442-3.762-13.627.755-.443 3.763c1.477.03 2.24.46 2.285 1.287.03.544-.035 1.3-.19 2.262L35.426 63.61c-.073.697-.334 1.238-.784 1.623s-1.21.63-2.283.74l-.443 3.764 22.47-1.247zM86.09 66.733l.37-3.76c-.986-.106-1.69-.303-2.116-.59-.424-.286-.723-.728-.89-1.326L78.056 41.23l-7.75.43-9.08 18.38c-.703 1.426-1.234 2.41-1.595 2.95-.36.542-.737.913-1.128 1.115-.392.2-1.023.375-1.896.522l-.48 3.766 10.532-.583.424-3.763c-1.05.06-1.735.022-2.052-.11s-.488-.412-.51-.845c-.025-.433.504-1.733 1.586-3.9l8.047-.447c.525 1.633.807 2.814.848 3.543.026.47-.2.82-.676 1.052-.477.23-1.32.38-2.533.447l-.424 3.762 14.72-.817zM67.83 55.357l3.427-7.648.074-.006 1.86 7.356-5.36.297z"/></svg>