<svg xmlns="http://www.w3.org/2000/svg" width="203.202" height="159.998" viewBox="0 0 203.202 159.998"><path opacity=".75" fill="#f7bc57" d="M201.146 146.306c-.214.04-.504-.09-.633.09-.134.187.315.61.104.683-2.25.82-4.504-5.64-5.868-5.45-1.49.2-.22 1.42-1.71 1.61l-.81-1.28c-.51-.167-4.344 1.088-4.493-.09-.097-.67 2.463-1.026 1.793-.932-1.615.215-2.742-.328-4.24-.124-.57.065-3.14.81-3.434.1-.195-.457.43-2.323.316-2.467-1.26-1.655-5.11-.024-6.543-1.223-1.4-1.182-1.46-3.82-2.454-4.206-.22-.084-.86-.115-.663-.256.273-.2.676.003 1.017.006.68.01 1.36.01 2.044.01.344.006.86.31 1.014.006.86-1.668-2.08-2.604-2.55-3-.22-.195.58.08.873.112.29.047.58.092.86.12.29.045.605-.002.865.12 1.36.618 3.378.682 5.014.968.08.01-.068-.175-.14-.217-.42-.286-.68-.44-.87-.538-.296-.02-.54-.285 0 0 .234.014.47-.118.386-.79-.18-1.35-2.847 2.607-3.397-1.637-.12-.946 2.75-.89 3.04-1.1.437-.326.98-3.617 1.423-3.68 1.634-.208.674 3.07 3.4 1.646.375-.2 1.08.216 1.244-.165.328-.75-1.407-1.09-1.517-1.89-.08-.628 1.546-1.137 1.07-1.536-.317-.27-.926.43-1.244.157-.554-.45.896-1.67.35-2.13-.512-.43-1.117 1.026-1.784.934l-.794-1.28c.143-1.65 1.44.44 2.48-.337.196-.135-.05-.45-.083-.675-.27-2.012-2.622.668-3.207-.27-.674-1.06 1.96-2.74 1.953-2.814-.082-.64-1.2-.415-1.78-.692-.7-.33-1.33-1.416-2.05-1.13-.66.29.01 1.524-.36 2.145-.434.76-1.89.935-2.31 1.702-1.38 2.525 1.12 8.043-4.773 4.802-1.447-.792-.284-1.856-.573-2.01-1.444-.795-5.35 1.75-5.34-2.1.004-1.988 7.508-.74 6.867-5.77-.243-1.873-2.582 1.736-2.94 1.782-1.48.19-.166-2.346-.35-2.743-1.02-2.283-.893 3.41-1.433 3.67-1.654.806-2.217-3.38-4.08-2.26-.866.513-2.638 4.42-4.39 5.43-3.015 1.744-19.002 1.35-15.784-5.016.365-.71 6.85-8.48 7.177-8.533 1.874-.302 6.437.365 7.79 1.814l.875 1.98c.31.213.74.014 1.11.026.74.03 1.48.05 2.22.075.37.013.75-.097 1.108.022.853.303 1.562 1.2 2.66 1.06.66-.086 1.192-1.257 1.775-.93.383.214-.498 3.395 4.706 2.18.282-.078 3.16-1.2 1.29.17-.192.144-.802.342-.584.43 1.268.49 2.36-.927 3.46-1.925-1.3-.992-1.303 1.106-2.48-.294-2.65-3.185-2.43-6.99-5.125-10.48-1.266-1.636-3.546-2.165-4.866-3.556-.63-.686-.54-1.967-.96-2.665-.01 0-1.405-1.207-1.417-1.207-.722-2.456 4.85-13.77 2.58-14.31-3.23-.747-12.173 1.565-15.863 2.02-12.615 1.565-25.235 3.054-37.87 4.446-.405.06-.812.1-1.22.15-3.37.364-11.744 2.345-14.668 1.58-.303-.077-.712-.31-.683-.628.083-.69 2.45-1.477 2.25-2.32-.23-1.018-2.41-1.52-2.75-2.5-.26-.778 1.13-2.09.95-2.888-.166-.68-1.78-1.72-2.14-2.57-.037-.065 4.335-.536 4.77-1.897.46-1.425-2.886-2.41-2.35-4.63.406-1.663 3.01 2.425 3.07-.333.023-1.455-2.57-2.875-1.73-4.69.274-.604 3.918-1.874 2.765-3.09-.49-.53-3.462 1.18-3.208-1.064.21-1.904 2.872.225 3.67-.39.812-.62.17-3.42.78-4.273.37-.515 2.79-.784 2.467-1.9-.42-1.466-2.4 1.54-1.884-1.305.067-.355.065-.737.19-1.07 1.026-2.57 2.693.314 3.016-.684.488-1.543 1.336-4.11 2.483-5.517.8-1.005 2.762-1.38 3.42-2.48.673-1.14-3.757-1.83-3.346-2.42.256-.36 2.67.56 3.117.346.53-.252 2.53-3.656 1.965-4.42-.857-1.16-4.687 3.29-5.46.613-1.078-3.7 5.94-3.353 6.285-4.207l-.23-2.07c.264-.436 3.036-.34 2.264-1.655-.422-.73-2.633-.39-3.182-1.04-.62-.734.557-3.355.224-3.54-1.26-.657-3.516 1.132-4.913-.14-2.93-2.69 3.37-1.72 3.474-1.79.864-.64-2.714-2.17-2.727-2.495-.023-.805 2.667-1.702 2.113-3.042-1.026-2.483-3.995 3.66-5.35 1.304-1.707-2.992 3.353-2.728 3.08-5.257-.18-1.52-3.936-.654-4.437-1.605-.45-.835 4.562-7.568 2.097-8.64-2.73-1.197-.112 4.495-3.91 3.24-1.775-.598.37-2.94.823-3.605C68.93 3.34 34.463 6.323 0 8.915c.735 9.97 1.47 19.932 2.2 29.905.17 2.404-.056 10.73.913 12.44.977 1.714 4.44 2.96 5.86 4.43 1.847 1.935 3.216 4.85 3.636 7.395.2 1.244-.71 3.002-.3 4.2.54 1.545 2.914 1.686 3.7 2.72.24.315.353.753.293 1.14-.04.312-.578.437-.56.74.12 1.43 3.965 3.216 4.072 4.56.057.795-1.23 1.37-1.066 2.17.12.616 2.223 1.34 2.61 1.87.503.658.26 2.16.85 2.72.31.302 2.367.1 2.52.49.35.897-1.135 2.59-.956 3.556.116.7 2.17 1.94 2.07 2.62l-1.797.834c-.97 1.724 1.413 2.107 1.454 2.67 0 0-1.074 2.16-1.08 2.16-.513 2.637.18 5.875-1.2 8.448-.465.86-1.975 1.35-2.32 2.267l.16 2.067c-.303.836-1.817.814-1.707 2.22.09 1.22 1.805 2.67 1.573 4.03-.334 1.86-2.27 1.864-1.55 4.287 1.89 6.436 3.81 8.93-.085 15.25l-.08.11c.8.684 1.14 2.11.97 3.278-.06.392-.74 2.646-1.044 2.854-1.614 1.05-5.16.185-2.877 3.678.144.23 1.93 1.906 2.034 1.922 1.09.116 3.118-2.704 4.19-3.096 3.657-1.354 14.16-2.28 18.184-2.185 7.44.166 14.255 4.3 21.412 5.716 3.046.59 6.36.555 9.455.815 1.665.147 4.31.885 5.918.5 1.3-.316 2.32-1.963 3.58-2.424 1.206-.45 2.864.126 4.03-.407 3.03-1.384-.173-.207.242-1.404.042-.113 1.85-.09 1.89-.2.456-1.324-3.105.336-3.15.323-.205-.09-1.54-2.392-1.517-2.627.017-.62 1.586-1.073 1.12-1.49-.41-.366-2.547 1.216-3.072.997-.11-.047-.94-2.65-.897-2.684.293-.316.84-.085 1.255-.126.42-.047.872-.29 1.26-.12.42.173-.323 1.414.13 1.366.227-.02 5.136-2.98 5.374-3.306.28-.377-.406-1.01-.135-1.38.47-.62 1.544.643 1.95.5.99-.38 1.29-.82 2.657-.97.34-.028.742-.29 1.036-.108 2.264 1.386-2.44.95-.9 3.56.23.407-.21 1.077.13 1.38.4.35 6.687-2.73 8.643-2.28 1.67.374-.163 2.852.08 3.795.614 2.33 2.51-.175 3.567.668.86.696.42 4.106.426 4.116.314.352 3.416-1.05 3.97-.984 1.51.2 3.596 2.93 5.695 2.02.74-.33.79-6.524 2.12-5.35 1.91 1.67-2.166 3.28-.79 5.895 1.35 2.56 4.85 2.303 6.2 4.165.42.583.81 4.634-.82 4.248-1.19-.278-.48-2.886-1.007-3.353-.36-.315-.74 1-1.183.826l-1.03-1.73c-1.82-1.47-1.758 1.09-2.793 1.8-.36.257-1.03-.55-1.3-.2-.196.27.345.58.528.865 1.148 1.94 9.192 4.59 10.875 4.11.724-.21.275-1.423 1.755-1.584.21-.03.61-.283.63-.074.063.62-1.362.94-1.113 1.516.07.16 2.287-.356 2.526-.293.906.25 1.84 1.7 2.756 1.77 2.625.19.824-1.913 1.027-2.2.29-.39.87.486 1.347.537.63.06 1.338-.532 1.9-.217.638.36.068 1.38-.472 1.44-.21.025-.804-.06-.64.075.33.286 3.76.252 3.87.242.79-.09.616-1.823 1.025-2.196.458-.435 1.13 1.76 1.42 1.213.51-.962-1.398-3.557.153-4.177.41-.172.613-.183.755-.148.055-.228.157-.52.39-1.035.84-1.8-1.92-.857-.24-2.052.195-.133.36-.45.586-.41 1.515.215 2.123 1.14 3.322.995.818-.104 1.212-2.924 1.563-2.967 2.17-.267 1.42 2.52 1.85 3.014.35.39.685-.85 1.153-1.064 1.344-.602 2.263 2.272 3.236 2.147.503-.06-.028-1.384.47-1.437.725-.095 1.014 1.54.88 1.97-.594 1.827.09 2 1.12 4.022.763 1.483-.66-.178-.468 1.44.118.92 1.664-.8 2.407-1.334.004-.003 1.763-1.25 1.776-1.252.7-.617 1.75-1.594 2.26-2.37 1.502-2.29-1.955-.604-1.67-3.257.066-.722 1.166-2.064 1.72-1.604.154.14.42-.05.63-.082.05-.003.16.04.154-.01-.14-1.12-1.52-6.703-1.63-6.74-1.43-.51-3.07.656-4.49-.133-.242-.145-.542-1.15-.785-1.29-.082-.046-.122-.05-.19-.1-.36.437-1.406-.715 0 0 .084-.1.14-.263.105-.59-.01-.04-.543-.193-.17-1.373.05-.16 2.588.71 8.675 3.077.69.284 1.787-.514 2.51-.31l1.422 1.204c1.356-.17-.06-1.815.366-2.13.253-.175 2.035.872 2.06 1.125l-1.17.85c-.387 2.257 2.343.252 2.607.36l-.457 1.444c.105.177.43-.156.626-.08.29.114.61.32.71.604.38 1.03-2.7 1.377-2.24 2.372l2.086-.27c.426-.055 2.147.473 2.395.385 0-.01 1.705-1.61 1.71-1.61 2.153-1.29.607 2.528 1.7 3.25.65.43 2.46.11 3.244.263l1.338.52c.19-.136-.047-.453-.08-.684-.026-.23-.224-.5-.09-.684.123-.176.424-.054.625-.084.21-.02.603-.295.626-.085.043.315-.54.45-.538.77.05 1.886 3.583 2.978 3.602 2.995.41.504-.09 3.184 1.623 2.558 2.55-.917.675-2.18 1.124-3.62.07-.24-.023-.8.23-.726.584.167.173 1.364.652 1.763 2.64 2.187-.255 1.724-1.295 3.186l.19 1.36c-.383 1.51-1.51 2.904-1.984 4.435-.21.657 1.35-.43 1.796-.934.27-.297.336-.736.51-1.104 1.016-2.276 1.78-2.67 3.28-4.264.346-.364-.047-1.49.447-1.452.812.065 2.95 5.33 4.43 4.263.58-.428-.815-1.246-.9-1.96-.078-.55 1-2.92 1.52-2.993.312-.035.42.64.722.59.5-.06-.965-.79-.815-1.27.26-.838 1.94 1.16 2.07 1.103l.985-2.218c-.533-1.41-2.906.52-3.145.434-.218-.078-.066-.455-.098-.68-.095-.72 6.947-3.743 1.52-2.998"/><path fill="#FFF" d="M54.387 68.49l3.705-9.654-3.333-1.415c-.6 1.3-1.24 2.4-1.91 3.28-.67.89-1.398 1.63-2.183 2.23-.785.596-1.613 1.044-2.48 1.347-.87.304-1.77.48-2.696.53-.643.037-1.104-.02-1.385-.164s-.43-.39-.45-.737c-.02-.334.005-.775.075-1.324l1.636-13.13c.12-.95.394-1.63.817-2.046.422-.415 1.177-.676 2.262-.786l.44-3.762-13.627.756-.443 3.764c1.478.03 2.24.46 2.286 1.288.03.546-.033 1.3-.19 2.264l-1.49 12.69c-.072.698-.333 1.24-.783 1.624s-1.21.63-2.28.74l-.447 3.764L54.38 68.5zm31.703-1.757l.37-3.76c-.986-.106-1.69-.303-2.116-.59-.424-.286-.723-.728-.89-1.326L78.056 41.23l-7.75.43-9.08 18.38c-.703 1.426-1.234 2.41-1.595 2.95-.36.542-.73.913-1.12 1.115-.392.2-1.023.375-1.896.522l-.48 3.766 10.53-.583.425-3.763c-1.05.06-1.736.022-2.053-.11s-.486-.412-.51-.845c-.023-.433.506-1.733 1.588-3.9l8.048-.447c.526 1.633.808 2.814.85 3.543.025.47-.2.82-.677 1.052-.48.23-1.32.38-2.535.447l-.423 3.762 14.72-.82zM67.83 55.357l3.427-7.648.074-.01 1.86 7.352-5.36.296z"/></svg>