<?xml version="1.0" encoding="utf-8"?>
<!-- Generator: Adobe Illustrator 15.0.2, SVG Export Plug-In . SVG Version: 6.00 Build 0)  -->
<!DOCTYPE svg PUBLIC "-//W3C//DTD SVG 1.1//EN" "http://www.w3.org/Graphics/SVG/1.1/DTD/svg11.dtd">
<svg version="1.1" id="Layer_1" xmlns="http://www.w3.org/2000/svg" xmlns:xlink="http://www.w3.org/1999/xlink" x="0px" y="0px"
	 width="254.002px" height="199.998px" viewBox="0 0 254.002 199.998" enable-background="new 0 0 254.002 199.998"
	 xml:space="preserve">
<path opacity="0.75" fill="#D9B67B" d="M251.432,182.881c-0.268,0.049-0.631-0.113-0.791,0.111
	c-0.167,0.234,0.394,0.766,0.131,0.855c-2.813,1.035-5.63-7.043-7.336-6.813c-1.854,0.258-0.27,1.773-2.126,2.02l-1.012-1.596
	c-0.64-0.209-5.43,1.359-5.616-0.111c-0.121-0.838,3.078-1.285,2.24-1.166c-2.021,0.268-3.429-0.41-5.302-0.154
	c-0.712,0.082-3.925,1.008-4.292,0.125c-0.242-0.572,0.535-2.906,0.397-3.084c-1.575-2.07-6.39-0.031-8.178-1.529
	c-1.752-1.479-1.826-4.779-3.066-5.26c-0.275-0.105-1.076-0.145-0.83-0.32c0.341-0.252,0.843,0.004,1.27,0.008
	c0.848,0.01,1.699,0.01,2.554,0.012c0.43,0.004,1.076,0.385,1.267,0.004c1.076-2.086-2.602-3.256-3.187-3.75
	c-0.275-0.244,0.723,0.1,1.09,0.139c0.363,0.061,0.722,0.117,1.072,0.152c0.36,0.057,0.755-0.002,1.079,0.148
	c1.699,0.773,4.224,0.854,6.268,1.213c0.102,0.012-0.082-0.221-0.171-0.271c-0.524-0.354-0.854-0.551-1.086-0.67
	c-0.374-0.025-0.68-0.355,0,0c0.289,0.018,0.584-0.146,0.479-0.988c-0.224-1.688-3.557,3.26-4.246-2.045
	c-0.149-1.182,3.437-1.109,3.8-1.375c0.544-0.406,1.225-4.52,1.778-4.598c2.041-0.26,0.84,3.838,4.249,2.057
	c0.469-0.252,1.348,0.271,1.555-0.205c0.41-0.934-1.759-1.357-1.896-2.363c-0.099-0.781,1.933-1.416,1.336-1.916
	c-0.395-0.338-1.155,0.537-1.553,0.197c-0.692-0.561,1.119-2.088,0.437-2.664c-0.64-0.535-1.396,1.285-2.229,1.17l-0.994-1.605
	c0.18-2.061,1.801,0.553,3.101-0.42c0.246-0.17-0.06-0.566-0.103-0.844c-0.338-2.52-3.277,0.83-4.009-0.338
	c-0.841-1.33,2.45-3.428,2.443-3.521c-0.104-0.801-1.503-0.52-2.228-0.867c-0.876-0.414-1.664-1.771-2.561-1.414
	c-0.827,0.365,0.011,1.906-0.448,2.682c-0.549,0.949-2.366,1.17-2.892,2.129c-1.723,3.158,1.397,10.055-5.969,6.004
	c-1.809-0.992-0.354-2.324-0.715-2.512c-1.806-0.996-6.688,2.184-6.674-2.629c0.004-2.484,9.384-0.928,8.583-7.213
	c-0.306-2.34-3.229,2.172-3.676,2.229c-1.85,0.238-0.209-2.932-0.438-3.428c-1.276-2.855-1.115,4.26-1.791,4.586
	c-2.067,1.008-2.771-4.227-5.1-2.826c-1.082,0.643-3.298,5.527-5.485,6.789c-3.771,2.18-23.754,1.688-19.731-6.27
	c0.456-0.887,8.562-10.598,8.972-10.668c2.342-0.377,8.045,0.457,9.736,2.268c0.003,0.004,1.094,2.477,1.094,2.477
	c0.387,0.266,0.925,0.018,1.388,0.033c0.925,0.037,1.851,0.063,2.775,0.092c0.463,0.018,0.938-0.119,1.385,0.031
	c1.065,0.379,1.952,1.502,3.327,1.326c0.822-0.109,1.488-1.572,2.218-1.164c0.479,0.268-0.623,4.246,5.883,2.727
	c0.352-0.1,3.95-1.502,1.611,0.211c-0.239,0.18-1.001,0.428-0.729,0.537c1.581,0.611,2.946-1.158,4.324-2.406
	c-1.624-1.24-1.631,1.385-3.097-0.367c-3.317-3.98-3.039-8.736-6.411-13.1c-1.582-2.045-4.434-2.707-6.083-4.445
	c-0.788-0.857-0.67-2.459-1.201-3.332c-0.007,0-1.752-1.506-1.766-1.506c-0.902-3.072,6.063-17.215,3.226-17.891
	c-4.039-0.934-15.217,1.957-19.83,2.523c-15.769,1.959-31.544,3.818-47.335,5.559c-0.509,0.076-1.019,0.123-1.528,0.188
	c-4.214,0.457-14.68,2.932-18.334,1.975c-0.381-0.096-0.893-0.389-0.856-0.783c0.108-0.859,3.062-1.844,2.812-2.902
	c-0.282-1.268-3.013-1.898-3.436-3.121c-0.325-0.973,1.411-2.613,1.185-3.609c-0.203-0.848-2.225-2.148-2.674-3.211
	c-0.043-0.084,5.423-0.672,5.968-2.373c0.577-1.781-3.605-3.012-2.934-5.785c0.506-2.08,3.761,3.031,3.836-0.418
	c0.029-1.818-3.212-3.594-2.162-5.863c0.341-0.756,4.896-2.344,3.455-3.865c-0.614-0.66-4.328,1.475-4.01-1.328
	c0.266-2.379,3.593,0.281,4.59-0.486c1.015-0.773,0.21-4.275,0.975-5.342c0.463-0.643,3.484-0.979,3.083-2.377
	c-0.523-1.83-3.002,1.926-2.354-1.629c0.082-0.443,0.079-0.92,0.236-1.336c1.283-3.215,3.366,0.393,3.77-0.855
	c0.61-1.926,1.67-5.137,3.104-6.895c1-1.258,3.453-1.723,4.273-3.104c0.844-1.426-4.693-2.287-4.18-3.027
	c0.32-0.451,3.34,0.701,3.896,0.434c0.663-0.314,3.163-4.57,2.455-5.523c-1.072-1.449-5.859,4.109-6.828,0.766
	c-1.346-4.625,7.428-4.189,7.857-5.256l-0.288-2.592c0.331-0.543,3.796-0.426,2.831-2.068c-0.528-0.91-3.291-0.486-3.977-1.301
	c-0.774-0.914,0.694-4.191,0.278-4.422c-1.578-0.822-4.396,1.416-6.144-0.178c-3.664-3.357,4.211-2.146,4.342-2.236
	c1.08-0.797-3.393-2.709-3.409-3.117c-0.028-1.006,3.334-2.129,2.642-3.803c-1.281-3.105-4.992,4.572-6.687,1.629
	c-2.134-3.74,4.192-3.41,3.853-6.57c-0.228-1.9-4.922-0.818-5.549-2.006c-0.563-1.043,5.702-9.459,2.622-10.799
	c-3.416-1.496-0.142,5.619-4.886,4.047C125.924,3.76,128.608,0.83,129.172,0C86.165,4.174,43.079,7.902,0,11.141
	c0.919,12.465,1.837,24.916,2.749,37.383c0.214,3.008-0.068,13.414,1.142,15.549c1.221,2.148,5.552,3.703,7.327,5.545
	c2.307,2.416,4.019,6.063,4.544,9.24c0.256,1.557-0.886,3.752-0.367,5.252c0.676,1.93,3.645,2.105,4.626,3.398
	c0.299,0.395,0.442,0.941,0.367,1.424c-0.049,0.391-0.722,0.547-0.702,0.926c0.151,1.789,4.958,4.02,5.092,5.701
	c0.072,0.992-1.538,1.711-1.332,2.709c0.151,0.771,2.779,1.676,3.262,2.34c0.63,0.822,0.325,2.699,1.063,3.4
	c0.387,0.377,2.959,0.121,3.149,0.611c0.439,1.123-1.418,3.236-1.194,4.445c0.145,0.873,2.71,2.416,2.585,3.268l-2.244,1.041
	c-1.214,2.156,1.766,2.635,1.818,3.34c0,0-1.342,2.701-1.346,2.701c-0.643,3.293,0.224,7.342-1.502,10.559
	c-0.581,1.074-2.468,1.688-2.9,2.832c0,0,0.199,2.582,0.199,2.586c-0.377,1.043-2.27,1.016-2.132,2.771
	c0.114,1.527,2.257,3.336,1.968,5.039c-0.416,2.324-2.838,2.33-1.938,5.357c2.365,8.047,4.761,11.164-0.105,19.064l-0.097,0.139
	c0.998,0.854,1.425,2.639,1.211,4.098c-0.075,0.49-0.922,3.307-1.306,3.568c-2.018,1.313-6.447,0.23-3.596,4.598
	c0.181,0.287,2.411,2.383,2.543,2.402c1.361,0.145,3.897-3.379,5.239-3.869c4.57-1.691,17.697-2.85,22.728-2.73
	c9.298,0.209,17.822,5.375,26.767,7.146c3.806,0.738,7.949,0.695,11.817,1.02c2.08,0.184,5.388,1.105,7.396,0.625
	c1.624-0.396,2.9-2.455,4.476-3.031c1.503-0.563,3.576,0.156,5.033-0.51c3.786-1.729-0.217-0.258,0.302-1.754
	c0.053-0.139,2.31-0.109,2.362-0.248c0.57-1.654-3.882,0.42-3.938,0.404c-0.256-0.113-1.923-2.99-1.896-3.285
	c0.02-0.773,1.981-1.34,1.401-1.861c-0.516-0.457-3.186,1.521-3.842,1.246c-0.139-0.059-1.175-3.313-1.123-3.355
	c0.365-0.395,1.051-0.105,1.568-0.154c0.525-0.061,1.09-0.365,1.575-0.152c0.525,0.217-0.403,1.768,0.164,1.709
	c0.282-0.023,6.418-3.729,6.716-4.133c0.345-0.469-0.508-1.264-0.17-1.727c0.587-0.771,1.933,0.807,2.44,0.625
	c1.237-0.477,1.611-1.025,3.321-1.211c0.426-0.033,0.928-0.361,1.295-0.133c2.835,1.729-3.051,1.186-1.125,4.447
	c0.289,0.508-0.259,1.346,0.168,1.723c0.498,0.436,8.359-3.41,10.804-2.852c2.087,0.471-0.203,3.568,0.102,4.746
	c0.765,2.91,3.137-0.221,4.456,0.832c1.072,0.869,0.524,5.133,0.531,5.146c0.391,0.441,4.27-1.314,4.964-1.229
	c1.888,0.248,4.492,3.66,7.117,2.523c0.925-0.41,0.983-8.154,2.649-6.686c2.387,2.086-2.709,4.098-0.986,7.367
	c1.688,3.201,6.061,2.879,7.746,5.207c0.527,0.729,1.011,5.791-1.021,5.309c-1.488-0.348-0.6-3.607-1.26-4.189
	c-0.449-0.395-0.922,1.25-1.479,1.033l-1.289-2.162c-2.271-1.84-2.195,1.359-3.488,2.244c-0.449,0.324-1.289-0.686-1.624-0.248
	c-0.246,0.338,0.43,0.725,0.659,1.082c1.435,2.426,11.49,5.734,13.594,5.137c0.902-0.258,0.341-1.777,2.191-1.979
	c0.263-0.035,0.762-0.354,0.787-0.094c0.078,0.777-1.703,1.172-1.392,1.895c0.089,0.197,2.856-0.447,3.156-0.367
	c1.135,0.311,2.3,2.125,3.448,2.211c3.28,0.238,1.029-2.391,1.282-2.75c0.36-0.486,1.086,0.609,1.684,0.672
	c0.788,0.076,1.67-0.666,2.376-0.271c0.794,0.447,0.082,1.721-0.594,1.801c-0.264,0.029-1.001-0.08-0.799,0.092
	c0.417,0.357,4.702,0.314,4.841,0.303c0.989-0.111,0.771-2.277,1.282-2.744c0.57-0.543,1.41,2.201,1.771,1.518
	c0.637-1.203-1.746-4.445,0.192-5.221c0.516-0.215,0.769-0.229,0.945-0.186c0.065-0.285,0.193-0.648,0.488-1.295
	c1.05-2.25-2.401-1.072-0.305-2.564c0.241-0.17,0.448-0.563,0.73-0.516c1.895,0.268,2.654,1.422,4.153,1.244
	c1.023-0.129,1.516-3.654,1.956-3.707c2.71-0.334,1.771,3.15,2.312,3.768c0.435,0.484,0.854-1.066,1.44-1.338
	c1.68-0.752,2.828,2.84,4.046,2.684c0.63-0.072-0.033-1.729,0.584-1.793c0.912-0.119,1.271,1.924,1.104,2.463
	c-0.74,2.283,0.111,2.498,1.401,5.027c0.954,1.854-0.824-0.223-0.584,1.801c0.147,1.146,2.08-1,3.008-1.668
	c0.007-0.008,2.205-1.566,2.222-1.57c0.877-0.77,2.188-1.992,2.825-2.961c1.877-2.863-2.443-0.756-2.09-4.072
	c0.085-0.902,1.46-2.58,2.148-2.006c0.196,0.178,0.524-0.064,0.788-0.104c0.064-0.008,0.203,0.045,0.195-0.018
	c-0.174-1.402-1.898-8.381-2.037-8.428c-1.787-0.635-3.839,0.822-5.609-0.164c-0.307-0.18-0.68-1.438-0.984-1.613
	c-0.102-0.055-0.15-0.064-0.235-0.121c-0.45,0.547-1.76-0.895,0,0c0.104-0.125,0.174-0.328,0.131-0.738
	c-0.014-0.049-0.68-0.24-0.213-1.715c0.064-0.201,3.234,0.889,10.844,3.848c0.862,0.35,2.233-0.646,3.137-0.389l1.778,1.504
	c1.696-0.213-0.076-2.27,0.459-2.664c0.317-0.217,2.546,1.092,2.575,1.408l-1.46,1.061c-0.485,2.822,2.927,0.316,3.258,0.449
	l-0.57,1.807c0.131,0.223,0.535-0.193,0.781-0.098c0.363,0.141,0.761,0.398,0.889,0.754c0.477,1.287-3.379,1.721-2.799,2.965
	l2.611-0.338c0.531-0.066,2.685,0.594,2.993,0.484c0.003-0.012,2.132-2.014,2.136-2.014c2.692-1.611,0.761,3.158,2.129,4.059
	c0.813,0.537,3.074,0.139,4.053,0.33l1.673,0.648c0.239-0.168-0.06-0.564-0.102-0.854c-0.033-0.287-0.279-0.625-0.111-0.854
	c0.153-0.219,0.528-0.066,0.78-0.105c0.266-0.023,0.755-0.367,0.784-0.105c0.053,0.391-0.676,0.561-0.673,0.959
	c0.062,2.357,4.479,3.721,4.502,3.744c0.516,0.629-0.111,3.979,2.03,3.197c3.188-1.148,0.844-2.729,1.404-4.527
	c0.088-0.299-0.03-1,0.285-0.908c0.73,0.209,0.217,1.705,0.816,2.205c3.298,2.73-0.317,2.15-1.617,3.979l0.232,1.701
	c-0.479,1.887-1.887,3.629-2.479,5.541c-0.264,0.82,1.688-0.539,2.247-1.17c0.338-0.369,0.42-0.92,0.637-1.379
	c1.27-2.848,2.225-3.34,4.102-5.332c0.431-0.453-0.06-1.859,0.559-1.813c1.017,0.082,3.689,6.662,5.535,5.328
	c0.728-0.537-1.016-1.561-1.126-2.453c-0.096-0.686,1.247-3.65,1.896-3.74c0.397-0.045,0.531,0.799,0.909,0.734
	c0.623-0.074-1.208-0.988-1.021-1.584c0.328-1.049,2.426,1.447,2.593,1.377l1.229-2.771c-0.666-1.764-3.632,0.646-3.931,0.539
	c-0.272-0.096-0.082-0.568-0.121-0.85C249.413,185.727,258.215,181.949,251.432,182.881"/>
</svg>
