<svg xmlns="http://www.w3.org/2000/svg" width="203.202" height="159.998" viewBox="0 0 203.202 159.998"><path opacity=".75" fill="#D9B67B" d="M201.146 146.306c-.214.04-.504-.09-.633.09-.134.187.315.61.104.683-2.25.826-4.504-5.637-5.868-5.45-1.486.205-.22 1.42-1.704 1.614l-.81-1.277c-.512-.168-4.344 1.087-4.493-.09-.097-.67 2.463-1.027 1.793-.933-1.616.215-2.743-.328-4.24-.124-.57.066-3.142.81-3.435.1-.193-.456.43-2.322.318-2.466-1.26-1.655-5.11-.024-6.543-1.223-1.4-1.182-1.46-3.82-2.453-4.206-.22-.085-.86-.116-.664-.257.273-.2.676.003 1.017.006.678.008 1.36.008 2.043.01.344.003.86.308 1.014.003.86-1.668-2.082-2.604-2.55-3-.22-.195.578.08.872.112.29.047.577.092.858.12.288.045.603-.002.863.12 1.36.618 3.378.682 5.014.968.082.01-.065-.175-.136-.217-.42-.283-.683-.44-.87-.535-.298-.02-.542-.285 0 0 .232.014.468-.118.384-.79-.18-1.352-2.847 2.607-3.397-1.637-.12-.946 2.75-.89 3.04-1.1.437-.326.98-3.617 1.423-3.68 1.633-.208.673 3.07 3.4 1.646.374-.2 1.078.217 1.243-.164.328-.748-1.407-1.087-1.517-1.89-.08-.626 1.546-1.135 1.07-1.534-.317-.272-.926.428-1.244.157-.554-.45.896-1.67.35-2.13-.512-.43-1.117 1.025-1.784.933l-.795-1.283c.144-1.65 1.44.442 2.48-.336.197-.135-.048-.45-.082-.675-.27-2.015-2.622.665-3.207-.27-.673-1.064 1.96-2.74 1.954-2.817-.084-.64-1.202-.416-1.782-.693-.7-.33-1.33-1.417-2.047-1.13-.662.29.008 1.523-.36 2.144-.437.76-1.892.935-2.31 1.702-1.38 2.526 1.116 8.044-4.776 4.803-1.447-.792-.284-1.856-.573-2.01-1.444-.795-5.35 1.75-5.34-2.1.004-1.988 7.508-.74 6.867-5.77-.243-1.873-2.582 1.736-2.94 1.782-1.48.19-.166-2.346-.35-2.743-1.02-2.283-.893 3.41-1.433 3.67-1.654.806-2.217-3.38-4.08-2.26-.866.513-2.638 4.42-4.39 5.43-3.015 1.744-19.002 1.35-15.784-5.016.365-.71 6.85-8.48 7.177-8.533 1.874-.303 6.437.364 7.79 1.813.003.003.875 1.98.875 1.98.31.213.74.014 1.11.026.74.03 1.48.05 2.22.075.37.014.75-.096 1.108.023.853.303 1.562 1.2 2.66 1.06.66-.086 1.192-1.257 1.775-.93.384.214-.497 3.395 4.707 2.18.282-.078 3.16-1.2 1.29.17-.192.144-.802.342-.584.43 1.266.49 2.357-.927 3.46-1.925-1.3-.992-1.305 1.106-2.48-.294-2.65-3.185-2.43-6.99-5.127-10.48-1.266-1.636-3.546-2.165-4.866-3.556-.63-.686-.537-1.967-.96-2.665-.008 0-1.403-1.207-1.415-1.207-.722-2.457 4.85-13.77 2.58-14.312-3.23-.746-12.173 1.566-15.863 2.02-12.617 1.566-25.237 3.055-37.87 4.447-.407.06-.814.1-1.223.148-3.37.366-11.743 2.347-14.667 1.58-.304-.075-.713-.31-.684-.626.085-.69 2.45-1.476 2.25-2.32-.227-1.017-2.41-1.52-2.75-2.5-.26-.777 1.13-2.09.95-2.887-.164-.68-1.78-1.72-2.14-2.57-.035-.065 4.337-.536 4.773-1.897.46-1.424-2.885-2.41-2.348-4.628.405-1.664 3.01 2.424 3.07-.334.022-1.456-2.57-2.876-1.73-4.692.273-.603 3.917-1.873 2.764-3.09-.49-.528-3.462 1.18-3.208-1.063.21-1.905 2.873.224 3.67-.39.813-.62.17-3.42.78-4.274.372-.514 2.79-.783 2.468-1.9-.42-1.465-2.4 1.54-1.884-1.304.065-.354.063-.736.188-1.07 1.026-2.57 2.693.315 3.016-.683.488-1.543 1.336-4.11 2.483-5.517.8-1.006 2.763-1.38 3.42-2.482.674-1.14-3.756-1.83-3.345-2.42.256-.36 2.67.56 3.117.347.53-.252 2.53-3.656 1.964-4.42-.857-1.16-4.687 3.29-5.46.613-1.078-3.7 5.94-3.352 6.285-4.206l-.23-2.072c.266-.434 3.038-.338 2.266-1.653-.422-.73-2.633-.39-3.182-1.04-.62-.733.556-3.354.223-3.54-1.26-.656-3.516 1.133-4.913-.14-2.93-2.688 3.368-1.718 3.473-1.79.864-.64-2.714-2.168-2.727-2.494-.023-.806 2.667-1.703 2.113-3.043-1.025-2.483-3.994 3.66-5.35 1.304-1.706-2.992 3.354-2.728 3.082-5.257-.18-1.52-3.937-.653-4.438-1.604-.45-.835 4.562-7.568 2.097-8.64-2.732-1.197-.113 4.495-3.91 3.238-1.776-.596.37-2.94.822-3.603C68.93 3.34 34.462 6.323 0 8.914c.735 9.972 1.47 19.933 2.2 29.906.17 2.404-.056 10.73.913 12.44.977 1.714 4.44 2.96 5.86 4.43 1.847 1.935 3.216 4.85 3.636 7.395.202 1.244-.71 3.002-.296 4.2.54 1.545 2.916 1.686 3.7 2.72.24.315.355.753.295 1.14-.04.312-.578.437-.56.74.12 1.43 3.965 3.216 4.072 4.56.058.795-1.23 1.37-1.065 2.17.12.616 2.223 1.34 2.61 1.87.503.658.26 2.16.85 2.72.31.302 2.367.1 2.52.49.35.897-1.135 2.59-.956 3.556.117.7 2.17 1.934 2.07 2.615l-1.796.833c-.97 1.724 1.413 2.107 1.454 2.67 0 0-1.075 2.16-1.08 2.16-.514 2.637.18 5.875-1.2 8.448-.466.86-1.976 1.35-2.32 2.266l.16 2.068c-.304.834-1.818.812-1.708 2.217.09 1.222 1.806 2.67 1.574 4.03-.333 1.86-2.27 1.865-1.55 4.288 1.892 6.436 3.81 8.93-.084 15.25l-.078.11c.798.684 1.14 2.11.97 3.278-.06.392-.74 2.646-1.046 2.854-1.615 1.05-5.16.185-2.878 3.678.145.23 1.93 1.906 2.035 1.922 1.09.117 3.118-2.703 4.19-3.095 3.657-1.354 14.16-2.28 18.184-2.185 7.44.167 14.257 4.3 21.414 5.717 3.046.59 6.36.555 9.455.815 1.663.145 4.31.883 5.916.5 1.3-.318 2.32-1.965 3.58-2.426 1.205-.45 2.863.125 4.028-.408 3.03-1.384-.172-.207.243-1.404.043-.112 1.85-.088 1.89-.2.457-1.323-3.104.337-3.15.324-.204-.09-1.54-2.392-1.516-2.627.016-.62 1.585-1.073 1.12-1.49-.412-.366-2.548 1.216-3.073.997-.11-.047-.94-2.65-.897-2.684.292-.315.84-.084 1.254-.125.42-.047.872-.29 1.26-.12.42.173-.323 1.414.13 1.366.227-.02 5.136-2.98 5.374-3.305.277-.376-.406-1.01-.135-1.38.47-.62 1.545.644 1.95.5.99-.38 1.29-.82 2.658-.97.34-.027.742-.29 1.036-.107 2.267 1.383-2.44.948-.9 3.56.23.404-.21 1.074.133 1.376.398.35 6.687-2.73 8.643-2.28 1.67.375-.163 2.853.082 3.796.612 2.328 2.51-.177 3.565.666.857.696.42 4.106.425 4.116.313.353 3.415-1.05 3.97-.983 1.51.2 3.595 2.93 5.694 2.02.74-.328.787-6.523 2.12-5.35 1.91 1.67-2.168 3.28-.79 5.896 1.35 2.56 4.848 2.304 6.197 4.166.42.583.81 4.634-.818 4.248-1.19-.278-.48-2.886-1.008-3.353-.36-.313-.74 1-1.184.828l-1.03-1.73c-1.818-1.472-1.757 1.09-2.792 1.797-.36.258-1.03-.55-1.3-.2-.196.27.345.58.528.866 1.148 1.94 9.192 4.59 10.875 4.11.723-.207.274-1.422 1.754-1.583.21-.03.61-.284.63-.075.063.62-1.362.938-1.113 1.514.07.16 2.287-.357 2.526-.294.908.248 1.84 1.7 2.758 1.768 2.625.19.824-1.912 1.027-2.2.29-.39.87.487 1.347.538.63.06 1.337-.532 1.9-.217.637.357.067 1.377-.473 1.44-.21.023-.802-.063-.64.073.333.286 3.762.252 3.872.242.79-.09.616-1.823 1.025-2.196.457-.436 1.13 1.76 1.418 1.212.51-.962-1.397-3.557.154-4.177.41-.172.613-.183.755-.148.053-.228.155-.52.39-1.035.84-1.8-1.92-.857-.242-2.052.194-.135.36-.45.585-.412 1.515.215 2.123 1.14 3.322.995.818-.103 1.212-2.923 1.563-2.966 2.168-.267 1.417 2.52 1.85 3.014.348.39.684-.85 1.152-1.067 1.344-.602 2.263 2.272 3.236 2.147.506-.06-.025-1.384.47-1.437.728-.095 1.017 1.54.883 1.97-.594 1.827.09 2 1.12 4.022.763 1.483-.66-.178-.468 1.44.118.92 1.664-.8 2.407-1.334.004-.004 1.763-1.25 1.776-1.253.7-.617 1.75-1.594 2.26-2.37 1.503-2.29-1.954-.604-1.67-3.257.067-.723 1.167-2.065 1.72-1.605.155.14.42-.052.63-.084.05-.004.16.04.155-.012-.14-1.122-1.52-6.704-1.63-6.74-1.43-.51-3.07.655-4.488-.134-.244-.144-.544-1.15-.787-1.29-.082-.045-.122-.05-.19-.098-.36.437-1.406-.715 0 0 .084-.1.14-.263.105-.59-.01-.04-.543-.193-.17-1.373.052-.16 2.588.71 8.675 3.077.69.282 1.787-.516 2.51-.31l1.422 1.202c1.357-.17-.06-1.815.367-2.13.253-.175 2.035.872 2.06 1.125l-1.17.85c-.387 2.257 2.343.252 2.607.358l-.456 1.446c.105.177.43-.156.626-.08.29.114.61.32.71.604.383 1.03-2.7 1.378-2.237 2.373l2.087-.272c.427-.053 2.148.475 2.396.387.002-.01 1.705-1.61 1.71-1.61 2.153-1.29.607 2.527 1.702 3.248.65.43 2.46.11 3.242.264l1.338.52c.19-.136-.048-.453-.08-.684-.027-.23-.225-.5-.09-.683.122-.177.423-.055.624-.085.21-.02.602-.295.625-.085.043.312-.54.447-.538.768.05 1.885 3.583 2.977 3.602 2.994.412.503-.09 3.183 1.624 2.557 2.55-.918.674-2.182 1.123-3.62.07-.24-.024-.8.228-.727.585.167.174 1.364.653 1.763 2.64 2.186-.254 1.723-1.294 3.185l.187 1.36c-.382 1.51-1.51 2.902-1.983 4.433-.21.657 1.35-.43 1.797-.934.27-.297.336-.736.51-1.104 1.016-2.278 1.78-2.673 3.28-4.266.346-.364-.047-1.49.447-1.452.815.065 2.953 5.33 4.43 4.263.58-.428-.812-1.246-.9-1.96-.075-.55 1-2.922 1.52-2.993.315-.036.423.64.725.588.5-.06-.966-.79-.816-1.27.26-.838 1.94 1.16 2.072 1.103l.984-2.217c-.534-1.41-2.907.52-3.146.434-.218-.078-.066-.455-.098-.68-.094-.722 6.948-3.743 1.522-2.998"/><path fill="#FFF" d="M54.387 68.49l3.705-9.654-3.333-1.415c-.6 1.3-1.234 2.394-1.904 3.28-.67.887-1.398 1.63-2.183 2.223-.785.597-1.613 1.045-2.482 1.348-.87.304-1.767.48-2.694.53-.644.037-1.105-.02-1.386-.164s-.43-.39-.45-.737c-.017-.335.007-.776.077-1.325l1.635-13.13c.12-.95.393-1.63.816-2.046.422-.415 1.177-.676 2.262-.786l.442-3.762-13.627.756-.443 3.763c1.477.03 2.24.46 2.285 1.287.03.544-.035 1.3-.19 2.262l-1.49 12.69c-.074.698-.335 1.24-.785 1.624s-1.21.63-2.283.74l-.445 3.764 22.47-1.247zm31.703-1.757l.37-3.76c-.986-.106-1.69-.303-2.116-.59-.424-.286-.723-.728-.89-1.326L78.056 41.23l-7.75.43-9.08 18.38c-.703 1.426-1.234 2.41-1.595 2.95-.36.542-.735.913-1.126 1.115-.392.2-1.023.375-1.896.522l-.48 3.766 10.532-.583.423-3.763c-1.05.06-1.735.022-2.052-.11s-.486-.412-.51-.845c-.023-.433.506-1.733 1.588-3.9l8.047-.447c.525 1.633.807 2.814.848 3.543.026.47-.2.82-.676 1.052-.477.23-1.32.38-2.533.447l-.424 3.762 14.72-.82zM67.83 55.357l3.427-7.648.074-.008 1.86 7.356-5.36.296z"/></svg>