<svg xmlns="http://www.w3.org/2000/svg" width="655" height="750" viewBox="138 0 655 750"><path fill="#CBB082" d="M138.444 12.6c-1.666 1.666 1.867 3.906 2.268 4.87.15.365.027.787.05 1.178.017.396.032.79.045 1.18.02.393.22.824.057 1.18-.21.47-2.303.45-1.485 1.482.254.328.9.282 1.053.666.117.27-.6.457-.48.735.096.24 3.624.17 3.833 4.796.064 1.392-1.968 2.51-1.915 3.633.027.794 1.276 2.45.674 3.52-.39.667-1.976 2.63-1.922 3.623.005.29.602.4.548.684l-1.526.777c-.37.545-1.225 4.45-.843 5 .414.59 3.81 2.053 3.77 2.678-.016.42-1.03.336-1.014.756.028.416.82.333 1.08.66.844 1.048 1.37 2.852 1.752 4.18 0 0 2.823.884 2.707 2.003-.125 1.16-1.127 3.174-.853 4.29.324 1.3 2.38 2.143 2.778 3.42.39 1.22-.98 3.014-.33 4.27.573 1.09 2.157 1.636 2.76 2.71.45.787.165 2.045.663 2.802.695 1.076 2.743 1.533 3.29 2.684.467.97-.184 2.51.18 3.535.506 1.47 2.483 2.606 2.848 4.114.418 1.784-.42 3.516-.823 5-.52 1.955.973 2.73 1.276 4.194.142.708-.903 1.582-.436 2.142.647.78 2.068-.955 2.623-.838 1.43.303-.16 2.187.14 2.82.315.695 2.433.59 2.736 1.283.55 1.322-1.37 3.688-.82 5.004.49 1.16 2.374-.04 2.24 2.005-.052.857-1.87 1.975-1.415 3.62.45 1.683 2.068-.19 2.708.565.292.36-1 4.254-.82 5.005.66 2.685 2.38 4.528 2.548 7.658.104 2.103-1.38 4.59-1.292 6.44.076 1.275 2.793 2.486 3.536 5.48 32.2-.862 64.22-3.265 96.263-6.652 8.57-.912 17.037-2.032 25.544-3.486 2.447-.41 8.315-1.48 8.35-1.43 1.81 2.813 3.47 4.693 6.29 6.45 1.544.968 1.697 1.982 3.545 2.703.313.126.952.373.952.373 5.16-.553-.745-6.918-.287-7.79 1-1.947 7.837-4.303 8.13-5.15.802-2.427.667-4.94 1.356-7.267.634-2.124 3.26-3.93 3.647-6.104 1.288-7.367-9.582-7.594-4.804-18.68.63-1.454 9.323-1.87 10.967-2.68 1.334-.655 2.08-2.49 3.363-3.244 1.803-1.048 5.493-1.457 6.53-3.633.938-1.95-.237-5.072.737-7.216.56-1.234 2.262-1.957 2.814-3.2.742-1.678 1.338-6.153 1.146-7.984-.7-6.528-6.227-5.524-9.652-9.526-1.287-1.512-.644-3.54-2.525-4.69-1.46-.896-7.008-3.25-6.013-4.996-1.29-11.033-12.084-3.78-14.69-9.01-.73-1.445-.4-3.4-1.08-4.87-.35-.76-1.393-1.196-1.783-1.945-1.068-2.045-2.27-5.97-2.48-8.273-.23-2.44 2.874-5.21 2.304-7.39-.64-2.45-2.7-1.72-3.98-3.122C303.99 4.183 304.136 0 304.136 0l-1.247.142c-1.67.183-3.326.36-4.99.54-3.74.4-7.485.794-11.23 1.174-12.09 1.248-24.195 2.396-36.3 3.462-35.54 3.117-71.15 5.463-106.79 7.057-.85.04-4.587-.33-5.136.224"/><path fill="#FFF" d="M231.666 86.575l.422-3.59c-.762-.087-1.324-.26-1.688-.52-.363-.256-.557-.61-.582-1.058-.014-.248.018-.746.095-1.497l1.342-11.96c.093-.88.347-1.526.762-1.933s1.14-.663 2.175-.768l.404-3.59-13 .72-.42 3.59c1.408.026 2.134.44 2.18 1.23.024.46-.03 1.175-.166 2.152l-1.44 12.11c-.07.677-.318 1.196-.748 1.56-.43.36-1.156.59-2.178.695l-.422 3.59 13.264-.736zm30.047-1.665l.35-3.586c-.938-.1-1.61-.29-2.017-.562-.405-.273-.688-.695-.85-1.266l-5.147-18.912-7.396.41-8.662 17.53c-.67 1.364-1.176 2.302-1.52 2.818s-.703.87-1.076 1.062c-.375.193-.978.36-1.81.5l-.457 3.592 10.045-.557.404-3.59c-1.003.053-1.656.02-1.958-.107-.303-.126-.465-.395-.488-.807-.022-.415.482-1.654 1.515-3.722l7.674-.425c.5 1.56.77 2.683.81 3.38.023.447-.192.78-.646 1.002-.456.22-1.26.362-2.418.426l-.403 3.59 14.042-.78zm-17.418-10.85l3.268-7.297.07-.004 1.772 7.012-5.11.284z"/><path fill="#E2BE7D" d="M449.715 181.22c-.346-.89-1.314-1.684-1.545-2.597-.097-.388 0-.793 0-1.182.01-.4.01-.79.01-1.18 0-.396.128-.816 0-1.186-.84-2.25-4.188-4.23-5.516-6.25-1.284-1.955 2.026-2.46 2.205-3.887.164-1.197-2.398-2.687-2.3-3.9.105-1.326 2.66-1.686 2.964-2.59.744-2.193-1.995-13.084-2.45-16.003-4.21-27.548-8.43-55.097-12.648-82.644l.023-.075c-4.57-2.733-4.34-9.555-7.173-13.8-.518-.77-1.766-.78-2.455-1.312-1.662-1.266-3.627-5.36-3.996-7.333-.47-2.5.065-4.79-.192-7.348-.03-.252-.09-.514-.125-.768h-.018c-29.61 3.995-59.274 7.706-88.946 11.143-1.006 1.733 4.585 4.07 6.056 4.964 1.895 1.148 1.248 3.165 2.547 4.667 3.45 3.978 9.02 2.98 9.72 9.47.196 1.816-.4 6.268-1.15 7.934-.556 1.233-2.27 1.95-2.836 3.183-.98 2.13.202 5.233-.74 7.175-1.047 2.162-4.763 2.567-6.58 3.61-1.296.745-2.045 2.573-3.388 3.223-1.657.808-10.417 1.22-11.05 2.665-4.815 11.02 6.137 11.247 4.84 18.567-.388 2.164-3.04 3.957-3.673 6.07-.693 2.31-.558 4.813-1.366 7.223-.295.845-7.186 3.185-8.192 5.12-.46.87 5.49 7.195.29 7.744 0 0-.807.44-1.007.812-1.066 1.94-.67 5.02-.617 7.122.09 2.854.393 5.682 1.727 8.292.45.892 1.65 1.687 1.94 2.62.268.85-.507 2.01-.24 2.854.3.955 1.516 1.707 1.943 2.615.472.993.31 2.53.926 3.437 2.105 3.074 7.346 4.646 10.2 6.657 1.09.77 1.55 2.4 2.584 3.247 3.118 2.533 8.604 3.293 10.35 7.31.647 1.477.407 3.372 1.125 4.81.26.534 1.083.704 1.274 1.274.704 2.176-.49 7.23 3.84 8.72 2.492.87 3.832-3.14 5.683-4.19.957-.54 9.786 3.28 10.687 4.367 1.2 1.457-1.542 3.762-1.63 5.138-.06 1.113 1.06 2.297 1 3.413-.306 5.086-7.97 12.115-4.1 17.422 1.15 1.577 3.526 3.963 5.177 5.017.84.534 2.206.44 2.988 1.048.63.494.78 1.428 1.385 1.945 1.252 1.095 5.21 1.12 5.978 2.086.745.932-1.08 1.754.354 2.778 1.914 1.376 1.782-1.19 3.286-1.114.61.02.795.942 1.313 1.242.85.504 2.226.438 3 1.03 1.207.933 1.558 3 2.806 3.876 1.144.818 3.85.478 4.787 1.5.956 1.057.168 4.22.743 5.543.8 1.91 3.463 3.17 4.138 5.11 1.047 2.996-2.437 3.397-2.004 6.61l1.798.47.28 2.074c.664 1.474 2.728 2.32 3.4 3.792.293.638-.14 1.51.28 2.07.215.306 3.358 1.707 3.7 1.626 1.96-.5-2.81-2.377-1.04-3.39 1.647-.927 2.594 3.25 3.987 3.706 1.356.446 1.72-.837 2.96.31 0 0-.45-.406-.67-.614-1.264-1.16-1.386-1.62-1.617-3.307-.05-.383 3.75-6.626 4.26-6.927 4.97-2.854 13.62 4.475 19.11 3.696.342-.05.29-.635.438-.94 3.14-6.722-5.645-5.154-2.366-12.197.78-1.674 2.543-.484 3.867-1.27.007 0 .927-1.54.927-1.54 1.93-1.606 4.966-1.414 7.145-2.456.403-.187.956-.42 1.025-.86.51-2.996-3.784-3.38-3.76-5.81.026-2.383 2.65-5.32 3.465-7.574 0 0-3.144-2.21-2.434-3.414l1.806-.74c.01-.016-1.52-6.05-1.508-6.146.113-.683 1.584-.52 1.723-1.2.44-2.158-1.667.68-.715-1.604.343-.818 1.883-1.13 2.276-1.932.097-.21.047-.51-.11-.686-1.707-2.055-2.548-1.75-1.297-4.767.827-2 .69.34 1.676-.25.436-.26-.154-1.386.334-1.463.314-.046.454.406.676.605.222.208.42.783.672.61.34-.236.13-.806.19-1.205.36-2.25 1.07-1.85 1.95-3.37.458-.785-.14-2.11.125-2.856.532-1.49 2.45-1.81 3.01-2.58.293-.394-1.11-2.18-.982-2.686.163-.706 1.243-.94 1.448-1.635l-.327-2.078c.81-1.93 4.29-1.71 2.34-6.743"/><path fill="#FFF" d="M371.467 142.628l.442-3.76c-.8-.093-1.39-.274-1.77-.545-.38-.27-.586-.64-.61-1.11-.016-.258.02-.782.1-1.566l1.403-12.533c.098-.922.363-1.597.798-2.024.436-.426 1.196-.695 2.28-.804l.423-3.76-13.618.754-.442 3.76c1.477.03 2.238.46 2.283 1.287.026.48-.032 1.234-.173 2.26l-1.51 12.687c-.07.71-.332 1.254-.78 1.632-.452.378-1.212.622-2.284.73l-.44 3.76 13.895-.768zm25.107-1.39l3.703-9.65-3.33-1.413c-.598 1.297-1.232 2.388-1.9 3.274s-1.397 1.623-2.183 2.22c-.785.592-1.61 1.04-2.48 1.344-.87.302-1.768.48-2.694.53-.642.035-1.104-.02-1.384-.165-.28-.146-.43-.39-.45-.737-.02-.333.007-.775.076-1.324l1.633-13.12c.12-.95.393-1.63.816-2.045.427-.414 1.18-.676 2.265-.786l.442-3.76-13.62.753-.44 3.76c1.475.03 2.236.46 2.282 1.287.03.547-.034 1.3-.19 2.26l-1.49 12.69c-.075.697-.336 1.238-.786 1.623s-1.21.632-2.28.74l-.443 3.762 22.457-1.245z"/><path fill="#D8AB5E" d="M407.203 275.013c1.266-1.342-2.362-1.1-2.077-2.542.552-2.884 2.17-1.055 1.516-5.872-1.233-1.16-1.596.132-2.947-.317-1.387-.457-2.33-4.664-3.97-3.726-1.762 1.017 2.987 2.907 1.036 3.41-.34.083-3.47-1.33-3.682-1.634-.416-.567.014-1.445-.278-2.09-.67-1.48-2.725-2.33-3.387-3.814l-.277-2.084-1.79-.475c-.432-3.232 3.034-3.64 1.996-6.65-.672-1.955-3.323-3.224-4.12-5.142-.57-1.332.213-4.514-.74-5.58-.933-1.03-3.626-.685-4.764-1.51-1.242-.883-1.59-2.96-2.793-3.903-.777-.594-2.14-.525-2.987-1.036-.516-.298-.695-1.23-1.308-1.25-1.496-.077-1.366 2.505-3.272 1.12-1.425-1.03.39-1.854-.353-2.795-.764-.97-4.702-1-5.95-2.094-.603-.526-.75-1.464-1.38-1.963-.78-.61-2.137-.515-2.975-1.053-1.644-1.063-4.006-3.465-5.155-5.05-3.854-5.343 3.78-12.42 4.078-17.537.067-1.122-1.047-2.316-.986-3.437.082-1.382 2.816-3.705 1.62-5.17-.897-1.093-9.688-4.937-10.642-4.396-1.84 1.058-3.176 5.096-5.656 4.218-4.314-1.5-3.124-6.586-3.825-8.78-.19-.575-1.01-.743-1.268-1.28-.717-1.448-.48-3.355-1.12-4.84-1.74-4.044-7.2-4.813-10.305-7.362-1.034-.846-1.49-2.49-2.576-3.266-2.837-2.026-8.058-3.61-10.152-6.704-.617-.912-.453-2.46-.922-3.458-.425-.914-1.64-1.67-1.935-2.628-.266-.854.507-2.02.243-2.873-.292-.943-1.484-1.742-1.932-2.64-1.33-2.628-1.63-5.47-1.722-8.345-.05-2.122-.447-5.218.615-7.173.2-.38 1.006-.82 1.006-.82s-.642-.245-.956-.37c-1.853-.726-2.01-1.74-3.556-2.705-2.826-1.766-4.494-3.644-6.31-6.455-.033-.05-5.92 1.02-8.374 1.427-8.53 1.454-17.026 2.577-25.622 3.49-32.144 3.39-64.263 5.794-96.564 6.656.2 3.816 2.12 2.894 3.59 6.186.396.9.813 5.563.854 5.62.065.122 5.932 2.915 6.176 3.192l-.47 1.448c.408 1.3 2.53 2.07 2.924 3.37.217.704-.802 3.034-.34 3.563.26.298 2.332.05 3.36 1.218.196.23.583.67.583.67s4.596 3.85 7.41 4.516c1.724.416 2.655-3.068 4.287-1.678l.13 2.12c.362.648 1.88.638 2.287 1.267.206.34.162.78.25 1.167.167.775.644 1.547.515 2.328-.28 1.62-2.777-.1-3.287.203-.63.38-.01 1.55-.413 2.15-.29.415-1.328.398-1.61.813-.64.936-.196 2.595-.874 3.597-.252.356-.887.37-1.06.766-1.075 2.44 6.464 6.31 7.09 7.337l-.46 1.452c.158 2.504 1.878 1.864 2.98 3.347.493.65.157 2.22.737 2.78 1.883 1.807 5.37.57 7.328 1.636.2.106-.34.264-.52.393-1.11.81-.266 4.05-.163 5.395.4 5.416.79 10.84 1.193 16.26 1.673 22.883 3.363 45.78 5.045 68.656.46 7.015.94 14.022 1.413 21.03 37.086-2.49 74.12-5.71 111.076-9.674 10.42-1.115 20.84-2.285 31.26-3.524 1.837-.223 10.01-1.884 11.232-1.358.966.406 1.515 2.47 2.158 3.273 2.333 2.905 3.54 5.256.46 8.427-.793.813-2.617.92-3.287 1.82-.43.582.075 1.545-.313 2.15l-1.652.905c-.336.45-2.438 5.634-2.217 5.93.268.33 4.458-.533 5.018-.607 5.846-.714 11.684-1.45 17.52-2.193 0 0 .232-.684.344-1.03.392-1.22.644-3.073 1.34-4.14.257-.39 2.116-1.26 2.13-1.688.013-1.015-2.606-2.018-2.74-3.04-.173-1.388 4.007-2.23 3.738-2.747-.467-.885-2.6-.872-3.146-1.72-1.17-1.783 3.084-1.334 3.17-2.535.15-2.005-2.865-5.693-2.15-7.517.084-.207.35-.278.52-.42 3.77-3.017-.67 7.098 5.002 2.537 0 0 .54-2.88.59-4.325.016-.42-.598-2.053.29-2.167 1.233-.166 2.684 2.476 4.37 2.244 1.147-.15 2.402-3.642 2.307-4.558-.11-.917-1.35-1.72-1.53-2.63-.39-1.99 1.433-1 2.09-1.71"/><path fill="#FFF" d="M270.914 246.445l8.01-20.483.073-.005-2.057 14.047c-.097.676-.22 1.164-.367 1.465-.148.3-.385.523-.712.675-.323.153-.843.297-1.554.434l-.508 3.704 12.582-.698.36-3.695c-.675-.07-1.166-.187-1.473-.347-.308-.16-.472-.416-.49-.77-.017-.29.025-.853.125-1.688l1.733-13.315c.073-.65.287-1.16.637-1.533.35-.374 1.012-.587 1.985-.64l.417-3.7-12.51.694-4.308 10.7-.073.004-.96-10.405-12.8.71-.507 3.7c.788.126 1.336.285 1.645.475.31.19.477.492.5.905.02.35-.03.853-.153 1.506l-1.776 12.532c-.145 1.092-.404 1.81-.776 2.144-.373.338-1.047.583-2.027.734l-.49 3.7 8.954-.495.51-3.7c-.76-.08-1.31-.21-1.64-.385-.335-.177-.514-.497-.54-.958-.02-.388.034-1.026.17-1.91l1.73-13.316.072-.002 2.47 20.12 3.757-.206zm29.756-6.667c-.674-.87-1.054-2.087-1.14-3.654-.118-2.124.058-4.208.53-6.25.47-2.04 1.245-3.74 2.326-5.097 1.08-1.356 2.422-2.08 4.023-2.168 1.14-.066 2.02.274 2.644 1.02.625.743.99 2.03 1.09 3.85.073 1.333.01 2.77-.19 4.3s-.565 2.99-1.09 4.362c-.527 1.375-1.234 2.507-2.12 3.396-.89.89-1.97 1.37-3.243 1.44-1.212.07-2.156-.333-2.832-1.203zm9.186 3.723c2.11-.97 3.88-2.22 5.312-3.76 1.433-1.532 2.492-3.25 3.18-5.15.687-1.892.977-3.814.87-5.76-.077-1.36-.394-2.68-.952-3.95-.558-1.272-1.36-2.404-2.41-3.395-1.048-.99-2.38-1.763-3.995-2.32s-3.482-.776-5.61-.658c-2.1.117-4.13.597-6.08 1.443-1.952.846-3.682 2.005-5.19 3.48-1.51 1.47-2.67 3.202-3.48 5.19-.81 1.99-1.15 4.114-1.025 6.374.086 1.556.46 2.992 1.125 4.308.663 1.32 1.556 2.43 2.68 3.337 1.122.904 2.403 1.58 3.84 2.015 1.438.438 2.97.613 4.6.523 2.65-.148 5.027-.707 7.137-1.676z"/><path fill="#AE8F5B" d="M439.393 238.447c-.066.44-.623.676-1.023.863-2.173 1.047-5.203.854-7.13 2.47 0 0-.917 1.546-.923 1.546-1.32.788-3.083-.406-3.856 1.274-3.27 7.082 5.495 5.504 2.36 12.26-.14.306-.09.895-.43.946-5.478.783-14.107-6.58-19.066-3.715-.508.307-4.296 6.58-4.248 6.966.23 1.693.352 2.158 1.612 3.324.22.21.67.62.67.62.65 4.812-.967 2.985-1.518 5.867-.287 1.44 3.347 1.2 2.08 2.54-.658.71-2.486-.276-2.09 1.71.176.904 1.42 1.708 1.526 2.62.096.92-1.16 4.408-2.313 4.557-1.688.233-3.142-2.41-4.38-2.242-.887.114-.274 1.745-.287 2.16-.05 1.447-.592 4.323-.592 4.323 11.537-1.702 23.063-3.458 34.587-5.3 1.806-.285 11.447-1.208 12.33-1.998 1.98-1.78-2.512-6.277-1.716-7.546.265-.41 4.403-.24 5.02-.273 3.055-.174 1.978.797 3.297 1.155 2.276.615 7.224-1.35 9.585-1.79 4.865-.916 30.19-6.33 33.073-5.742.31.068.396.653.69.604 0 0 1.478-1.67 1.482-1.67 2.495-1.23 19.37-2.133 23.412-2.61 8.045-.914 15.56-2.774 23.474-4.272 8.713-1.65 17.646-2.475 26.403-3.916 5.59-.924 11.18-1.825 16.79-2.65 1.954-.29 4.934-.19 6.567-1.274.33-.224.976-.65.976-.65s.476-.574.706-.855c.987-1.205 2.44-2.194 3.82-2.94 2.667-1.44 10.43-4.32 12.252-6.153.895-.884.39-3.567 1.378-4.594 1.427-1.49 5.247-1.433 6.31-3.506.18-.35-.043-.78-.06-1.18-.018-.396-.044-.794-.07-1.19-.014-.39-.19-.81-.05-1.18.56-1.5 3.36-2.206 3.88-3.72.434-1.216-1.267-2.29-.187-3.55 2.718-3.147 7.05-4.965 9.963-7.943 4.05-4.124 7.36-9.396 10.888-13.966-1.182-.93-3.84 1.21-5.867-.116-.393-.252.017-1.024-.317-1.365-1.427-1.486-4.32-1.03-5.762-2.313-.882-.777-1.012-2.394-1.887-3.183-.8-.733-2.48-.653-3.23-1.44-.762-.805-.57-2.5-1.32-3.314-.45-.49-2.192-.31-2.52-.88-1.702-2.987 1.39-.575-2.57-3.75-2.674-2.154-4.924-4.59-4.04-7.766 0-.004.955-.927.955-.927.308-2.232-1.446-3.08-2.166-4.57-.12-.248.023-.55.03-.817.008-.274.026-.55.034-.823.02-.18.024-.538.024-.538-3.82-4.477-7.163-3.067-9.734-5.093-1.422-1.126-1.522-5.85-3.145-6.53-.825-.344-6.45 4.49-6.917 5.076 0 .006-.653 2.298-.653 2.3-.356.37-2.35.497-2.878.608-.262.052-1.85 1.123-1.912 1.123-.87-.05-1.78-1.385-2.626-1.612-.373-.1-.763 0-1.152 0-.38 0-.762 0-1.144-.004-.38 0-.783.12-1.14 0-.567-.175-.784-1.106-1.392-1.143-3.815-.267-3.868 5.797-8.34 3.868-1.48-.64-2.824-3.342-4.283-4.166-3.13-1.753-8.196 2.543-11.372.125-1.94-1.472-3.015-5.24-4.802-6.95-.867-.83-2.7-.733-3.69-1.435-.53-.38-1.562-2.36-2.178-2.446-1.25-.15-3.25 2.742-4.515 3.034-1.714.395-3.488-2.202-4.908-1.93-1.146.222-2.32 2.6-2.32 2.6-4.2 3.93 2.23 2.342.093 6.437-.018.037-.855 1.25-.28 1.488.65.248 2.6-1.26 2.876.166 0 .01-.698 2.28-.698 2.29.044.725 1.29 1.315.952 1.965l-1.787-.37c-1.1.1-3.313.945-4.256 1.515-1.62.993-3.987 5.16-5.816 5.388-.73.088-4.56-4.17-8.64-.56-1.68 1.485 2.52 6.37 2.09 8.21-.34 1.39-4.87 3.77-5.448 4.565-1.267 1.75-.115 4.796-1.636 6.73-2.05 2.612-3.698.536-4.86 1.585-2.853 2.573.34 11.098-1.796 12.46 0 0-2.217.386-2.23.392 0 0-.644 1.18-.644 1.183-.51.153-8.39-2.195-8.875-3.108-.513-.97-1.536-4.73-3.62-4.38-1.625.28 1.898 1.863 1.596 2.583-.585 1.37-3.804 1.418-3.926 1.623l1.06 1.726c-.17.768-2.246 1.118-2.55 1.86-.426 1.04 1.256 3.188.715 4.16-.004 0-2.116 1.06-2.124 1.064-.7.98.39 2.442-1.21 3.054-.35.137-.83.44-1.11.19-.275-.244.072-.727.112-1.09.02-.362.366-.842.093-1.084-.464-.42-2.714.78-3.346.557-.868-.304-2.054-3.56-3.38-3.01-.95.397-1.58 1.968-2.447 2.538-.79.533-2.63.54-3.24 1.246-1.434 1.645.015 4.78-2.45 6.095-.396.21-.907-.214-1.23-.512-2.21-1.976-6.01-3.96-9.29-4.22-1.51-.12-4.238 2.23-5.485 1.566-2.207-1.164.652-.818-1.586-1.36-.31-.07-.27.617-.208.927.398 1.86 2.707 2.67.096 4.255-3.003 1.814-.435-2.543-2.122-2.52-1.02.016-2.127 1.688-3.144 1.907-1.82.387-2.874-2.024-4.35-2.19-2.938-.327 2.834 5.484-.73 6.517-.733.206-2.25-1.153-2.76-.902l-.15.627c-.814 2.263-3.43 5.216-3.456 7.61-.023 2.44 4.26 2.824 3.753 5.836"/><path fill="#FFF" d="M549.68 207.613c.007.122-.04.237-.136.347-.1.11-.31.312-.635.61l-6.62 5.712.51-4.366c.123-.8.37-1.393.73-1.78.363-.385 1.047-.643 2.052-.772l.447-3.483-13.26.74-.438 3.702c1.453.03 2.202.45 2.248 1.266.03.535-.03 1.277-.186 2.225l-1.467 12.49c-.072.688-.33 1.22-.77 1.6-.444.377-1.192.62-2.248.73l-.438 3.7 13.59-.75.448-3.468c-1.526-.06-2.316-.553-2.367-1.477-.03-.536.032-1.277.188-2.226l.398-3.41 1.846-1.365 2.748 5.01c.448.803.686 1.455.713 1.954.042.755-.633 1.23-2.025 1.43l-.413 3.464 14.504-.803.436-3.703c-.622 0-1.115-.05-1.48-.146-.365-.095-.704-.27-1.017-.52-.315-.25-.598-.56-.85-.922-.25-.364-.574-.89-.965-1.575l-5.02-8.983c2.107-1.84 3.682-3.15 4.724-3.94 1.04-.79 1.872-1.31 2.493-1.56.62-.25 1.435-.43 2.44-.547l.326-3.697-11.988.664-.41 3.483c1.244.005 1.874.13 1.887.37zm30.742-1.32c.01.183-.357.813-1.103 1.892l-3.195 4.495-1.707-3.73c-.486-1.07-.736-1.734-.75-1.99-.043-.766.744-1.194 2.362-1.284l.374-3.48-13.755.762-.4 3.7c.756.19 1.312.414 1.667.668.353.255.715.72 1.08 1.395l4.185 7.788c.272.522.413.85.42.984.01.17-.034.697-.13 1.58l-.355 3.224c-.07.7-.326 1.236-.77 1.608-.443.374-1.19.614-2.247.72l-.435 3.703 14.01-.776.437-3.703c-.92-.06-1.586-.22-2.003-.483-.418-.263-.64-.7-.677-1.307-.013-.23.047-.9.18-2.005l.312-2.67c.05-.417.198-.816.446-1.196l6.144-8.356c.67-.903 1.354-1.557 2.05-1.96.697-.406 1.515-.634 2.45-.686l.272-3.693-10.453.58-.41 3.48c1.303-.036 1.97.214 1.998.75z"/><path fill="#DFB875" d="M662.58 233.534s-5.31.807-7.97 1.216c-1.504.22-1.01.485-2.1 1.102-3.184 1.83-8.86 2.015-12.468 2.826-15.073 3.37-30.19 6.61-45.33 9.743l-.973.65c-1.62 1.087-4.587.987-6.525 1.277-5.574.825-11.126 1.723-16.68 2.65-8.7 1.438-17.573 2.26-26.227 3.91-7.86 1.498-15.324 3.355-23.314 4.27-4.017.476-20.776 1.377-23.256 2.608-.004 0-1.47 1.668-1.47 1.668-.29.05-.38-.534-.684-.603-2.864-.586-28.02 4.822-32.85 5.74-2.35.44-7.263 2.4-9.523 1.787-1.31-.36-.237-1.333-3.272-1.157-.615.034-4.723-.138-4.99.277-.79 1.262 3.675 5.75 1.71 7.533-.882.79-10.457 1.708-12.252 1.998-11.442 1.84-22.892 3.595-34.35 5.3-5.647 4.546-1.23-5.547-4.98-2.535-.17.14-.433.214-.518.42-.712 1.818 2.287 5.5 2.14 7.5-.082 1.195-4.32.748-3.156 2.526.543.842 2.666.83 3.13 1.712.274.516-3.89 1.353-3.72 2.74.137 1.02 2.74 2.022 2.73 3.034-.017.424-1.866 1.295-2.118 1.683-.696 1.064-.946 2.912-1.33 4.126-.11.346-.346 1.028-.346 1.028.792.728.99.92 1.78 1.652 2.742 2.56-1.416.287-2.477 1.964-1.504 2.37 2.82 1.396 1.598 3.32-.27.425-1.977-.09-2.306.296-.48.547.074 1.55-.314 2.16-.653 1.017-4.104.972-5.017 2.036-1.733 2.013 3.48 1.594 4.476 2.96.45.61-2.985 2.176-3.202 2.515-.553.87 1.483 1.213.846 2.013-1.08 1.315-3.233-1.52-4.058.51-1.127 2.794 3.85 3.8 2.34 4.634-3.862 2.13-1.997-1.86-3.728-1.65-2.1.26-2.403 4.522-2.393 4.522 1.42-.18.156-1.43 1.574-1.608.484-.063 1.908 3.484 1.676 4.024-.306.702-2.585 1.01-2.74 1.74-.167.838 3.296.85 3.75 1.646.302.526.462 4.73.018 4.926-.738.327-1.682-.75-2.42-.406-.82.388-.574 3.095-1.322 3.683-.524.417-2.53-.175-2.913.355-.214.28.087.688.13 1.04.034.342.12 1.043.12 1.043 24.72-3.008 49.39-6.336 74.022-9.984-.19-1.283 3.66-1.188 4.87-1.356 5.386-.728 10.773-1.466 16.15-2.228 22.875-3.22 45.625-7.017 68.353-11.125 15.097-2.496 30.165-5.11 45.215-7.85 0 0-1.48-7.04-.88-10.498.582-3.374 6.512-.195 7.63-3.667.112-.36.006-.756.006-1.136.023-1.144.03-2.284.037-3.435 0-.375-.12-.78.005-1.13.558-1.54 6.716-7.37 8.48-8.147 1.04-.463 2.368-.26 3.43-.707.412-.18.55-.966.994-.926.008 0 1.42 1.137 1.42 1.137 2.224-.018 2.267-2.496 3.43-3.563.682-.633 2.102-.606 2.705-1.296.35-.37-.08-1.145.29-1.487.427-.385 1.245 0 1.71-.35 1.44-1.113 2.31-3.79 3.677-5.07 1.942-1.794 5.655-1.718 6.12-2.015 1.89-1.26 1.346-7.45 1.353-7.457 1.033-.804 2.683.513 3.558-.057.45-.29.255-2.472.53-2.97.357-.645 3.25-3.634 3.928-3.734 2.967-.407.98 4.26 3.17 3.602 3.26-.983 3.442-5.762 5.98-7.78.83-.647 3.73-2.912 4.625-3.188 1.897-.57 3.59 2.94 5.13 1.707 1.016-.807 2.882-7.747 3.762-9.473.315-.602 1.653-3.1 2.19-3.376.623-.337 3.124.726 2.724-.99-.707-3.082-.872-6.752.667-9.86"/><path fill="#FFF" d="M484.73 294.4c1.1-.98 2.362-1.584 3.79-1.812l-2.017 16.302c-.07.708-.33 1.25-.78 1.626-.446.377-1.203.62-2.27.728l-.44 3.744 14.157-.785.44-3.743c-.94-.06-1.622-.222-2.043-.488-.422-.267-.65-.707-.684-1.322-.017-.308.038-.983.165-2.026l1.767-14.494c2.532.094 4.367 1.966 5.507 5.616l3.113-1.21-2.023-8.49-21.64 1.198-3.242 8.562 2.908 1.097c1.097-2.023 2.194-3.524 3.292-4.504zm44.436 18.03l2.37-20.023c.104-.77.326-1.33.665-1.674.34-.346 1.026-.572 2.057-.678l.44-3.744-9.48.53-.416 3.52c1.52.04 2.31.662 2.38 1.867.036.664.02 1.245-.052 1.742l-.91 7.636-.072.005-5.54-14.516-12.654.7-.44 3.745c1.47.03 2.23.455 2.274 1.28.03.54-.033 1.29-.19 2.25l-1.482 12.626c-.072.694-.332 1.233-.78 1.616-.447.385-1.204.63-2.27.737l-.44 3.744 9.592-.53.44-3.744c-.795-.092-1.38-.272-1.76-.54s-.58-.638-.606-1.105c-.015-.257.018-.777.098-1.56l1.6-13.54.074-.004 7.754 20.073 7.356-.41z"/><path fill="#C39547" d="M468.162 533.582c-.09-.24-.17-.483-.09-.592-2.732-13.93-5.455-27.87-8.167-41.816-1.276-6.504-3.126-13.154-3.84-19.738-.85-7.788-.41-15.95-.623-23.786-.45-16.302-.922-32.616-1.44-48.922-.402-12.58-.81-25.156-1.26-37.735-.09-2.743.516-13.242-.533-15.117-.57-1-3.156-2.526-4.09-3.616-24.497 3.64-49.027 6.96-73.608 9.962.74 1.286 2.588 5.238.166 6.29-.973.416-.695-.904-2.157.026l-1.833 1.15c-.596-.265.665-3.525-1.41-1.932-.877.662 1.21 4.184 1.16 4.763-.06.664-2.243 2.64-2.754 1.74-.2-.36 2.04-2.238.25-2.85-1.802-.6-1.317 3.044-.756 3.604.565.56 2.934-.252 3.09 1.028.056.47-2.35 2.885-2.682 2.422-.29-.402.236-2.824-.896-2.688-.26.02-.147.478-.22.717-1.017 3.487.257 2.022 1.955 3.98.152.173.052.457.074.688.172 1.4-1.06 1.145-1.52 2.278-.426 1.082 1.037 3.117.502 4.142-.39.733-1.73.97-2.188 1.66-.257.378-.46 2.757-.85 2.896-.067.026-1.65-3.68-3.17-1.728l.745 1.313c.24 2.063-1.963 2.025-2.598 3.335l-.964 1.975c-.23.104-4.88-.652-2.274.954.754.457 4.115-.48 4.274.904.18 1.498-4.516-.337-5.22 1.304-.757 1.77 3.703 1.492 3.774 1.658.912 2.223-4.8 5.426-5.39 5.162-.313-.14-.66-.625-.952-.416-1.316.99 1.08 2.178 1.223 2.83.215 1.03-1.13 2.593-.794 3.587.257.79 2.343 1 2.59 1.8.416 1.33-5.03.4-5.326.596-.188.132.055.45.083.686.498 4.55 2.55 1.173 3.637 3.088.123.217.472.427.377.657-1.27 2.916-4.903-1.565-5.823-1.103-.286.154-.82.125-.842.447-.115 1.062 2.514 2.814 2.823 3.882.064.242-.15.488-.23.716-.38 1.24-2.076.284-1.902 1.84.705 6.45.686-4.738 1.39 1.71.05.44-1.72 2.65-1.47 2.95 1.977 2.443 1.768-5.77 4.008-1.838.517.916-3.47 3.39-2.603 3.77 3.47 1.54 3.534-4.828 5.133-2.654.867 1.203-2.453 3.328-2.524 4.464-.327 5.313 3.72.9 3.88 2.354.08.636-1.43 1.636-1.555 2.27-.137.645.78 2.964.374 3.442-.544.647-2.88-.11-3.584.4-1.333.976 2.688 2.835 2.767 3.177.262 1.073-1.488 2.95-1.488 2.95-.45.657-2.595 2.987-.823 3.576 3.79 1.25 1.175-4.403 3.903-3.218 2.46 1.065-2.54 7.756-2.088 8.584.493.94 4.25.08 4.425 1.592.275 2.513-4.78 2.25-3.074 5.218 1.35 2.345 4.312-3.757 5.336-1.29.553 1.33-2.133 2.22-2.104 3.02.01.324 3.58 1.845 2.72 2.48-.11.067-6.395-.89-3.47 1.777 1.394 1.265 3.647-.517 4.905.14.336.182-.84 2.787-.22 3.514.546.647 2.752.31 3.174 1.03.77 1.31-1.998 1.215-2.26 1.65l.23 2.055c-.35.85-7.35.504-6.276 4.184.77 2.652 4.59-1.763 5.45-.61.566.753-1.43 4.14-1.96 4.386-.444.214-2.855-.702-3.112-.344-.41.59 4.013 1.276 3.34 2.41-.656 1.094-2.617 1.467-3.414 2.467-1.15 1.396-1.99 3.944-2.48 5.475-.32.99-1.985-1.872-3.01.684-.13.325-.127.704-.19 1.06-.518 2.82 1.46-.16 1.88 1.29.322 1.11-2.097 1.38-2.463 1.89-.61.85.03 3.63-.776 4.243-.796.614-3.454-1.5-3.668.39-.25 2.226 2.713.53 3.205 1.05 1.15 1.21-2.49 2.478-2.76 3.074-.84 1.803 1.75 3.213 1.724 4.66-.057 2.74-2.662-1.32-3.06.33-.54 2.204 2.8 3.183 2.343 4.597-.44 1.35-4.8 1.82-4.77 1.89.36.844 1.977 1.874 2.136 2.55.18.79-1.204 2.094-.947 2.867.34.978 2.518 1.478 2.74 2.48.203.846-2.156 1.63-2.242 2.31-.03.313.384.55.683.62 2.924.765 11.282-1.205 14.646-1.57.406-.046.815-.085 1.22-.143 12.613-1.385 25.212-2.865 37.806-4.42 3.683-.45 12.61-2.745 15.837-2.003 2.267.533-3.296 11.773-2.576 14.21.01 0 1.404 1.2 1.41 1.2.424.692.33 1.968.96 2.65 1.316 1.38 3.594 1.905 4.857 3.527 2.693 3.47 2.474 7.25 5.123 10.413 1.168 1.39 1.172-.694 2.47.29.613-.56 1.23-.98 1.87-.864.308.05.426.706.718.596.404-.148.593-2.49.88-2.888.715-.987 2.96-1.437 3.445-2.536.95-2.147-2.457-1.86-.982-2.645.456-.24 2.804-.216 3.188.26l-.44 1.45c.185.276 2.406-.73 2.626-.817 1.488-.545 8.82-3.05 9.564-3.855.957-1.036-.238-2.732 2.637-2.214 1.685.3 3.06 2.418 4.8 2.783.92.203 3.575-.584 4.233-1.29.35-.366-.062-1.55.424-1.455.78.173.776 1.585 1.524 1.86.003.012 2.484-.35 2.484-.35l1.426 1.177c.005 0 1.042-1.532 1.042-1.532.36-.2.894.062 1.234-.182l-.11-.773"/><path fill="#FFF" d="M393.374 452.028l7.965-20.366.07-.004-2.046 13.966c-.097.673-.218 1.158-.365 1.457s-.383.528-.708.68c-.324.15-.84.295-1.55.43l-.504 3.684 12.51-.692.36-3.673c-.67-.073-1.16-.19-1.467-.348-.306-.16-.47-.413-.487-.765-.016-.29.025-.85.125-1.68l1.723-13.24c.074-.645.285-1.154.635-1.525.35-.37 1.008-.583 1.975-.637l.415-3.676-12.438.69-4.287 10.635-.072.004-.955-10.347-12.727.707-.506 3.683c.783.125 1.328.283 1.635.47.31.19.473.49.495.9.02.35-.032.85-.153 1.5l-1.766 12.46c-.145 1.088-.402 1.8-.772 2.134-.37.337-1.04.58-2.014.73l-.487 3.682 8.9-.494.506-3.684c-.755-.08-1.3-.208-1.63-.384-.33-.176-.51-.493-.534-.952-.023-.387.033-1.02.166-1.9l1.72-13.24.073-.003 2.454 20.007 3.732-.208zm36.678-26.994c-.93-.25-1.82-.423-2.674-.515-.853-.096-1.66-.12-2.422-.08-1.812.1-3.413.447-4.805 1.04-1.39.59-2.56 1.365-3.52 2.32s-1.656 1.996-2.09 3.12c-.435 1.13-.622 2.246-.56 3.357.058 1.037.255 1.92.59 2.645.338.727.8 1.327 1.39 1.803.59.476 1.316.878 2.178 1.205.86.33 1.873.618 3.038.868l3.66.797c1.265.28 2.178.577 2.74.89.562.315.86.756.892 1.323.05.88-.335 1.562-1.15 2.043-.815.48-1.918.76-3.308.84-1.04.057-2.123-.086-3.25-.43-1.13-.343-2.147-.952-3.057-1.83-.908-.873-1.53-2.017-1.86-3.427l-3.426.19.395 9.752 2.666-.148.708-1.977c2.724 1.47 5.8 2.107 9.23 1.917 2.067-.115 3.865-.518 5.397-1.21 1.53-.69 2.754-1.55 3.666-2.584.91-1.032 1.57-2.15 1.975-3.356.406-1.204.577-2.374.515-3.51-.054-.992-.274-1.9-.66-2.728-.385-.83-1.15-1.606-2.3-2.33-1.15-.725-2.82-1.293-5.01-1.705l-3.307-.597c-1.14-.204-1.987-.47-2.545-.795-.557-.327-.852-.77-.882-1.323-.028-.507.206-.968.705-1.383.5-.417 1.33-.655 2.488-.72 1.716-.096 3.21.19 4.482.86 1.447.754 2.377 1.895 2.79 3.422l3.333-.186-.328-8.54-2.482.138-.685 1.747c-.747-.357-1.585-.66-2.513-.914z"/><path fill="#BC9C64" d="M368.552 312.627c-.22-.287 1.876-5.397 2.212-5.84 0 0 1.635-.89 1.65-.897.384-.6-.12-1.546.31-2.125.67-.884 2.49-.99 3.28-1.795 3.074-3.126 1.87-5.446-.457-8.307-.642-.792-1.186-2.83-2.153-3.228-1.22-.52-9.375 1.12-11.203 1.34-10.4 1.22-20.8 2.374-31.195 3.473-36.877 3.91-73.832 7.088-110.842 9.54 0 0 .7 3.252 1.057 4.882.613 2.84 1.23 5.683 1.845 8.524 1.85 8.496 3.986 16.985 5.61 25.542 1.803 9.548 1.643 19.438 2.08 29.108.756 16.45 1.49 32.904 2.23 49.356.584.6.79 1.423 1.334 1.97.54.543 2.25.33 2.45.538.213.203-.566.412-.553.714.065 1.014 2.594.732 3.054.48 2.28-1.244-1.473-1.58 2.95-.9.76.118 5.94-1.317 6.66.215 1.42 3.002 1.327 17.673 1.65 21.917 34.693-2.55 69.388-5.487 104.02-8.77 0 0 1.77-1.862 1.505-2.923-.08-.343-4.135-2.18-2.79-3.15.706-.502 3.064.25 3.613-.392.41-.475-.52-2.773-.38-3.41.126-.63 1.646-1.622 1.566-2.25-.16-1.44-4.24 2.93-3.91-2.336.07-1.123 3.42-3.23 2.54-4.422-1.608-2.154-1.672 4.156-5.172 2.632-.872-.38 3.147-2.83 2.625-3.738-2.26-3.896-2.046 4.242-4.043 1.818-.25-.294 1.532-2.485 1.482-2.92-.71-6.39-.69 4.692-1.4-1.693-.175-1.544 1.534-.593 1.916-1.825.077-.227.293-.47.23-.71-.313-1.057-2.962-2.793-2.85-3.85.027-.312.563-.284.852-.436.924-.465 4.59 3.976 5.874 1.09.096-.23-.255-.438-.38-.656-1.097-1.89-3.163 1.457-3.665-3.054-.032-.23-.278-.55-.087-.68.298-.192 5.79.724 5.372-.592-.252-.795-2.352-.998-2.615-1.78-.338-.987 1.017-2.535.8-3.557-.145-.65-2.56-1.823-1.23-2.806.293-.214.645.273.958.412.595.258 6.355-2.914 5.436-5.115-.07-.16-4.568.11-3.805-1.644.71-1.625 5.447.193 5.264-1.29-.164-1.373-3.55-.442-4.31-.895-2.623-1.593 2.063-.843 2.293-.947l.97-1.96c.638-1.295 2.86-1.258 2.62-3.3l-.75-1.3c1.53-1.935 3.127 1.737 3.193 1.708.394-.135.6-2.492.858-2.87.464-.68 1.814-.92 2.206-1.643.538-1.01-.933-3.03-.505-4.104.467-1.122 1.704-.867 1.535-2.256-.026-.234.073-.512-.078-.688-1.712-1.934-2.996-.483-1.97-3.94.073-.235-.04-.69.218-.712 1.145-.133.613 2.266.906 2.666.34.456 2.764-1.935 2.706-2.4-.156-1.27-2.545-.465-3.113-1.02-.564-.555-1.056-4.165.764-3.57 1.802.605-.45 2.465-.256 2.822.52.888 2.718-1.07 2.78-1.73.05-.573-2.052-4.06-1.167-4.716 2.087-1.58.82 1.65 1.417 1.913l1.85-1.143c1.475-.923 1.19.387 2.175-.025 2.444-1.04.58-4.96-.17-6.234 0 0-.086-.69-.12-1.03-.043-.343-.344-.75-.133-1.024.387-.524 2.398.06 2.92-.35.75-.58.505-3.257 1.33-3.64.74-.34 1.682.724 2.424.4.447-.19.285-4.35-.016-4.87-.46-.784-3.93-.797-3.766-1.627.16-.72 2.446-1.025 2.75-1.72.234-.533-1.193-4.044-1.68-3.98-1.42.175-.156 1.41-1.578 1.588-.01 0 .293-4.214 2.4-4.467 1.732-.207-.136 3.738 3.737 1.63 1.515-.823-3.477-1.82-2.346-4.58.827-2.006 2.985.8 4.066-.504.64-.79-1.402-1.13-.847-1.988.217-.336 3.656-1.89 3.21-2.49-1-1.35-6.228-.936-4.486-2.926.917-1.05 4.376-1.006 5.028-2.012.39-.604-.164-1.592.317-2.132.33-.383 2.04.125 2.306-.293 1.23-1.905-3.102-.938-1.596-3.282 1.065-1.654 5.234.588 2.483-1.94-.792-.724-.99-.916-1.78-1.634-5.83.735-11.655 1.457-17.49 2.163-.544.072-4.727.927-4.99.6"/><path fill="#FFF" d="M297.54 377.88l.358-3.67c-.962-.102-1.65-.294-2.065-.574-.415-.28-.705-.71-.87-1.295l-5.267-19.35-7.565.42-8.86 17.94c-.685 1.393-1.203 2.354-1.556 2.88-.352.528-.718.89-1.1 1.088-.383.196-1 .368-1.85.51l-.47 3.677 10.28-.57.414-3.672c-1.026.06-1.693.023-2.003-.104s-.475-.404-.498-.827c-.024-.424.493-1.692 1.55-3.81l7.854-.436c.51 1.595.788 2.747.827 3.46.025.457-.195.8-.66 1.025-.467.225-1.29.37-2.473.436l-.414 3.673 14.37-.8zm-17.826-11.104l3.344-7.466.072-.005 1.813 7.18-5.23.29zm46.764 9.5l.373-3.434c-.615-.026-1.12-.095-1.51-.207-.383-.11-.67-.26-.85-.442s-.39-.487-.63-.91l-3.74-6.582c1.99-.785 3.447-1.78 4.374-2.98.926-1.202 1.336-2.77 1.23-4.7-.085-1.507-.52-2.68-1.304-3.52-.785-.84-1.815-1.41-3.09-1.71-1.276-.297-2.727-.4-4.356-.31l-15.49.857-.433 3.673c1.44.03 2.188.447 2.23 1.255.03.532-.03 1.268-.185 2.21l-1.457 12.39c-.07.68-.325 1.21-.765 1.584-.44.375-1.18.616-2.23.722l-.43 3.675 13.556-.752.43-3.672c-.78-.09-1.355-.267-1.727-.53-.372-.265-.57-.625-.595-1.083-.02-.35.018-.86.115-1.532l.464-4.075 1.34-.074 5.022 10.686 9.665-.538zM311.34 357.96c.093-.706.226-1.222.395-1.547.17-.324.4-.545.69-.664.29-.12.712-.198 1.267-.23 1.026-.056 1.87.094 2.53.45.662.357 1.022 1.07 1.082 2.146.045.81-.122 1.514-.5 2.115-.378.605-.903 1.068-1.575 1.396-.676.328-1.42.515-2.24.56l-2.156.12.503-4.35z"/><path fill="#D9B67B" d="M451.12 584.187c-.214.04-.504-.09-.633.09-.134.187.315.61.104.683-2.245.83-4.5-5.634-5.864-5.45-1.483.208-.216 1.42-1.7 1.617l-.81-1.277c-.513-.167-4.345 1.088-4.494-.09-.097-.67 2.463-1.026 1.793-.932-1.616.215-2.743-.328-4.24-.124-.57.065-3.142.808-3.435.1-.194-.457.428-2.323.317-2.467-1.26-1.655-5.11-.024-6.542-1.223-1.4-1.184-1.46-3.823-2.453-4.208-.22-.085-.863-.116-.666-.257.272-.205.675 0 1.016.002.68.008 1.36.008 2.044.01.344.003.86.308 1.014.003.86-1.668-2.082-2.604-2.55-3-.22-.195.578.08.872.112.29.047.577.092.858.12.288.045.603 0 .863.12 1.36.62 3.38.682 5.017.97.08.01-.066-.177-.137-.22-.42-.282-.684-.44-.87-.534-.3-.02-.543-.285 0 0 .23.014.467-.118.383-.79-.18-1.352-2.846 2.607-3.396-1.637-.12-.946 2.75-.89 3.04-1.1.436-.326.98-3.617 1.422-3.68 1.63-.21.67 3.07 3.4 1.646.372-.2 1.076.217 1.24-.164.33-.748-1.405-1.087-1.515-1.89-.08-.626 1.546-1.135 1.068-1.534-.315-.27-.924.43-1.242.157-.553-.45.897-1.67.35-2.13-.51-.43-1.116 1.026-1.783.934l-.795-1.282c.145-1.65 1.44.442 2.48-.336.198-.136-.047-.452-.08-.676-.272-2.015-2.623.665-3.208-.27-.672-1.064 1.96-2.74 1.955-2.817-.085-.643-1.203-.418-1.783-.695-.7-.33-1.33-1.417-2.05-1.13-.662.29.008 1.523-.36 2.144-.437.76-1.892.935-2.31 1.702-1.38 2.526 1.116 8.044-4.776 4.803-1.445-.795-.282-1.86-.57-2.01-1.445-.798-5.35 1.747-5.34-2.104.003-1.987 7.507-.74 6.866-5.77-.245-1.872-2.584 1.737-2.94 1.783-1.48.19-.168-2.348-.35-2.745-1.023-2.28-.895 3.41-1.435 3.67-1.654.808-2.217-3.38-4.08-2.26-.866.515-2.638 4.42-4.39 5.43-3.015 1.746-19.002 1.35-15.784-5.014.367-.71 6.85-8.48 7.18-8.533 1.87-.303 6.434.364 7.79 1.813l.872 1.98c.31.213.74.014 1.11.026.74.03 1.48.05 2.22.076.37.014.75-.096 1.108.023.853.304 1.562 1.2 2.66 1.06.66-.085 1.192-1.256 1.775-.93.383.215-.498 3.396 4.706 2.18.283-.08 3.16-1.2 1.29.17-.19.145-.8.34-.583.43 1.265.49 2.356-.926 3.46-1.924-1.3-.992-1.306 1.106-2.48-.294-2.652-3.184-2.43-6.99-5.128-10.48-1.268-1.635-3.548-2.164-4.868-3.555-.63-.685-.535-1.966-.96-2.664-.006 0-1.4-1.205-1.413-1.205-.724-2.456 4.85-13.77 2.58-14.31-3.23-.748-12.175 1.564-15.865 2.017-12.615 1.57-25.235 3.058-37.868 4.45-.407.06-.814.1-1.223.148-3.37.366-11.743 2.347-14.667 1.58-.305-.075-.714-.31-.685-.626.086-.688 2.45-1.475 2.25-2.32-.226-1.016-2.41-1.52-2.75-2.498-.26-.78 1.13-2.09.95-2.89-.163-.68-1.78-1.72-2.14-2.57-.034-.064 4.338-.535 4.774-1.896.462-1.424-2.884-2.41-2.347-4.628.404-1.664 3.01 2.424 3.07-.334.02-1.457-2.57-2.877-1.73-4.693.272-.605 3.916-1.875 2.763-3.093-.49-.526-3.46 1.18-3.206-1.06.212-1.904 2.874.225 3.672-.39.81-.62.166-3.42.78-4.273.37-.513 2.786-.782 2.465-1.9-.42-1.464-2.4 1.54-1.884-1.303.066-.353.064-.735.19-1.07 1.025-2.57 2.692.316 3.015-.682.488-1.54 1.336-4.107 2.483-5.514.8-1.008 2.762-1.38 3.42-2.484.673-1.142-3.757-1.83-3.346-2.423.256-.36 2.67.56 3.117.346.53-.252 2.53-3.656 1.963-4.42-.857-1.16-4.687 3.29-5.46.613-1.078-3.7 5.94-3.35 6.285-4.206l-.23-2.073c.265-.434 3.037-.34 2.265-1.653-.42-.73-2.632-.39-3.18-1.04-.62-.73.555-3.352.222-3.54-1.262-.654-3.517 1.135-4.914-.14-2.93-2.686 3.37-1.716 3.474-1.79.866-.637-2.712-2.166-2.725-2.492-.024-.806 2.666-1.703 2.112-3.043-1.025-2.484-3.994 3.66-5.35 1.303-1.706-2.993 3.354-2.73 3.082-5.258-.182-1.52-3.938-.654-4.44-1.605-.45-.835 4.563-7.568 2.098-8.64-2.732-1.197-.113 4.495-3.91 3.238-1.776-.596.37-2.94.822-3.603-34.406 3.34-68.875 6.32-103.337 8.913.735 9.972 1.47 19.933 2.2 29.906.17 2.406-.056 10.73.913 12.44.978 1.716 4.44 2.96 5.86 4.433 1.848 1.933 3.217 4.85 3.637 7.393.205 1.244-.708 3.002-.293 4.2.54 1.545 2.915 1.686 3.7 2.72.24.315.354.753.294 1.14-.04.312-.578.437-.562.74.12 1.43 3.967 3.216 4.074 4.56.058.795-1.23 1.37-1.065 2.17.123.616 2.225 1.34 2.61 1.87.505.658.26 2.16.85 2.72.31.302 2.37.1 2.52.49.35.897-1.133 2.59-.954 3.556.117.697 2.17 1.932 2.07 2.613l-1.796.832c-.97 1.724 1.412 2.107 1.453 2.67 0 0-1.073 2.16-1.077 2.16-.515 2.637.18 5.875-1.202 8.448-.465.86-1.975 1.35-2.32 2.267l.16 2.07c-.303.833-1.817.81-1.707 2.216.09 1.222 1.808 2.668 1.576 4.03-.333 1.86-2.27 1.865-1.55 4.288 1.892 6.438 3.81 8.93-.084 15.25l-.077.11c.8.686 1.14 2.11.97 3.28-.06.39-.74 2.646-1.045 2.854-1.614 1.053-5.158.187-2.877 3.68.145.23 1.93 1.906 2.035 1.92 1.09.12 3.118-2.7 4.19-3.093 3.657-1.353 14.16-2.28 18.184-2.184 7.437.167 14.256 4.3 21.413 5.717 3.045.59 6.36.556 9.454.816 1.663.145 4.31.883 5.916.5 1.3-.318 2.32-1.965 3.58-2.426 1.204-.45 2.86.125 4.027-.41 3.03-1.38-.173-.204.242-1.4.04-.11 1.847-.088 1.89-.2.455-1.323-3.106.337-3.15.324-.206-.09-1.54-2.392-1.518-2.627.017-.62 1.586-1.07 1.122-1.49-.414-.364-2.55 1.218-3.075 1-.11-.05-.94-2.65-.898-2.686.292-.316.84-.085 1.254-.126.42-.048.87-.29 1.26-.12.42.172-.323 1.413.13 1.365.227-.02 5.136-2.983 5.374-3.307.275-.376-.408-1.01-.137-1.382.47-.616 1.546.647 1.952.5.99-.38 1.29-.82 2.655-.97.343-.024.744-.286 1.038-.104 2.268 1.383-2.44.948-.9 3.56.23.404-.208 1.074.134 1.376.4.35 6.688-2.728 8.644-2.28 1.67.376-.16 2.854.084 3.797.61 2.326 2.51-.18 3.564.664.858.697.42 4.107.426 4.117.313.355 3.415-1.05 3.97-.98 1.51.198 3.595 2.928 5.694 2.02.74-.33.787-6.524 2.12-5.35 1.91 1.67-2.168 3.278-.79 5.895 1.35 2.56 4.848 2.302 6.197 4.164.423.582.81 4.633-.816 4.247-1.19-.277-.48-2.885-1.01-3.352-.36-.313-.737 1-1.182.828l-1.032-1.727c-1.816-1.473-1.755 1.09-2.79 1.796-.36.26-1.03-.55-1.3-.2-.196.27.345.58.528.866 1.148 1.94 9.192 4.588 10.875 4.11.72-.208.272-1.423 1.752-1.584.21-.03.61-.283.63-.074.063.62-1.362.937-1.113 1.513.07.16 2.285-.356 2.524-.293.908.25 1.84 1.7 2.758 1.77 2.625.19.824-1.912 1.027-2.2.287-.39.87.487 1.345.538.63.06 1.335-.532 1.9-.217.635.358.065 1.378-.475 1.44-.21.024-.8-.062-.64.074.333.286 3.762.252 3.872.242.792-.09.617-1.822 1.026-2.195.457-.434 1.13 1.76 1.418 1.214.51-.96-1.396-3.556.155-4.176.413-.173.615-.184.757-.15.053-.227.155-.52.39-1.034.84-1.8-1.92-.857-.242-2.052.194-.135.36-.45.585-.412 1.515.216 2.123 1.14 3.322.996.82-.103 1.213-2.923 1.564-2.966 2.167-.267 1.416 2.52 1.85 3.014.347.39.683-.852 1.15-1.07 1.345-.6 2.264 2.273 3.237 2.148.505-.058-.026-1.383.468-1.436.73-.095 1.02 1.54.885 1.97-.594 1.827.09 2 1.12 4.022.763 1.483-.66-.178-.468 1.44.117.92 1.663-.8 2.406-1.334.005-.006 1.764-1.252 1.777-1.255.7-.618 1.75-1.595 2.26-2.37 1.502-2.29-1.955-.605-1.672-3.258.07-.723 1.17-2.065 1.72-1.605.157.14.42-.052.63-.084.052-.005.162.038.157-.013-.14-1.122-1.52-6.704-1.63-6.74-1.43-.51-3.07.655-4.488-.134-.245-.142-.545-1.15-.788-1.29-.08-.043-.12-.05-.19-.096-.36.436-1.407-.716 0 0 .083-.1.14-.264.104-.59-.01-.04-.544-.194-.17-1.374.05-.16 2.587.71 8.674 3.078.69.28 1.787-.517 2.51-.31l1.422 1.2c1.357-.168-.06-1.813.367-2.13.254-.173 2.036.874 2.06 1.127l-1.168.85c-.39 2.258 2.34.253 2.605.36l-.454 1.445c.105.178.43-.155.626-.08.29.115.61.32.71.605.383 1.03-2.7 1.378-2.237 2.373l2.09-.27c.424-.054 2.145.474 2.393.386.002-.01 1.705-1.61 1.71-1.61 2.153-1.29.607 2.525 1.702 3.246.65.43 2.46.112 3.24.265l1.34.52c.19-.135-.05-.452-.08-.683-.028-.228-.226-.5-.09-.682.12-.176.422-.054.623-.084.213-.02.604-.294.627-.084.042.31-.542.446-.54.767.05 1.885 3.584 2.977 3.603 2.994.413.505-.09 3.185 1.625 2.56 2.55-.92.674-2.183 1.123-3.622.07-.238-.022-.8.23-.726.585.166.174 1.363.653 1.762 2.64 2.184-.255 1.72-1.295 3.183l.186 1.36c-.382 1.51-1.51 2.9-1.983 4.433-.21.656 1.352-.432 1.8-.935.27-.297.334-.736.51-1.104 1.014-2.278 1.78-2.673 3.28-4.266.344-.363-.05-1.488.445-1.45.814.064 2.952 5.33 4.43 4.262.58-.43-.813-1.247-.902-1.962-.075-.55.998-2.92 1.518-2.992.318-.036.426.64.728.588.5-.06-.966-.79-.816-1.27.263-.838 1.94 1.16 2.074 1.103l.984-2.218c-.533-1.41-2.906.517-3.145.432-.218-.08-.066-.456-.098-.68-.093-.72 6.95-3.743 1.522-2.997"/><path fill="#FFF" d="M304.362 506.37l3.705-9.653-3.333-1.415c-.597 1.3-1.23 2.39-1.9 3.276-.67.888-1.4 1.63-2.184 2.224-.785.596-1.613 1.044-2.482 1.347-.87.3-1.768.475-2.695.53-.644.032-1.105-.02-1.386-.17s-.43-.39-.45-.736c-.018-.334.006-.775.076-1.324l1.635-13.13c.12-.95.393-1.63.816-2.045.423-.414 1.178-.675 2.263-.785l.442-3.762-13.63.754-.444 3.763c1.476.03 2.238.46 2.284 1.287.03.544-.033 1.3-.19 2.262l-1.49 12.694c-.074.698-.335 1.24-.785 1.624-.45.385-1.21.63-2.283.74l-.443 3.764 22.47-1.247zm31.704-1.756l.37-3.76c-.987-.106-1.692-.303-2.117-.59-.428-.286-.727-.728-.895-1.326l-5.396-19.827-7.75.43-9.08 18.38c-.703 1.43-1.234 2.415-1.595 2.955-.36.54-.737.912-1.128 1.114-.393.2-1.024.374-1.897.52l-.48 3.766 10.534-.583.424-3.762c-1.052.06-1.736.023-2.053-.11s-.488-.41-.51-.844c-.025-.433.504-1.733 1.586-3.9l8.05-.447c.524 1.632.806 2.813.847 3.542.026.47-.2.82-.676 1.05-.477.23-1.32.38-2.533.45l-.425 3.76 14.72-.814zm-18.26-11.376l3.425-7.648.078-.005 1.86 7.356-5.36.3z"/></svg>