<svg xmlns="http://www.w3.org/2000/svg" width="655" height="750" viewBox="138 0 655 750"><path fill="#CBB082" d="M138.444 12.6c-1.666 1.666 1.867 3.906 2.268 4.87.15.365.027.787.05 1.178.017.396.032.79.045 1.18.02.393.22.824.057 1.18-.21.47-2.303.45-1.485 1.482.252.328.9.282 1.05.666.118.27-.6.457-.48.735.097.24 3.625.17 3.834 4.798.064 1.392-1.968 2.51-1.915 3.633.026.795 1.275 2.45.673 3.52-.39.668-1.976 2.63-1.922 3.624.006.29.603.4.55.684l-1.527.777c-.37.545-1.225 4.45-.843 5 .415.59 3.81 2.053 3.77 2.678-.015.42-1.03.336-1.013.756.028.415.82.332 1.08.66.844 1.047 1.37 2.85 1.752 4.18 0 0 2.82.883 2.705 2.002-.125 1.16-1.127 3.175-.853 4.29.324 1.3 2.38 2.144 2.778 3.42.39 1.22-.98 3.015-.33 4.27.574 1.09 2.158 1.637 2.76 2.71.45.788.166 2.046.664 2.803.695 1.076 2.743 1.533 3.29 2.684.467.97-.184 2.51.18 3.534.506 1.47 2.483 2.606 2.848 4.114.418 1.784-.42 3.516-.823 5-.52 1.955.97 2.73 1.274 4.194.142.708-.903 1.582-.436 2.142.646.78 2.067-.955 2.622-.838 1.43.303-.16 2.187.14 2.82.315.695 2.433.59 2.736 1.283.55 1.32-1.37 3.687-.82 5.003.49 1.16 2.374-.04 2.24 2.006-.052.856-1.87 1.974-1.415 3.62.45 1.682 2.07-.19 2.71.564.292.36-1 4.255-.82 5.006.66 2.685 2.38 4.528 2.55 7.658.102 2.103-1.38 4.59-1.294 6.44.076 1.275 2.793 2.486 3.536 5.48 32.2-.862 64.22-3.265 96.263-6.652 8.57-.912 17.037-2.032 25.544-3.486 2.446-.41 8.314-1.48 8.35-1.43 1.81 2.813 3.47 4.693 6.29 6.45 1.543.968 1.696 1.982 3.544 2.703.313.125.952.372.952.372 5.16-.553-.745-6.918-.287-7.79 1-1.947 7.836-4.303 8.13-5.15.8-2.427.666-4.94 1.355-7.267.634-2.124 3.26-3.93 3.647-6.104 1.288-7.366-9.582-7.593-4.804-18.68.63-1.453 9.322-1.87 10.966-2.68 1.334-.654 2.08-2.49 3.363-3.243 1.802-1.047 5.492-1.456 6.53-3.632.937-1.95-.238-5.072.736-7.216.56-1.234 2.262-1.957 2.814-3.2.742-1.678 1.338-6.153 1.146-7.984-.7-6.528-6.227-5.524-9.652-9.526-1.286-1.512-.643-3.54-2.524-4.69-1.46-.896-7.01-3.25-6.014-4.996-1.29-11.033-12.084-3.78-14.69-9.01-.73-1.445-.4-3.4-1.08-4.87-.35-.76-1.393-1.196-1.783-1.945-1.07-2.044-2.27-5.97-2.48-8.272-.23-2.44 2.873-5.21 2.303-7.39-.64-2.45-2.7-1.72-3.98-3.122-1.287-1.41-1.14-5.592-1.14-5.592l-1.248.142c-1.67.183-3.327.36-4.99.54-3.74.4-7.486.794-11.23 1.174-12.09 1.248-24.196 2.396-36.3 3.462-35.54 3.117-71.15 5.463-106.79 7.057-.85.04-4.588-.33-5.137.223"/><path fill="#FFF" d="M231.666 86.575l.422-3.59c-.762-.087-1.324-.26-1.688-.52-.363-.256-.557-.61-.582-1.058-.014-.248.018-.746.095-1.497l1.342-11.96c.093-.88.347-1.526.762-1.933s1.14-.663 2.175-.768l.404-3.59-13 .72-.42 3.59c1.408.024 2.134.44 2.18 1.23.024.46-.03 1.173-.166 2.15l-1.44 12.11c-.07.677-.318 1.196-.748 1.56-.43.36-1.156.59-2.178.695l-.422 3.59 13.264-.736zm30.047-1.665l.35-3.586c-.938-.1-1.61-.29-2.017-.562-.405-.273-.688-.695-.85-1.266l-5.147-18.912-7.398.41-8.662 17.53c-.67 1.364-1.175 2.302-1.52 2.818s-.702.87-1.075 1.062c-.375.193-.978.36-1.81.5l-.457 3.592 10.045-.557.404-3.59c-1.003.05-1.656.02-1.958-.11-.305-.125-.467-.394-.49-.806-.02-.415.482-1.654 1.515-3.722l7.674-.425c.5 1.56.77 2.683.81 3.38.022.447-.193.78-.647 1.002-.456.22-1.26.36-2.418.425l-.403 3.59 14.042-.78zm-17.418-10.85l3.268-7.297.07-.004 1.772 7.01-5.11.284z"/><path fill="#E2BE7D" d="M449.715 181.22c-.346-.89-1.314-1.684-1.545-2.597-.097-.388 0-.793 0-1.182.01-.4.01-.79.01-1.18 0-.394.128-.814 0-1.184-.84-2.25-4.188-4.23-5.516-6.25-1.284-1.955 2.026-2.46 2.205-3.887.162-1.198-2.4-2.688-2.3-3.9.103-1.327 2.66-1.687 2.962-2.59.744-2.194-1.995-13.085-2.45-16.004-4.21-27.548-8.43-55.097-12.648-82.644l.023-.074c-4.57-2.733-4.34-9.555-7.173-13.8-.518-.77-1.766-.78-2.455-1.312-1.663-1.266-3.628-5.36-3.997-7.333-.47-2.5.065-4.79-.192-7.347-.03-.252-.09-.514-.124-.768h-.018c-29.61 3.995-59.275 7.706-88.947 11.143-1.005 1.734 4.586 4.07 6.057 4.965 1.894 1.148 1.247 3.165 2.546 4.667 3.45 3.977 9.02 2.98 9.72 9.47.196 1.815-.4 6.267-1.15 7.933-.556 1.233-2.27 1.95-2.836 3.183-.98 2.13.202 5.233-.74 7.175-1.047 2.163-4.763 2.568-6.58 3.61-1.296.746-2.045 2.574-3.388 3.224-1.658.808-10.418 1.22-11.05 2.665-4.816 11.02 6.136 11.246 4.84 18.566-.39 2.164-3.04 3.957-3.674 6.07-.694 2.31-.56 4.813-1.367 7.223-.296.845-7.187 3.185-8.193 5.12-.46.87 5.49 7.195.29 7.744 0 0-.806.44-1.006.812-1.065 1.94-.67 5.02-.616 7.122.09 2.854.393 5.682 1.727 8.292.45.89 1.65 1.686 1.94 2.62.27.85-.506 2.01-.24 2.853.3.955 1.517 1.707 1.944 2.615.472.993.31 2.53.926 3.437 2.105 3.074 7.346 4.646 10.2 6.657 1.09.77 1.55 2.4 2.584 3.247 3.118 2.53 8.604 3.29 10.35 7.31.647 1.475.407 3.37 1.125 4.81.26.532 1.082.702 1.273 1.272.704 2.176-.49 7.23 3.84 8.72 2.492.87 3.832-3.14 5.683-4.19.956-.54 9.785 3.28 10.686 4.367 1.2 1.456-1.542 3.76-1.63 5.137-.06 1.113 1.06 2.297 1 3.413-.306 5.087-7.97 12.116-4.1 17.423 1.15 1.577 3.526 3.963 5.177 5.017.84.534 2.205.44 2.987 1.048.63.494.78 1.428 1.386 1.945 1.252 1.095 5.21 1.12 5.978 2.086.746.93-1.08 1.752.355 2.776 1.914 1.376 1.782-1.19 3.286-1.114.61.02.796.942 1.314 1.242.85.504 2.226.438 3 1.03 1.207.933 1.558 3 2.806 3.876 1.144.82 3.85.48 4.787 1.5.956 1.058.168 4.22.743 5.544.8 1.91 3.463 3.17 4.138 5.11 1.048 2.996-2.436 3.397-2.003 6.61l1.798.47.28 2.074c.664 1.474 2.728 2.32 3.4 3.792.293.638-.14 1.51.28 2.07.215.306 3.358 1.707 3.7 1.626 1.96-.5-2.81-2.377-1.04-3.39 1.647-.927 2.594 3.25 3.987 3.706 1.356.446 1.72-.837 2.96.31 0 0-.45-.406-.67-.614-1.264-1.16-1.386-1.62-1.617-3.307-.05-.38 3.75-6.624 4.26-6.925 4.97-2.854 13.62 4.475 19.11 3.696.342-.05.29-.634.438-.94 3.14-6.72-5.644-5.153-2.365-12.196.78-1.674 2.543-.484 3.867-1.27.007 0 .927-1.54.927-1.54 1.93-1.606 4.966-1.414 7.145-2.456.403-.187.956-.42 1.025-.86.51-2.996-3.783-3.38-3.76-5.81.027-2.383 2.65-5.32 3.466-7.574 0 0-3.144-2.21-2.434-3.414l1.806-.74c.01-.017-1.52-6.05-1.508-6.147.113-.683 1.584-.52 1.723-1.2.44-2.158-1.667.68-.715-1.604.343-.82 1.883-1.13 2.276-1.934.097-.21.047-.51-.11-.686-1.707-2.054-2.548-1.75-1.297-4.766.827-2 .69.34 1.676-.25.436-.26-.154-1.386.334-1.463.314-.044.454.408.676.607.222.208.42.783.672.61.34-.236.13-.806.19-1.205.36-2.25 1.07-1.85 1.95-3.37.458-.784-.14-2.11.125-2.855.532-1.49 2.45-1.81 3.01-2.58.293-.394-1.11-2.18-.982-2.686.163-.706 1.243-.94 1.448-1.635l-.327-2.078c.81-1.93 4.29-1.71 2.34-6.743"/><path fill="#FFF" d="M371.467 142.628l.442-3.76c-.8-.093-1.39-.274-1.77-.545-.38-.27-.588-.64-.61-1.11-.018-.258.02-.782.1-1.566l1.4-12.533c.1-.922.364-1.597.8-2.024.435-.426 1.195-.695 2.28-.804l.422-3.76-13.618.754-.442 3.76c1.477.03 2.238.46 2.283 1.287.026.48-.032 1.234-.173 2.26l-1.51 12.687c-.07.71-.332 1.254-.78 1.632-.452.378-1.212.622-2.284.73l-.44 3.76 13.894-.768zm25.107-1.39l3.703-9.65-3.33-1.413c-.598 1.297-1.232 2.388-1.9 3.274s-1.397 1.62-2.183 2.22c-.785.59-1.61 1.04-2.48 1.342-.87.302-1.768.48-2.694.53-.642.035-1.104-.02-1.384-.165-.28-.146-.43-.39-.45-.737-.02-.332.007-.774.076-1.323l1.633-13.12c.12-.95.393-1.63.816-2.045.43-.414 1.18-.676 2.267-.786l.442-3.76-13.62.753-.44 3.76c1.474.03 2.235.46 2.28 1.285.03.547-.033 1.3-.19 2.26l-1.49 12.69c-.074.697-.335 1.238-.785 1.623s-1.21.63-2.28.74l-.443 3.76 22.458-1.244z"/><path fill="#D8AB5E" d="M407.203 275.013c1.266-1.342-2.362-1.1-2.077-2.542.552-2.882 2.17-1.053 1.516-5.87-1.233-1.16-1.596.13-2.947-.317-1.387-.457-2.33-4.664-3.97-3.726-1.762 1.017 2.987 2.907 1.036 3.41-.34.083-3.47-1.33-3.68-1.634-.416-.567.014-1.445-.28-2.09-.67-1.48-2.723-2.33-3.385-3.814l-.277-2.085-1.79-.475c-.432-3.233 3.034-3.64 1.996-6.65-.672-1.956-3.323-3.225-4.12-5.143-.57-1.332.213-4.514-.74-5.58-.933-1.03-3.626-.685-4.764-1.51-1.243-.883-1.59-2.96-2.794-3.903-.777-.594-2.14-.525-2.987-1.036-.518-.298-.697-1.23-1.31-1.25-1.496-.077-1.366 2.505-3.27 1.12-1.427-1.03.39-1.854-.355-2.795-.764-.97-4.702-1-5.95-2.094-.603-.528-.75-1.466-1.38-1.965-.78-.61-2.137-.515-2.975-1.053-1.643-1.063-4.005-3.465-5.154-5.05-3.854-5.343 3.78-12.42 4.078-17.537.067-1.122-1.047-2.316-.986-3.437.082-1.383 2.816-3.706 1.62-5.17-.897-1.094-9.688-4.938-10.642-4.397-1.84 1.06-3.176 5.097-5.656 4.22-4.314-1.5-3.124-6.586-3.825-8.78-.19-.575-1.01-.743-1.268-1.28-.717-1.448-.48-3.355-1.12-4.84-1.74-4.044-7.2-4.813-10.305-7.36-1.034-.848-1.49-2.49-2.576-3.268-2.837-2.026-8.058-3.61-10.152-6.704-.617-.913-.453-2.46-.922-3.46-.425-.913-1.64-1.67-1.935-2.627-.266-.853.507-2.02.243-2.872-.292-.943-1.484-1.742-1.932-2.64-1.33-2.628-1.63-5.47-1.722-8.345-.05-2.122-.447-5.218.615-7.173.2-.38 1.008-.82 1.008-.82s-.642-.245-.956-.37c-1.852-.726-2.01-1.74-3.555-2.705-2.826-1.766-4.494-3.644-6.31-6.455-.033-.05-5.92 1.02-8.374 1.427-8.53 1.453-17.025 2.576-25.62 3.49-32.145 3.39-64.264 5.793-96.565 6.655.2 3.816 2.12 2.894 3.59 6.186.396.9.813 5.564.854 5.62.064.123 5.93 2.916 6.175 3.193l-.47 1.45c.408 1.3 2.53 2.07 2.924 3.37.217.704-.802 3.034-.34 3.563.26.298 2.33.05 3.36 1.218.196.23.583.67.583.67s4.596 3.85 7.41 4.517c1.724.416 2.655-3.068 4.287-1.678l.13 2.12c.36.647 1.88.637 2.286 1.266.206.34.162.78.25 1.167.167.775.644 1.547.515 2.328-.28 1.62-2.775-.1-3.285.204-.63.38-.01 1.55-.413 2.15-.29.415-1.327.398-1.61.813-.64.936-.195 2.595-.873 3.597-.253.356-.888.37-1.06.766-1.076 2.44 6.463 6.31 7.09 7.338l-.46 1.452c.157 2.504 1.877 1.864 2.98 3.347.492.65.156 2.22.736 2.78 1.883 1.807 5.37.57 7.328 1.636.2.106-.34.264-.52.393-1.11.81-.266 4.05-.163 5.395.4 5.418.79 10.84 1.193 16.26 1.673 22.885 3.363 45.78 5.045 68.658.46 7.015.94 14.022 1.413 21.03 37.087-2.49 74.12-5.71 111.077-9.674 10.42-1.115 20.84-2.285 31.26-3.524 1.837-.224 10.01-1.885 11.232-1.36.965.407 1.514 2.47 2.157 3.274 2.333 2.905 3.54 5.256.46 8.427-.793.815-2.617.92-3.287 1.82-.43.584.074 1.547-.314 2.15l-1.652.907c-.336.45-2.438 5.634-2.217 5.93.268.33 4.458-.533 5.018-.607 5.846-.715 11.684-1.45 17.52-2.194 0 0 .232-.684.344-1.03.39-1.22.642-3.073 1.34-4.14.255-.39 2.114-1.26 2.13-1.688.01-1.015-2.608-2.018-2.74-3.04-.175-1.388 4.005-2.23 3.736-2.747-.467-.883-2.6-.87-3.146-1.72-1.17-1.78 3.085-1.332 3.17-2.533.15-2.005-2.864-5.693-2.15-7.517.085-.208.35-.28.52-.42 3.77-3.018-.67 7.097 5.003 2.536 0 0 .54-2.88.59-4.325.016-.42-.598-2.05.29-2.165 1.233-.166 2.684 2.476 4.37 2.244 1.147-.15 2.402-3.643 2.307-4.56-.11-.916-1.35-1.72-1.53-2.63-.39-1.99 1.433-1 2.09-1.71"/><path fill="#FFF" d="M270.914 246.445l8.01-20.483.073-.005-2.057 14.047c-.097.676-.22 1.164-.367 1.465-.148.3-.385.52-.712.673-.32.153-.84.297-1.552.434l-.508 3.704 12.58-.697.36-3.695c-.674-.07-1.165-.188-1.472-.348-.308-.16-.472-.416-.49-.77-.017-.29.025-.853.125-1.688l1.733-13.315c.073-.65.287-1.16.637-1.534.35-.374 1.012-.587 1.985-.64l.417-3.7-12.51.694-4.308 10.7-.073.004-.96-10.404-12.8.71-.507 3.7c.788.125 1.336.284 1.645.474.31.19.477.492.5.905.02.35-.03.852-.153 1.505l-1.778 12.532c-.145 1.092-.404 1.81-.776 2.144-.373.34-1.047.584-2.027.735l-.49 3.7 8.953-.494.51-3.7c-.76-.08-1.31-.21-1.64-.385-.335-.176-.514-.496-.54-.957-.02-.388.034-1.026.17-1.91l1.73-13.316h.072l2.47 20.12 3.757-.207zm29.756-6.667c-.674-.87-1.054-2.087-1.14-3.654-.118-2.124.058-4.208.53-6.25.47-2.04 1.245-3.74 2.326-5.097 1.08-1.356 2.422-2.08 4.023-2.168 1.14-.068 2.02.272 2.642 1.02.625.74.99 2.03 1.09 3.85.073 1.33.01 2.77-.19 4.3s-.565 2.99-1.09 4.36c-.527 1.375-1.234 2.507-2.12 3.396-.89.89-1.97 1.37-3.243 1.44-1.213.07-2.157-.333-2.833-1.203zm9.186 3.723c2.11-.97 3.88-2.22 5.312-3.76 1.433-1.53 2.492-3.25 3.18-5.15.687-1.89.977-3.812.87-5.76-.077-1.36-.394-2.68-.952-3.95-.558-1.27-1.36-2.402-2.41-3.393-1.048-.99-2.38-1.763-3.995-2.32s-3.48-.776-5.61-.658c-2.1.116-4.13.596-6.08 1.442-1.95.847-3.68 2.006-5.19 3.48-1.51 1.47-2.67 3.203-3.48 5.19-.81 1.99-1.15 4.115-1.023 6.375.086 1.556.46 2.992 1.125 4.308.664 1.32 1.557 2.43 2.68 3.337 1.123.904 2.404 1.58 3.84 2.015 1.44.438 2.97.613 4.6.523 2.65-.148 5.028-.707 7.138-1.676z"/><path fill="#AE8F5B" d="M439.393 238.447c-.066.44-.623.676-1.023.863-2.173 1.047-5.203.854-7.13 2.47 0 0-.917 1.546-.923 1.546-1.32.788-3.083-.406-3.856 1.274-3.27 7.082 5.497 5.504 2.36 12.26-.14.306-.09.895-.43.946-5.476.783-14.105-6.58-19.064-3.715-.508.31-4.296 6.58-4.248 6.968.23 1.693.352 2.158 1.612 3.324.22.21.67.62.67.62.65 4.813-.968 2.986-1.52 5.868-.286 1.44 3.348 1.2 2.08 2.54-.657.71-2.485-.276-2.09 1.71.177.904 1.42 1.708 1.527 2.62.096.92-1.16 4.408-2.313 4.557-1.688.233-3.142-2.41-4.38-2.242-.887.114-.274 1.745-.287 2.16-.05 1.447-.592 4.323-.592 4.323 11.537-1.702 23.063-3.458 34.587-5.3 1.806-.285 11.447-1.208 12.33-1.998 1.98-1.78-2.512-6.277-1.716-7.546.265-.41 4.403-.24 5.02-.273 3.055-.174 1.978.797 3.297 1.155 2.276.615 7.224-1.35 9.585-1.79 4.865-.916 30.19-6.33 33.073-5.742.31.068.398.653.69.604 0 0 1.48-1.67 1.484-1.67 2.495-1.23 19.37-2.133 23.412-2.61 8.045-.914 15.56-2.774 23.474-4.272 8.712-1.65 17.645-2.475 26.402-3.916 5.59-.925 11.18-1.826 16.79-2.65 1.954-.29 4.934-.19 6.567-1.275.33-.224.974-.65.974-.65s.476-.574.706-.855c.988-1.206 2.44-2.195 3.82-2.94 2.668-1.44 10.43-4.32 12.253-6.154.895-.884.39-3.567 1.378-4.594 1.43-1.49 5.25-1.433 6.31-3.506.18-.35-.04-.78-.06-1.18-.016-.396-.042-.794-.07-1.19-.012-.39-.19-.81-.05-1.18.56-1.5 3.36-2.206 3.88-3.72.436-1.216-1.265-2.29-.185-3.55 2.718-3.147 7.05-4.965 9.963-7.943 4.05-4.124 7.36-9.396 10.888-13.966-1.182-.93-3.84 1.21-5.867-.116-.394-.25.016-1.022-.318-1.363-1.426-1.486-4.32-1.03-5.76-2.313-.883-.777-1.013-2.394-1.888-3.183-.8-.732-2.48-.652-3.23-1.44-.762-.804-.57-2.5-1.32-3.313-.45-.49-2.192-.31-2.52-.88-1.702-2.987 1.39-.575-2.57-3.75-2.674-2.154-4.924-4.59-4.04-7.766 0-.003.955-.926.955-.926.307-2.232-1.447-3.08-2.167-4.57-.12-.248.024-.55.03-.817.01-.274.027-.55.035-.823.02-.18.024-.538.024-.538-3.82-4.477-7.164-3.067-9.735-5.093-1.422-1.126-1.522-5.85-3.145-6.53-.825-.344-6.45 4.49-6.917 5.076 0 .005-.653 2.297-.653 2.3-.356.37-2.35.496-2.878.607-.262.052-1.85 1.123-1.912 1.123-.87-.05-1.78-1.386-2.626-1.613-.373-.1-.763 0-1.152 0-.38 0-.762 0-1.144-.004-.38 0-.783.12-1.14 0-.567-.175-.784-1.106-1.392-1.143-3.815-.267-3.868 5.797-8.34 3.868-1.48-.64-2.824-3.342-4.283-4.166-3.13-1.753-8.196 2.543-11.372.125-1.94-1.472-3.014-5.24-4.8-6.95-.868-.83-2.7-.733-3.69-1.435-.53-.38-1.563-2.36-2.18-2.446-1.25-.15-3.25 2.742-4.514 3.034-1.715.395-3.49-2.202-4.91-1.93-1.145.222-2.32 2.6-2.32 2.6-4.2 3.93 2.23 2.342.094 6.437-.017.037-.854 1.25-.28 1.488.65.248 2.6-1.26 2.877.166 0 .01-.697 2.28-.697 2.29.043.727 1.29 1.317.95 1.967l-1.786-.37c-1.1.1-3.313.945-4.256 1.515-1.62.994-3.986 5.16-5.815 5.39-.73.087-4.56-4.17-8.64-.56-1.68 1.484 2.52 6.37 2.09 8.21-.34 1.39-4.87 3.77-5.448 4.564-1.267 1.75-.115 4.796-1.636 6.73-2.05 2.612-3.697.536-4.86 1.585-2.852 2.573.34 11.098-1.795 12.46 0 0-2.217.386-2.23.39 0 0-.644 1.18-.644 1.185-.51.153-8.39-2.195-8.874-3.108-.513-.97-1.536-4.73-3.62-4.38-1.625.28 1.898 1.863 1.596 2.583-.586 1.37-3.805 1.417-3.927 1.622l1.06 1.726c-.17.768-2.246 1.118-2.55 1.86-.426 1.04 1.256 3.188.715 4.16-.004 0-2.116 1.06-2.124 1.064-.7.98.39 2.442-1.21 3.054-.35.137-.83.44-1.11.19-.275-.244.072-.727.112-1.09.02-.362.366-.842.093-1.084-.464-.42-2.714.78-3.346.557-.868-.306-2.054-3.56-3.38-3.01-.95.395-1.58 1.966-2.447 2.536-.79.533-2.63.54-3.24 1.246-1.434 1.645.015 4.78-2.45 6.095-.396.21-.907-.214-1.23-.512-2.21-1.976-6.01-3.96-9.29-4.22-1.51-.12-4.238 2.23-5.485 1.566-2.206-1.163.653-.817-1.585-1.36-.31-.07-.27.618-.208.928.397 1.86 2.706 2.67.095 4.254-3.003 1.814-.435-2.543-2.122-2.52-1.02.016-2.126 1.688-3.143 1.907-1.82.387-2.874-2.024-4.35-2.19-2.938-.327 2.834 5.484-.73 6.517-.733.206-2.25-1.153-2.76-.902l-.15.627c-.814 2.263-3.43 5.216-3.456 7.61-.022 2.44 4.26 2.824 3.754 5.836"/><path fill="#FFF" d="M549.68 207.613c.007.122-.04.237-.136.347-.1.11-.31.312-.635.61l-6.62 5.712.51-4.366c.12-.8.37-1.393.73-1.78.36-.385 1.045-.643 2.05-.772l.447-3.483-13.26.74-.438 3.704c1.452.03 2.2.45 2.247 1.266.03.534-.03 1.276-.186 2.224l-1.466 12.49c-.072.688-.33 1.22-.77 1.6-.444.377-1.192.62-2.248.73l-.438 3.7 13.59-.75.447-3.468c-1.526-.06-2.316-.553-2.367-1.477-.03-.538.032-1.28.188-2.228l.398-3.41 1.846-1.365 2.748 5.01c.448.803.686 1.455.713 1.954.043.756-.632 1.23-2.024 1.43l-.413 3.465 14.504-.803.435-3.703c-.622 0-1.115-.05-1.48-.147-.365-.095-.704-.27-1.017-.52-.315-.25-.598-.56-.85-.922-.25-.363-.574-.89-.965-1.574l-5.02-8.983c2.107-1.84 3.682-3.15 4.724-3.94 1.04-.79 1.872-1.31 2.493-1.56.62-.25 1.435-.43 2.44-.547l.326-3.697-11.988.663-.41 3.483c1.244.005 1.874.13 1.887.37zm30.742-1.32c.01.183-.357.813-1.103 1.892l-3.197 4.495-1.707-3.73c-.486-1.07-.736-1.734-.75-1.99-.043-.766.744-1.194 2.362-1.284l.373-3.48-13.754.762-.4 3.7c.756.19 1.312.414 1.667.668.353.255.715.72 1.08 1.395l4.185 7.79c.272.52.413.85.42.984.01.17-.034.697-.13 1.58l-.355 3.224c-.07.7-.326 1.236-.77 1.608-.443.374-1.19.614-2.247.72l-.435 3.703 14.01-.777.438-3.703c-.92-.06-1.586-.22-2.003-.484-.418-.263-.64-.7-.677-1.307-.013-.23.047-.9.18-2.007l.312-2.67c.05-.417.198-.816.446-1.196l6.144-8.356c.67-.902 1.354-1.556 2.05-1.96.697-.405 1.515-.633 2.45-.685l.272-3.693-10.453.58-.41 3.48c1.303-.036 1.97.214 2 .75z"/><path fill="#DFB875" d="M662.58 233.534s-5.31.807-7.97 1.216c-1.504.22-1.01.485-2.1 1.102-3.184 1.83-8.86 2.015-12.468 2.826-15.073 3.37-30.19 6.61-45.33 9.743l-.973.65c-1.62 1.09-4.59.99-6.527 1.28-5.574.824-11.126 1.722-16.68 2.65-8.7 1.437-17.573 2.26-26.227 3.91-7.86 1.497-15.324 3.354-23.314 4.27-4.017.475-20.776 1.376-23.256 2.607-.004 0-1.47 1.668-1.47 1.668-.29.05-.38-.534-.684-.603-2.864-.585-28.02 4.823-32.85 5.74-2.35.44-7.263 2.4-9.523 1.788-1.31-.36-.238-1.333-3.273-1.157-.615.035-4.723-.137-4.99.278-.79 1.263 3.675 5.75 1.71 7.534-.882.79-10.457 1.71-12.252 2-11.442 1.84-22.892 3.594-34.35 5.3-5.647 4.545-1.23-5.548-4.98-2.536-.17.14-.433.214-.518.42-.712 1.818 2.287 5.5 2.14 7.5-.082 1.195-4.32.748-3.156 2.526.544.842 2.667.83 3.13 1.712.275.516-3.89 1.353-3.72 2.74.138 1.02 2.74 2.022 2.73 3.034-.016.424-1.865 1.295-2.117 1.683-.696 1.063-.946 2.91-1.33 4.125-.11.346-.346 1.028-.346 1.028.792.728.99.92 1.78 1.652 2.742 2.56-1.416.287-2.477 1.964-1.503 2.37 2.82 1.395 1.6 3.32-.27.424-1.978-.09-2.307.295-.48.547.074 1.55-.314 2.16-.655 1.017-4.106.972-5.02 2.036-1.732 2.014 3.48 1.595 4.477 2.96.45.61-2.985 2.177-3.202 2.516-.553.87 1.483 1.212.846 2.012-1.08 1.314-3.232-1.52-4.057.51-1.127 2.793 3.85 3.8 2.34 4.633-3.862 2.13-1.997-1.86-3.728-1.65-2.1.26-2.403 4.522-2.393 4.522 1.42-.18.156-1.43 1.574-1.608.484-.064 1.908 3.483 1.676 4.023-.306.703-2.585 1.01-2.74 1.74-.167.84 3.296.85 3.75 1.647.302.526.462 4.73.018 4.926-.737.327-1.68-.75-2.42-.406-.82.388-.573 3.095-1.32 3.683-.525.417-2.53-.175-2.914.355-.214.28.087.688.13 1.04.034.342.12 1.043.12 1.043 24.72-3.007 49.39-6.335 74.022-9.983-.19-1.283 3.66-1.188 4.87-1.356 5.386-.727 10.773-1.465 16.15-2.227 22.875-3.22 45.625-7.017 68.353-11.125 15.1-2.496 30.167-5.11 45.217-7.85 0 0-1.48-7.04-.88-10.498.582-3.374 6.512-.195 7.63-3.667.112-.36.006-.756.006-1.136.023-1.144.03-2.284.037-3.435 0-.376-.12-.78.004-1.13.558-1.54 6.716-7.37 8.48-8.148 1.04-.463 2.368-.26 3.43-.707.412-.18.55-.966.994-.926.008 0 1.42 1.137 1.42 1.137 2.224-.018 2.267-2.496 3.43-3.563.682-.633 2.102-.606 2.705-1.296.35-.37-.08-1.145.29-1.487.427-.384 1.245 0 1.71-.35 1.44-1.112 2.31-3.79 3.677-5.07 1.942-1.793 5.655-1.717 6.12-2.014 1.89-1.26 1.346-7.45 1.353-7.457 1.033-.805 2.683.512 3.558-.058.45-.29.257-2.47.53-2.97.36-.644 3.25-3.633 3.93-3.733 2.967-.408.98 4.26 3.17 3.6 3.26-.983 3.44-5.762 5.98-7.78.83-.647 3.73-2.912 4.625-3.19 1.897-.57 3.59 2.94 5.13 1.71 1.016-.808 2.882-7.748 3.762-9.474.315-.602 1.653-3.1 2.19-3.376.623-.338 3.124.725 2.724-.99-.706-3.083-.87-6.753.668-9.86"/><path fill="#FFF" d="M484.73 294.4c1.1-.98 2.362-1.584 3.79-1.812l-2.017 16.302c-.07.708-.33 1.25-.78 1.626-.446.377-1.203.62-2.27.728l-.44 3.744 14.157-.785.44-3.743c-.94-.06-1.622-.222-2.043-.488-.422-.267-.65-.707-.684-1.322-.017-.308.038-.983.165-2.026l1.767-14.494c2.532.094 4.367 1.966 5.507 5.616l3.113-1.21-2.023-8.49-21.64 1.198-3.242 8.562 2.908 1.097c1.097-2.023 2.194-3.524 3.292-4.504zm44.436 18.03l2.37-20.023c.104-.77.326-1.33.665-1.674.34-.346 1.028-.572 2.06-.678l.44-3.744-9.48.53-.417 3.52c1.52.04 2.31.664 2.38 1.87.036.663.02 1.244-.052 1.74l-.91 7.637-.07.005-5.54-14.515-12.655.7-.44 3.745c1.47.03 2.23.455 2.274 1.28.03.54-.034 1.29-.19 2.25l-1.483 12.626c-.072.694-.332 1.233-.78 1.616-.447.385-1.204.63-2.27.737l-.44 3.744 9.592-.53.44-3.744c-.796-.093-1.38-.273-1.76-.54s-.58-.64-.607-1.106c-.015-.257.018-.777.098-1.56l1.6-13.54.075-.004 7.754 20.073 7.355-.41z"/><path fill="#C39547" d="M468.162 533.582c-.09-.24-.17-.483-.09-.592-2.732-13.93-5.455-27.87-8.167-41.816-1.276-6.504-3.126-13.154-3.84-19.738-.85-7.788-.41-15.95-.623-23.786-.45-16.302-.922-32.616-1.44-48.922-.402-12.58-.81-25.156-1.26-37.735-.09-2.743.516-13.242-.533-15.117-.57-1-3.158-2.526-4.09-3.616-24.5 3.64-49.03 6.96-73.61 9.962.74 1.286 2.59 5.238.166 6.29-.973.416-.695-.904-2.157.026l-1.834 1.15c-.596-.265.665-3.525-1.41-1.932-.877.662 1.21 4.184 1.16 4.763-.06.662-2.243 2.64-2.754 1.74-.2-.36 2.04-2.24.25-2.85-1.802-.6-1.317 3.042-.756 3.602.565.56 2.934-.252 3.09 1.028.056.47-2.35 2.886-2.682 2.423-.29-.402.236-2.824-.896-2.688-.26.02-.148.478-.22.717-1.018 3.487.256 2.022 1.954 3.98.152.173.052.457.074.688.172 1.4-1.06 1.145-1.52 2.278-.426 1.082 1.037 3.117.502 4.142-.39.733-1.73.97-2.188 1.66-.257.378-.46 2.757-.85 2.896-.067.026-1.65-3.68-3.17-1.728l.745 1.313c.24 2.065-1.963 2.027-2.598 3.337l-.965 1.975c-.23.105-4.88-.65-2.274.955.755.457 4.116-.48 4.275.904.18 1.498-4.516-.337-5.22 1.304-.757 1.77 3.703 1.492 3.774 1.658.91 2.224-4.8 5.427-5.39 5.163-.314-.14-.66-.625-.953-.416-1.316.99 1.08 2.177 1.223 2.83.215 1.03-1.13 2.592-.794 3.586.257.79 2.343 1 2.59 1.8.416 1.33-5.03.4-5.326.596-.188.132.055.45.083.686.498 4.55 2.55 1.173 3.637 3.088.123.217.472.427.377.657-1.27 2.917-4.903-1.564-5.823-1.102-.285.155-.82.126-.84.448-.116 1.062 2.513 2.814 2.822 3.882.064.242-.15.488-.23.716-.38 1.24-2.076.284-1.902 1.84.705 6.45.686-4.738 1.39 1.71.05.44-1.72 2.65-1.47 2.95 1.977 2.443 1.768-5.77 4.008-1.838.518.916-3.47 3.39-2.602 3.77 3.47 1.54 3.534-4.828 5.133-2.654.867 1.204-2.453 3.33-2.524 4.465-.327 5.312 3.72.9 3.88 2.353.08.635-1.43 1.635-1.555 2.27-.136.644.78 2.963.375 3.44-.544.648-2.88-.11-3.584.4-1.332.977 2.69 2.836 2.768 3.178.26 1.074-1.49 2.95-1.49 2.95-.45.658-2.594 2.988-.822 3.577 3.79 1.25 1.175-4.403 3.903-3.218 2.46 1.064-2.54 7.755-2.088 8.583.493.94 4.25.08 4.425 1.592.275 2.513-4.78 2.25-3.074 5.218 1.35 2.345 4.312-3.757 5.336-1.29.552 1.33-2.134 2.22-2.105 3.02.01.324 3.58 1.845 2.72 2.48-.11.067-6.395-.89-3.47 1.777 1.394 1.265 3.647-.517 4.905.14.337.182-.84 2.787-.22 3.514.547.648 2.753.31 3.175 1.03.77 1.31-1.998 1.216-2.26 1.65l.23 2.056c-.35.85-7.35.504-6.276 4.184.77 2.652 4.59-1.763 5.45-.61.564.753-1.43 4.14-1.96 4.386-.446.214-2.857-.702-3.114-.344-.41.59 4.013 1.276 3.34 2.41-.656 1.094-2.617 1.467-3.414 2.467-1.15 1.395-1.99 3.943-2.48 5.474-.32.99-1.985-1.872-3.01.684-.13.326-.127.705-.19 1.06-.518 2.82 1.46-.16 1.88 1.29.322 1.11-2.097 1.38-2.463 1.89-.61.85.03 3.63-.777 4.244-.796.615-3.454-1.5-3.668.39-.25 2.227 2.713.53 3.205 1.05 1.15 1.21-2.49 2.48-2.76 3.075-.84 1.802 1.75 3.212 1.725 4.66-.057 2.74-2.662-1.32-3.06.33-.54 2.203 2.8 3.182 2.343 4.596-.44 1.35-4.8 1.82-4.77 1.89.36.844 1.977 1.874 2.136 2.55.18.79-1.204 2.094-.947 2.867.34.977 2.518 1.477 2.74 2.48.203.845-2.156 1.63-2.242 2.31-.03.312.384.55.683.62 2.924.764 11.282-1.206 14.646-1.57.406-.047.815-.086 1.22-.144 12.613-1.386 25.212-2.866 37.806-4.42 3.683-.45 12.61-2.746 15.837-2.004 2.267.533-3.296 11.773-2.576 14.21.01 0 1.406 1.2 1.41 1.2.426.692.33 1.968.96 2.65 1.318 1.38 3.596 1.905 4.86 3.527 2.692 3.47 2.473 7.25 5.122 10.413 1.17 1.39 1.173-.694 2.47.29.614-.56 1.23-.98 1.87-.864.31.05.427.705.72.595.403-.148.592-2.49.88-2.888.714-.988 2.96-1.438 3.444-2.537.95-2.146-2.457-1.86-.982-2.644.456-.24 2.804-.217 3.188.26l-.44 1.45c.185.275 2.406-.73 2.626-.818 1.488-.546 8.82-3.05 9.564-3.856.957-1.036-.238-2.732 2.637-2.214 1.684.3 3.06 2.418 4.8 2.783.92.203 3.574-.584 4.232-1.29.35-.366-.062-1.55.424-1.455.78.173.776 1.585 1.524 1.86.003.012 2.484-.35 2.484-.35l1.426 1.177c.005 0 1.042-1.532 1.042-1.532.36-.2.894.062 1.234-.182l-.11-.772"/><path fill="#FFF" d="M393.374 452.028l7.965-20.366.07-.004-2.048 13.966c-.097.673-.218 1.158-.365 1.457s-.383.53-.708.68c-.325.15-.84.297-1.55.43l-.505 3.686 12.51-.692.36-3.673c-.67-.072-1.16-.19-1.467-.347-.307-.16-.47-.413-.488-.765-.016-.29.025-.85.125-1.68l1.723-13.24c.074-.645.285-1.154.635-1.525.35-.37 1.008-.583 1.975-.637l.415-3.676-12.438.69-4.287 10.634-.072.004-.955-10.347-12.726.71-.506 3.682c.783.126 1.328.284 1.635.47.31.19.473.49.495.9.02.35-.032.85-.153 1.5l-1.766 12.46c-.145 1.09-.4 1.8-.77 2.135-.37.337-1.04.58-2.016.73l-.487 3.682 8.9-.495.506-3.684c-.755-.08-1.3-.21-1.63-.384-.33-.176-.51-.493-.534-.952-.024-.387.032-1.02.165-1.9l1.72-13.24.073-.003 2.453 20.008 3.733-.208zm36.678-26.994c-.93-.25-1.82-.423-2.674-.515-.853-.098-1.66-.12-2.422-.08-1.812.1-3.413.445-4.805 1.04-1.39.59-2.56 1.363-3.52 2.32s-1.654 1.994-2.09 3.12c-.433 1.13-.62 2.244-.56 3.355.06 1.037.257 1.92.59 2.645.34.728.8 1.328 1.39 1.804.59.476 1.318.878 2.18 1.205.86.33 1.873.616 3.038.866l3.66.797c1.265.28 2.178.577 2.74.89.562.315.86.756.892 1.323.05.88-.336 1.562-1.15 2.043-.816.48-1.92.76-3.31.84-1.04.056-2.122-.087-3.25-.43-1.13-.344-2.146-.953-3.056-1.83-.908-.874-1.53-2.018-1.86-3.428l-3.426.19.395 9.752 2.666-.148.706-1.977c2.724 1.47 5.8 2.106 9.23 1.916 2.067-.115 3.865-.518 5.397-1.21 1.53-.69 2.754-1.55 3.666-2.584.91-1.032 1.57-2.15 1.974-3.356.406-1.204.577-2.374.515-3.51-.055-.992-.275-1.9-.66-2.728-.386-.83-1.15-1.607-2.3-2.33-1.15-.726-2.82-1.294-5.01-1.706l-3.308-.597c-1.14-.204-1.987-.47-2.545-.795-.557-.327-.852-.77-.882-1.323-.028-.508.206-.97.705-1.384.5-.417 1.33-.655 2.49-.72 1.715-.096 3.21.19 4.48.86 1.448.754 2.378 1.895 2.79 3.422l3.334-.186-.328-8.54-2.482.137-.685 1.747c-.75-.357-1.587-.66-2.515-.914z"/><path fill="#BC9C64" d="M368.552 312.627c-.22-.287 1.876-5.397 2.212-5.84 0 0 1.635-.89 1.65-.897.384-.6-.12-1.546.31-2.125.67-.884 2.49-.99 3.28-1.795 3.074-3.126 1.87-5.446-.457-8.307-.642-.792-1.186-2.83-2.153-3.228-1.22-.52-9.375 1.12-11.203 1.34-10.4 1.22-20.8 2.374-31.193 3.473-36.877 3.91-73.832 7.088-110.842 9.54 0 0 .7 3.252 1.057 4.882.614 2.84 1.23 5.683 1.846 8.524 1.85 8.496 3.986 16.985 5.61 25.542 1.803 9.548 1.643 19.438 2.08 29.108.756 16.45 1.49 32.904 2.23 49.356.584.6.79 1.423 1.334 1.97.54.543 2.25.33 2.45.538.213.203-.566.412-.553.714.064 1.014 2.593.732 3.053.48 2.28-1.244-1.472-1.58 2.95-.9.76.118 5.94-1.317 6.66.215 1.42 3.002 1.328 17.673 1.65 21.917 34.694-2.55 69.39-5.487 104.02-8.77 0 0 1.77-1.862 1.506-2.923-.08-.34-4.136-2.18-2.79-3.15.705-.5 3.063.25 3.612-.39.41-.475-.52-2.773-.38-3.41.125-.63 1.645-1.622 1.565-2.25-.16-1.44-4.24 2.93-3.91-2.336.07-1.123 3.42-3.23 2.54-4.422-1.608-2.153-1.672 4.157-5.172 2.633-.872-.38 3.147-2.83 2.625-3.738-2.26-3.896-2.046 4.242-4.043 1.818-.25-.294 1.532-2.485 1.482-2.92-.71-6.39-.69 4.692-1.4-1.693-.176-1.544 1.533-.593 1.915-1.825.077-.227.293-.47.23-.71-.313-1.057-2.962-2.793-2.85-3.85.027-.312.563-.284.852-.436.924-.465 4.59 3.976 5.874 1.09.096-.23-.255-.44-.38-.656-1.097-1.89-3.163 1.457-3.665-3.054-.032-.23-.278-.55-.087-.68.298-.193 5.79.723 5.372-.593-.253-.795-2.353-.998-2.616-1.78-.338-.987 1.017-2.535.8-3.557-.145-.65-2.56-1.823-1.23-2.806.293-.214.645.273.958.412.595.258 6.355-2.914 5.436-5.115-.07-.16-4.568.11-3.805-1.642.71-1.625 5.447.193 5.264-1.29-.164-1.373-3.55-.442-4.31-.895-2.623-1.593 2.063-.843 2.293-.947l.97-1.96c.638-1.295 2.86-1.258 2.62-3.3l-.75-1.3c1.53-1.935 3.127 1.737 3.193 1.708.394-.135.6-2.492.858-2.87.466-.68 1.816-.92 2.208-1.643.538-1.01-.933-3.03-.505-4.103.467-1.122 1.704-.867 1.535-2.256-.026-.233.073-.51-.078-.687-1.713-1.934-2.997-.483-1.97-3.94.072-.235-.04-.69.217-.712 1.145-.132.613 2.267.906 2.667.34.456 2.764-1.935 2.706-2.4-.158-1.27-2.547-.465-3.115-1.02-.564-.555-1.056-4.165.764-3.57 1.8.605-.45 2.465-.257 2.822.52.887 2.718-1.07 2.78-1.73.05-.574-2.052-4.06-1.167-4.717 2.087-1.58.82 1.65 1.417 1.913l1.85-1.143c1.475-.923 1.19.387 2.175-.025 2.443-1.04.58-4.96-.17-6.234 0 0-.087-.69-.12-1.03-.044-.343-.345-.75-.134-1.024.387-.525 2.398.06 2.92-.35.75-.58.505-3.258 1.33-3.64.74-.34 1.682.723 2.424.4.447-.19.285-4.35-.016-4.87-.46-.785-3.93-.798-3.766-1.628.16-.72 2.446-1.025 2.75-1.72.234-.533-1.193-4.044-1.68-3.98-1.42.175-.156 1.41-1.578 1.588-.01 0 .293-4.214 2.4-4.467 1.732-.207-.136 3.738 3.737 1.63 1.515-.823-3.477-1.82-2.346-4.58.827-2.006 2.985.8 4.066-.504.64-.79-1.402-1.13-.847-1.99.216-.336 3.655-1.89 3.21-2.49-1-1.35-6.23-.936-4.487-2.926.917-1.05 4.376-1.006 5.028-2.012.39-.604-.163-1.592.318-2.132.33-.382 2.04.126 2.305-.292 1.23-1.905-3.102-.938-1.596-3.282 1.064-1.654 5.233.588 2.482-1.94-.793-.724-.99-.916-1.78-1.634-5.83.735-11.656 1.457-17.49 2.163-.545.072-4.728.927-4.99.6"/><path fill="#FFF" d="M297.54 377.88l.358-3.67c-.962-.102-1.65-.294-2.065-.574-.415-.28-.705-.71-.87-1.295l-5.267-19.35-7.565.42-8.86 17.94c-.683 1.395-1.2 2.356-1.554 2.88-.352.53-.718.89-1.1 1.09-.383.196-1 .368-1.85.51l-.47 3.677 10.28-.57.414-3.672c-1.027.06-1.694.023-2.004-.104s-.475-.403-.498-.826c-.024-.424.493-1.692 1.55-3.81l7.854-.436c.51 1.595.788 2.747.827 3.46.023.457-.197.8-.66 1.025-.47.225-1.29.37-2.475.436l-.414 3.672 14.37-.8zm-17.826-11.104l3.344-7.466.072-.005 1.813 7.18-5.23.29zm46.764 9.5l.373-3.434c-.613-.026-1.12-.095-1.51-.207-.38-.11-.67-.26-.85-.442s-.39-.487-.63-.91l-3.74-6.582c1.99-.783 3.45-1.78 4.376-2.98.926-1.2 1.336-2.77 1.23-4.7-.085-1.505-.52-2.68-1.304-3.52-.784-.84-1.814-1.41-3.09-1.71-1.275-.295-2.726-.4-4.355-.31l-15.49.86-.433 3.672c1.44.03 2.188.448 2.23 1.256.03.532-.03 1.268-.185 2.21l-1.458 12.39c-.07.68-.325 1.21-.765 1.584-.44.375-1.18.616-2.23.722l-.43 3.675 13.556-.753.43-3.672c-.78-.09-1.354-.267-1.726-.53-.372-.265-.57-.625-.595-1.083-.02-.35.017-.86.114-1.532l.464-4.075 1.34-.074 5.022 10.686 9.665-.538zM311.34 357.96c.093-.706.226-1.222.395-1.547.17-.324.4-.545.69-.664.29-.12.712-.2 1.267-.23 1.026-.058 1.87.092 2.53.45.662.355 1.022 1.07 1.082 2.144.045.81-.122 1.514-.5 2.115-.378.604-.903 1.067-1.575 1.395-.678.328-1.42.515-2.24.56l-2.158.12.503-4.35z"/><path fill="#D9B67B" d="M451.12 584.187c-.214.04-.504-.09-.633.09-.134.187.315.61.104.683-2.243.83-4.5-5.634-5.862-5.45-1.483.208-.216 1.42-1.7 1.617l-.81-1.277c-.513-.167-4.345 1.088-4.494-.09-.097-.67 2.463-1.026 1.793-.932-1.616.215-2.743-.328-4.24-.124-.57.065-3.142.808-3.435.1-.193-.457.43-2.323.318-2.467-1.26-1.655-5.11-.024-6.542-1.223-1.4-1.184-1.46-3.823-2.453-4.208-.22-.085-.863-.116-.666-.257.27-.207.674 0 1.015 0 .68.01 1.36.01 2.044.01.343.003.86.31 1.013.003.86-1.668-2.08-2.604-2.55-3-.22-.195.58.08.873.112.29.047.577.092.858.12.29.045.604 0 .864.12 1.36.62 3.38.682 5.017.97.08.01-.065-.177-.136-.22-.42-.282-.685-.44-.87-.534-.3-.02-.544-.284 0 0 .23.015.466-.117.382-.79-.18-1.35-2.846 2.608-3.396-1.636-.12-.946 2.75-.89 3.04-1.1.437-.326.98-3.617 1.423-3.68 1.63-.21.67 3.07 3.4 1.646.37-.2 1.075.218 1.24-.163.33-.748-1.406-1.087-1.516-1.89-.08-.626 1.546-1.135 1.068-1.534-.315-.27-.924.43-1.242.157-.553-.45.897-1.67.35-2.13-.51-.43-1.116 1.026-1.783.934l-.794-1.282c.145-1.65 1.44.442 2.48-.336.198-.136-.047-.452-.08-.676-.272-2.015-2.623.665-3.208-.27-.672-1.064 1.96-2.74 1.955-2.817-.085-.643-1.203-.418-1.783-.695-.7-.33-1.33-1.417-2.05-1.13-.662.29.008 1.523-.36 2.144-.437.76-1.892.935-2.31 1.702-1.38 2.526 1.116 8.044-4.776 4.803-1.444-.795-.28-1.86-.57-2.01-1.444-.798-5.35 1.747-5.34-2.104.004-1.987 7.508-.74 6.867-5.77-.245-1.872-2.584 1.737-2.94 1.783-1.48.19-.168-2.348-.35-2.745-1.023-2.28-.895 3.41-1.435 3.67-1.654.81-2.217-3.38-4.08-2.26-.866.517-2.638 4.42-4.39 5.43-3.015 1.748-19.002 1.35-15.784-5.012.368-.71 6.85-8.48 7.18-8.533 1.87-.303 6.435.364 7.79 1.813l.873 1.98c.31.213.74.014 1.11.026.74.03 1.48.05 2.22.076.37.013.75-.097 1.11.022.853.304 1.562 1.2 2.66 1.06.66-.085 1.192-1.256 1.775-.93.383.215-.498 3.396 4.706 2.18.284-.08 3.16-1.2 1.29.17-.19.145-.8.34-.582.43 1.264.49 2.355-.926 3.46-1.924-1.3-.992-1.307 1.106-2.48-.294-2.653-3.184-2.43-6.99-5.13-10.48-1.267-1.635-3.547-2.164-4.867-3.555-.63-.687-.534-1.968-.96-2.666-.005 0-1.4-1.205-1.412-1.205-.724-2.457 4.85-13.77 2.58-14.31-3.23-.75-12.175 1.563-15.865 2.016-12.615 1.57-25.235 3.058-37.868 4.45-.407.06-.814.1-1.223.148-3.37.366-11.743 2.347-14.667 1.58-.305-.075-.714-.31-.685-.626.086-.69 2.45-1.476 2.25-2.32-.226-1.017-2.41-1.52-2.75-2.5-.26-.78 1.13-2.09.95-2.89-.163-.68-1.78-1.72-2.14-2.57-.034-.063 4.338-.534 4.774-1.895.462-1.424-2.884-2.41-2.347-4.628.403-1.664 3.01 2.424 3.07-.334.02-1.456-2.57-2.876-1.73-4.692.27-.605 3.915-1.875 2.762-3.093-.49-.526-3.46 1.18-3.207-1.06.212-1.904 2.874.225 3.672-.39.81-.62.166-3.42.78-4.273.37-.513 2.786-.782 2.465-1.9-.42-1.464-2.4 1.54-1.884-1.303.065-.353.063-.735.19-1.07 1.024-2.57 2.69.316 3.014-.68.488-1.54 1.336-4.11 2.483-5.516.8-1.008 2.762-1.38 3.42-2.484.673-1.14-3.757-1.83-3.346-2.422.257-.36 2.67.56 3.118.346.53-.252 2.53-3.656 1.963-4.42-.856-1.16-4.686 3.29-5.46.613-1.077-3.7 5.94-3.35 6.286-4.206l-.23-2.07c.265-.435 3.037-.34 2.265-1.654-.42-.73-2.63-.39-3.18-1.04-.62-.73.555-3.352.222-3.54-1.262-.654-3.517 1.135-4.914-.14-2.93-2.686 3.37-1.716 3.473-1.79.867-.637-2.71-2.166-2.724-2.492-.024-.806 2.666-1.703 2.112-3.043-1.025-2.483-3.994 3.66-5.35 1.304-1.706-2.993 3.354-2.73 3.082-5.258-.182-1.52-3.938-.654-4.44-1.605-.45-.834 4.563-7.567 2.098-8.64-2.732-1.196-.113 4.496-3.91 3.24-1.776-.597.37-2.94.822-3.604-34.406 3.34-68.875 6.32-103.337 8.913.735 9.97 1.47 19.932 2.2 29.905.17 2.406-.056 10.73.913 12.44.978 1.716 4.44 2.96 5.86 4.433 1.848 1.933 3.217 4.85 3.637 7.393.205 1.245-.708 3.003-.293 4.2.54 1.546 2.915 1.687 3.7 2.72.24.316.354.754.294 1.14-.04.313-.578.438-.562.74.12 1.43 3.967 3.217 4.074 4.56.058.796-1.23 1.37-1.065 2.17.124.617 2.226 1.34 2.61 1.87.506.66.26 2.16.85 2.72.31.303 2.37.1 2.52.49.35.898-1.132 2.59-.953 3.557.116.697 2.17 1.932 2.07 2.613l-1.797.83c-.97 1.725 1.412 2.108 1.453 2.67 0 0-1.073 2.16-1.077 2.16-.516 2.638.18 5.876-1.203 8.45-.465.86-1.975 1.35-2.32 2.266l.16 2.07c-.303.833-1.817.81-1.707 2.216.09 1.222 1.808 2.668 1.576 4.03-.333 1.86-2.27 1.865-1.55 4.288 1.892 6.438 3.81 8.93-.084 15.25l-.077.11c.8.686 1.14 2.11.97 3.28-.06.39-.74 2.646-1.044 2.854-1.614 1.053-5.158.187-2.877 3.68.144.23 1.93 1.906 2.034 1.92 1.09.12 3.118-2.7 4.19-3.093 3.657-1.35 14.16-2.28 18.184-2.182 7.437.167 14.256 4.3 21.413 5.717 3.046.59 6.36.556 9.455.816 1.662.146 4.31.884 5.915.5 1.3-.317 2.32-1.964 3.58-2.425 1.204-.45 2.86.125 4.027-.41 3.03-1.38-.173-.204.242-1.4.04-.11 1.846-.088 1.89-.2.454-1.323-3.107.337-3.15.324-.207-.09-1.54-2.393-1.52-2.628.018-.62 1.587-1.07 1.123-1.49-.414-.363-2.55 1.22-3.075 1-.11-.05-.94-2.65-.898-2.685.292-.316.84-.085 1.254-.126.42-.05.87-.29 1.26-.12.42.17-.324 1.413.13 1.365.226-.02 5.135-2.983 5.373-3.307.275-.376-.408-1.01-.137-1.382.47-.616 1.546.647 1.952.5.99-.38 1.29-.82 2.655-.97.343-.024.744-.286 1.038-.104 2.27 1.384-2.44.95-.9 3.56.23.405-.207 1.075.135 1.377.4.35 6.688-2.73 8.644-2.28 1.67.375-.16 2.853.083 3.796.61 2.326 2.51-.18 3.564.664.86.697.42 4.107.427 4.117.313.355 3.415-1.05 3.97-.98 1.51.198 3.595 2.928 5.694 2.02.74-.33.788-6.524 2.12-5.35 1.91 1.67-2.167 3.278-.79 5.895 1.35 2.56 4.85 2.302 6.198 4.164.423.582.81 4.633-.816 4.247-1.19-.276-.48-2.884-1.01-3.35-.36-.314-.737 1-1.182.827l-1.032-1.727c-1.816-1.473-1.755 1.09-2.79 1.796-.36.26-1.03-.55-1.3-.2-.196.27.345.58.528.865 1.148 1.94 9.192 4.588 10.875 4.11.72-.208.273-1.423 1.753-1.584.21-.03.61-.282.63-.073.062.62-1.363.937-1.114 1.513.07.16 2.284-.356 2.523-.293.908.25 1.84 1.7 2.758 1.77 2.626.19.825-1.912 1.028-2.2.287-.39.87.487 1.345.538.63.06 1.335-.532 1.9-.217.635.358.065 1.378-.475 1.44-.21.024-.8-.062-.64.074.333.285 3.762.25 3.872.24.792-.09.617-1.82 1.026-2.194.457-.434 1.13 1.76 1.418 1.214.51-.96-1.395-3.556.156-4.176.413-.173.615-.184.757-.15.053-.227.155-.52.39-1.034.84-1.8-1.92-.857-.242-2.052.195-.135.36-.45.586-.412 1.516.216 2.124 1.14 3.323.996.82-.103 1.213-2.923 1.564-2.966 2.167-.267 1.416 2.52 1.85 3.014.347.39.683-.852 1.15-1.07 1.345-.6 2.264 2.273 3.237 2.148.504-.058-.027-1.383.467-1.436.73-.095 1.02 1.54.886 1.97-.594 1.827.09 2 1.12 4.022.763 1.483-.66-.178-.468 1.44.117.92 1.663-.8 2.406-1.334.005-.006 1.764-1.252 1.777-1.255.7-.618 1.75-1.595 2.26-2.37 1.503-2.29-1.954-.605-1.67-3.258.07-.724 1.17-2.066 1.72-1.606.156.14.42-.052.63-.084.05-.005.16.038.156-.013-.14-1.122-1.52-6.704-1.63-6.74-1.43-.51-3.07.655-4.488-.134-.245-.14-.545-1.15-.788-1.29-.08-.042-.12-.05-.19-.095-.36.436-1.407-.716 0 0 .083-.1.14-.264.104-.59-.01-.04-.544-.194-.17-1.374.05-.16 2.587.71 8.674 3.08.69.28 1.787-.518 2.51-.31l1.422 1.2c1.357-.17-.06-1.814.367-2.13.254-.174 2.036.873 2.06 1.126l-1.168.85c-.39 2.258 2.34.253 2.604.36l-.454 1.445c.105.18.43-.154.626-.08.29.116.61.32.71.606.383 1.03-2.7 1.38-2.237 2.374l2.09-.27c.423-.055 2.144.473 2.392.385.002-.01 1.705-1.61 1.71-1.61 2.153-1.29.607 2.524 1.702 3.245.65.43 2.46.113 3.24.266l1.34.52c.19-.134-.05-.45-.08-.682-.028-.228-.226-.5-.09-.682.12-.175.422-.053.623-.083.213-.02.604-.294.627-.084.042.31-.542.445-.54.766.05 1.885 3.584 2.977 3.603 2.994.413.505-.09 3.185 1.625 2.56 2.55-.92.674-2.183 1.123-3.622.07-.238-.02-.8.23-.726.586.166.175 1.363.654 1.762 2.64 2.184-.256 1.72-1.296 3.183l.185 1.36c-.383 1.51-1.51 2.9-1.984 4.434-.21.657 1.352-.43 1.8-.934.27-.298.334-.737.51-1.105 1.014-2.277 1.78-2.672 3.28-4.265.344-.364-.05-1.49.445-1.45.815.063 2.953 5.33 4.43 4.26.58-.43-.812-1.246-.9-1.96-.076-.55.997-2.92 1.517-2.993.318-.036.426.64.728.588.5-.06-.965-.79-.815-1.27.263-.838 1.94 1.16 2.074 1.103l.983-2.218c-.533-1.41-2.906.517-3.145.432-.218-.08-.066-.456-.098-.68-.093-.72 6.95-3.743 1.522-2.997"/><path fill="#FFF" d="M304.362 506.37l3.705-9.653-3.333-1.415c-.597 1.3-1.23 2.39-1.9 3.276-.67.888-1.4 1.63-2.184 2.224-.785.596-1.613 1.044-2.482 1.347-.87.3-1.768.473-2.695.53-.644.03-1.105-.02-1.386-.17s-.43-.39-.45-.738c-.018-.334.006-.775.076-1.324l1.635-13.13c.12-.95.393-1.63.816-2.046.423-.414 1.178-.675 2.263-.785l.442-3.763-13.63.754-.446 3.764c1.476.03 2.238.46 2.284 1.287.03.544-.034 1.3-.19 2.262l-1.49 12.694c-.075.698-.336 1.24-.786 1.624-.45.386-1.21.63-2.283.74l-.443 3.765 22.47-1.247zm31.704-1.756l.37-3.76c-.987-.106-1.692-.303-2.117-.59-.43-.286-.73-.728-.897-1.326l-5.396-19.827-7.75.43-9.08 18.38c-.703 1.43-1.234 2.417-1.595 2.957-.36.54-.737.912-1.128 1.114-.393.2-1.024.375-1.897.52l-.48 3.767 10.534-.583.425-3.762c-1.052.06-1.736.024-2.053-.11s-.488-.41-.51-.843c-.025-.434.504-1.734 1.586-3.9l8.05-.448c.523 1.632.805 2.813.846 3.542.026.47-.2.82-.676 1.05-.477.23-1.32.38-2.533.45l-.425 3.76 14.72-.814zm-18.26-11.376l3.425-7.648.08-.005 1.86 7.356-5.36.3z"/></svg>