<svg xmlns="http://www.w3.org/2000/svg" width="655" height="750" viewBox="138 0 655 750"><path fill="#CBB082" d="M138.444 12.6c-1.666 1.666 1.867 3.906 2.268 4.87.15.365.027.787.05 1.178.017.396.032.79.045 1.18.02.393.22.824.057 1.18-.21.47-2.303.45-1.485 1.482.257.328.903.282 1.056.666.117.27-.6.457-.48.735.096.24 3.624.168 3.833 4.793.064 1.392-1.968 2.51-1.915 3.633.026.795 1.275 2.45.673 3.52-.39.668-1.976 2.63-1.922 3.624.005.29.602.4.548.683l-1.527.777c-.37.544-1.225 4.448-.843 5 .412.59 3.81 2.052 3.77 2.677-.018.42-1.03.335-1.016.755.028.416.82.333 1.08.66.844 1.048 1.37 2.852 1.752 4.18 0 0 2.823.884 2.707 2.003-.125 1.16-1.127 3.174-.853 4.29.323 1.3 2.38 2.143 2.777 3.422.39 1.217-.978 3.012-.33 4.267.574 1.09 2.158 1.637 2.76 2.71.452.788.166 2.046.664 2.803.694 1.075 2.742 1.532 3.29 2.683.466.97-.185 2.51.18 3.534.505 1.47 2.482 2.606 2.847 4.114.417 1.785-.422 3.517-.824 5.002-.52 1.954.973 2.73 1.276 4.193.142.708-.903 1.582-.436 2.142.647.78 2.068-.954 2.623-.837 1.43.304-.158 2.188.14 2.822.316.694 2.434.59 2.737 1.282.55 1.322-1.37 3.688-.82 5.004.49 1.162 2.374-.04 2.24 2.007-.052.857-1.87 1.975-1.415 3.62.447 1.683 2.066-.19 2.706.565.292.36-1 4.254-.82 5.005.66 2.685 2.38 4.528 2.548 7.658.104 2.103-1.38 4.59-1.292 6.44.075 1.275 2.792 2.486 3.535 5.48 32.2-.862 64.22-3.265 96.263-6.652 8.57-.914 17.037-2.034 25.544-3.488 2.447-.41 8.315-1.48 8.35-1.43 1.81 2.813 3.47 4.693 6.29 6.45 1.544.968 1.697 1.982 3.545 2.703.314.126.953.373.953.373 5.16-.552-.745-6.917-.287-7.79 1-1.946 7.837-4.302 8.13-5.15.802-2.426.667-4.94 1.356-7.266.633-2.124 3.26-3.93 3.646-6.104 1.288-7.365-9.582-7.592-4.804-18.68.63-1.452 9.323-1.867 10.967-2.68 1.333-.653 2.078-2.49 3.362-3.242 1.803-1.048 5.493-1.457 6.53-3.633.938-1.95-.237-5.072.737-7.216.56-1.234 2.262-1.957 2.814-3.2.742-1.678 1.338-6.153 1.146-7.984-.7-6.528-6.227-5.524-9.652-9.526-1.288-1.512-.645-3.54-2.526-4.69-1.46-.896-7.008-3.25-6.013-4.996-1.29-11.035-12.082-3.783-14.69-9.01-.728-1.447-.398-3.4-1.077-4.872-.35-.76-1.394-1.196-1.784-1.945-1.067-2.045-2.268-5.97-2.48-8.273-.23-2.44 2.875-5.21 2.305-7.39-.64-2.45-2.7-1.72-3.98-3.123C303.99 4.182 304.136 0 304.136 0l-1.247.142c-1.668.183-3.323.36-4.99.54-3.736.4-7.482.794-11.23 1.174-12.087 1.248-24.192 2.396-36.297 3.462-35.54 3.117-71.15 5.463-106.79 7.057-.852.04-4.587-.33-5.136.224"/><path fill="#FFF" d="M231.666 86.575l.422-3.59c-.762-.087-1.324-.26-1.688-.52-.363-.256-.557-.61-.582-1.058-.014-.248.018-.746.095-1.497l1.342-11.96c.093-.88.347-1.526.762-1.933s1.14-.663 2.175-.768l.404-3.59-13 .72-.42 3.592c1.408.027 2.134.438 2.18 1.228.024.46-.03 1.178-.166 2.155l-1.44 12.11c-.07.677-.318 1.196-.748 1.56-.43.36-1.156.59-2.178.695l-.422 3.59 13.264-.735zM261.713 84.91l.35-3.586c-.938-.1-1.61-.29-2.017-.562-.405-.273-.688-.695-.85-1.266l-5.147-18.912-7.393.41-8.662 17.53c-.67 1.364-1.176 2.302-1.52 2.818s-.703.87-1.076 1.062c-.375.193-.978.36-1.81.5l-.457 3.592 10.045-.557.404-3.59c-1.002.056-1.655.02-1.957-.104-.303-.126-.465-.395-.488-.807-.022-.415.482-1.654 1.515-3.722l7.675-.425c.5 1.558.77 2.683.81 3.38.023.447-.192.78-.646 1.002-.454.22-1.26.362-2.416.426l-.403 3.59 14.043-.78zm-17.418-10.85l3.268-7.297.07-.004 1.772 7.015-5.11.284z"/><path fill="#E2BE7D" d="M449.715 181.22c-.346-.89-1.314-1.684-1.545-2.597-.097-.388 0-.793 0-1.182.01-.4.01-.79.01-1.182 0-.397.128-.817 0-1.187-.84-2.25-4.188-4.23-5.516-6.25-1.284-1.955 2.026-2.46 2.205-3.887.167-1.197-2.395-2.687-2.296-3.9.104-1.326 2.66-1.686 2.963-2.59.744-2.193-1.995-13.084-2.45-16.003-4.21-27.548-8.43-55.097-12.648-82.644l.023-.074c-4.572-2.733-4.34-9.555-7.173-13.8-.518-.77-1.766-.78-2.455-1.312-1.662-1.266-3.627-5.36-3.996-7.333-.47-2.5.065-4.79-.192-7.347-.03-.252-.09-.514-.125-.768h-.017c-29.61 3.995-59.274 7.706-88.946 11.143-1.006 1.733 4.585 4.07 6.056 4.964 1.895 1.145 1.248 3.162 2.547 4.664 3.45 3.978 9.02 2.98 9.72 9.47.197 1.816-.4 6.268-1.15 7.934-.555 1.233-2.27 1.95-2.835 3.183-.98 2.13.202 5.233-.74 7.175-1.047 2.162-4.763 2.567-6.58 3.61-1.296.745-2.045 2.573-3.388 3.223-1.657.807-10.417 1.22-11.05 2.664-4.815 11.02 6.137 11.247 4.84 18.567-.388 2.162-3.04 3.955-3.673 6.068-.693 2.31-.558 4.813-1.366 7.223-.295.845-7.186 3.185-8.192 5.12-.46.87 5.49 7.195.29 7.744 0 0-.807.44-1.007.813-1.064 1.94-.667 5.02-.615 7.123.09 2.854.392 5.682 1.726 8.292.45.892 1.65 1.687 1.942 2.62.267.85-.508 2.01-.242 2.854.3.955 1.517 1.707 1.944 2.615.472.993.31 2.53.926 3.437 2.106 3.074 7.347 4.646 10.2 6.657 1.09.772 1.55 2.402 2.585 3.248 3.118 2.533 8.604 3.293 10.35 7.31.647 1.477.407 3.372 1.125 4.81.26.534 1.084.704 1.275 1.274.705 2.177-.49 7.23 3.84 8.72 2.493.872 3.833-3.14 5.684-4.187.958-.542 9.787 3.278 10.688 4.365 1.2 1.457-1.542 3.762-1.63 5.138-.06 1.113 1.06 2.297 1 3.413-.306 5.086-7.97 12.115-4.1 17.422 1.15 1.578 3.526 3.964 5.177 5.018.84.534 2.206.44 2.988 1.048.63.494.78 1.428 1.385 1.945 1.252 1.094 5.21 1.12 5.978 2.085.745.932-1.08 1.754.354 2.778 1.915 1.376 1.783-1.19 3.287-1.114.61.02.795.942 1.313 1.242.85.504 2.226.438 3 1.03 1.207.933 1.558 3 2.806 3.876 1.143.818 3.848.478 4.786 1.5.955 1.057.167 4.22.742 5.543.8 1.907 3.463 3.168 4.138 5.11 1.046 2.993-2.438 3.394-2.005 6.607l1.798.47.28 2.074c.664 1.474 2.728 2.32 3.4 3.792.293.638-.14 1.51.28 2.07.215.306 3.358 1.707 3.7 1.626 1.96-.5-2.81-2.378-1.04-3.39 1.647-.928 2.594 3.25 3.987 3.705 1.356.446 1.72-.837 2.96.31 0 0-.45-.406-.67-.614-1.264-1.16-1.386-1.62-1.617-3.308-.05-.383 3.75-6.626 4.26-6.927 4.97-2.854 13.62 4.475 19.11 3.696.342-.05.29-.635.438-.94 3.14-6.722-5.646-5.154-2.367-12.197.78-1.673 2.543-.483 3.867-1.268.006 0 .926-1.54.926-1.54 1.93-1.606 4.966-1.414 7.145-2.456.404-.188.957-.42 1.026-.86.512-2.997-3.783-3.38-3.76-5.81.027-2.384 2.65-5.32 3.466-7.575 0 0-3.144-2.21-2.434-3.413l1.806-.74c.01-.016-1.52-6.05-1.508-6.146.114-.683 1.585-.52 1.724-1.2.438-2.158-1.668.68-.716-1.604.343-.818 1.883-1.13 2.276-1.932.096-.212.046-.512-.112-.687-1.707-2.055-2.548-1.75-1.297-4.767.826-2 .69.34 1.675-.25.437-.26-.153-1.388.335-1.465.314-.046.454.406.676.605.222.207.42.782.672.61.34-.237.13-.807.19-1.206.36-2.25 1.07-1.852 1.95-3.37.458-.786-.14-2.11.125-2.857.532-1.49 2.45-1.81 3.01-2.578.293-.396-1.11-2.182-.982-2.688.162-.706 1.242-.94 1.447-1.635l-.327-2.077c.81-1.93 4.29-1.71 2.34-6.744"/><path fill="#FFF" d="M371.467 142.628l.442-3.76c-.8-.093-1.39-.274-1.77-.545-.38-.27-.583-.64-.61-1.11-.013-.258.02-.782.1-1.566l1.406-12.533c.098-.922.363-1.597.798-2.024.435-.426 1.195-.695 2.28-.804l.422-3.76-13.618.754-.442 3.76c1.477.03 2.238.46 2.283 1.287.026.48-.032 1.234-.173 2.26l-1.51 12.687c-.07.71-.332 1.254-.78 1.632-.452.378-1.212.622-2.284.73l-.442 3.76 13.897-.768zM396.574 141.237l3.703-9.65-3.33-1.412c-.598 1.297-1.232 2.388-1.9 3.274s-1.397 1.626-2.183 2.22c-.785.595-1.61 1.044-2.48 1.347-.87.302-1.768.48-2.694.53-.642.035-1.104-.02-1.384-.165-.28-.146-.43-.39-.45-.737-.02-.333.007-.775.076-1.324l1.633-13.12c.12-.95.393-1.63.816-2.044.424-.414 1.178-.676 2.262-.786l.442-3.76-13.62.754-.44 3.76c1.475.03 2.236.46 2.282 1.287.03.545-.033 1.298-.19 2.26l-1.49 12.688c-.074.697-.335 1.238-.785 1.623s-1.21.632-2.28.74l-.443 3.762 22.457-1.245z"/><path fill="#D8AB5E" d="M407.203 275.013c1.266-1.342-2.362-1.1-2.077-2.542.552-2.887 2.17-1.058 1.516-5.875-1.233-1.16-1.596.132-2.947-.317-1.387-.457-2.33-4.664-3.97-3.726-1.762 1.017 2.987 2.907 1.036 3.41-.342.083-3.47-1.33-3.685-1.634-.416-.565.014-1.443-.278-2.087-.67-1.48-2.724-2.332-3.386-3.815l-.277-2.084-1.79-.475c-.432-3.232 3.034-3.64 1.996-6.65-.673-1.955-3.324-3.224-4.12-5.142-.572-1.332.212-4.514-.74-5.58-.934-1.03-3.627-.685-4.765-1.51-1.242-.883-1.59-2.96-2.793-3.903-.777-.594-2.14-.525-2.987-1.036-.516-.298-.695-1.23-1.308-1.25-1.496-.077-1.366 2.505-3.272 1.12-1.425-1.03.39-1.854-.353-2.795-.764-.97-4.702-1-5.95-2.096-.603-.526-.75-1.464-1.38-1.963-.78-.61-2.137-.515-2.975-1.053-1.644-1.062-4.006-3.464-5.155-5.05-3.854-5.342 3.78-12.418 4.078-17.536.066-1.122-1.048-2.316-.987-3.437.082-1.382 2.816-3.705 1.62-5.17-.897-1.093-9.688-4.937-10.642-4.396-1.84 1.057-3.176 5.095-5.656 4.217-4.312-1.5-3.122-6.586-3.823-8.78-.19-.575-1.01-.743-1.268-1.28-.717-1.448-.48-3.355-1.12-4.84-1.74-4.044-7.2-4.813-10.305-7.362-1.034-.846-1.49-2.49-2.576-3.266-2.837-2.026-8.058-3.61-10.152-6.704-.617-.912-.453-2.46-.922-3.458-.425-.914-1.64-1.67-1.935-2.628-.266-.854.507-2.02.243-2.873-.293-.943-1.485-1.742-1.933-2.64-1.33-2.628-1.63-5.47-1.722-8.345-.05-2.122-.447-5.218.615-7.173.2-.376 1.004-.82 1.004-.82s-.642-.242-.956-.37c-1.852-.723-2.01-1.738-3.555-2.702-2.827-1.766-4.495-3.644-6.31-6.455-.034-.05-5.92 1.02-8.375 1.426-8.53 1.454-17.026 2.577-25.622 3.49-32.144 3.39-64.263 5.794-96.564 6.656.2 3.816 2.12 2.894 3.59 6.186.396.9.813 5.565.854 5.62.065.124 5.932 2.917 6.176 3.194l-.47 1.448c.408 1.298 2.53 2.07 2.924 3.37.217.703-.802 3.033-.34 3.562.26.298 2.332.05 3.36 1.218.196.227.583.67.583.67s4.594 3.85 7.408 4.514c1.724.416 2.655-3.068 4.287-1.678l.13 2.12c.362.648 1.88.638 2.287 1.267.207.34.163.78.25 1.167.168.774.645 1.546.516 2.327-.28 1.62-2.776-.098-3.286.204-.63.38-.01 1.55-.412 2.15-.29.414-1.327.397-1.61.812-.638.936-.195 2.595-.873 3.597-.252.356-.887.37-1.06.766-1.075 2.44 6.464 6.31 7.09 7.338l-.46 1.452c.158 2.505 1.878 1.865 2.98 3.348.493.65.157 2.22.737 2.78 1.882 1.807 5.37.57 7.327 1.636.2.106-.343.264-.523.393-1.108.81-.265 4.05-.162 5.395.4 5.415.79 10.84 1.193 16.26 1.674 22.882 3.364 45.778 5.046 68.655.46 7.015.94 14.022 1.413 21.03 37.086-2.49 74.12-5.71 111.076-9.674 10.418-1.115 20.84-2.285 31.258-3.524 1.838-.223 10.01-1.884 11.233-1.358.966.407 1.515 2.47 2.158 3.274 2.333 2.904 3.54 5.255.46 8.426-.793.814-2.617.92-3.287 1.82-.43.583.075 1.546-.313 2.15l-1.652.906c-.336.45-2.438 5.634-2.217 5.93.267.33 4.457-.533 5.017-.607 5.846-.714 11.684-1.45 17.52-2.193 0 0 .232-.684.344-1.03.392-1.22.644-3.073 1.34-4.14.257-.39 2.116-1.26 2.13-1.688.013-1.015-2.606-2.018-2.74-3.04-.173-1.388 4.007-2.23 3.738-2.747-.467-.885-2.6-.872-3.146-1.72-1.17-1.783 3.086-1.334 3.172-2.535.148-2.005-2.865-5.693-2.15-7.517.084-.207.35-.278.518-.42 3.77-3.017-.67 7.098 5.004 2.537 0 0 .54-2.88.59-4.325.016-.42-.598-2.053.29-2.167 1.233-.166 2.684 2.476 4.37 2.244 1.147-.15 2.402-3.642 2.307-4.558-.108-.915-1.348-1.72-1.53-2.63-.39-1.99 1.434-.997 2.09-1.71"/><path fill="#FFF" d="M270.914 246.445l8.01-20.483.073-.005-2.057 14.047c-.097.676-.22 1.164-.367 1.465-.148.3-.385.526-.712.678-.326.153-.846.297-1.557.434l-.508 3.704 12.582-.698.362-3.695c-.676-.072-1.167-.188-1.474-.348-.308-.16-.472-.416-.49-.77-.017-.29.025-.853.125-1.688l1.732-13.315c.073-.65.287-1.162.637-1.535.35-.374 1.012-.587 1.985-.64l.417-3.7-12.51.694-4.308 10.698-.073.004-.96-10.405-12.8.71-.508 3.702c.788.126 1.336.285 1.645.475.31.19.475.492.498.905.02.352-.03.855-.153 1.508l-1.776 12.532c-.146 1.093-.405 1.81-.777 2.145-.373.338-1.047.583-2.027.734l-.49 3.7 8.954-.495.508-3.703c-.76-.08-1.308-.208-1.64-.384-.334-.177-.513-.497-.54-.958-.02-.388.035-1.026.17-1.91l1.73-13.316.073-.003 2.47 20.122 3.756-.207zM300.67 239.778c-.674-.87-1.054-2.087-1.14-3.654-.118-2.124.058-4.208.53-6.25.47-2.04 1.245-3.74 2.326-5.097 1.08-1.356 2.422-2.08 4.023-2.168 1.14-.063 2.022.277 2.647 1.02.625.746.99 2.03 1.09 3.85.073 1.336.01 2.77-.19 4.303s-.565 2.988-1.09 4.362c-.527 1.375-1.234 2.507-2.12 3.396-.89.89-1.97 1.37-3.243 1.44-1.213.07-2.157-.332-2.833-1.202zm9.186 3.723c2.11-.97 3.88-2.223 5.312-3.76 1.433-1.535 2.492-3.25 3.18-5.15.687-1.895.977-3.817.87-5.76-.077-1.362-.394-2.68-.952-3.952-.558-1.273-1.36-2.405-2.41-3.396-1.048-.99-2.38-1.763-3.995-2.32s-3.485-.776-5.61-.658c-2.104.117-4.13.597-6.082 1.443-1.953.847-3.683 2.006-5.19 3.48-1.51 1.472-2.67 3.203-3.48 5.192-.81 1.99-1.15 4.113-1.026 6.373.086 1.556.46 2.992 1.125 4.308.664 1.318 1.557 2.43 2.68 3.336 1.123.906 2.404 1.58 3.842 2.017 1.437.438 2.97.613 4.598.523 2.65-.147 5.028-.706 7.138-1.675z"/><g><path fill="#AE8F5B" d="M439.393 238.447c-.066.44-.623.676-1.023.863-2.173 1.047-5.203.854-7.13 2.47 0 0-.917 1.546-.923 1.546-1.32.788-3.083-.406-3.856 1.274-3.27 7.082 5.492 5.504 2.36 12.26-.142.306-.094.895-.434.946-5.477.783-14.106-6.58-19.065-3.715-.508.304-4.296 6.58-4.248 6.963.23 1.693.352 2.158 1.612 3.324.22.21.67.62.67.62.65 4.813-.967 2.986-1.518 5.868-.286 1.44 3.348 1.2 2.08 2.54-.657.71-2.485-.276-2.09 1.71.177.904 1.42 1.708 1.527 2.62.096.92-1.16 4.408-2.313 4.557-1.688.233-3.142-2.41-4.38-2.242-.887.113-.274 1.744-.287 2.16-.05 1.446-.592 4.322-.592 4.322 11.537-1.702 23.063-3.458 34.587-5.3 1.804-.285 11.445-1.208 12.33-1.998 1.98-1.78-2.514-6.277-1.718-7.546.265-.41 4.403-.242 5.02-.274 3.055-.174 1.978.797 3.297 1.155 2.276.614 7.224-1.35 9.585-1.79 4.865-.917 30.19-6.33 33.073-5.743.31.068.396.653.69.604 0 0 1.478-1.67 1.482-1.67 2.497-1.23 19.37-2.134 23.414-2.61 8.045-.915 15.56-2.775 23.474-4.273 8.713-1.65 17.646-2.475 26.403-3.916 5.593-.924 11.183-1.825 16.793-2.65 1.953-.29 4.933-.19 6.566-1.274.332-.224.977-.65.977-.65s.476-.574.706-.855c.988-1.205 2.44-2.194 3.82-2.94 2.668-1.44 10.43-4.32 12.253-6.153.895-.884.39-3.567 1.378-4.594 1.426-1.49 5.246-1.433 6.308-3.506.18-.35-.043-.78-.062-1.18-.016-.396-.042-.794-.068-1.19-.014-.39-.19-.81-.05-1.18.56-1.5 3.36-2.206 3.88-3.72.434-1.216-1.267-2.29-.187-3.55 2.718-3.147 7.05-4.965 9.963-7.943 4.05-4.124 7.36-9.396 10.888-13.966-1.182-.93-3.84 1.21-5.867-.117-.393-.252.017-1.024-.317-1.365-1.428-1.485-4.32-1.03-5.763-2.312-.882-.776-1.012-2.393-1.887-3.182-.804-.733-2.48-.653-3.23-1.44-.765-.805-.574-2.5-1.32-3.314-.45-.49-2.195-.31-2.52-.88-1.705-2.988 1.39-.576-2.572-3.752-2.675-2.153-4.925-4.59-4.04-7.765 0-.004.954-.927.954-.927.308-2.232-1.446-3.08-2.166-4.57-.12-.248.024-.55.032-.817.008-.274.026-.55.034-.823.02-.18.024-.538.024-.538-3.82-4.476-7.163-3.066-9.734-5.092-1.422-1.124-1.522-5.847-3.145-6.528-.824-.343-6.45 4.49-6.916 5.077 0 .006-.653 2.298-.653 2.3-.354.37-2.35.497-2.876.608-.262.052-1.85 1.123-1.912 1.123-.87-.05-1.78-1.385-2.627-1.612-.373-.1-.763 0-1.152 0-.38 0-.762 0-1.144-.004-.38 0-.783.117-1.14 0-.567-.177-.784-1.108-1.392-1.145-3.815-.267-3.868 5.797-8.34 3.868-1.48-.64-2.824-3.342-4.283-4.166-3.13-1.752-8.196 2.544-11.372.126-1.942-1.472-3.018-5.24-4.805-6.95-.867-.83-2.7-.733-3.69-1.435-.53-.38-1.562-2.36-2.178-2.446-1.248-.15-3.248 2.742-4.514 3.034-1.714.395-3.488-2.202-4.908-1.93-1.146.222-2.32 2.6-2.32 2.6-4.2 3.93 2.23 2.342.093 6.437-.017.037-.854 1.25-.28 1.488.65.248 2.6-1.26 2.877.166 0 .01-.698 2.28-.698 2.29.044.727 1.29 1.317.952 1.967l-1.787-.37c-1.1.1-3.313.945-4.256 1.515-1.62.992-3.987 5.16-5.816 5.387-.73.088-4.563-4.17-8.64-.56-1.68 1.485 2.52 6.37 2.086 8.21-.34 1.39-4.868 3.77-5.447 4.565-1.268 1.75-.116 4.796-1.637 6.73-2.05 2.612-3.698.536-4.86 1.585-2.853 2.573.34 11.098-1.796 12.46 0 0-2.217.386-2.23.392 0 0-.644 1.18-.644 1.184-.51.153-8.39-2.195-8.875-3.108-.513-.97-1.536-4.73-3.62-4.38-1.625.28 1.898 1.863 1.596 2.583-.585 1.37-3.804 1.418-3.926 1.623l1.062 1.723c-.17.768-2.247 1.118-2.552 1.86-.425 1.04 1.257 3.188.716 4.16-.004 0-2.116 1.06-2.124 1.064-.703.98.39 2.443-1.213 3.055-.35.137-.83.44-1.11.19-.274-.244.073-.727.113-1.09.02-.362.365-.842.092-1.084-.464-.42-2.714.782-3.346.558-.867-.304-2.053-3.56-3.38-3.01-.95.397-1.58 1.968-2.446 2.538-.79.533-2.63.54-3.242 1.246-1.433 1.642.016 4.778-2.45 6.092-.395.21-.906-.214-1.23-.512-2.21-1.977-6.01-3.96-9.29-4.22-1.51-.12-4.237 2.228-5.484 1.565-2.207-1.163.652-.817-1.586-1.358-.308-.07-.27.616-.207.926.397 1.86 2.706 2.67.095 4.255-3.003 1.814-.435-2.543-2.122-2.52-1.02.016-2.127 1.688-3.144 1.907-1.82.388-2.874-2.023-4.35-2.19-2.938-.326 2.834 5.485-.73 6.518-.733.206-2.25-1.153-2.76-.902l-.15.627c-.814 2.264-3.43 5.217-3.456 7.61-.023 2.44 4.26 2.825 3.753 5.837"/><path fill="#FFF" d="M549.68 207.613c.007.122-.04.237-.136.347-.1.11-.31.312-.635.61l-6.62 5.712.51-4.366c.126-.8.37-1.393.733-1.78.363-.385 1.047-.643 2.052-.772l.447-3.483-13.262.736-.436 3.703c1.453.028 2.202.45 2.248 1.265.03.535-.033 1.277-.188 2.225l-1.467 12.49c-.072.687-.33 1.22-.77 1.598-.444.378-1.192.62-2.248.73l-.436 3.7 13.59-.75.448-3.467c-1.527-.06-2.317-.554-2.368-1.478-.03-.536.032-1.277.188-2.226l.396-3.408 1.846-1.365 2.748 5.01c.447.803.685 1.455.712 1.954.042.755-.633 1.232-2.025 1.43l-.413 3.464 14.504-.803.436-3.703c-.622 0-1.115-.05-1.48-.146-.365-.096-.704-.27-1.017-.52-.314-.25-.597-.56-.85-.923-.25-.364-.573-.89-.964-1.575l-5.02-8.983c2.107-1.837 3.682-3.15 4.724-3.94 1.042-.79 1.873-1.31 2.494-1.558.62-.25 1.434-.43 2.44-.547l.325-3.697-11.987.664-.41 3.482c1.244.005 1.874.13 1.887.37zM580.422 206.293c.01.183-.357.813-1.103 1.892l-3.192 4.495-1.707-3.73c-.485-1.07-.735-1.734-.75-1.99-.042-.766.745-1.194 2.363-1.284l.374-3.48-13.755.762-.4 3.7c.756.19 1.312.414 1.667.668.354.255.716.72 1.082 1.395l4.184 7.785c.272.522.413.85.42.984.01.17-.034.696-.13 1.58l-.355 3.223c-.07.7-.326 1.236-.77 1.608-.443.373-1.19.613-2.247.72l-.436 3.702 14.01-.776.437-3.703c-.92-.06-1.586-.22-2.003-.483-.417-.264-.642-.7-.676-1.308-.013-.23.047-.9.18-2.005l.312-2.67c.05-.418.198-.817.446-1.197l6.143-8.357c.67-.903 1.354-1.557 2.05-1.96.697-.406 1.515-.634 2.45-.686l.272-3.693-10.453.58-.41 3.48c1.303-.036 1.97.214 1.998.75z"/></g><g><path fill="#DFB875" d="M662.58 233.534s-5.31.807-7.97 1.216c-1.504.22-1.01.485-2.1 1.102-3.184 1.83-8.86 2.015-12.468 2.826-15.073 3.37-30.19 6.61-45.33 9.743 0 0-.644.428-.973.65-1.62 1.084-4.584.984-6.522 1.274-5.574.825-11.126 1.723-16.68 2.65-8.7 1.438-17.573 2.26-26.227 3.91-7.86 1.498-15.323 3.355-23.313 4.27-4.017.476-20.776 1.377-23.256 2.608-.005 0-1.47 1.668-1.47 1.668-.292.05-.382-.535-.685-.604-2.864-.585-28.02 4.823-32.85 5.74-2.35.44-7.263 2.4-9.523 1.788-1.31-.36-.238-1.333-3.273-1.157-.615.034-4.723-.138-4.99.277-.79 1.262 3.675 5.75 1.71 7.533-.882.79-10.457 1.708-12.252 1.998-11.442 1.84-22.892 3.595-34.35 5.3-5.647 4.546-1.23-5.547-4.98-2.535-.17.14-.433.213-.518.42-.712 1.817 2.287 5.498 2.14 7.5-.082 1.194-4.32.747-3.156 2.525.543.844 2.666.83 3.13 1.714.274.516-3.89 1.353-3.72 2.74.137 1.02 2.74 2.022 2.73 3.034-.017.424-1.866 1.295-2.118 1.683-.696 1.065-.946 2.913-1.33 4.127-.11.346-.346 1.028-.346 1.028.792.728.99.92 1.78 1.652 2.742 2.56-1.416.287-2.477 1.964-1.505 2.37 2.82 1.395 1.597 3.32-.27.424-1.977-.09-2.306.295-.48.547.074 1.55-.314 2.16-.653 1.017-4.104.972-5.017 2.036-1.734 2.014 3.48 1.595 4.475 2.96.45.61-2.985 2.177-3.202 2.516-.553.87 1.483 1.213.846 2.013-1.08 1.315-3.233-1.52-4.058.51-1.127 2.794 3.85 3.8 2.34 4.634-3.862 2.13-1.997-1.86-3.728-1.65-2.1.26-2.403 4.522-2.393 4.522 1.42-.18.155-1.43 1.573-1.608.484-.063 1.908 3.484 1.676 4.024-.306.702-2.585 1.01-2.74 1.74-.167.838 3.296.85 3.75 1.646.302.526.462 4.73.018 4.926-.738.327-1.682-.75-2.42-.406-.82.388-.574 3.095-1.322 3.683-.524.416-2.53-.176-2.913.354-.214.28.087.688.13 1.04.034.342.12 1.043.12 1.043 24.72-3.008 49.39-6.336 74.022-9.984-.19-1.283 3.66-1.188 4.87-1.356 5.386-.728 10.773-1.466 16.15-2.228 22.875-3.22 45.625-7.016 68.353-11.124 15.097-2.496 30.165-5.11 45.215-7.85 0 0-1.48-7.04-.88-10.498.582-3.374 6.512-.195 7.63-3.667.112-.36.006-.755.006-1.135.022-1.144.027-2.284.036-3.435 0-.372-.12-.777.005-1.13.558-1.538 6.716-7.368 8.48-8.144 1.04-.463 2.368-.26 3.43-.707.412-.18.55-.966.994-.926.008 0 1.42 1.136 1.42 1.136 2.224-.018 2.267-2.496 3.43-3.563.682-.633 2.102-.606 2.705-1.296.35-.37-.083-1.144.29-1.486.425-.387 1.243 0 1.71-.353 1.438-1.112 2.31-3.79 3.675-5.07 1.942-1.793 5.655-1.717 6.12-2.014 1.89-1.26 1.346-7.45 1.353-7.457 1.033-.803 2.683.514 3.558-.056.45-.292.255-2.473.53-2.97.357-.646 3.25-3.635 3.928-3.735 2.967-.407.98 4.26 3.17 3.602 3.26-.983 3.442-5.762 5.98-7.78.83-.647 3.73-2.912 4.625-3.188 1.895-.57 3.59 2.942 5.127 1.708 1.017-.807 2.883-7.747 3.763-9.473.314-.602 1.652-3.1 2.188-3.376.624-.338 3.125.725 2.725-.99-.707-3.083-.872-6.753.667-9.86"/><path fill="#FFF" d="M484.73 294.4c1.1-.98 2.362-1.584 3.79-1.812l-2.017 16.302c-.07.708-.33 1.25-.78 1.626-.446.377-1.203.62-2.27.728l-.44 3.744 14.157-.785.44-3.743c-.94-.06-1.622-.222-2.043-.488-.422-.267-.65-.707-.684-1.322-.017-.308.038-.983.165-2.026l1.767-14.494c2.532.094 4.367 1.966 5.507 5.616l3.113-1.21-2.023-8.49-21.64 1.198-3.242 8.562 2.908 1.097c1.097-2.023 2.194-3.524 3.292-4.504zM529.166 312.43l2.37-20.023c.104-.77.326-1.33.665-1.674.34-.346 1.023-.572 2.054-.678l.44-3.744-9.48.526-.416 3.52c1.52.04 2.312.663 2.38 1.868.036.664.02 1.245-.052 1.742l-.91 7.637-.072.005-5.54-14.516-12.654.7-.44 3.745c1.47.03 2.227.456 2.272 1.28.03.54-.033 1.29-.19 2.25l-1.482 12.627c-.073.694-.333 1.233-.78 1.616-.448.383-1.205.628-2.272.735l-.44 3.745 9.593-.532.44-3.743c-.795-.092-1.38-.272-1.76-.54s-.58-.638-.606-1.105c-.015-.258.018-.778.098-1.56l1.6-13.542.074-.003 7.754 20.073 7.356-.408z"/></g><g><path fill="#C39547" d="M468.162 533.582c-.09-.24-.17-.483-.09-.592-2.732-13.93-5.455-27.87-8.167-41.816-1.276-6.504-3.126-13.154-3.84-19.738-.85-7.788-.41-15.95-.623-23.786-.45-16.302-.922-32.616-1.44-48.922-.402-12.58-.81-25.156-1.26-37.735-.09-2.743.516-13.242-.533-15.117-.566-1-3.153-2.526-4.088-3.616-24.496 3.64-49.026 6.96-73.607 9.962.74 1.286 2.588 5.238.166 6.29-.972.416-.694-.904-2.156.026l-1.834 1.15c-.595-.265.666-3.525-1.41-1.932-.876.662 1.21 4.184 1.16 4.763-.06.667-2.242 2.64-2.753 1.743-.2-.36 2.04-2.238.25-2.85-1.802-.6-1.317 3.044-.756 3.604.564.56 2.933-.252 3.09 1.028.055.47-2.35 2.885-2.683 2.422-.29-.402.236-2.824-.896-2.688-.258.02-.146.478-.22.717-1.016 3.487.258 2.022 1.956 3.98.152.173.052.457.074.688.173 1.4-1.06 1.144-1.52 2.277-.425 1.083 1.038 3.118.503 4.143-.39.733-1.73.97-2.188 1.66-.257.378-.46 2.757-.85 2.896-.067.027-1.65-3.68-3.17-1.727l.745 1.313c.24 2.062-1.962 2.024-2.597 3.334l-.964 1.976c-.23.104-4.88-.652-2.276.954.754.458 4.115-.48 4.274.905.182 1.498-4.515-.337-5.22 1.304-.756 1.77 3.704 1.492 3.775 1.658.912 2.223-4.8 5.426-5.39 5.162-.313-.14-.66-.625-.952-.416-1.316.99 1.08 2.178 1.223 2.83.215 1.03-1.13 2.593-.794 3.587.256.79 2.342 1 2.59 1.8.415 1.33-5.03.402-5.327.597-.188.132.055.45.083.686.498 4.55 2.55 1.173 3.637 3.088.123.217.472.427.377.657-1.273 2.915-4.905-1.566-5.825-1.104-.286.154-.82.125-.842.447-.115 1.062 2.514 2.814 2.823 3.882.065.242-.15.488-.228.716-.378 1.24-2.076.284-1.902 1.84.705 6.45.686-4.738 1.39 1.71.05.44-1.72 2.65-1.47 2.95 1.977 2.443 1.768-5.77 4.008-1.838.517.916-3.47 3.39-2.603 3.77 3.47 1.54 3.533-4.828 5.132-2.654.867 1.202-2.453 3.327-2.524 4.463-.327 5.314 3.718.9 3.88 2.355.08.636-1.43 1.636-1.555 2.27-.137.645.78 2.964.374 3.442-.542.647-2.88-.11-3.582.4-1.333.976 2.688 2.835 2.767 3.177.262 1.073-1.488 2.95-1.488 2.95-.45.657-2.595 2.987-.823 3.576 3.79 1.25 1.175-4.402 3.903-3.217 2.46 1.065-2.54 7.756-2.088 8.584.493.942 4.25.082 4.425 1.594.275 2.513-4.78 2.25-3.074 5.218 1.352 2.344 4.314-3.758 5.338-1.29.553 1.33-2.133 2.22-2.104 3.02.01.323 3.58 1.844 2.72 2.478-.11.068-6.395-.89-3.47 1.778 1.394 1.265 3.647-.517 4.905.14.336.182-.84 2.787-.22 3.514.546.645 2.752.308 3.174 1.03.77 1.31-1.998 1.213-2.262 1.647l.23 2.056c-.347.85-7.35.503-6.274 4.183.77 2.653 4.59-1.762 5.45-.61.566.754-1.43 4.14-1.96 4.387-.444.213-2.855-.703-3.112-.345-.41.59 4.013 1.275 3.34 2.41-.656 1.093-2.617 1.466-3.414 2.466-1.148 1.397-1.99 3.945-2.48 5.476-.318.99-1.984-1.872-3.01.684-.128.326-.126.705-.19 1.06-.517 2.822 1.46-.16 1.88 1.29.323 1.11-2.096 1.38-2.462 1.89-.61.85.03 3.632-.776 4.244-.796.613-3.454-1.5-3.668.39-.25 2.225 2.713.528 3.205 1.05 1.15 1.21-2.49 2.477-2.76 3.073-.84 1.804 1.75 3.214 1.725 4.66-.058 2.74-2.663-1.318-3.06.33-.54 2.205 2.798 3.184 2.342 4.598-.44 1.35-4.8 1.82-4.77 1.888.36.845 1.977 1.875 2.136 2.55.182.79-1.203 2.095-.946 2.868.34.977 2.518 1.477 2.74 2.48.203.845-2.156 1.628-2.242 2.31-.032.312.383.548.682.62 2.924.764 11.282-1.206 14.646-1.57.407-.047.816-.086 1.22-.144 12.614-1.384 25.213-2.864 37.807-4.418 3.684-.452 12.612-2.746 15.838-2.004 2.267.533-3.296 11.773-2.576 14.21.01 0 1.403 1.2 1.41 1.2.423.692.33 1.968.958 2.65 1.317 1.38 3.595 1.905 4.858 3.527 2.693 3.47 2.474 7.25 5.123 10.412 1.168 1.39 1.172-.693 2.47.29.613-.558 1.23-.98 1.87-.863.308.052.426.707.718.597.404-.148.593-2.49.88-2.888.715-.987 2.96-1.437 3.445-2.536.95-2.146-2.458-1.86-.983-2.644.456-.24 2.804-.216 3.188.26l-.44 1.45c.185.276 2.406-.73 2.626-.817 1.488-.545 8.82-3.05 9.564-3.855.957-1.036-.238-2.732 2.637-2.214 1.685.302 3.06 2.418 4.8 2.783.92.204 3.575-.583 4.233-1.29.35-.365-.062-1.55.424-1.454.78.173.776 1.585 1.524 1.86.003.012 2.484-.35 2.484-.35l1.426 1.177c.005 0 1.042-1.532 1.042-1.532.36-.2.894.062 1.234-.182l-.11-.774"/><path fill="#FFF" d="M393.374 452.028l7.965-20.366.072-.004-2.045 13.966c-.097.673-.218 1.158-.365 1.457s-.383.525-.708.677c-.324.15-.84.295-1.55.43l-.504 3.684 12.51-.692.36-3.674c-.67-.072-1.16-.188-1.465-.347-.307-.158-.47-.412-.488-.764-.016-.29.025-.85.125-1.68l1.722-13.24c.073-.645.284-1.154.634-1.525.35-.37 1.008-.583 1.975-.637l.415-3.676-12.438.69-4.285 10.636-.072.004-.956-10.346-12.727.705-.505 3.683c.783.126 1.328.284 1.635.472.31.19.474.49.496.9.02.35-.032.85-.153 1.5l-1.765 12.46c-.146 1.087-.403 1.798-.773 2.133-.37.337-1.04.58-2.015.73l-.486 3.682 8.902-.493.505-3.684c-.755-.078-1.3-.206-1.63-.382-.33-.176-.51-.493-.534-.952-.022-.387.034-1.02.167-1.9l1.722-13.24.072-.003 2.455 20.006 3.732-.208zM430.052 425.034c-.93-.25-1.82-.423-2.674-.515-.853-.093-1.66-.118-2.422-.076-1.812.1-3.413.446-4.805 1.04-1.39.59-2.564 1.364-3.523 2.32s-1.656 1.995-2.09 3.12c-.435 1.128-.622 2.245-.56 3.356.058 1.038.255 1.92.592 2.646.336.727.8 1.327 1.39 1.803.59.476 1.314.878 2.176 1.205.86.328 1.873.617 3.038.867l3.66.797c1.265.28 2.178.577 2.74.89.562.315.86.756.892 1.323.05.88-.335 1.562-1.15 2.043-.815.48-1.918.76-3.308.837-1.04.058-2.122-.085-3.25-.428-1.128-.344-2.146-.953-3.056-1.83-.908-.874-1.53-2.018-1.86-3.428l-3.426.19.395 9.752 2.665-.148.708-1.977c2.724 1.468 5.8 2.107 9.23 1.917 2.067-.115 3.865-.518 5.397-1.21 1.53-.69 2.753-1.55 3.665-2.584.91-1.032 1.57-2.15 1.977-3.356.406-1.204.577-2.374.515-3.51-.055-.992-.275-1.9-.66-2.728-.386-.828-1.152-1.604-2.302-2.328-1.148-.725-2.82-1.293-5.01-1.705l-3.306-.597c-1.14-.203-1.987-.468-2.545-.794-.557-.327-.852-.77-.882-1.323-.028-.507.206-.968.705-1.383.498-.416 1.327-.654 2.486-.72 1.716-.095 3.21.192 4.482.86 1.448.755 2.378 1.896 2.79 3.423l3.334-.185-.328-8.54-2.482.138-.685 1.747c-.747-.356-1.585-.66-2.513-.913z"/></g><g><path fill="#BC9C64" d="M368.552 312.627c-.22-.287 1.876-5.397 2.212-5.84 0 0 1.635-.89 1.65-.897.384-.6-.12-1.546.31-2.125.67-.884 2.49-.99 3.28-1.795 3.074-3.126 1.87-5.446-.457-8.307-.642-.792-1.186-2.83-2.153-3.228-1.22-.52-9.375 1.12-11.203 1.34-10.4 1.22-20.8 2.374-31.198 3.473-36.877 3.91-73.832 7.088-110.842 9.54 0 0 .7 3.252 1.056 4.882.614 2.84 1.23 5.683 1.846 8.524 1.85 8.496 3.986 16.985 5.61 25.542 1.803 9.548 1.643 19.438 2.08 29.108.756 16.45 1.49 32.904 2.23 49.356.584.6.79 1.423 1.334 1.97.542.543 2.253.33 2.452.538.214.203-.565.412-.552.714.065 1.014 2.594.732 3.054.48 2.28-1.244-1.475-1.58 2.95-.9.76.118 5.94-1.317 6.658.215 1.42 3.002 1.327 17.673 1.65 21.917 34.693-2.55 69.388-5.487 104.02-8.77 0 0 1.77-1.862 1.505-2.923-.08-.346-4.135-2.182-2.79-3.15.706-.505 3.064.246 3.613-.395.41-.475-.518-2.773-.378-3.41.126-.63 1.646-1.622 1.566-2.25-.16-1.44-4.24 2.93-3.91-2.336.07-1.124 3.42-3.23 2.54-4.423-1.608-2.154-1.672 4.156-5.172 2.632-.872-.38 3.147-2.83 2.625-3.737-2.258-3.896-2.045 4.242-4.042 1.818-.25-.294 1.532-2.485 1.482-2.92-.708-6.39-.69 4.692-1.4-1.693-.174-1.543 1.535-.592 1.917-1.824.077-.227.293-.47.23-.71-.313-1.057-2.962-2.793-2.85-3.85.027-.312.563-.284.852-.436.924-.464 4.59 3.977 5.874 1.09.095-.228-.256-.437-.38-.655-1.098-1.89-3.164 1.457-3.666-3.054-.032-.23-.278-.55-.087-.68.298-.192 5.79.724 5.372-.592-.252-.795-2.352-.998-2.615-1.78-.338-.987 1.017-2.535.8-3.557-.145-.647-2.56-1.822-1.23-2.805.293-.214.645.273.958.412.594.258 6.354-2.914 5.435-5.115-.07-.162-4.568.11-3.805-1.646.71-1.625 5.446.193 5.263-1.29-.164-1.373-3.55-.442-4.31-.895-2.623-1.594 2.063-.844 2.293-.948l.97-1.96c.638-1.295 2.86-1.258 2.62-3.3l-.75-1.3c1.532-1.935 3.127 1.737 3.193 1.708.394-.136.6-2.493.858-2.87.463-.682 1.813-.92 2.205-1.644.538-1.01-.933-3.03-.505-4.104.467-1.122 1.704-.867 1.535-2.256-.026-.234.073-.512-.078-.688-1.712-1.933-2.996-.482-1.97-3.938.073-.236-.04-.69.218-.713 1.145-.133.613 2.266.906 2.666.34.456 2.762-1.935 2.704-2.4-.156-1.27-2.545-.465-3.113-1.02-.564-.555-1.056-4.165.764-3.57 1.802.605-.45 2.465-.256 2.822.518.888 2.717-1.07 2.78-1.73.048-.573-2.053-4.06-1.168-4.716 2.087-1.58.82 1.65 1.417 1.915l1.852-1.143c1.473-.924 1.19.386 2.173-.026 2.444-1.04.58-4.96-.17-6.234 0 0-.086-.69-.12-1.03-.043-.346-.344-.752-.133-1.027.386-.524 2.397.06 2.92-.35.75-.58.504-3.257 1.328-3.64.74-.34 1.683.724 2.425.4.447-.19.285-4.35-.016-4.87-.46-.784-3.93-.797-3.766-1.627.16-.72 2.446-1.024 2.75-1.718.234-.533-1.193-4.044-1.68-3.98-1.42.175-.156 1.412-1.578 1.588-.01 0 .293-4.214 2.4-4.467 1.732-.208-.136 3.737 3.737 1.63 1.514-.824-3.478-1.82-2.347-4.58.827-2.007 2.985.798 4.066-.505.64-.79-1.402-1.13-.847-1.988.217-.336 3.656-1.89 3.21-2.49-1-1.35-6.228-.936-4.486-2.926.917-1.05 4.376-1.008 5.028-2.014.39-.604-.164-1.592.317-2.132.33-.383 2.04.125 2.306-.293 1.23-1.905-3.104-.938-1.598-3.282 1.065-1.655 5.234.587 2.483-1.94-.792-.725-.99-.917-1.78-1.635-5.83.736-11.655 1.458-17.49 2.164-.544.073-4.727.928-4.99.6"/><path fill="#FFF" d="M297.54 377.88l.358-3.67c-.962-.102-1.65-.294-2.065-.574-.415-.28-.705-.71-.87-1.295l-5.267-19.353-7.565.42-8.863 17.94c-.685 1.393-1.203 2.354-1.556 2.882-.352.526-.718.89-1.1 1.086-.383.196-1 .368-1.85.51l-.47 3.677 10.28-.57.414-3.672c-1.026.058-1.693.022-2.003-.105s-.475-.403-.498-.826c-.024-.424.493-1.692 1.55-3.81l7.854-.436c.51 1.595.788 2.747.827 3.46.025.457-.195.8-.66 1.025-.467.225-1.29.37-2.473.436l-.414 3.673 14.373-.8zm-17.826-11.104l3.344-7.466.072-.005 1.813 7.18-5.23.29zM326.478 376.276l.373-3.434c-.618-.026-1.12-.095-1.51-.207-.386-.11-.67-.26-.85-.442s-.39-.487-.632-.91l-3.74-6.582c1.988-.788 3.446-1.782 4.373-2.983.926-1.202 1.336-2.77 1.23-4.7-.085-1.507-.52-2.68-1.304-3.52-.784-.84-1.814-1.41-3.09-1.71-1.275-.297-2.726-.4-4.355-.31l-15.49.857-.433 3.673c1.44.03 2.186.448 2.23 1.256.03.532-.033 1.268-.187 2.21l-1.457 12.39c-.07.68-.325 1.21-.765 1.584-.44.377-1.182.618-2.23.724l-.432 3.675 13.557-.752.43-3.672c-.778-.09-1.354-.267-1.726-.53-.372-.265-.57-.625-.595-1.083-.02-.35.018-.86.115-1.533l.464-4.075 1.34-.074 5.022 10.688 9.666-.538zM311.34 357.96c.093-.706.226-1.222.395-1.547.17-.324.4-.545.69-.664.29-.12.712-.195 1.267-.226 1.026-.057 1.87.093 2.53.45.662.356 1.022 1.07 1.082 2.145.045.81-.122 1.514-.5 2.115-.378.604-.903 1.067-1.575 1.395-.673.328-1.418.515-2.24.56l-2.153.12.503-4.35z"/></g><g><path fill="#D9B67B" d="M451.12 584.187c-.214.04-.504-.09-.633.09-.134.187.315.61.104.683-2.248.83-4.503-5.634-5.867-5.45-1.483.208-.216 1.42-1.7 1.617l-.81-1.277c-.513-.167-4.345 1.088-4.494-.09-.098-.67 2.462-1.026 1.792-.932-1.616.215-2.743-.328-4.24-.124-.57.065-3.142.808-3.435.1-.194-.457.428-2.323.317-2.467-1.26-1.655-5.11-.024-6.542-1.223-1.4-1.184-1.46-3.823-2.453-4.208-.22-.085-.862-.116-.665-.257.272-.202.675.002 1.016.005.68.008 1.36.008 2.044.01.344.003.86.308 1.014.003.86-1.668-2.082-2.604-2.55-3-.22-.195.578.08.872.112.29.048.577.093.858.12.288.046.603 0 .863.12 1.36.62 3.38.683 5.015.97.08.01-.066-.176-.137-.218-.42-.283-.683-.44-.87-.535-.298-.02-.542-.285 0 0 .232.014.468-.118.384-.79-.18-1.352-2.846 2.607-3.396-1.637-.12-.945 2.75-.888 3.04-1.1.436-.325.98-3.616 1.422-3.678 1.633-.21.673 3.07 3.4 1.645.374-.2 1.078.217 1.243-.164.33-.747-1.406-1.086-1.516-1.89-.08-.625 1.546-1.134 1.068-1.533-.315-.27-.924.43-1.242.158-.554-.45.896-1.67.35-2.13-.512-.43-1.117 1.025-1.784.933l-.795-1.282c.145-1.65 1.44.442 2.48-.336.198-.136-.047-.452-.08-.676-.272-2.015-2.623.665-3.208-.27-.672-1.064 1.96-2.74 1.955-2.817-.084-.642-1.202-.417-1.782-.694-.7-.33-1.33-1.417-2.048-1.13-.662.29.008 1.523-.36 2.144-.437.76-1.892.936-2.31 1.703-1.38 2.526 1.116 8.044-4.776 4.803-1.445-.794-.282-1.858-.57-2.01-1.445-.797-5.35 1.748-5.34-2.103.003-1.987 7.507-.74 6.866-5.77-.244-1.872-2.583 1.737-2.94 1.783-1.48.19-.167-2.347-.35-2.744-1.022-2.283-.894 3.408-1.434 3.67-1.654.806-2.217-3.382-4.08-2.26-.866.513-2.638 4.42-4.39 5.43-3.015 1.744-19.002 1.35-15.784-5.016.365-.71 6.85-8.48 7.177-8.533 1.873-.303 6.436.364 7.79 1.813l.874 1.98c.31.213.738.014 1.11.026.738.03 1.48.05 2.22.075.37.014.75-.096 1.107.023.853.304 1.562 1.202 2.66 1.062.66-.087 1.192-1.258 1.775-.932.383.215-.498 3.396 4.706 2.182.282-.08 3.16-1.202 1.29.17-.192.143-.802.34-.584.43 1.265.488 2.356-.928 3.46-1.926-1.3-.992-1.306 1.106-2.48-.294-2.652-3.185-2.43-6.99-5.128-10.48-1.266-1.636-3.546-2.165-4.866-3.556-.63-.686-.536-1.967-.96-2.665-.007 0-1.402-1.205-1.414-1.205-.722-2.457 4.85-13.77 2.58-14.312-3.23-.747-12.173 1.565-15.863 2.018-12.615 1.568-25.235 3.057-37.868 4.45-.407.06-.814.098-1.223.147-3.37.366-11.743 2.347-14.667 1.58-.305-.075-.714-.31-.685-.626.086-.687 2.45-1.474 2.25-2.32-.226-1.015-2.41-1.52-2.75-2.497-.26-.778 1.13-2.09.95-2.888-.163-.68-1.78-1.72-2.14-2.57-.034-.065 4.338-.536 4.774-1.897.462-1.424-2.884-2.41-2.347-4.628.405-1.663 3.01 2.425 3.07-.333.022-1.456-2.57-2.876-1.73-4.692.273-.604 3.917-1.874 2.764-3.092-.49-.527-3.46 1.18-3.207-1.062.212-1.903 2.874.226 3.672-.39.812-.618.168-3.42.78-4.272.37-.514 2.788-.783 2.467-1.9-.42-1.465-2.4 1.54-1.884-1.304.065-.354.063-.736.188-1.07 1.026-2.57 2.693.315 3.016-.683.488-1.54 1.336-4.108 2.483-5.515.8-1.007 2.763-1.38 3.42-2.483.674-1.142-3.756-1.83-3.345-2.423.257-.36 2.672.56 3.118.347.53-.252 2.53-3.656 1.964-4.42-.858-1.16-4.688 3.29-5.462.613-1.077-3.7 5.942-3.35 6.286-4.205l-.23-2.073c.265-.435 3.037-.34 2.265-1.654-.42-.73-2.632-.39-3.18-1.04-.62-.732.555-3.353.222-3.54-1.262-.655-3.517 1.134-4.914-.14-2.93-2.687 3.368-1.717 3.473-1.79.865-.638-2.713-2.167-2.726-2.493-.023-.806 2.667-1.703 2.113-3.043-1.025-2.483-3.994 3.66-5.35 1.304-1.706-2.992 3.354-2.728 3.082-5.257-.182-1.52-3.938-.654-4.44-1.605-.45-.835 4.563-7.568 2.098-8.64-2.732-1.197-.113 4.495-3.91 3.238-1.776-.597.37-2.94.822-3.604-34.406 3.34-68.875 6.32-103.337 8.912.735 9.972 1.47 19.933 2.2 29.906.17 2.407-.056 10.732.913 12.44.977 1.717 4.44 2.962 5.86 4.434 1.847 1.934 3.216 4.85 3.636 7.394.205 1.244-.708 3.002-.293 4.2.54 1.545 2.915 1.686 3.7 2.72.24.315.354.753.294 1.14-.04.312-.578.437-.562.74.12 1.43 3.967 3.216 4.074 4.56.058.795-1.23 1.37-1.065 2.17.122.616 2.224 1.34 2.61 1.87.504.658.26 2.16.85 2.72.31.302 2.368.1 2.52.49.35.897-1.134 2.59-.955 3.556.116.698 2.168 1.933 2.068 2.614l-1.795.833c-.97 1.724 1.413 2.107 1.454 2.67 0 0-1.073 2.16-1.077 2.16-.515 2.637.18 5.875-1.202 8.448-.465.86-1.975 1.35-2.32 2.267l.16 2.068c-.303.834-1.817.812-1.707 2.217.09 1.222 1.806 2.668 1.574 4.03-.333 1.86-2.27 1.865-1.55 4.288 1.892 6.437 3.81 8.93-.084 15.25l-.078.11c.798.685 1.14 2.11.97 3.28-.06.39-.74 2.645-1.046 2.853-1.614 1.052-5.158.186-2.877 3.68.145.23 1.93 1.905 2.035 1.92 1.09.118 3.118-2.702 4.19-3.094 3.657-1.354 14.16-2.28 18.184-2.185 7.438.168 14.257 4.3 21.414 5.718 3.045.59 6.36.556 9.454.816 1.664.146 4.31.884 5.917.5 1.298-.317 2.32-1.964 3.58-2.425 1.203-.45 2.86.124 4.026-.41 3.03-1.382-.173-.205.242-1.402.042-.11 1.848-.087 1.89-.198.456-1.324-3.105.336-3.15.323-.205-.09-1.54-2.392-1.517-2.627.017-.62 1.586-1.072 1.122-1.49-.413-.365-2.55 1.217-3.074.998-.11-.048-.94-2.65-.898-2.685.292-.316.84-.085 1.254-.126.42-.048.872-.29 1.26-.12.42.172-.323 1.413.13 1.365.227-.02 5.136-2.982 5.374-3.306.276-.376-.407-1.01-.136-1.382.47-.617 1.546.646 1.952.5.99-.38 1.29-.82 2.657-.97.342-.025.743-.287 1.037-.105 2.268 1.383-2.44.948-.9 3.56.23.404-.208 1.074.134 1.376.4.35 6.688-2.728 8.644-2.28 1.67.376-.163 2.854.082 3.797.612 2.327 2.51-.178 3.565.665.858.696.42 4.106.426 4.116.313.355 3.415-1.05 3.97-.98 1.51.198 3.595 2.928 5.694 2.02.74-.33.787-6.524 2.12-5.35 1.91 1.67-2.168 3.278-.79 5.895 1.35 2.56 4.848 2.303 6.197 4.165.422.582.81 4.633-.817 4.247-1.19-.278-.48-2.886-1.008-3.353-.36-.314-.738 1-1.183.827l-1.032-1.728c-1.817-1.473-1.756 1.088-2.79 1.796-.36.26-1.032-.55-1.3-.2-.197.27.344.58.527.867 1.148 1.94 9.192 4.588 10.875 4.11.722-.208.273-1.423 1.753-1.584.21-.028.61-.282.63-.073.063.62-1.362.938-1.113 1.514.07.16 2.286-.355 2.525-.292.908.25 1.84 1.7 2.758 1.77 2.625.19.824-1.913 1.027-2.2.288-.39.87.486 1.346.537.63.06 1.336-.532 1.9-.217.636.357.066 1.377-.474 1.44-.21.023-.8-.063-.64.073.334.287 3.763.253 3.873.243.792-.09.617-1.822 1.026-2.195.457-.434 1.13 1.76 1.418 1.214.51-.962-1.397-3.557.154-4.177.412-.172.614-.183.756-.148.052-.228.154-.52.39-1.035.84-1.8-1.92-.857-.243-2.052.194-.136.36-.45.585-.413 1.515.215 2.123 1.14 3.322.995.82-.103 1.213-2.923 1.564-2.966 2.168-.267 1.417 2.52 1.85 3.014.348.39.684-.852 1.152-1.07 1.344-.6 2.263 2.273 3.236 2.148.505-.058-.026-1.383.468-1.436.73-.095 1.018 1.54.884 1.97-.593 1.827.09 2 1.12 4.022.764 1.483-.658-.178-.467 1.44.117.92 1.663-.8 2.406-1.334.005-.006 1.764-1.252 1.777-1.255.7-.617 1.75-1.594 2.26-2.37 1.502-2.29-1.955-.604-1.672-3.257.07-.722 1.17-2.064 1.72-1.604.157.14.42-.052.63-.084.052-.006.162.037.157-.014-.14-1.122-1.52-6.704-1.63-6.74-1.43-.51-3.07.655-4.488-.134-.245-.143-.545-1.15-.788-1.29-.08-.044-.12-.05-.188-.097-.36.437-1.407-.715 0 0 .083-.1.14-.263.104-.59-.01-.04-.543-.193-.17-1.373.052-.16 2.588.71 8.675 3.078.69.28 1.787-.517 2.51-.31l1.422 1.2c1.357-.168-.06-1.813.367-2.13.255-.173 2.037.874 2.06 1.127l-1.167.85c-.388 2.257 2.342.252 2.606.358l-.455 1.446c.104.178.428-.155.625-.08.29.115.608.32.71.605.382 1.03-2.702 1.378-2.238 2.373l2.09-.27c.425-.054 2.146.474 2.394.386.002-.01 1.705-1.61 1.71-1.61 2.153-1.29.607 2.526 1.702 3.247.65.43 2.46.112 3.242.265l1.338.52c.19-.136-.048-.453-.08-.684-.027-.228-.225-.5-.09-.682.122-.176.423-.054.624-.084.213-.02.604-.295.627-.085.042.31-.542.446-.54.767.05 1.885 3.584 2.977 3.603 2.994.413.505-.09 3.185 1.625 2.56 2.55-.92.674-2.183 1.123-3.622.07-.238-.023-.8.23-.726.584.167.173 1.364.652 1.763 2.64 2.185-.254 1.722-1.294 3.184l.187 1.36c-.383 1.51-1.51 2.9-1.984 4.432-.21.656 1.353-.432 1.8-.935.27-.297.335-.736.51-1.104 1.015-2.277 1.78-2.672 3.28-4.265.345-.363-.048-1.488.446-1.45.814.064 2.952 5.33 4.43 4.262.58-.43-.813-1.247-.902-1.962-.075-.55.998-2.92 1.518-2.992.317-.036.425.64.727.588.498-.06-.967-.79-.817-1.27.262-.838 1.94 1.16 2.073 1.103l.984-2.217c-.533-1.41-2.906.518-3.145.433-.218-.078-.066-.455-.098-.68-.092-.72 6.95-3.742 1.523-2.996"/><path fill="#FFF" d="M304.362 506.37l3.705-9.653-3.333-1.415c-.597 1.3-1.23 2.39-1.9 3.276-.67.888-1.4 1.63-2.184 2.224-.785.596-1.613 1.044-2.482 1.347-.87.302-1.768.478-2.695.53-.644.035-1.105-.02-1.386-.166s-.43-.39-.45-.737c-.018-.334.006-.775.076-1.324l1.635-13.13c.12-.95.393-1.63.816-2.046.423-.414 1.178-.675 2.263-.785l.442-3.763-13.628.754-.443 3.763c1.476.03 2.238.46 2.284 1.287.03.544-.034 1.3-.19 2.262l-1.492 12.694c-.073.698-.334 1.24-.784 1.624-.45.385-1.21.63-2.283.74l-.443 3.764 22.47-1.247zM336.066 504.614l.37-3.76c-.987-.106-1.692-.303-2.117-.59-.425-.286-.724-.728-.892-1.326l-5.396-19.827-7.75.43-9.08 18.38c-.703 1.427-1.234 2.412-1.595 2.952-.36.54-.737.912-1.128 1.114-.393.2-1.024.375-1.897.522l-.48 3.766 10.532-.583.424-3.762c-1.052.06-1.736.022-2.053-.11s-.488-.412-.51-.845c-.025-.433.504-1.733 1.586-3.9l8.047-.447c.525 1.633.807 2.814.848 3.543.026.47-.2.82-.676 1.05-.477.23-1.32.38-2.533.448l-.425 3.762 14.72-.816zm-18.26-11.376l3.425-7.648.075-.005 1.86 7.356-5.36.298z"/></g></svg>