<svg xmlns="http://www.w3.org/2000/svg" width="655" height="750" viewBox="138 0 655 750"><path fill="#CBB082" d="M138.444 12.6c-1.666 1.666 1.867 3.906 2.268 4.87.15.365.027.787.05 1.178.017.396.032.79.045 1.18.02.393.22.824.057 1.18-.21.47-2.303.45-1.485 1.482.25.328.9.282 1.05.666.115.27-.6.457-.48.735.094.24 3.622.17 3.83 4.8.065 1.39-1.967 2.51-1.914 3.634.026.795 1.275 2.45.673 3.52-.39.668-1.976 2.63-1.92 3.624.004.29.6.4.55.684l-1.53.778c-.37.545-1.224 4.45-.842 5 .413.59 3.81 2.053 3.77 2.678-.017.42-1.03.336-1.015.756.028.416.82.333 1.08.66.844 1.048 1.37 2.85 1.752 4.18 0 0 2.82.884 2.705 2.003-.125 1.16-1.127 3.175-.853 4.29.323 1.3 2.38 2.144 2.777 3.42.39 1.22-.98 3.015-.33 4.27.574 1.09 2.158 1.637 2.76 2.71.45.788.166 2.046.664 2.803.696 1.076 2.744 1.533 3.29 2.684.468.97-.183 2.51.18 3.534.507 1.47 2.484 2.606 2.85 4.114.417 1.784-.42 3.516-.824 5-.52 1.955.97 2.73 1.274 4.194.143.708-.902 1.582-.435 2.142.646.78 2.067-.955 2.622-.838 1.43.303-.16 2.187.14 2.82.315.695 2.433.59 2.736 1.283.55 1.32-1.37 3.687-.82 5.003.49 1.16 2.375-.04 2.24 2.006-.05.855-1.87 1.973-1.414 3.62.45 1.68 2.07-.19 2.71.563.292.36-1 4.255-.82 5.006.66 2.685 2.38 4.528 2.55 7.658.102 2.103-1.38 4.59-1.294 6.44.076 1.275 2.793 2.486 3.536 5.48 32.2-.862 64.22-3.265 96.263-6.652 8.57-.912 17.038-2.032 25.545-3.486 2.446-.41 8.314-1.48 8.35-1.43 1.81 2.812 3.47 4.692 6.29 6.45 1.543.967 1.696 1.98 3.544 2.702.314.126.953.373.953.373 5.16-.553-.745-6.918-.287-7.79 1-1.947 7.836-4.303 8.13-5.15.8-2.427.666-4.94 1.355-7.267.636-2.124 3.26-3.93 3.65-6.104 1.287-7.366-9.583-7.593-4.805-18.68.63-1.453 9.322-1.87 10.966-2.68 1.335-.654 2.08-2.49 3.364-3.243 1.802-1.046 5.492-1.455 6.53-3.63.937-1.95-.238-5.073.736-7.217.56-1.233 2.26-1.956 2.814-3.2.742-1.677 1.338-6.152 1.146-7.983-.7-6.53-6.228-5.525-9.653-9.527-1.286-1.51-.643-3.54-2.524-4.69-1.46-.895-7.01-3.25-6.014-4.995-1.29-11.033-12.087-3.78-14.69-9.01-.73-1.445-.4-3.4-1.08-4.87-.35-.76-1.396-1.196-1.786-1.945-1.07-2.044-2.27-5.97-2.48-8.272-.23-2.44 2.873-5.21 2.303-7.39-.64-2.45-2.7-1.72-3.98-3.12-1.288-1.41-1.14-5.592-1.14-5.592l-1.25.142c-1.67.182-3.326.36-4.99.54-3.74.4-7.485.793-11.23 1.173-12.09 1.248-24.195 2.396-36.3 3.462-35.54 3.117-71.15 5.463-106.79 7.057-.85.04-4.587-.33-5.136.222"/><path fill="#FFF" d="M231.666 86.575l.422-3.59c-.762-.087-1.324-.26-1.688-.52-.363-.256-.557-.61-.582-1.058-.014-.248.018-.746.095-1.497l1.342-11.96c.093-.88.347-1.526.762-1.933s1.14-.663 2.175-.768l.404-3.59-13 .72-.42 3.59c1.408.02 2.134.44 2.18 1.23.024.46-.03 1.17-.166 2.15l-1.44 12.11c-.07.674-.318 1.193-.748 1.56-.43.36-1.156.59-2.178.692l-.422 3.59 13.264-.736zm30.047-1.665l.35-3.586c-.938-.1-1.61-.29-2.017-.562-.405-.273-.688-.695-.85-1.266l-5.147-18.912-7.4.41-8.66 17.53c-.67 1.364-1.178 2.302-1.52 2.818s-.705.87-1.078 1.062c-.375.193-.978.36-1.81.5l-.457 3.592 10.045-.557.405-3.59c-1.003.05-1.656.02-1.958-.11-.305-.128-.467-.397-.49-.81-.02-.414.482-1.653 1.515-3.72l7.674-.425c.5 1.56.77 2.683.81 3.38.022.447-.193.78-.647 1.002-.458.22-1.26.36-2.42.425l-.403 3.59 14.04-.78zm-17.418-10.85l3.268-7.297.07-.004 1.772 7.01-5.11.28z"/><path fill="#E2BE7D" d="M449.715 181.22c-.346-.89-1.314-1.684-1.545-2.597-.097-.388 0-.793 0-1.182.01-.4.01-.79.01-1.18 0-.39.128-.81 0-1.18-.84-2.25-4.188-4.23-5.516-6.25-1.284-1.956 2.026-2.46 2.205-3.888.16-1.197-2.4-2.687-2.3-3.9.1-1.326 2.66-1.686 2.96-2.59.743-2.193-1.996-13.084-2.45-16.003-4.21-27.55-8.43-55.098-12.65-82.645l.024-.074c-4.57-2.733-4.34-9.555-7.173-13.8-.517-.77-1.765-.78-2.454-1.312-1.663-1.266-3.628-5.36-3.997-7.333-.47-2.5.065-4.79-.19-7.347-.03-.252-.09-.514-.126-.768h-.018c-29.61 3.994-59.275 7.705-88.947 11.142-1.006 1.735 4.585 4.07 6.056 4.966 1.894 1.148 1.247 3.165 2.546 4.667 3.45 3.977 9.02 2.98 9.72 9.47.196 1.815-.4 6.267-1.15 7.933-.556 1.233-2.27 1.95-2.836 3.183-.98 2.13.202 5.234-.74 7.176-1.047 2.163-4.763 2.568-6.58 3.61-1.296.746-2.045 2.574-3.388 3.224-1.66.807-10.42 1.22-11.05 2.664-4.818 11.02 6.134 11.246 4.84 18.566-.39 2.163-3.04 3.956-3.676 6.07-.694 2.31-.56 4.812-1.367 7.222-.296.845-7.187 3.185-8.193 5.12-.46.87 5.49 7.195.29 7.744 0 0-.806.44-1.006.812-1.066 1.94-.67 5.02-.617 7.122.09 2.854.393 5.682 1.727 8.292.45.89 1.65 1.686 1.94 2.62.27.85-.506 2.01-.24 2.853.3.955 1.517 1.707 1.944 2.615.473.993.31 2.53.927 3.437 2.105 3.074 7.346 4.646 10.2 6.657 1.09.77 1.55 2.4 2.584 3.247 3.12 2.53 8.605 3.29 10.35 7.31.648 1.478.408 3.37 1.126 4.81.26.535 1.08.705 1.272 1.275.703 2.176-.49 7.23 3.84 8.72 2.49.87 3.83-3.14 5.682-4.19.956-.54 9.785 3.28 10.686 4.367 1.2 1.457-1.54 3.76-1.63 5.138-.06 1.113 1.06 2.297 1 3.413-.305 5.088-7.97 12.117-4.1 17.424 1.15 1.577 3.527 3.963 5.178 5.017.84.535 2.205.44 2.987 1.05.63.493.78 1.427 1.387 1.944 1.252 1.095 5.21 1.12 5.98 2.086.744.93-1.08 1.75.353 2.775 1.914 1.375 1.782-1.19 3.286-1.115.61.02.795.944 1.313 1.244.85.503 2.225.437 3 1.03 1.206.932 1.557 3 2.805 3.875 1.143.82 3.85.48 4.786 1.5.957 1.057.17 4.22.744 5.543.8 1.91 3.462 3.17 4.137 5.11 1.05 2.996-2.435 3.397-2.002 6.61l1.798.47.28 2.074c.664 1.474 2.728 2.32 3.4 3.792.293.636-.14 1.51.28 2.07.215.304 3.358 1.705 3.7 1.624 1.96-.5-2.81-2.377-1.04-3.39 1.647-.927 2.594 3.25 3.987 3.706 1.355.447 1.72-.836 2.96.31 0 0-.45-.405-.67-.613-1.265-1.16-1.387-1.62-1.618-3.306-.05-.38 3.75-6.624 4.26-6.925 4.97-2.855 13.62 4.474 19.11 3.695.342-.05.29-.632.438-.94 3.14-6.72-5.643-5.15-2.364-12.194.78-1.673 2.542-.483 3.866-1.27.007 0 .927-1.54.927-1.54 1.93-1.605 4.966-1.413 7.145-2.455.403-.188.956-.42 1.025-.86.51-2.997-3.783-3.38-3.76-5.81.027-2.384 2.65-5.32 3.466-7.575 0 0-3.145-2.21-2.435-3.414l1.806-.74c.01-.015-1.52-6.05-1.507-6.145.113-.682 1.584-.52 1.723-1.2.44-2.157-1.667.68-.715-1.603.344-.82 1.884-1.13 2.277-1.933.097-.21.047-.51-.11-.686-1.707-2.053-2.548-1.75-1.297-4.765.827-2 .69.34 1.676-.25.436-.26-.154-1.386.334-1.463.314-.043.454.41.676.608.222.208.42.783.672.61.34-.236.13-.806.19-1.205.36-2.25 1.07-1.85 1.95-3.37.458-.784-.14-2.11.125-2.855.532-1.49 2.45-1.81 3.01-2.58.293-.394-1.11-2.18-.982-2.686.164-.706 1.244-.94 1.45-1.635l-.328-2.08c.81-1.93 4.29-1.71 2.34-6.743"/><path fill="#FFF" d="M371.467 142.628l.442-3.76c-.8-.093-1.39-.274-1.77-.545-.38-.27-.59-.64-.61-1.11-.02-.258.02-.782.1-1.566l1.4-12.533c.1-.922.36-1.597.8-2.024.432-.426 1.192-.695 2.28-.804l.42-3.76-13.62.754-.44 3.76c1.477.03 2.24.46 2.283 1.287.026.48-.032 1.234-.173 2.26l-1.51 12.687c-.07.71-.33 1.254-.78 1.632-.45.378-1.21.622-2.282.73l-.44 3.76 13.894-.768zm25.107-1.39l3.703-9.65-3.33-1.413c-.598 1.297-1.232 2.388-1.9 3.274s-1.397 1.62-2.183 2.22c-.785.59-1.61 1.04-2.48 1.34-.87.3-1.768.48-2.694.53-.642.034-1.104-.02-1.384-.166-.28-.146-.43-.39-.45-.737-.02-.333.007-.775.076-1.324l1.633-13.12c.12-.95.393-1.63.816-2.045.43-.414 1.18-.676 2.27-.786l.44-3.76-13.62.753-.44 3.76c1.476.03 2.237.46 2.28 1.285.03.547-.03 1.3-.19 2.26l-1.49 12.69c-.072.697-.333 1.238-.783 1.623s-1.21.63-2.28.74l-.443 3.76 22.458-1.244z"/><path fill="#D8AB5E" d="M407.203 275.013c1.266-1.342-2.362-1.1-2.077-2.542.552-2.88 2.17-1.05 1.516-5.87-1.233-1.16-1.596.13-2.947-.314-1.387-.457-2.33-4.664-3.97-3.726-1.762 1.016 2.987 2.906 1.036 3.41-.34.082-3.47-1.33-3.68-1.635-.413-.567.017-1.445-.28-2.09-.67-1.48-2.72-2.33-3.382-3.814l-.277-2.083-1.79-.475c-.432-3.232 3.034-3.64 1.996-6.65-.672-1.955-3.323-3.224-4.12-5.142-.57-1.332.213-4.514-.74-5.58-.933-1.03-3.626-.685-4.764-1.51-1.24-.883-1.59-2.96-2.792-3.903-.777-.594-2.14-.525-2.987-1.036-.517-.3-.696-1.23-1.31-1.25-1.495-.077-1.365 2.505-3.27 1.12-1.426-1.03.39-1.854-.354-2.795-.765-.97-4.703-1-5.95-2.094-.604-.53-.75-1.466-1.38-1.965-.78-.61-2.138-.515-2.976-1.053-1.642-1.06-4.004-3.463-5.153-5.05-3.853-5.34 3.78-12.42 4.08-17.535.066-1.122-1.048-2.316-.987-3.437.08-1.383 2.815-3.706 1.62-5.17-.898-1.094-9.69-4.938-10.643-4.397-1.84 1.06-3.176 5.098-5.656 4.22-4.313-1.5-3.123-6.585-3.824-8.78-.19-.574-1.01-.742-1.268-1.28-.717-1.447-.48-3.354-1.12-4.84-1.74-4.043-7.2-4.812-10.305-7.36-1.034-.847-1.49-2.49-2.576-3.267-2.836-2.026-8.057-3.61-10.15-6.704-.618-.914-.454-2.46-.923-3.46-.425-.914-1.64-1.67-1.935-2.628-.266-.852.507-2.02.243-2.87-.29-.944-1.483-1.743-1.93-2.64-1.33-2.63-1.63-5.47-1.723-8.346-.05-2.122-.447-5.218.615-7.173.2-.38 1.01-.82 1.01-.82s-.643-.244-.957-.37c-1.852-.725-2.01-1.74-3.555-2.704-2.826-1.766-4.494-3.644-6.31-6.455-.033-.05-5.92 1.02-8.374 1.428-8.53 1.453-17.024 2.576-25.62 3.49-32.144 3.39-64.263 5.793-96.564 6.655.2 3.816 2.12 2.894 3.59 6.186.396.9.813 5.563.854 5.62.064.122 5.93 2.915 6.175 3.192l-.47 1.45c.407 1.3 2.53 2.07 2.923 3.37.217.704-.802 3.034-.34 3.563.26.297 2.33.05 3.36 1.217.196.23.583.67.583.67s4.597 3.85 7.41 4.517c1.725.416 2.656-3.068 4.288-1.678l.13 2.12c.36.647 1.88.637 2.286 1.266.205.34.16.78.25 1.168.166.775.643 1.547.514 2.328-.28 1.62-2.775-.1-3.285.204-.63.38-.01 1.55-.414 2.15-.29.415-1.328.398-1.61.813-.64.936-.196 2.595-.874 3.597-.253.356-.888.37-1.06.766-1.076 2.44 6.463 6.31 7.09 7.338l-.46 1.453c.157 2.503 1.877 1.863 2.98 3.346.492.65.156 2.22.736 2.78 1.882 1.807 5.37.57 7.327 1.636.2.106-.34.264-.52.393-1.11.81-.267 4.05-.164 5.394.4 5.417.79 10.84 1.193 16.26 1.672 22.884 3.362 45.78 5.044 68.657.46 7.015.94 14.022 1.414 21.03 37.087-2.49 74.12-5.71 111.077-9.674 10.42-1.114 20.84-2.284 31.26-3.523 1.838-.224 10.01-1.885 11.233-1.36.965.407 1.514 2.47 2.157 3.274 2.333 2.906 3.54 5.257.46 8.428-.793.815-2.617.92-3.287 1.82-.43.584.074 1.547-.314 2.15l-1.653.907c-.336.45-2.44 5.633-2.217 5.93.268.33 4.458-.534 5.018-.608 5.847-.715 11.685-1.45 17.52-2.194 0 0 .233-.683.345-1.03.39-1.22.642-3.072 1.34-4.14.255-.39 2.114-1.26 2.13-1.687.01-1.014-2.608-2.017-2.74-3.04-.175-1.387 4.005-2.23 3.736-2.746-.466-.883-2.6-.87-3.145-1.72-1.17-1.78 3.085-1.332 3.17-2.533.15-2.004-2.864-5.692-2.15-7.516.085-.208.35-.28.52-.42 3.77-3.018-.67 7.097 5.003 2.536 0 0 .54-2.88.59-4.325.016-.42-.598-2.05.29-2.164 1.233-.165 2.684 2.477 4.37 2.245 1.147-.15 2.402-3.643 2.307-4.56-.11-.916-1.35-1.72-1.53-2.63-.39-1.99 1.433-1 2.09-1.71"/><path fill="#FFF" d="M270.914 246.445l8.01-20.483.073-.005-2.057 14.047c-.097.676-.22 1.164-.367 1.465-.148.3-.385.52-.712.67-.32.153-.84.297-1.55.434l-.51 3.704 12.58-.698.36-3.695c-.67-.07-1.162-.188-1.47-.348-.31-.16-.47-.417-.49-.77-.016-.29.026-.854.126-1.69l1.733-13.314c.072-.65.286-1.16.636-1.534.35-.375 1.012-.588 1.985-.64l.417-3.7-12.51.693-4.308 10.7-.074.004-.96-10.403-12.8.71-.507 3.7c.787.125 1.335.284 1.644.474.31.19.477.494.5.907.02.35-.03.852-.153 1.505l-1.777 12.533c-.145 1.092-.404 1.81-.776 2.144-.373.34-1.047.583-2.027.734l-.49 3.7 8.95-.493.51-3.7c-.76-.08-1.31-.21-1.64-.385-.334-.176-.513-.496-.54-.957-.02-.388.035-1.026.17-1.91l1.73-13.316h.073l2.47 20.12 3.757-.208zm29.756-6.667c-.674-.87-1.054-2.087-1.14-3.654-.118-2.124.058-4.208.53-6.25.47-2.04 1.245-3.74 2.326-5.097 1.08-1.356 2.422-2.08 4.023-2.168 1.14-.07 2.02.27 2.64 1.02.624.74.99 2.03 1.09 3.85.072 1.33.01 2.77-.19 4.3s-.566 2.99-1.09 4.36c-.528 1.372-1.235 2.504-2.12 3.393-.89.89-1.97 1.37-3.244 1.44-1.213.07-2.157-.333-2.833-1.203zm9.186 3.723c2.11-.97 3.88-2.22 5.312-3.76 1.433-1.53 2.492-3.25 3.18-5.15.687-1.89.977-3.81.87-5.76-.077-1.36-.394-2.68-.952-3.95-.558-1.27-1.36-2.4-2.41-3.39-1.048-.99-2.38-1.763-3.995-2.32s-3.48-.776-5.61-.66c-2.1.118-4.13.598-6.08 1.444-1.95.847-3.68 2.006-5.19 3.48-1.51 1.47-2.67 3.203-3.48 5.19-.81 1.99-1.15 4.115-1.02 6.375.086 1.555.46 2.99 1.125 4.307.664 1.32 1.557 2.43 2.68 3.337 1.123.904 2.404 1.58 3.84 2.015 1.44.437 2.97.612 4.6.522 2.65-.147 5.028-.706 7.138-1.675z"/><path fill="#AE8F5B" d="M439.393 238.447c-.066.44-.623.676-1.023.863-2.173 1.047-5.203.854-7.13 2.47 0 0-.917 1.546-.923 1.546-1.32.788-3.083-.406-3.856 1.274-3.27 7.082 5.5 5.504 2.36 12.26-.14.306-.09.895-.43.946-5.473.783-14.102-6.58-19.06-3.715-.51.31-4.297 6.58-4.25 6.97.23 1.694.35 2.16 1.61 3.325.22.21.67.62.67.62.65 4.813-.966 2.986-1.52 5.868-.284 1.44 3.35 1.2 2.08 2.54-.655.71-2.483-.275-2.09 1.71.18.905 1.42 1.71 1.53 2.62.095.92-1.16 4.41-2.314 4.558-1.688.234-3.142-2.41-4.38-2.24-.887.113-.274 1.744-.287 2.16-.05 1.446-.593 4.322-.593 4.322 11.537-1.702 23.063-3.46 34.587-5.3 1.806-.285 11.447-1.21 12.33-2 1.98-1.78-2.512-6.275-1.716-7.544.265-.41 4.403-.24 5.02-.273 3.055-.174 1.978.797 3.297 1.155 2.276.615 7.224-1.35 9.585-1.79 4.863-.916 30.19-6.33 33.07-5.742.31.068.4.653.69.604 0 0 1.48-1.67 1.485-1.67 2.495-1.23 19.37-2.134 23.412-2.61 8.045-.915 15.56-2.775 23.474-4.273 8.714-1.65 17.647-2.476 26.404-3.917 5.59-.923 11.18-1.824 16.79-2.65 1.954-.29 4.934-.19 6.567-1.273.33-.224.976-.65.976-.65s.476-.574.706-.855c.99-1.205 2.44-2.194 3.82-2.94 2.67-1.44 10.43-4.32 12.255-6.153.895-.885.39-3.568 1.378-4.595 1.43-1.49 5.25-1.433 6.31-3.506.18-.35-.04-.78-.06-1.18-.016-.396-.042-.794-.07-1.19-.012-.39-.19-.81-.05-1.18.56-1.5 3.36-2.206 3.88-3.72.436-1.216-1.265-2.29-.185-3.55 2.718-3.147 7.05-4.965 9.963-7.943 4.05-4.124 7.36-9.396 10.89-13.966-1.183-.93-3.84 1.21-5.868-.115-.393-.25.017-1.022-.317-1.363-1.426-1.486-4.32-1.03-5.76-2.313-.883-.778-1.013-2.395-1.888-3.184-.8-.732-2.48-.652-3.23-1.44-.762-.804-.57-2.5-1.32-3.313-.45-.49-2.192-.31-2.52-.88-1.702-2.986 1.39-.574-2.57-3.75-2.674-2.153-4.924-4.59-4.04-7.765 0-.003.955-.926.955-.926.307-2.233-1.447-3.08-2.167-4.57-.12-.25.024-.55.03-.818.01-.273.027-.55.035-.822.02-.18.024-.538.024-.538-3.82-4.477-7.164-3.067-9.735-5.093-1.423-1.126-1.523-5.85-3.146-6.53-.825-.344-6.45 4.49-6.917 5.076 0 .005-.654 2.297-.654 2.3-.356.37-2.35.496-2.878.607-.262.052-1.85 1.123-1.912 1.123-.87-.05-1.78-1.386-2.626-1.613-.373-.1-.763 0-1.152 0-.38 0-.762 0-1.144-.004-.38 0-.783.12-1.14 0-.567-.176-.784-1.107-1.392-1.144-3.815-.267-3.868 5.797-8.34 3.868-1.48-.64-2.824-3.34-4.283-4.165-3.13-1.754-8.197 2.542-11.373.124-1.94-1.472-3.014-5.24-4.8-6.95-.868-.83-2.7-.733-3.69-1.435-.53-.38-1.563-2.36-2.18-2.447-1.25-.15-3.25 2.74-4.514 3.033-1.715.395-3.49-2.202-4.91-1.93-1.145.222-2.32 2.6-2.32 2.6-4.2 3.93 2.23 2.342.094 6.437-.017.037-.854 1.25-.28 1.488.65.25 2.6-1.26 2.877.167 0 .01-.696 2.28-.696 2.29.043.727 1.29 1.317.95 1.967l-1.786-.37c-1.1.1-3.313.946-4.256 1.516-1.62.993-3.985 5.16-5.814 5.39-.73.086-4.56-4.17-8.64-.56-1.68 1.483 2.52 6.37 2.09 8.21-.34 1.39-4.87 3.77-5.448 4.563-1.267 1.75-.115 4.796-1.636 6.73-2.05 2.612-3.697.536-4.86 1.585-2.852 2.573.34 11.098-1.795 12.46 0 0-2.218.386-2.23.39 0 0-.645 1.18-.645 1.185-.51.153-8.39-2.195-8.874-3.108-.513-.97-1.536-4.73-3.62-4.38-1.625.28 1.898 1.863 1.596 2.583-.586 1.37-3.805 1.417-3.927 1.622l1.06 1.726c-.17.768-2.247 1.118-2.55 1.86-.427 1.04 1.255 3.188.714 4.16-.004 0-2.116 1.06-2.124 1.064-.7.98.39 2.442-1.21 3.054-.35.138-.83.44-1.11.19-.276-.243.07-.726.11-1.09.02-.36.367-.84.094-1.083-.464-.42-2.714.78-3.346.56-.867-.307-2.053-3.56-3.38-3.01-.95.394-1.58 1.965-2.446 2.535-.79.533-2.63.54-3.24 1.246-1.432 1.646.017 4.78-2.45 6.096-.394.21-.905-.213-1.23-.51-2.21-1.977-6.01-3.96-9.29-4.22-1.51-.12-4.236 2.23-5.483 1.565-2.205-1.162.654-.816-1.584-1.36-.31-.07-.27.62-.207.93.396 1.86 2.705 2.67.094 4.253-3.003 1.814-.435-2.543-2.122-2.52-1.02.016-2.126 1.688-3.143 1.907-1.82.386-2.875-2.025-4.35-2.19-2.94-.328 2.833 5.483-.73 6.516-.734.207-2.25-1.152-2.76-.9l-.15.626c-.815 2.263-3.43 5.216-3.457 7.61-.023 2.44 4.26 2.824 3.753 5.836"/><path fill="#FFF" d="M549.68 207.613c.007.122-.04.237-.136.347-.1.11-.31.312-.635.61l-6.62 5.712.51-4.366c.12-.8.37-1.393.73-1.78.36-.385 1.042-.643 2.05-.772l.444-3.483-13.26.74-.438 3.707c1.452.03 2.2.45 2.247 1.266.03.535-.03 1.277-.186 2.225l-1.467 12.49c-.07.688-.33 1.22-.77 1.6-.443.377-1.19.62-2.247.73l-.438 3.7 13.59-.75.447-3.468c-1.526-.06-2.316-.554-2.367-1.478-.03-.538.032-1.28.188-2.228l.398-3.41 1.848-1.365 2.747 5.01c.448.8.686 1.453.713 1.952.043.757-.632 1.23-2.024 1.43l-.413 3.466 14.505-.804.435-3.703c-.623 0-1.116-.05-1.48-.146-.366-.095-.705-.27-1.018-.52-.315-.25-.598-.56-.85-.922-.25-.362-.574-.89-.965-1.573l-5.02-8.983c2.107-1.84 3.682-3.15 4.724-3.94 1.04-.79 1.874-1.31 2.495-1.56.62-.25 1.435-.43 2.44-.547l.326-3.696-11.987.663-.41 3.483c1.244.005 1.874.13 1.887.37zm30.742-1.32c.01.183-.357.813-1.103 1.892l-3.2 4.495-1.707-3.73c-.486-1.07-.736-1.734-.75-1.99-.043-.766.744-1.194 2.362-1.284l.373-3.48-13.755.762-.4 3.7c.756.19 1.312.414 1.667.668.353.255.715.72 1.08 1.395l4.185 7.79c.272.52.413.85.42.987.01.17-.034.697-.13 1.58l-.355 3.224c-.07.7-.326 1.236-.77 1.608-.443.374-1.19.614-2.247.72l-.435 3.703 14.01-.776.44-3.703c-.92-.06-1.587-.22-2.004-.483-.418-.263-.64-.7-.677-1.307-.015-.23.045-.9.18-2.01l.31-2.67c.05-.416.2-.815.446-1.195l6.144-8.356c.67-.904 1.355-1.558 2.05-1.96.698-.407 1.516-.635 2.45-.687l.273-3.693-10.453.58-.41 3.48c1.303-.035 1.97.215 2 .75z"/><path fill="#DFB875" d="M662.58 233.534s-5.31.807-7.97 1.216c-1.504.22-1.01.485-2.1 1.102-3.184 1.83-8.86 2.015-12.468 2.826-15.073 3.37-30.19 6.61-45.33 9.743l-.973.65c-1.62 1.09-4.59.99-6.53 1.28-5.574.827-11.126 1.725-16.68 2.65-8.7 1.44-17.573 2.26-26.227 3.91-7.86 1.5-15.324 3.357-23.314 4.27-4.017.478-20.776 1.38-23.256 2.61-.004 0-1.47 1.668-1.47 1.668-.29.05-.38-.534-.684-.603-2.862-.585-28.02 4.823-32.85 5.74-2.35.44-7.26 2.4-9.52 1.788-1.31-.36-.24-1.332-3.274-1.156-.615.035-4.723-.137-4.99.278-.79 1.263 3.675 5.75 1.71 7.534-.882.79-10.457 1.71-12.252 2-11.442 1.84-22.892 3.593-34.35 5.3-5.647 4.544-1.23-5.55-4.98-2.537-.17.14-.433.214-.518.42-.712 1.818 2.287 5.5 2.14 7.5-.082 1.195-4.32.748-3.156 2.526.543.84 2.666.83 3.13 1.71.274.517-3.89 1.354-3.72 2.74.137 1.02 2.74 2.023 2.73 3.035-.017.424-1.866 1.295-2.118 1.683-.696 1.063-.946 2.91-1.33 4.125-.11.346-.346 1.028-.346 1.028.792.73.99.92 1.78 1.653 2.742 2.56-1.416.287-2.477 1.964-1.506 2.37 2.82 1.395 1.6 3.32-.27.424-1.98-.09-2.31.295-.48.547.074 1.55-.314 2.16-.655 1.017-4.106.97-5.02 2.036-1.732 2.014 3.48 1.595 4.477 2.96.45.61-2.985 2.177-3.202 2.516-.552.87 1.484 1.213.847 2.013-1.08 1.314-3.233-1.52-4.058.51-1.128 2.793 3.85 3.8 2.34 4.633-3.863 2.13-1.998-1.86-3.73-1.65-2.1.26-2.402 4.522-2.392 4.522 1.42-.18.156-1.43 1.574-1.608.484-.064 1.908 3.483 1.676 4.023-.305.703-2.584 1.01-2.74 1.74-.166.84 3.297.85 3.75 1.647.303.526.463 4.73.02 4.926-.738.327-1.68-.75-2.42-.406-.82.388-.574 3.095-1.32 3.683-.526.417-2.53-.175-2.915.355-.214.28.087.688.13 1.04.034.342.12 1.043.12 1.043 24.72-3.006 49.39-6.334 74.022-9.982-.19-1.282 3.66-1.187 4.87-1.355 5.386-.727 10.773-1.465 16.15-2.227 22.875-3.22 45.625-7.016 68.353-11.124 15.1-2.496 30.167-5.11 45.217-7.85 0 0-1.48-7.04-.88-10.498.582-3.374 6.512-.195 7.63-3.667.112-.36.006-.755.006-1.135.024-1.145.03-2.285.038-3.436 0-.377-.12-.78.004-1.13.558-1.54 6.716-7.37 8.48-8.15 1.04-.462 2.368-.26 3.43-.706.412-.18.55-.966.994-.926.008 0 1.42 1.137 1.42 1.137 2.224-.017 2.267-2.495 3.43-3.562.682-.633 2.102-.606 2.705-1.296.35-.37-.08-1.144.29-1.486.428-.383 1.246 0 1.71-.35 1.44-1.11 2.31-3.79 3.678-5.07 1.942-1.792 5.655-1.716 6.12-2.013 1.89-1.26 1.346-7.45 1.353-7.457 1.034-.805 2.684.512 3.56-.058.45-.29.26-2.47.53-2.97.36-.644 3.25-3.633 3.93-3.733 2.97-.41.98 4.26 3.17 3.6 3.26-.984 3.44-5.763 5.98-7.78.83-.648 3.73-2.913 4.626-3.19 1.897-.57 3.59 2.94 5.13 1.71 1.016-.81 2.882-7.75 3.762-9.475.314-.602 1.652-3.1 2.19-3.376.622-.34 3.123.724 2.723-.99-.705-3.084-.87-6.754.67-9.86"/><path fill="#FFF" d="M484.73 294.4c1.1-.98 2.362-1.584 3.79-1.812l-2.017 16.302c-.07.708-.33 1.25-.78 1.626-.446.377-1.203.62-2.27.728l-.44 3.744 14.157-.785.44-3.743c-.94-.06-1.622-.222-2.043-.488-.422-.267-.65-.707-.684-1.322-.017-.308.038-.983.165-2.026l1.767-14.494c2.532.094 4.367 1.966 5.507 5.616l3.113-1.21-2.023-8.49-21.64 1.198-3.242 8.562 2.908 1.097c1.097-2.023 2.194-3.524 3.292-4.504zm44.436 18.03l2.37-20.023c.104-.77.326-1.33.665-1.674.34-.346 1.03-.572 2.06-.678l.44-3.744-9.48.53-.414 3.52c1.52.04 2.31.667 2.38 1.87.036.666.02 1.247-.052 1.74l-.91 7.64-.07.005-5.54-14.515-12.655.7-.44 3.744c1.47.03 2.23.455 2.273 1.28.03.54-.033 1.29-.19 2.25L508.12 307.7c-.072.693-.332 1.232-.78 1.615-.447.385-1.204.63-2.27.737l-.44 3.744 9.592-.53.44-3.744c-.796-.093-1.38-.273-1.76-.54s-.58-.64-.607-1.106c-.015-.257.018-.777.098-1.56l1.6-13.54.076-.004 7.752 20.073 7.355-.41z"/><path fill="#C39547" d="M468.162 533.582c-.09-.24-.17-.483-.09-.592-2.732-13.93-5.455-27.87-8.167-41.816-1.276-6.504-3.126-13.154-3.84-19.738-.85-7.788-.41-15.95-.623-23.786-.45-16.302-.922-32.616-1.44-48.922-.402-12.58-.81-25.156-1.26-37.735-.09-2.743.516-13.242-.533-15.117-.57-1-3.16-2.526-4.09-3.616-24.5 3.64-49.03 6.96-73.61 9.962.74 1.286 2.59 5.238.163 6.29-.973.416-.695-.904-2.157.026l-1.834 1.15c-.596-.265.665-3.525-1.41-1.932-.877.662 1.21 4.184 1.16 4.763-.06.66-2.243 2.64-2.754 1.74-.2-.36 2.04-2.24.25-2.85-1.803-.6-1.318 3.04-.757 3.6.566.56 2.935-.25 3.09 1.03.057.47-2.35 2.883-2.68 2.42-.29-.4.236-2.824-.896-2.688-.26.02-.148.478-.22.717-1.018 3.487.256 2.022 1.954 3.98.15.173.05.457.073.69.173 1.4-1.06 1.143-1.52 2.276-.425 1.082 1.038 3.117.503 4.142-.39.73-1.73.97-2.188 1.66-.257.376-.46 2.755-.85 2.894-.067.026-1.65-3.68-3.17-1.728l.745 1.313c.24 2.064-1.963 2.026-2.598 3.336l-.965 1.975c-.23.106-4.88-.65-2.275.956.755.457 4.116-.48 4.275.904.18 1.5-4.515-.336-5.22 1.305-.756 1.77 3.704 1.492 3.775 1.658.91 2.225-4.8 5.428-5.39 5.164-.314-.14-.66-.625-.953-.416-1.317.99 1.08 2.177 1.222 2.83.215 1.03-1.13 2.592-.794 3.586.26.79 2.345 1 2.59 1.8.418 1.33-5.03.4-5.324.596-.188.132.055.45.083.686.497 4.55 2.55 1.173 3.636 3.088.123.217.472.427.377.657-1.27 2.918-4.903-1.563-5.823-1.1-.286.156-.82.127-.84.45-.117 1.06 2.512 2.813 2.82 3.88.065.243-.15.49-.23.717-.38 1.24-2.075.284-1.9 1.84.704 6.45.685-4.738 1.39 1.71.05.44-1.72 2.65-1.47 2.95 1.976 2.443 1.767-5.77 4.007-1.838.518.914-3.47 3.39-2.602 3.77 3.47 1.54 3.534-4.83 5.133-2.656.867 1.204-2.453 3.33-2.524 4.465-.326 5.31 3.72.9 3.88 2.352.08.635-1.43 1.635-1.554 2.27-.138.644.78 2.963.373 3.44-.545.648-2.88-.11-3.585.4-1.333.977 2.69 2.836 2.767 3.178.26 1.076-1.49 2.95-1.49 2.95-.45.66-2.594 2.99-.822 3.58 3.79 1.25 1.175-4.404 3.903-3.22 2.46 1.065-2.54 7.756-2.09 8.584.494.94 4.25.08 4.426 1.592.274 2.513-4.78 2.25-3.075 5.218 1.35 2.345 4.312-3.757 5.336-1.29.553 1.33-2.133 2.22-2.104 3.02.01.324 3.58 1.845 2.72 2.48-.11.067-6.394-.89-3.47 1.777 1.395 1.267 3.648-.515 4.906.14.337.184-.84 2.79-.22 3.516.547.648 2.753.31 3.175 1.03.77 1.31-1.997 1.216-2.26 1.65l.23 2.056c-.35.85-7.35.505-6.275 4.185.77 2.652 4.59-1.763 5.45-.61.564.753-1.43 4.14-1.96 4.386-.446.215-2.857-.7-3.114-.343-.41.59 4.014 1.276 3.34 2.41-.655 1.094-2.616 1.467-3.413 2.467-1.15 1.395-1.99 3.943-2.48 5.474-.32.99-1.986-1.87-3.01.685-.13.327-.128.706-.19 1.06-.52 2.82 1.46-.16 1.88 1.29.32 1.11-2.098 1.38-2.464 1.89-.61.85.03 3.63-.776 4.245-.797.615-3.455-1.5-3.67.39-.25 2.227 2.714.53 3.206 1.05 1.15 1.21-2.49 2.48-2.76 3.075-.84 1.802 1.75 3.212 1.725 4.66-.056 2.74-2.66-1.32-3.06.33-.54 2.203 2.8 3.182 2.344 4.596-.44 1.35-4.8 1.82-4.77 1.89.36.845 1.977 1.875 2.136 2.55.18.79-1.204 2.095-.947 2.868.34.977 2.517 1.477 2.74 2.48.202.845-2.157 1.63-2.243 2.31-.03.312.385.55.684.62 2.925.764 11.283-1.206 14.647-1.57.406-.047.815-.086 1.22-.144 12.613-1.386 25.212-2.866 37.806-4.42 3.683-.45 12.61-2.746 15.837-2.004 2.268.533-3.295 11.773-2.575 14.21.01 0 1.406 1.2 1.41 1.2.426.692.33 1.968.96 2.65 1.318 1.38 3.596 1.905 4.86 3.527 2.692 3.47 2.473 7.25 5.122 10.413 1.17 1.39 1.172-.694 2.47.29.613-.56 1.23-.98 1.87-.864.31.05.426.706.72.596.402-.148.59-2.49.88-2.888.713-.988 2.96-1.438 3.443-2.537.95-2.145-2.457-1.86-.982-2.643.457-.24 2.805-.217 3.19.26l-.44 1.45c.184.275 2.405-.73 2.625-.818 1.488-.547 8.82-3.05 9.564-3.857.956-1.037-.24-2.733 2.636-2.215 1.684.3 3.06 2.418 4.8 2.783.92.203 3.574-.584 4.232-1.29.35-.366-.062-1.55.424-1.455.78.173.774 1.585 1.522 1.86.003.012 2.484-.35 2.484-.35l1.426 1.177c.005 0 1.042-1.532 1.042-1.532.36-.2.894.062 1.234-.182l-.11-.77"/><path fill="#FFF" d="M393.374 452.028l7.965-20.366.07-.004-2.05 13.966c-.098.673-.22 1.158-.366 1.457s-.383.53-.708.68c-.325.15-.84.3-1.55.43l-.505 3.69 12.51-.693.36-3.673c-.67-.072-1.16-.19-1.466-.347-.307-.16-.47-.413-.488-.765-.016-.29.025-.85.125-1.68l1.724-13.24c.074-.644.285-1.153.635-1.524.35-.37 1.01-.583 1.975-.637l.415-3.676-12.436.69-4.287 10.634-.072.004-.955-10.346-12.727.71-.506 3.682c.783.126 1.328.284 1.635.47.31.19.473.49.495.9.02.35-.032.85-.153 1.5l-1.766 12.46c-.145 1.09-.4 1.8-.77 2.135-.37.338-1.04.58-2.016.73l-.487 3.683 8.9-.495.506-3.683c-.752-.08-1.3-.21-1.63-.384-.33-.177-.51-.494-.53-.953-.025-.387.03-1.02.164-1.9l1.72-13.24.073-.003 2.453 20.008 3.732-.208zm36.678-26.994c-.93-.25-1.82-.423-2.674-.515-.853-.1-1.66-.12-2.422-.08-1.812.1-3.413.442-4.805 1.04-1.39.59-2.56 1.36-3.52 2.32s-1.65 1.99-2.09 3.12c-.43 1.13-.62 2.24-.56 3.352.06 1.037.26 1.92.59 2.645.34.727.8 1.327 1.39 1.803.59.477 1.32.88 2.18 1.206.86.33 1.876.616 3.04.866l3.66.797c1.266.28 2.18.576 2.74.89.56.314.86.755.89 1.322.05.88-.333 1.562-1.15 2.043-.813.48-1.92.76-3.31.84-1.04.056-2.12-.087-3.25-.43-1.13-.344-2.143-.953-3.053-1.83-.908-.874-1.53-2.018-1.86-3.428l-3.426.19.395 9.75 2.666-.147.707-1.976c2.724 1.47 5.8 2.106 9.23 1.916 2.067-.115 3.865-.518 5.397-1.21 1.53-.69 2.754-1.55 3.666-2.584.91-1.032 1.57-2.15 1.972-3.356.406-1.204.577-2.374.515-3.51-.055-.992-.275-1.9-.66-2.728-.386-.83-1.15-1.607-2.3-2.33-1.15-.726-2.82-1.294-5.01-1.706l-3.308-.597c-1.14-.205-1.99-.47-2.547-.796-.557-.327-.852-.77-.882-1.323-.027-.507.207-.97.706-1.383.5-.418 1.33-.656 2.49-.72 1.715-.097 3.21.19 4.48.86 1.448.753 2.378 1.894 2.79 3.42l3.334-.185-.327-8.54-2.482.137-.683 1.746c-.75-.358-1.587-.66-2.515-.915z"/><path fill="#BC9C64" d="M368.552 312.627c-.22-.287 1.876-5.397 2.212-5.84 0 0 1.635-.89 1.65-.897.384-.6-.12-1.546.31-2.125.67-.884 2.49-.99 3.28-1.795 3.074-3.126 1.87-5.446-.457-8.307-.642-.792-1.186-2.83-2.153-3.228-1.22-.52-9.375 1.12-11.203 1.34-10.4 1.22-20.8 2.374-31.19 3.473-36.877 3.91-73.832 7.088-110.842 9.54 0 0 .7 3.252 1.057 4.882.614 2.84 1.23 5.683 1.846 8.524 1.85 8.496 3.986 16.985 5.61 25.542 1.803 9.548 1.643 19.438 2.08 29.108.756 16.45 1.49 32.904 2.23 49.356.584.6.79 1.423 1.334 1.97.54.543 2.25.33 2.45.538.213.203-.566.412-.553.714.065 1.014 2.594.732 3.054.48 2.28-1.244-1.472-1.58 2.95-.9.76.118 5.94-1.317 6.66.215 1.42 3.002 1.328 17.673 1.65 21.917 34.694-2.55 69.39-5.487 104.02-8.77 0 0 1.77-1.862 1.506-2.923-.08-.34-4.138-2.18-2.79-3.15.703-.5 3.06.25 3.61-.39.41-.472-.52-2.77-.38-3.41.125-.63 1.645-1.62 1.565-2.25-.16-1.44-4.24 2.93-3.91-2.333.07-1.123 3.42-3.23 2.54-4.422-1.608-2.153-1.672 4.157-5.172 2.633-.872-.38 3.147-2.83 2.625-3.738-2.26-3.897-2.047 4.24-4.044 1.817-.25-.294 1.532-2.485 1.482-2.92-.71-6.39-.69 4.692-1.4-1.693-.176-1.544 1.533-.593 1.915-1.825.08-.23.295-.47.23-.71-.31-1.06-2.96-2.795-2.85-3.85.03-.314.565-.286.854-.438.924-.465 4.59 3.976 5.874 1.09.095-.23-.256-.44-.38-.656-1.098-1.89-3.164 1.457-3.666-3.054-.03-.23-.277-.55-.086-.68.298-.193 5.79.723 5.372-.593-.254-.797-2.354-1-2.617-1.78-.34-.99 1.017-2.537.8-3.56-.145-.65-2.56-1.822-1.23-2.805.293-.214.645.273.958.412.596.258 6.356-2.914 5.437-5.115-.07-.16-4.568.11-3.805-1.642.71-1.623 5.446.195 5.263-1.29-.164-1.37-3.55-.44-4.31-.893-2.623-1.593 2.063-.843 2.293-.947l.97-1.96c.637-1.296 2.86-1.26 2.62-3.3l-.75-1.3c1.53-1.936 3.126 1.736 3.192 1.707.394-.135.6-2.492.858-2.87.466-.68 1.816-.92 2.208-1.643.538-1.01-.933-3.03-.505-4.103.465-1.12 1.702-.864 1.533-2.253-.026-.233.073-.51-.078-.687-1.713-1.935-2.997-.484-1.97-3.94.072-.236-.04-.69.217-.713 1.145-.132.613 2.267.906 2.667.34.456 2.763-1.935 2.705-2.4-.16-1.27-2.548-.465-3.116-1.02-.565-.555-1.057-4.165.763-3.57 1.8.605-.45 2.465-.257 2.822.52.887 2.72-1.07 2.78-1.73.05-.574-2.05-4.06-1.166-4.717 2.087-1.58.82 1.65 1.417 1.91l1.85-1.14c1.476-.924 1.19.386 2.176-.026 2.443-1.04.58-4.96-.17-6.234 0 0-.087-.69-.12-1.03-.044-.343-.345-.75-.134-1.024.386-.525 2.397.06 2.92-.35.75-.58.504-3.258 1.33-3.64.74-.34 1.68.723 2.423.4.446-.19.284-4.35-.017-4.87-.46-.785-3.93-.798-3.766-1.628.16-.72 2.447-1.025 2.75-1.72.235-.533-1.192-4.044-1.68-3.98-1.42.175-.155 1.41-1.577 1.588-.01 0 .293-4.214 2.4-4.467 1.732-.21-.136 3.736 3.737 1.63 1.515-.825-3.477-1.82-2.346-4.58.828-2.008 2.986.8 4.067-.506.64-.79-1.402-1.13-.847-1.99.216-.336 3.655-1.89 3.21-2.49-1-1.35-6.23-.936-4.487-2.926.916-1.05 4.375-1.007 5.027-2.013.39-.604-.163-1.592.318-2.132.33-.382 2.04.126 2.306-.292 1.23-1.904-3.102-.937-1.596-3.28 1.064-1.654 5.233.59 2.482-1.94-.793-.724-.99-.916-1.78-1.634-5.83.735-11.656 1.457-17.49 2.163-.545.07-4.728.925-4.99.6"/><path fill="#FFF" d="M297.54 377.88l.358-3.67c-.962-.102-1.65-.294-2.065-.574-.415-.28-.705-.71-.87-1.295l-5.267-19.35-7.565.42-8.86 17.94c-.68 1.398-1.2 2.36-1.55 2.88-.353.53-.72.89-1.1 1.09-.384.2-1 .37-1.85.51l-.47 3.68 10.28-.57.413-3.672c-1.026.06-1.693.023-2.003-.104s-.476-.403-.5-.826c-.024-.424.493-1.692 1.55-3.81l7.854-.436c.51 1.596.788 2.748.827 3.46.025.458-.195.8-.66 1.026-.47.225-1.29.37-2.473.436l-.414 3.673 14.37-.8zm-17.826-11.104l3.344-7.466.072-.005 1.813 7.18-5.23.29zm46.764 9.5l.373-3.434c-.61-.026-1.12-.095-1.51-.207-.38-.11-.67-.26-.85-.442s-.39-.487-.63-.91l-3.74-6.582c1.99-.78 3.45-1.78 4.38-2.98.925-1.2 1.335-2.77 1.23-4.7-.086-1.502-.52-2.68-1.305-3.52-.784-.84-1.814-1.41-3.09-1.71-1.275-.292-2.726-.4-4.355-.31l-15.49.86-.434 3.675c1.44.03 2.188.448 2.23 1.256.03.53-.03 1.268-.185 2.21l-1.456 12.39c-.07.68-.325 1.21-.765 1.584-.44.375-1.18.616-2.23.722l-.43 3.675 13.555-.752.43-3.672c-.78-.09-1.354-.267-1.726-.53-.373-.265-.57-.625-.596-1.083-.02-.35.017-.86.114-1.532l.464-4.074 1.34-.074 5.023 10.688 9.665-.538zM311.34 357.96c.093-.706.226-1.222.395-1.547.17-.324.4-.545.69-.664.29-.12.712-.2 1.267-.23 1.026-.06 1.87.09 2.53.45.662.352 1.022 1.07 1.082 2.14.045.81-.122 1.515-.5 2.116-.378.604-.903 1.067-1.575 1.395-.68.33-1.42.516-2.24.56l-2.16.12.502-4.35z"/><path fill="#D9B67B" d="M451.12 584.187c-.214.04-.504-.09-.633.09-.134.187.315.61.104.683-2.24.83-4.5-5.634-5.86-5.45-1.482.208-.215 1.42-1.7 1.617l-.81-1.277c-.512-.167-4.344 1.088-4.493-.09-.097-.67 2.463-1.026 1.793-.932-1.617.215-2.744-.328-4.24-.124-.57.065-3.143.808-3.436.1-.193-.457.43-2.323.318-2.467-1.26-1.655-5.11-.024-6.54-1.223-1.4-1.184-1.46-3.823-2.454-4.208-.22-.085-.863-.116-.666-.257.27-.21.674 0 1.015 0 .68.01 1.36.01 2.044.01.344 0 .86.31 1.014 0 .86-1.668-2.08-2.604-2.55-3-.22-.195.58.08.873.112.29.047.577.092.858.12.29.045.604 0 .864.12 1.36.62 3.38.682 5.016.97.08.01-.065-.177-.136-.22-.42-.282-.686-.44-.87-.534-.3-.02-.545-.285 0 0 .23.014.465-.118.38-.79-.18-1.35-2.845 2.607-3.395-1.637-.12-.945 2.75-.89 3.04-1.1.437-.325.98-3.616 1.423-3.68 1.63-.21.67 3.07 3.4 1.647.37-.2 1.075.217 1.24-.164.33-.748-1.406-1.087-1.516-1.89-.08-.626 1.547-1.135 1.07-1.534-.316-.27-.925.43-1.243.156-.555-.45.895-1.67.35-2.13-.51-.43-1.118 1.025-1.785.933l-.794-1.283c.146-1.65 1.44.443 2.48-.335.2-.136-.046-.452-.08-.676-.27-2.016-2.622.664-3.207-.27-.672-1.065 1.96-2.74 1.955-2.818-.086-.643-1.204-.418-1.784-.695-.7-.33-1.33-1.417-2.05-1.13-.662.29.008 1.523-.36 2.144-.437.76-1.892.936-2.31 1.703-1.38 2.526 1.116 8.044-4.776 4.803-1.444-.795-.28-1.86-.57-2.01-1.444-.798-5.35 1.747-5.34-2.104.004-1.988 7.508-.74 6.867-5.77-.245-1.873-2.584 1.736-2.94 1.782-1.48.19-.168-2.348-.35-2.745-1.023-2.28-.895 3.41-1.435 3.67-1.654.81-2.217-3.38-4.08-2.26-.866.518-2.638 4.42-4.39 5.43-3.015 1.75-19.002 1.35-15.784-5.01.368-.71 6.85-8.48 7.18-8.534 1.87-.303 6.435.364 7.79 1.813l.873 1.98c.31.21.74.012 1.11.024.74.03 1.48.05 2.22.076.37.014.75-.096 1.11.023.852.303 1.56 1.2 2.66 1.06.66-.086 1.19-1.257 1.774-.93.383.214-.498 3.395 4.706 2.18.285-.08 3.16-1.2 1.29.17-.19.144-.8.34-.58.43 1.263.49 2.354-.927 3.46-1.925-1.3-.994-1.308 1.104-2.48-.296-2.654-3.185-2.43-6.99-5.13-10.48-1.268-1.636-3.548-2.165-4.868-3.556-.63-.688-.533-1.97-.96-2.667-.004 0-1.4-1.205-1.41-1.205-.725-2.458 4.85-13.77 2.58-14.31-3.23-.75-12.176 1.562-15.866 2.015-12.615 1.57-25.235 3.058-37.868 4.45-.407.06-.814.1-1.223.148-3.37.367-11.743 2.348-14.667 1.58-.305-.074-.714-.31-.685-.625.087-.69 2.45-1.476 2.25-2.32-.225-1.017-2.41-1.52-2.75-2.5-.26-.78 1.13-2.09.95-2.89-.162-.68-1.78-1.72-2.14-2.57-.033-.063 4.34-.534 4.775-1.895.462-1.424-2.884-2.41-2.347-4.628.405-1.664 3.01 2.424 3.07-.334.02-1.456-2.57-2.876-1.73-4.692.27-.604 3.917-1.874 2.764-3.092-.49-.526-3.46 1.18-3.207-1.06.212-1.904 2.874.225 3.672-.39.81-.62.165-3.42.78-4.273.37-.513 2.785-.782 2.464-1.9-.42-1.464-2.4 1.54-1.884-1.303.064-.354.062-.736.19-1.07 1.023-2.57 2.69.315 3.013-.68.488-1.54 1.336-4.11 2.483-5.517.8-1.008 2.762-1.38 3.42-2.484.673-1.14-3.757-1.83-3.346-2.422.257-.36 2.67.56 3.118.346.53-.253 2.53-3.657 1.963-4.42-.854-1.16-4.684 3.29-5.46.612-1.075-3.7 5.94-3.35 6.288-4.206l-.23-2.07c.265-.435 3.037-.34 2.265-1.654-.42-.73-2.63-.39-3.18-1.04-.62-.73.554-3.352.22-3.54-1.26-.654-3.516 1.135-4.913-.14-2.93-2.686 3.37-1.716 3.472-1.79.867-.637-2.71-2.166-2.724-2.492-.024-.806 2.666-1.703 2.112-3.043-1.025-2.48-3.994 3.66-5.35 1.306-1.706-2.993 3.354-2.73 3.082-5.258-.182-1.52-3.938-.654-4.44-1.605-.45-.835 4.563-7.568 2.098-8.64-2.732-1.197-.113 4.495-3.91 3.24-1.776-.598.37-2.94.822-3.605-34.406 3.34-68.875 6.32-103.337 8.913.735 9.97 1.47 19.934 2.2 29.907.17 2.406-.056 10.73.913 12.44.978 1.716 4.44 2.96 5.86 4.433 1.848 1.932 3.217 4.85 3.637 7.392.205 1.244-.708 3.002-.293 4.2.54 1.545 2.915 1.686 3.7 2.72.24.315.354.753.294 1.14-.04.312-.578.437-.562.74.12 1.43 3.967 3.216 4.074 4.56.058.795-1.23 1.37-1.065 2.17.125.616 2.227 1.34 2.61 1.87.507.66.26 2.16.85 2.72.31.302 2.37.1 2.52.49.35.897-1.13 2.59-.952 3.556.118.696 2.17 1.93 2.07 2.612l-1.795.83c-.97 1.725 1.413 2.108 1.454 2.67 0 0-1.074 2.16-1.078 2.16-.515 2.638.18 5.876-1.202 8.45-.465.86-1.975 1.35-2.32 2.266l.16 2.07c-.303.833-1.817.81-1.707 2.216.09 1.222 1.81 2.668 1.577 4.03-.333 1.86-2.27 1.865-1.55 4.288 1.892 6.438 3.81 8.93-.084 15.25l-.078.11c.8.686 1.14 2.11.97 3.28-.06.39-.74 2.646-1.044 2.854-1.613 1.053-5.157.187-2.876 3.68.145.23 1.93 1.906 2.035 1.92 1.09.12 3.117-2.7 4.19-3.093 3.656-1.35 14.16-2.28 18.183-2.182 7.436.168 14.255 4.3 21.412 5.718 3.046.59 6.36.556 9.455.816 1.662.147 4.31.885 5.915.5 1.3-.316 2.32-1.963 3.58-2.424 1.204-.45 2.86.124 4.027-.41 3.03-1.38-.174-.205.24-1.4.04-.11 1.847-.09 1.89-.2.455-1.324-3.106.336-3.15.323-.206-.09-1.54-2.393-1.52-2.63.02-.62 1.588-1.07 1.124-1.49-.415-.36-2.55 1.22-3.076 1-.11-.05-.94-2.65-.9-2.683.294-.316.84-.085 1.256-.126.42-.05.87-.29 1.26-.12.42.17-.324 1.414.13 1.366.226-.02 5.135-2.984 5.373-3.308.274-.376-.41-1.01-.138-1.382.47-.616 1.547.647 1.953.5.99-.38 1.29-.82 2.655-.97.343-.024.744-.286 1.038-.104 2.27 1.385-2.44.95-.9 3.56.23.406-.206 1.076.136 1.378.4.35 6.69-2.73 8.645-2.28 1.67.375-.16 2.853.084 3.796.61 2.325 2.51-.18 3.565.663.86.696.42 4.106.426 4.116.312.355 3.414-1.05 3.97-.98 1.51.198 3.594 2.928 5.693 2.02.74-.33.787-6.524 2.12-5.35 1.91 1.67-2.168 3.278-.79 5.895 1.35 2.56 4.85 2.3 6.197 4.164.424.58.81 4.632-.815 4.246-1.19-.277-.48-2.885-1.01-3.35-.36-.315-.737 1-1.182.826l-1.032-1.727c-1.815-1.475-1.754 1.09-2.79 1.794-.36.26-1.03-.55-1.3-.2-.195.27.346.58.53.865 1.147 1.94 9.19 4.587 10.874 4.11.72-.21.273-1.424 1.753-1.585.21-.03.61-.282.63-.073.063.62-1.362.937-1.113 1.513.07.16 2.284-.356 2.523-.293.908.25 1.84 1.7 2.758 1.77 2.626.19.825-1.912 1.028-2.2.288-.39.87.487 1.346.538.63.06 1.336-.53 1.9-.216.636.36.066 1.38-.474 1.44-.21.025-.8-.06-.64.075.333.283 3.762.25 3.872.24.792-.09.617-1.82 1.026-2.196.457-.433 1.13 1.76 1.418 1.215.51-.96-1.395-3.557.156-4.177.413-.174.615-.185.757-.15.055-.228.157-.52.39-1.035.84-1.8-1.92-.858-.24-2.053.195-.135.36-.45.586-.412 1.516.217 2.124 1.14 3.323.997.82-.103 1.212-2.923 1.563-2.966 2.167-.266 1.416 2.52 1.85 3.015.347.39.683-.85 1.15-1.07 1.345-.6 2.264 2.273 3.237 2.15.503-.06-.028-1.385.466-1.438.73-.095 1.02 1.54.886 1.97-.594 1.827.09 2 1.12 4.022.763 1.482-.66-.18-.468 1.44.117.92 1.663-.8 2.406-1.335.005-.007 1.764-1.253 1.777-1.256.7-.618 1.75-1.595 2.26-2.37 1.504-2.29-1.953-.605-1.67-3.258.07-.724 1.17-2.066 1.72-1.606.157.14.42-.05.63-.083.05-.005.16.038.157-.013-.14-1.123-1.52-6.705-1.63-6.74-1.43-.51-3.07.654-4.488-.135-.246-.14-.546-1.15-.79-1.29-.08-.044-.12-.05-.19-.097-.36.436-1.406-.716 0 0 .084-.1.14-.264.105-.59-.01-.04-.542-.194-.17-1.374.05-.16 2.59.71 8.676 3.08.69.28 1.787-.52 2.51-.31l1.422 1.2c1.357-.17-.06-1.815.367-2.13.253-.175 2.035.872 2.06 1.125l-1.17.85c-.39 2.258 2.34.253 2.605.36l-.454 1.445c.106.18.43-.153.627-.08.29.117.61.32.71.607.383 1.03-2.7 1.38-2.237 2.374l2.09-.27c.423-.053 2.144.475 2.392.387.002-.01 1.705-1.61 1.71-1.61 2.153-1.29.607 2.524 1.702 3.245.65.43 2.46.114 3.24.267l1.34.52c.19-.135-.05-.45-.08-.683-.03-.227-.227-.5-.09-.68.12-.176.42-.054.622-.084.213-.02.604-.293.627-.083.04.31-.544.445-.54.766.05 1.885 3.582 2.977 3.6 2.994.414.505-.09 3.185 1.626 2.56 2.55-.92.674-2.183 1.123-3.622.07-.238-.02-.8.23-.726.585.165.174 1.362.653 1.76 2.64 2.185-.256 1.72-1.296 3.184l.186 1.36c-.383 1.51-1.51 2.9-1.984 4.433-.21.656 1.35-.43 1.8-.935.27-.3.332-.738.51-1.106 1.012-2.278 1.78-2.673 3.28-4.266.342-.365-.05-1.49.443-1.45.815.062 2.953 5.33 4.43 4.26.58-.43-.812-1.247-.9-1.96-.076-.55.997-2.92 1.517-2.994.32-.036.427.64.73.588.5-.06-.966-.79-.816-1.27.263-.838 1.94 1.16 2.074 1.103l.984-2.22c-.532-1.41-2.905.518-3.144.43-.218-.08-.066-.453-.098-.68-.093-.72 6.95-3.74 1.522-2.994"/><path fill="#FFF" d="M304.362 506.37l3.705-9.653-3.333-1.415c-.597 1.3-1.23 2.39-1.9 3.276-.67.888-1.4 1.63-2.184 2.224-.785.596-1.613 1.044-2.482 1.347-.87.3-1.768.47-2.695.53-.644.03-1.105-.02-1.386-.17s-.43-.39-.45-.74c-.018-.335.006-.776.076-1.325l1.635-13.13c.12-.95.393-1.63.816-2.046.423-.414 1.178-.675 2.263-.785l.442-3.763-13.63.754-.45 3.764c1.477.03 2.24.46 2.285 1.29.03.543-.034 1.3-.19 2.26l-1.49 12.695c-.075.698-.336 1.24-.786 1.624-.45.384-1.21.63-2.283.74l-.443 3.763 22.47-1.247zm31.704-1.756l.37-3.76c-.987-.106-1.692-.303-2.117-.59-.43-.286-.73-.728-.9-1.326l-5.396-19.827-7.75.43-9.08 18.38c-.703 1.43-1.234 2.42-1.595 2.96-.36.54-.737.91-1.128 1.114-.393.2-1.024.375-1.897.52l-.48 3.767 10.534-.583.424-3.762c-1.052.06-1.736.024-2.053-.11s-.487-.41-.51-.843c-.024-.432.505-1.732 1.587-3.9l8.05-.446c.523 1.632.805 2.813.846 3.542.026.47-.2.82-.676 1.05-.477.23-1.32.38-2.533.45l-.425 3.76 14.72-.814zm-18.26-11.376l3.425-7.648.08-.005 1.86 7.356-5.36.3z"/></svg>