<svg class="scaling-svg" viewBox="0 0 655 750"><path class="state" data-x="38" data-y="28" data-scale="34" data-active="0" fill="#CBB082" d="M.555 15.75c-2.082 2.082 2.334 4.883 2.834 6.087.188.456.033.984.063 1.472.02.494.038.988.055 1.476.026.49.277 1.028.07 1.474-.26.586-2.878.56-1.855 1.853.322.41 1.13.352 1.32.832.147.337-.748.57-.6.92.12.296 4.53.208 4.792 5.988.08 1.74-2.46 3.136-2.392 4.542.033.994 1.594 3.063.84 4.398-.486.837-2.47 3.288-2.4 4.532.005.364.75.5.684.854l-1.91.97c-.46.68-1.53 5.56-1.053 6.25.515.736 4.76 2.565 4.713 3.346-.023.524-1.29.42-1.27.944.034.52 1.023.417 1.35.824 1.054 1.312 1.71 3.566 2.19 5.225 0 0 3.527 1.105 3.382 2.504-.158 1.45-1.41 3.968-1.067 5.364.403 1.625 2.975 2.677 3.47 4.276.488 1.52-1.223 3.765-.412 5.334.717 1.36 2.697 2.046 3.45 3.387.565.986.207 2.558.83 3.505.867 1.344 3.427 1.915 4.113 3.354.58 1.212-.232 3.136.223 4.417.632 1.84 3.104 3.26 3.56 5.144.52 2.23-.53 4.396-1.032 6.252-.652 2.442 1.216 3.413 1.595 5.24.177.886-1.13 1.98-.545 2.68.81.973 2.585-1.193 3.278-1.048 1.79.38-.196 2.736.175 3.528.396.868 3.044.736 3.423 1.602.69 1.653-1.713 4.61-1.023 6.255.612 1.452 2.966-.05 2.798 2.51-.064 1.07-2.338 2.468-1.767 4.524.558 2.103 2.582-.237 3.382.706.365.45-1.25 5.318-1.027 6.256.828 3.355 2.978 5.66 3.187 9.57.13 2.628-1.727 5.737-1.615 8.048.094 1.595 3.49 3.11 4.418 6.85 40.252-1.076 80.278-4.08 120.33-8.314 10.713-1.143 21.297-2.542 31.93-4.36 3.06-.512 10.395-1.85 10.438-1.786 2.264 3.516 4.34 5.865 7.863 8.063 1.93 1.21 2.12 2.477 4.43 3.378.394.158 1.192.466 1.192.466 6.45-.69-.93-8.646-.36-9.737 1.25-2.433 9.797-5.378 10.163-6.438 1.003-3.034.834-6.177 1.695-9.084.792-2.654 4.075-4.912 4.557-7.63 1.61-9.205-11.977-9.49-6.005-23.35.788-1.814 11.653-2.333 13.71-3.35 1.665-.815 2.596-3.113 4.202-4.05 2.254-1.31 6.866-1.822 8.163-4.543 1.17-2.438-.297-6.34.92-9.02.7-1.544 2.828-2.447 3.518-4 .927-2.098 1.673-7.692 1.432-9.98-.874-8.16-7.783-6.906-12.065-11.91-1.61-1.89-.806-4.424-3.158-5.863-1.824-1.12-8.76-4.06-7.516-6.244-1.615-13.794-15.103-4.73-18.363-11.263-.91-1.81-.498-4.25-1.346-6.09-.435-.95-1.74-1.495-2.23-2.43-1.332-2.56-2.833-7.464-3.098-10.344-.287-3.053 3.594-6.514 2.88-9.238-.798-3.062-3.374-2.15-4.972-3.903-1.602-1.753-1.42-6.98-1.42-6.98l-1.56.177c-2.084.23-4.153.45-6.235.673-4.672.503-9.354.994-14.038 1.47-15.11 1.56-30.242 2.995-45.373 4.327-44.426 3.896-88.938 6.828-133.49 8.82-1.064.052-5.733-.412-6.42.282"/><path class="state" data-x="39" data-y="12" data-scale="29.5" data-active="0" fill="#E2BE7D" d="M389.644 226.526c-.433-1.112-1.643-2.106-1.932-3.248-.12-.485 0-.99 0-1.477.013-.5.013-.986.013-1.478 0-.496.16-1.02 0-1.483-1.05-2.816-5.235-5.29-6.895-7.813-1.605-2.445 2.533-3.075 2.756-4.86.21-1.496-2.99-3.36-2.868-4.876.13-1.655 3.324-2.105 3.703-3.234.932-2.743-2.492-16.356-3.06-20.005-5.264-34.434-10.54-68.87-15.812-103.304l.03-.092c-5.715-3.416-5.426-11.944-8.966-17.25-.646-.96-2.207-.975-3.068-1.64-2.078-1.582-4.534-6.7-4.996-9.166-.586-3.125.083-5.988-.24-9.184-.036-.315-.112-.642-.155-.96h-.02c-37.014 4.993-74.093 9.632-111.183 13.928-1.257 2.167 5.732 5.09 7.57 6.205 2.37 1.433 1.56 3.953 3.184 5.83 4.312 4.974 11.273 3.727 12.15 11.838.246 2.27-.502 7.836-1.437 9.918-.695 1.542-2.84 2.44-3.545 3.98-1.227 2.66.252 6.54-.926 8.967-1.308 2.702-5.953 3.21-8.224 4.514-1.62.93-2.557 3.215-4.235 4.027-2.072 1.01-13.02 1.526-13.814 3.33-6.018 13.778 7.673 14.06 6.05 23.21-.483 2.703-3.796 4.945-4.59 7.586-.866 2.887-.696 6.016-1.707 9.03-.37 1.054-8.983 3.978-10.24 6.398-.575 1.087 6.862 8.993.36 9.68 0 0-1.008.548-1.258 1.016-1.332 2.427-.835 6.274-.77 8.903.11 3.568.49 7.102 2.157 10.366.562 1.114 2.06 2.107 2.427 3.275.334 1.063-.635 2.51-.303 3.566.373 1.195 1.895 2.134 2.43 3.27.59 1.24.388 3.16 1.157 4.295 2.632 3.843 9.184 5.808 12.75 8.32 1.363.966 1.94 3.004 3.232 4.06 3.896 3.167 10.753 4.118 12.938 9.14.807 1.844.507 4.213 1.404 6.01.324.667 1.356.88 1.594 1.592.88 2.72-.613 9.037 4.8 10.9 3.116 1.09 4.79-3.924 7.105-5.233 1.2-.676 12.235 4.1 13.362 5.457 1.5 1.822-1.928 4.703-2.037 6.423-.074 1.39 1.325 2.87 1.247 4.266-.38 6.357-9.963 15.142-5.123 21.776 1.438 1.972 4.407 4.955 6.47 6.273 1.052.666 2.758.548 3.735 1.31.79.616.976 1.784 1.73 2.43 1.566 1.37 6.514 1.402 7.473 2.61.93 1.164-1.348 2.19.443 3.47 2.394 1.72 2.23-1.485 4.11-1.39.764.025.994 1.178 1.64 1.552 1.064.63 2.783.548 3.75 1.286 1.51 1.168 1.948 3.75 3.508 4.847 1.43 1.023 4.81.597 5.983 1.873 1.194 1.322.21 5.276.93 6.93 1 2.383 4.327 3.958 5.17 6.386 1.308 3.74-3.047 4.243-2.505 8.26l2.247.587.35 2.593c.83 1.84 3.41 2.897 4.25 4.738.367.8-.172 1.888.35 2.59.27.38 4.2 2.133 4.628 2.03 2.45-.626-3.514-2.972-1.3-4.235 2.058-1.16 3.24 4.06 4.983 4.63 1.695.558 2.15-1.047 3.7.388 0 0-.563-.51-.838-.77-1.58-1.45-1.732-2.023-2.02-4.133-.064-.48 4.687-8.282 5.324-8.66 6.212-3.566 17.022 5.595 23.888 4.62.426-.06.362-.794.545-1.174 3.923-8.403-7.058-6.444-2.96-15.248.976-2.09 3.18-.604 4.835-1.585.007 0 1.157-1.923 1.157-1.923 2.413-2.01 6.21-1.77 8.932-3.07.506-.234 1.197-.526 1.283-1.074.64-3.747-4.73-4.227-4.7-7.265.033-2.978 3.31-6.646 4.33-9.466 0 0-3.928-2.763-3.04-4.266l2.257-.925c.01-.02-1.9-7.56-1.885-7.682.143-.853 1.98-.648 2.154-1.5.548-2.696-2.085.852-.895-2.004.43-1.023 2.355-1.414 2.847-2.415.12-.265.057-.64-.14-.858-2.134-2.57-3.185-2.186-1.622-5.96 1.033-2.5.864.428 2.094-.31.545-.326-.193-1.736.418-1.832.393-.06.568.506.845.755.275.26.525.978.838.76.426-.294.164-1.006.24-1.505.448-2.812 1.336-2.313 2.437-4.21.572-.984-.173-2.638.156-3.573.665-1.863 3.062-2.26 3.763-3.222.366-.496-1.39-2.728-1.23-3.36.204-.883 1.554-1.175 1.81-2.044l-.41-2.595c1.016-2.41 5.365-2.135 2.928-8.43"/><path class="state" data-x="-45" data-y="-70" data-scale="1.8" data-active="0" fill="#D8AB5E" d="M336.504 343.766c1.582-1.678-2.953-1.374-2.596-3.178.69-3.61 2.71-1.324 1.894-7.346-1.542-1.45-1.995.165-3.684-.396-1.734-.57-2.913-5.83-4.96-4.657-2.205 1.27 3.732 3.633 1.293 4.26-.427.105-4.338-1.66-4.606-2.04-.52-.708.017-1.805-.348-2.61-.837-1.853-3.405-2.916-4.232-4.77l-.348-2.605-2.237-.595c-.54-4.04 3.792-4.55 2.494-8.313-.84-2.444-4.153-4.03-5.15-6.428-.714-1.666.266-5.643-.922-6.977-1.17-1.285-4.535-.855-5.958-1.886-1.552-1.104-1.99-3.7-3.49-4.88-.972-.742-2.676-.656-3.735-1.294-.646-.373-.87-1.536-1.636-1.562-1.87-.095-1.707 3.133-4.09 1.4-1.78-1.287.486-2.317-.44-3.493-.956-1.212-5.878-1.248-7.44-2.62-.752-.656-.937-1.83-1.725-2.453-.974-.763-2.67-.645-3.718-1.318-2.055-1.327-5.008-4.33-6.443-6.314-4.82-6.676 4.722-15.52 5.096-21.92.083-1.402-1.31-2.895-1.234-4.296.103-1.728 3.52-4.63 2.025-6.46-1.122-1.368-12.11-6.174-13.302-5.497-2.303 1.32-3.97 6.367-7.072 5.27-5.39-1.876-3.902-8.233-4.78-10.976-.237-.717-1.263-.928-1.585-1.6-.896-1.81-.602-4.193-1.4-6.05-2.177-5.054-9.002-6.015-12.88-9.202-1.294-1.057-1.864-3.114-3.22-4.082-3.55-2.533-10.075-4.512-12.693-8.38-.77-1.14-.566-3.075-1.152-4.323-.532-1.143-2.05-2.088-2.42-3.286-.333-1.066.633-2.522.303-3.59-.367-1.18-1.857-2.177-2.416-3.3-1.662-3.286-2.04-6.837-2.152-10.43-.062-2.653-.56-6.524.77-8.968.25-.47 1.254-1.024 1.254-1.024s-.802-.304-1.195-.462c-2.316-.905-2.512-2.174-4.445-3.38-3.534-2.206-5.62-4.554-7.887-8.068-.043-.062-7.4 1.274-10.47 1.783-10.662 1.818-21.282 3.222-32.026 4.364-40.18 4.238-80.33 7.243-120.706 8.32.25 4.77 2.65 3.617 4.488 7.732.495 1.126 1.016 6.956 1.067 7.025.08.156 7.414 3.647 7.72 3.994l-.59 1.81c.512 1.622 3.163 2.587 3.657 4.212.27.878-1.003 3.79-.427 4.452.328.373 2.917.062 4.202 1.522.245.284.73.84.73.84s5.74 4.81 9.258 5.64c2.155.52 3.318-3.834 5.358-2.097l.162 2.65c.454.81 2.352.798 2.86 1.584.258.423.203.975.312 1.457.21.968.806 1.932.644 2.91-.35 2.024-3.47-.123-4.107.254-.787.476-.014 1.938-.516 2.686-.364.52-1.658.498-2.014 1.017-.796 1.17-.243 3.245-1.09 4.497-.316.445-1.11.462-1.326.957-1.342 3.05 8.082 7.888 8.865 9.173l-.577 1.813c.197 3.13 2.348 2.33 3.725 4.185.617.812.197 2.774.922 3.475 2.352 2.26 6.713.714 9.158 2.045.25.132-.43.33-.655.49-1.385 1.016-.33 5.064-.202 6.746.502 6.77.987 13.553 1.492 20.327 2.093 28.6 4.205 57.22 6.307 85.817.575 8.77 1.175 17.528 1.765 26.288 46.358-3.11 92.65-7.138 138.845-12.093 13.023-1.395 26.05-2.857 39.073-4.406 2.297-.278 12.51-2.355 14.04-1.698 1.207.51 1.893 3.088 2.697 4.093 2.915 3.63 4.422 6.568.572 10.532-.99 1.017-3.27 1.15-4.107 2.275-.54.73.093 1.932-.39 2.688l-2.066 1.133c-.42.564-3.05 7.042-2.772 7.412.332.413 5.57-.667 6.27-.76 7.307-.892 14.605-1.81 21.902-2.74 0 0 .29-.856.428-1.29.49-1.522.804-3.84 1.674-5.175.32-.486 2.645-1.572 2.662-2.107.016-1.27-3.258-2.523-3.426-3.802-.215-1.734 5.01-2.788 4.673-3.432-.582-1.106-3.25-1.09-3.93-2.15-1.464-2.23 3.857-1.668 3.964-3.168.185-2.507-3.58-7.117-2.688-9.396.106-.258.437-.347.648-.525 4.71-3.77-.837 8.872 6.255 3.17 0 0 .675-3.6.737-5.405.018-.525-.748-2.566.36-2.71 1.543-.207 3.356 3.096 5.465 2.806 1.433-.186 3.002-4.552 2.883-5.698-.136-1.143-1.685-2.15-1.913-3.286-.49-2.483 1.79-1.244 2.612-2.136"/><path class="state" data-x="-208" data-y="-110" data-scale="1.68" data-active="0" fill="#AE8F5B" d="M376.74 298.06c-.082.55-.778.844-1.28 1.078-2.715 1.31-6.502 1.068-8.91 3.087 0 0-1.147 1.933-1.154 1.933-1.65.985-3.854-.508-4.82 1.593-4.09 8.853 6.863 6.88 2.95 15.327-.18.382-.12 1.118-.544 1.18-6.845.98-17.633-8.225-23.83-4.643-.638.38-5.373 8.222-5.313 8.703.287 2.117.44 2.698 2.015 4.155.275.26.836.775.836.775.816 6.016-1.206 3.733-1.895 7.335-.358 1.8 4.185 1.5 2.6 3.176-.822.887-3.107-.347-2.613 2.134.222 1.13 1.774 2.137 1.91 3.278.12 1.147-1.452 5.508-2.892 5.695-2.11.29-3.927-3.01-5.473-2.803-1.11.142-.345 2.18-.36 2.7-.063 1.808-.74 5.402-.74 5.402 14.42-2.127 28.826-4.323 43.232-6.625 2.254-.357 14.306-1.512 15.413-2.498 2.474-2.226-3.144-7.846-2.15-9.433.333-.515 5.507-.304 6.276-.344 3.82-.218 2.473.996 4.12 1.444 2.846.77 9.03-1.685 11.982-2.235 6.082-1.148 37.74-7.912 41.342-7.18.385.085.494.817.862.755 0 0 1.848-2.088 1.854-2.088 3.12-1.54 24.213-2.668 29.268-3.262 10.055-1.145 19.446-3.47 29.34-5.343 10.89-2.064 22.057-3.094 33.004-4.895 6.99-1.157 13.98-2.282 20.992-3.314 2.44-.362 6.165-.237 8.208-1.593.415-.28 1.22-.814 1.22-.814s.595-.715.883-1.067c1.237-1.508 3.052-2.744 4.776-3.678 3.337-1.797 13.037-5.398 15.318-7.69 1.118-1.105.488-4.46 1.722-5.742 1.78-1.863 6.557-1.79 7.883-4.383.226-.44-.053-.977-.076-1.475-.02-.495-.053-.992-.086-1.487-.016-.488-.238-1.013-.062-1.475.7-1.876 4.202-2.757 4.85-4.65.543-1.52-1.583-2.862-.233-4.436 3.396-3.935 8.812-6.207 12.453-9.93 5.06-5.155 9.2-11.745 13.61-17.457-1.48-1.164-4.802 1.514-7.336-.146-.49-.316.02-1.282-.397-1.708-1.784-1.856-5.4-1.286-7.203-2.89-1.102-.97-1.264-2.99-2.358-3.977-1.005-.918-3.1-.82-4.04-1.802-.954-1.006-.716-3.123-1.647-4.143-.563-.613-2.746-.39-3.15-1.102-2.133-3.733 1.737-.72-3.217-4.69-3.343-2.69-6.155-5.737-5.048-9.705 0-.004 1.19-1.158 1.19-1.158.385-2.79-1.807-3.85-2.706-5.712-.152-.31.03-.686.04-1.022.01-.343.033-.686.043-1.03.022-.223.03-.67.03-.67-4.776-5.595-8.955-3.834-12.17-6.366-1.776-1.405-1.902-7.31-3.93-8.16-1.03-.43-8.064 5.613-8.645 6.346 0 .007-.816 2.873-.816 2.876-.445.462-2.94.62-3.596.76-.328.064-2.312 1.403-2.39 1.403-1.09-.062-2.227-1.73-3.284-2.015-.465-.125-.952-.003-1.44-.003-.474 0-.95 0-1.43-.004-.474 0-.978.146-1.425 0-.707-.22-.98-1.385-1.738-1.43-4.77-.335-4.835 7.244-10.423 4.833-1.85-.8-3.532-4.178-5.356-5.207-3.91-2.19-10.244 3.18-14.214.157-2.427-1.84-3.77-6.55-6.006-8.687-1.084-1.04-3.376-.917-4.612-1.795-.664-.475-1.954-2.95-2.723-3.057-1.56-.188-4.06 3.427-5.642 3.792-2.142.492-4.36-2.753-6.135-2.414-1.432.277-2.9 3.25-2.9 3.25-5.25 4.913 2.788 2.928.115 8.046-.02.046-1.068 1.563-.35 1.86.813.31 3.248-1.573 3.596.208 0 .01-.872 2.85-.872 2.86.054.91 1.612 1.647 1.19 2.46l-2.234-.463c-1.373.125-4.14 1.18-5.32 1.893-2.022 1.24-4.983 6.45-7.27 6.734-.914.112-5.703-5.21-10.797-.7-2.1 1.858 3.147 7.963 2.606 10.265-.426 1.737-6.087 4.712-6.81 5.705-1.585 2.19-.146 5.995-2.046 8.413-2.56 3.265-4.623.67-6.075 1.98-3.57 3.217.423 13.873-2.247 15.575 0 0-2.77.484-2.785.49 0 0-.806 1.475-.806 1.48-.637.192-10.486-2.743-11.094-3.884-.64-1.215-1.92-5.915-4.523-5.476-2.033.35 2.37 2.328 1.993 3.23-.732 1.71-4.756 1.77-4.908 2.027l1.326 2.154c-.212.96-2.81 1.398-3.19 2.325-.53 1.3 1.572 3.983.896 5.197-.006 0-2.646 1.325-2.656 1.332-.88 1.226.488 3.053-1.516 3.818-.438.17-1.037.55-1.386.237-.345-.304.09-.907.14-1.362.026-.452.457-1.052.115-1.355-.58-.527-3.394.977-4.183.696-1.084-.38-2.566-4.45-4.225-3.764-1.188.498-1.974 2.46-3.058 3.173-.988.666-3.287.676-4.053 1.557-1.79 2.052.02 5.973-3.06 7.615-.495.26-1.135-.268-1.54-.64-2.762-2.47-7.51-4.95-11.613-5.273-1.887-.152-5.296 2.783-6.855 1.955-2.76-1.454.816-1.022-1.982-1.698-.385-.087-.34.77-.26 1.157.498 2.324 3.384 3.337.12 5.32-3.754 2.265-.544-3.18-2.653-3.154-1.273.02-2.66 2.11-3.93 2.385-2.275.485-3.592-2.53-5.436-2.737-3.673-.408 3.543 6.857-.91 8.147-.92.257-2.816-1.44-3.453-1.128l-.186.783c-1.018 2.83-4.287 6.52-4.32 9.512-.028 3.056 5.324 3.538 4.69 7.304"/><path class="state" data-x="-140" data-y="-158" data-scale="1.41" data-active="0" fill="#DFB875" d="M655.725 291.917s-6.638 1.01-9.96 1.52c-1.882.276-1.263.606-2.627 1.377-3.98 2.287-11.074 2.518-15.584 3.532-18.842 4.21-37.74 8.264-56.663 12.178 0 0-.803.534-1.215.813-2.025 1.354-5.728 1.23-8.152 1.592-6.967 1.03-13.907 2.153-20.848 3.31-10.877 1.8-21.968 2.828-32.785 4.89-9.826 1.872-19.155 4.194-29.143 5.338-5.02.593-25.97 1.72-29.07 3.26-.006 0-1.837 2.085-1.837 2.085-.366.062-.478-.67-.856-.755-3.58-.73-35.025 6.03-41.063 7.176-2.934.548-9.077 3-11.903 2.234-1.637-.45-.297-1.667-4.09-1.446-.77.043-5.904-.172-6.237.346-.987 1.578 4.593 7.19 2.135 9.417-1.1.988-13.07 2.135-15.313 2.497-14.303 2.3-28.615 4.494-42.938 6.623-7.06 5.684-1.535-6.933-6.226-3.167-.21.175-.54.267-.646.524-.89 2.273 2.86 6.873 2.675 9.377-.103 1.49-5.402.932-3.946 3.155.68 1.055 3.334 1.038 3.914 2.142.343.646-4.862 1.693-4.65 3.427.17 1.275 3.425 2.527 3.412 3.792-.02.53-2.333 1.618-2.648 2.103-.87 1.33-1.183 3.64-1.664 5.158-.138.432-.43 1.285-.43 1.285.99.91 1.237 1.15 2.226 2.065 3.426 3.2-1.772.36-3.097 2.455-1.88 2.962 3.524 1.743 1.996 4.15-.337.53-2.472-.11-2.883.37-.6.683.092 1.935-.393 2.698-.816 1.273-5.13 1.217-6.27 2.548-2.17 2.518 4.35 1.994 5.592 3.7.56.765-3.73 2.722-4.002 3.146-.69 1.088 1.854 1.516 1.058 2.515-1.35 1.645-4.042-1.9-5.073.638-1.41 3.492 4.81 4.75 2.925 5.792-4.83 2.663-2.497-2.326-4.66-2.062-2.627.323-3.005 5.65-2.992 5.65 1.775-.224.194-1.788 1.967-2.01.605-.08 2.385 4.356 2.095 5.03-.382.878-3.23 1.264-3.426 2.176-.208 1.048 4.12 1.064 4.69 2.057.375.66.576 5.915.02 6.158-.923.41-2.102-.938-3.024-.507-1.027.485-.718 3.87-1.653 4.604-.656.518-3.162-.22-3.64.44-.268.35.108.86.16 1.3.044.428.152 1.304.152 1.304 30.9-3.76 61.736-7.92 92.528-12.48-.237-1.604 4.575-1.485 6.088-1.696 6.733-.91 13.467-1.832 20.187-2.784 28.595-4.023 57.032-8.768 85.443-13.904 18.87-3.12 37.706-6.39 56.52-9.812 0 0-1.85-8.8-1.102-13.123.73-4.218 8.14-.245 9.54-4.584.138-.45.006-.945.006-1.42.026-1.43.033-2.856.043-4.293 0-.465-.15-.972.007-1.414.695-1.922 8.393-9.21 10.597-10.18 1.302-.578 2.962-.325 4.29-.882.514-.224.685-1.206 1.24-1.156.01 0 1.776 1.42 1.776 1.42 2.78-.022 2.833-3.12 4.29-4.454.85-.79 2.624-.758 3.38-1.62.437-.463-.104-1.432.36-1.86.534-.483 1.556 0 2.14-.44 1.798-1.39 2.888-4.738 4.594-6.34 2.428-2.24 7.07-2.145 7.65-2.517 2.36-1.574 1.682-9.31 1.69-9.32 1.293-1.002 3.355.643 4.448-.07.563-.364.32-3.09.665-3.712.445-.808 4.062-4.544 4.908-4.67 3.71-.507 1.227 5.328 3.964 4.505 4.075-1.23 4.302-7.202 7.474-9.727 1.038-.807 4.66-3.638 5.78-3.983 2.37-.71 4.49 3.678 6.41 2.135 1.272-1.008 3.605-9.683 4.705-11.84.392-.752 2.065-3.873 2.734-4.22.78-.42 3.906.907 3.405-1.237-.884-3.852-1.09-8.44.833-12.323"/><path class="state" data-x="-102" data-y="-300" data-scale="1.94" data-active="0" fill="#BC9C64" d="M288.19 390.784c-.277-.36 2.345-6.747 2.765-7.3 0 0 2.044-1.112 2.06-1.122.483-.75-.147-1.932.39-2.656.837-1.105 3.112-1.236 4.1-2.244 3.842-3.908 2.34-6.808-.57-10.383-.803-.992-1.483-3.54-2.692-4.036-1.525-.652-11.718 1.4-14.003 1.674-13.003 1.527-26.003 2.968-39 4.342-46.096 4.89-92.29 8.86-138.552 11.926 0 0 .874 4.064 1.32 6.1.768 3.55 1.54 7.105 2.307 10.657 2.312 10.62 4.983 21.23 7.014 31.927 2.25 11.935 2.05 24.3 2.596 36.386.946 20.563 1.864 41.13 2.788 61.696.732.75.987 1.778 1.67 2.463.676.677 2.816.413 3.064.67.268.255-.707.516-.69.894.08 1.266 3.243.914 3.817.598 2.852-1.554-1.843-1.974 3.688-1.123.95.146 7.426-1.648 8.323.267 1.774 3.753 1.66 22.09 2.062 27.397 43.366-3.19 86.735-6.86 130.026-10.965 0 0 2.21-2.326 1.88-3.652-.1-.433-5.17-2.73-3.488-3.938.882-.632 3.83.306 4.516-.495.512-.593-.647-3.466-.473-4.264.157-.785 2.057-2.026 1.957-2.812-.2-1.8-5.3 3.665-4.888-2.918.088-1.404 4.276-4.04 3.177-5.528-2.012-2.693-2.09 5.195-6.467 3.29-1.09-.472 3.934-3.537 3.282-4.67-2.823-4.87-2.556 5.302-5.053 2.272-.314-.368 1.914-3.107 1.852-3.65-.885-7.987-.86 5.865-1.75-2.118-.218-1.928 1.92-.74 2.397-2.28.095-.283.365-.586.286-.886-.39-1.322-3.702-3.492-3.56-4.814.032-.388.703-.354 1.063-.544 1.154-.58 5.735 4.97 7.34 1.36.12-.282-.32-.543-.475-.816-1.37-2.364-3.954 1.82-4.58-3.817-.04-.29-.348-.688-.11-.85.373-.24 7.236.905 6.715-.74-.314-.993-2.94-1.247-3.267-2.225-.423-1.234 1.27-3.17 1-4.446-.18-.808-3.2-2.276-1.538-3.505.366-.268.806.34 1.198.514.743.323 7.943-3.642 6.794-6.394-.09-.202-5.71.14-4.756-2.056.89-2.032 6.808.24 6.58-1.612-.205-1.717-4.438-.554-5.387-1.12-3.28-1.994 2.58-1.056 2.867-1.187l1.215-2.45c.796-1.618 3.573-1.572 3.273-4.126l-.938-1.626c1.916-2.417 3.91 2.173 3.993 2.137.492-.17.75-3.116 1.073-3.586.578-.853 2.266-1.15 2.755-2.055.674-1.265-1.165-3.79-.63-5.132.584-1.403 2.13-1.084 1.92-2.82-.034-.293.09-.64-.098-.86-2.14-2.416-3.745-.603-2.463-4.922.09-.296-.05-.863.272-.89 1.43-.167.767 2.83 1.133 3.33.423.57 3.45-2.417 3.38-3-.196-1.585-3.182-.58-3.892-1.274-.707-.693-1.32-5.206.954-4.46 2.253.754-.564 3.08-.32 3.525.647 1.11 3.396-1.337 3.475-2.16.06-.718-2.566-5.077-1.46-5.897 2.61-1.975 1.024 2.064 1.77 2.395l2.316-1.428c1.843-1.154 1.49.483 2.718-.033 3.055-1.3.724-6.198-.21-7.793 0 0-.11-.862-.153-1.285-.053-.433-.43-.94-.165-1.285.482-.656 2.996.075 3.65-.437.937-.727.63-4.07 1.66-4.55.925-.426 2.104.905 3.032.5.558-.24.356-5.436-.02-6.087-.575-.98-4.91-.996-4.707-2.034.198-.9 3.056-1.28 3.438-2.147.292-.667-1.492-5.055-2.1-4.973-1.776.217-.195 1.764-1.972 1.983-.014 0 .366-5.267 3-5.583 2.165-.26-.17 4.67 4.672 2.037 1.893-1.032-4.346-2.276-2.933-5.728 1.034-2.508 3.732.998 5.083-.63.803-.988-1.75-1.41-1.057-2.485.27-.42 4.57-2.36 4.013-3.112-1.25-1.687-7.785-1.17-5.608-3.66 1.146-1.313 5.47-1.26 6.285-2.517.49-.754-.205-1.99.396-2.665.412-.478 2.55.156 2.882-.366 1.54-2.383-3.88-1.174-1.998-4.104 1.33-2.07 6.543.734 3.104-2.427-.99-.904-1.238-1.145-2.226-2.042-7.286.92-14.568 1.823-21.86 2.705-.693.085-5.922 1.154-6.252.744"/><path class="state" data-x="-350" data-y="-360" data-scale="2.21" data-active="0" fill="#C39547" d="M412.703 666.977c-.11-.3-.213-.604-.11-.74-3.418-17.412-6.82-34.838-10.212-52.27-1.594-8.13-3.906-16.443-4.798-24.672-1.06-9.736-.514-19.937-.78-29.733-.562-20.378-1.15-40.77-1.8-61.153-.502-15.724-1.013-31.446-1.573-47.17-.115-3.43.642-16.552-.67-18.896-.706-1.252-3.94-3.158-5.108-4.52-30.62 4.55-61.283 8.7-92.01 12.452.925 1.607 3.237 6.548.208 7.863-1.216.52-.868-1.132-2.696.032l-2.293 1.44c-.742-.333.833-4.41-1.76-2.417-1.096.828 1.512 5.23 1.45 5.953-.075.835-2.804 3.3-3.443 2.18-.25-.45 2.55-2.798.314-3.56-2.252-.75-1.646 3.803-.945 4.503.704.7 3.665-.314 3.862 1.286.068.59-2.936 3.606-3.354 3.027-.363-.503.295-3.53-1.12-3.36-.324.027-.184.6-.275.898-1.27 4.36.32 2.53 2.443 4.975.19.217.066.572.093.86.217 1.753-1.323 1.43-1.9 2.848-.53 1.354 1.298 3.898.63 5.178-.488.918-2.162 1.214-2.735 2.075-.32.474-.576 3.448-1.064 3.622-.082.033-2.063-4.602-3.96-2.16l.93 1.642c.3 2.576-2.453 2.53-3.246 4.167l-1.205 2.47c-.285.13-6.1-.816-2.844 1.192.942.57 5.143-.6 5.342 1.13.227 1.873-5.644-.42-6.524 1.63-.947 2.216 4.628 1.867 4.717 2.074 1.14 2.778-6 6.782-6.738 6.453-.39-.174-.825-.782-1.19-.52-1.646 1.24 1.348 2.722 1.528 3.537.27 1.29-1.412 3.24-.993 4.484.32.986 2.93 1.25 3.24 2.248.517 1.663-6.29.503-6.66.746-.235.165.07.565.105.858.622 5.688 3.187 1.466 4.546 3.86.154.27.59.53.472.82-1.592 3.643-6.132-1.96-7.28-1.38-.358.193-1.026.157-1.053.56-.144 1.327 3.142 3.517 3.528 4.85.082.304-.187.612-.285.896-.472 1.552-2.595.355-2.378 2.3.88 8.062.858-5.923 1.736 2.138.065.55-2.15 3.313-1.838 3.688 2.473 3.054 2.21-7.212 5.012-2.298.646 1.145-4.337 4.237-3.253 4.71 4.337 1.927 4.415-6.034 6.414-3.316 1.084 1.503-3.066 4.16-3.155 5.58-.41 6.643 4.648 1.126 4.852 2.944.1.795-1.788 2.045-1.945 2.837-.17.805.976 3.704.468 4.302-.678.81-3.6-.138-4.478.5-1.667 1.22 3.36 3.544 3.46 3.97.327 1.343-1.86 3.69-1.86 3.69-.564.82-3.244 3.733-1.03 4.47 4.737 1.562 1.468-5.503 4.878-4.02 3.076 1.33-3.174 9.693-2.61 10.728.616 1.178 5.312.103 5.532 1.992.344 3.14-5.975 2.81-3.842 6.522 1.69 2.93 5.392-4.698 6.672-1.614.69 1.663-2.666 2.777-2.63 3.777.013.404 4.474 2.305 3.4 3.097-.138.085-7.993-1.114-4.338 2.222 1.743 1.58 4.56-.645 6.132.175.42.228-1.05 3.485-.274 4.393.68.806 3.44.385 3.967 1.288.963 1.64-2.496 1.517-2.827 2.06l.288 2.57c-.433 1.062-9.188.628-7.842 5.227.963 3.317 5.74-2.202 6.813-.763.706.943-1.79 5.175-2.45 5.483-.558.267-3.57-.878-3.893-.43-.51.738 5.016 1.594 4.174 3.01-.818 1.368-3.27 1.835-4.265 3.084-1.435 1.746-2.49 4.932-3.102 6.845-.396 1.24-2.48-2.34-3.76.854-.16.407-.158.88-.24 1.324-.645 3.527 1.828-.2 2.353 1.614.402 1.387-2.62 1.723-3.08 2.36-.763 1.062.04 4.54-.97 5.306-.995.766-4.316-1.877-4.585.486-.313 2.78 3.392.66 4.007 1.314 1.438 1.513-3.11 3.094-3.45 3.84-1.05 2.255 2.19 4.018 2.156 5.825-.072 3.424-3.328-1.648-3.825.413-.675 2.755 3.498 3.978 2.928 5.746-.55 1.688-6 2.274-5.96 2.36.447 1.055 2.47 2.343 2.668 3.185.227.99-1.503 2.62-1.183 3.586.428 1.22 3.15 1.846 3.428 3.102.252 1.055-2.696 2.034-2.804 2.886-.04.39.478.684.852.776 3.655.953 14.102-1.51 18.307-1.963.508-.06 1.02-.107 1.526-.18 15.765-1.73 31.514-3.58 47.257-5.522 4.605-.565 15.765-3.433 19.797-2.505 2.834.667-4.12 14.717-3.22 17.764.013 0 1.756 1.5 1.763 1.5.53.864.412 2.458 1.198 3.313 1.647 1.722 4.494 2.38 6.073 4.408 3.367 4.336 3.092 9.06 6.404 13.014 1.46 1.736 1.467-.867 3.088.362.767-.697 1.537-1.224 2.34-1.078.383.065.53.884.896.746.505-.185.74-3.113 1.098-3.61.895-1.232 3.7-1.794 4.308-3.168 1.186-2.683-3.072-2.324-1.23-3.304.57-.3 3.506-.27 3.987.325l-.55 1.812c.228.345 3.006-.914 3.28-1.022 1.86-.68 11.026-3.81 11.956-4.82 1.196-1.294-.298-3.415 3.296-2.767 2.105.378 3.825 3.023 6 3.48 1.15.254 4.47-.73 5.29-1.613.44-.457-.075-1.937.53-1.818.977.217.97 1.982 1.907 2.327.002.014 3.104-.44 3.104-.44l1.782 1.473c.006 0 1.303-1.916 1.303-1.916.45-.25 1.116.08 1.542-.226l-.14-.967"/><path class="state" data-x="-121" data-y="-485" data-scale="2" data-active="0" fill="#D9B67B" d="M391.4 730.233c-.267.05-.63-.113-.79.112-.168.234.393.765.13.854-2.812 1.035-5.63-7.044-7.336-6.813-1.854.26-.27 1.774-2.126 2.02l-1.01-1.596c-.64-.208-5.43 1.36-5.618-.11-.12-.84 3.078-1.285 2.24-1.166-2.02.268-3.428-.41-5.3-.155-.713.08-3.926 1.008-4.293.124-.242-.572.535-2.905.397-3.084-1.575-2.07-6.39-.03-8.177-1.53-1.752-1.478-1.827-4.778-3.067-5.258-.275-.106-1.076-.146-.83-.32.34-.253.843.002 1.27.006.847.01 1.7.01 2.553.013.43.004 1.076.385 1.267.004 1.076-2.085-2.602-3.256-3.187-3.75-.275-.244.723.1 1.09.14.364.06.722.116 1.073.152.36.056.754-.003 1.08.148 1.698.774 4.222.854 6.266 1.212.102.013-.082-.22-.17-.27-.525-.355-.854-.55-1.087-.67-.374-.026-.68-.357 0 0 .29.017.584-.148.48-.99-.225-1.687-3.558 3.26-4.247-2.044-.15-1.182 3.436-1.11 3.8-1.374.544-.407 1.224-4.52 1.778-4.598 2.04-.26.84 3.837 4.25 2.056.468-.252 1.347.27 1.554-.205.41-.933-1.76-1.356-1.896-2.362-.1-.78 1.933-1.416 1.336-1.916-.395-.338-1.155.536-1.553.198-.692-.562 1.12-2.088.437-2.664-.64-.536-1.397 1.284-2.23 1.168l-.994-1.604c.18-2.062 1.8.553 3.1-.42.247-.17-.06-.566-.102-.845-.338-2.52-3.277.83-4.01-.338-.84-1.33 2.452-3.426 2.445-3.52-.105-.802-1.503-.52-2.228-.868-.876-.414-1.664-1.772-2.56-1.414-.827.364.01 1.906-.45 2.68-.547.95-2.365 1.17-2.89 2.13-1.723 3.157 1.397 10.055-5.97 6.003-1.807-.993-.353-2.324-.714-2.513-1.804-.996-6.686 2.185-6.673-2.628.004-2.486 9.384-.928 8.583-7.213-.305-2.34-3.23 2.17-3.675 2.228-1.85.238-.21-2.933-.44-3.43-1.275-2.853-1.114 4.26-1.79 4.588-2.067 1.007-2.77-4.227-5.1-2.826-1.082.642-3.297 5.527-5.485 6.788-3.77 2.18-23.754 1.688-19.73-6.27.455-.886 8.56-10.597 8.97-10.666 2.342-.38 8.045.455 9.737 2.266.003.004 1.093 2.476 1.093 2.476.387.266.925.017 1.388.033.925.037 1.85.063 2.776.093.462.017.938-.12 1.384.03 1.066.38 1.952 1.502 3.327 1.327.823-.11 1.49-1.572 2.218-1.165.48.268-.623 4.246 5.883 2.727.352-.1 3.95-1.502 1.61.212-.238.178-1 .426-.728.535 1.58.612 2.946-1.158 4.324-2.406-1.624-1.24-1.63 1.383-3.097-.368-3.317-3.98-3.04-8.737-6.41-13.1-1.583-2.045-4.434-2.707-6.084-4.445-.787-.857-.67-2.46-1.2-3.332-.007 0-1.752-1.507-1.766-1.507-.902-3.07 6.063-17.214 3.226-17.89-4.04-.933-15.217 1.957-19.83 2.523-15.77 1.96-31.544 3.82-47.335 5.56-.51.077-1.018.124-1.53.187-4.212.457-14.678 2.933-18.333 1.976-.38-.096-.893-.39-.856-.784.108-.86 3.062-1.844 2.812-2.903-.282-1.268-3.013-1.9-3.436-3.12-.325-.974 1.41-2.615 1.185-3.61-.203-.85-2.225-2.15-2.674-3.212-.043-.083 5.423-.672 5.968-2.373.578-1.78-3.604-3.012-2.933-5.785.506-2.08 3.76 3.03 3.836-.417.03-1.82-3.212-3.595-2.162-5.865.342-.755 4.897-2.343 3.456-3.865-.614-.66-4.328 1.476-4.01-1.327.266-2.38 3.593.28 4.59-.487 1.015-.774.21-4.275.975-5.342.464-.642 3.485-.98 3.085-2.376-.524-1.83-3.002 1.926-2.355-1.63.082-.442.08-.92.236-1.336 1.283-3.214 3.366.394 3.77-.854.61-1.927 1.67-5.137 3.104-6.895 1-1.258 3.454-1.724 4.274-3.104.844-1.427-4.694-2.288-4.18-3.03.32-.45 3.34.703 3.897.435.664-.314 3.164-4.57 2.456-5.523-1.073-1.45-5.86 4.11-6.828.765-1.346-4.624 7.428-4.188 7.857-5.256l-.288-2.59c.33-.544 3.796-.425 2.83-2.07-.527-.91-3.29-.485-3.976-1.3-.773-.914.696-4.19.28-4.422-1.578-.82-4.396 1.416-6.143-.176-3.664-3.36 4.21-2.147 4.34-2.237 1.08-.798-3.392-2.71-3.408-3.117-.03-1.007 3.333-2.13 2.64-3.804-1.28-3.104-4.992 4.574-6.686 1.63-2.133-3.74 4.193-3.41 3.852-6.57-.227-1.9-4.92-.818-5.548-2.006-.562-1.043 5.702-9.46 2.622-10.8-3.416-1.496-.142 5.62-4.886 4.048-2.222-.745.462-3.674 1.026-4.505-43.007 4.175-86.093 7.904-129.172 11.142.92 12.465 1.837 24.916 2.75 37.383.213 3.01-.07 13.415 1.14 15.55 1.222 2.147 5.553 3.703 7.328 5.543 2.307 2.417 4.02 6.063 4.544 9.24.256 1.557-.886 3.754-.367 5.253.676 1.93 3.645 2.106 4.626 3.4.298.394.44.94.366 1.423-.05.39-.722.547-.702.927.15 1.788 4.958 4.02 5.092 5.7.072.992-1.538 1.71-1.332 2.71.15.77 2.78 1.675 3.262 2.34.63.82.325 2.698 1.063 3.4.386.376 2.958.12 3.148.61.44 1.123-1.418 3.238-1.194 4.446.145.873 2.71 2.416 2.585 3.267l-2.245 1.042c-1.214 2.155 1.766 2.635 1.818 3.34 0 0-1.342 2.7-1.346 2.7-.643 3.294.224 7.342-1.502 10.56-.58 1.074-2.468 1.687-2.9 2.832l.2 2.585c-.378 1.043-2.27 1.016-2.133 2.77.114 1.53 2.257 3.337 1.968 5.04-.416 2.325-2.838 2.33-1.938 5.36 2.365 8.045 4.76 11.163-.105 19.063l-.097.14c.998.853 1.425 2.637 1.21 4.097-.074.49-.92 3.306-1.305 3.567-2.018 1.313-6.447.23-3.596 4.597.18.288 2.41 2.383 2.542 2.402 1.36.145 3.897-3.38 5.24-3.87 4.57-1.69 17.696-2.85 22.727-2.73 9.297.21 17.82 5.375 26.766 7.146 3.806.738 7.95.695 11.817 1.02 2.08.183 5.388 1.105 7.396.626 1.623-.397 2.9-2.456 4.475-3.032 1.503-.562 3.576.156 5.033-.51 3.786-1.728-.217-.258.302-1.754.053-.14 2.31-.11 2.362-.248.57-1.655-3.882.42-3.938.404-.256-.113-1.923-2.99-1.896-3.284.02-.774 1.98-1.34 1.4-1.863-.515-.456-3.185 1.522-3.84 1.248-.14-.06-1.176-3.313-1.124-3.356.365-.394 1.05-.105 1.568-.155.525-.06 1.09-.364 1.575-.152.525.216-.403 1.768.164 1.708.283-.023 6.42-3.727 6.717-4.13.345-.47-.508-1.265-.17-1.73.587-.77 1.933.81 2.44.627 1.237-.477 1.61-1.026 3.32-1.212.427-.032.93-.36 1.296-.132 2.835 1.73-3.05 1.186-1.125 4.45.29.505-.26 1.343.168 1.72.498.437 8.36-3.41 10.804-2.85 2.087.47-.203 3.568.102 4.746.765 2.91 3.137-.222 4.456.83 1.072.87.524 5.134.53 5.147.392.443 4.27-1.314 4.965-1.228 1.887.248 4.492 3.66 7.117 2.524.925-.41.983-8.155 2.65-6.687 2.386 2.086-2.71 4.098-.987 7.368 1.687 3.2 6.06 2.88 7.746 5.207.527.728 1.01 5.792-1.022 5.31-1.49-.35-.6-3.608-1.26-4.19-.45-.395-.922 1.25-1.48 1.032l-1.288-2.162c-2.27-1.84-2.195 1.36-3.488 2.244-.45.324-1.29-.686-1.624-.25-.246.34.43.727.66 1.084 1.434 2.426 11.49 5.735 13.593 5.137.903-.26.342-1.777 2.192-1.98.263-.035.762-.353.787-.092.078.778-1.703 1.173-1.392 1.894.09.2 2.857-.446 3.156-.367 1.135.312 2.3 2.125 3.448 2.21 3.28.24 1.03-2.39 1.283-2.75.36-.485 1.086.61 1.683.673.788.076 1.67-.665 2.376-.27.794.446.082 1.72-.594 1.8-.263.03-1-.08-.798.092.417.357 4.702.314 4.84.302.99-.112.77-2.277 1.283-2.744.57-.542 1.41 2.2 1.77 1.517.638-1.202-1.745-4.445.194-5.22.514-.215.767-.23.944-.186.065-.283.193-.647.488-1.293 1.05-2.25-2.4-1.072-.305-2.565.242-.17.45-.562.73-.516 1.895.268 2.655 1.423 4.154 1.244 1.025-.13 1.517-3.654 1.957-3.707 2.71-.334 1.77 3.15 2.312 3.767.433.486.853-1.065 1.44-1.337 1.68-.752 2.827 2.84 4.045 2.684.63-.072-.033-1.728.584-1.794.91-.12 1.27 1.924 1.104 2.463-.74 2.283.11 2.5 1.4 5.027.955 1.854-.823-.222-.583 1.8.148 1.15 2.08-1 3.01-1.667.006-.007 2.204-1.565 2.22-1.57.877-.77 2.19-1.99 2.826-2.96 1.877-2.864-2.444-.756-2.09-4.072.085-.903 1.46-2.58 2.148-2.006.197.176.525-.065.788-.105.065-.007.203.046.196-.017-.174-1.403-1.9-8.38-2.037-8.427-1.787-.637-3.838.82-5.61-.166-.305-.18-.68-1.437-.983-1.612-.102-.056-.15-.065-.236-.122-.45.546-1.758-.894 0 0 .105-.126.175-.328.132-.738-.013-.05-.68-.24-.213-1.715.064-.2 3.234.888 10.843 3.847.862.35 2.234-.646 3.137-.388l1.778 1.503c1.696-.213-.076-2.27.46-2.665.317-.216 2.545 1.092 2.574 1.41l-1.46 1.06c-.485 2.822 2.927.316 3.258.45l-.57 1.806c.13.223.535-.194.78-.098.364.142.762.4.89.754.476 1.288-3.38 1.722-2.8 2.966l2.612-.338c.532-.066 2.685.593 2.993.483.003-.01 2.132-2.013 2.136-2.013 2.694-1.61.762 3.158 2.13 4.06.813.535 3.074.138 4.053.33l1.673.648c.24-.17-.06-.566-.102-.854-.033-.287-.28-.625-.11-.854.152-.22.527-.066.78-.105.265-.024.754-.37.783-.107.053.39-.676.56-.673.96.062 2.356 4.48 3.72 4.502 3.743.516.63-.11 3.98 2.03 3.197 3.19-1.148.844-2.728 1.405-4.527.09-.298-.03-1 .286-.907.73.208.217 1.704.816 2.203 3.298 2.73-.317 2.15-1.617 3.98l.233 1.7c-.48 1.887-1.887 3.628-2.48 5.54-.263.82 1.69-.54 2.247-1.168.338-.37.42-.92.637-1.38 1.27-2.847 2.225-3.34 4.102-5.332.43-.454-.06-1.86.558-1.813 1.017.082 3.69 6.662 5.535 5.328.728-.536-1.015-1.56-1.126-2.452-.094-.686 1.248-3.65 1.897-3.74.397-.046.53.798.91.734.622-.075-1.21-.99-1.022-1.585.328-1.05 2.425 1.45 2.592 1.377l1.23-2.77c-.666-1.765-3.632.645-3.93.54-.273-.098-.083-.57-.122-.852-.114-.9 8.69-4.678 1.905-3.747"/></svg>