<svg class="scaling-svg" viewBox="0 0 655 750"><path class="state" data-x="38" data-y="28" data-scale="34" data-active="0" fill="#CBB082" d="M.555 15.75c-2.082 2.082 2.334 4.883 2.834 6.087.186.456.03.984.06 1.472.02.492.04.986.056 1.474.026.49.277 1.028.07 1.474-.26.585-2.878.56-1.855 1.852.323.41 1.13.352 1.32.832.148.337-.747.57-.6.92.12.296 4.53.208 4.793 5.988.08 1.74-2.46 3.136-2.392 4.542.034.994 1.595 3.063.84 4.398-.485.837-2.47 3.288-2.4 4.532.006.364.75.5.685.854l-1.91.97c-.46.68-1.53 5.56-1.053 6.25.515.736 4.76 2.565 4.713 3.346-.023.524-1.29.42-1.27.944.034.52 1.023.417 1.35.824 1.054 1.312 1.71 3.566 2.19 5.225 0 0 3.527 1.105 3.382 2.504-.158 1.45-1.41 3.97-1.067 5.364.404 1.625 2.976 2.677 3.47 4.276.49 1.52-1.222 3.766-.41 5.335.716 1.36 2.696 2.046 3.45 3.387.564.986.206 2.558.83 3.505.866 1.344 3.426 1.915 4.112 3.354.58 1.214-.232 3.138.223 4.42.632 1.84 3.104 3.26 3.56 5.143.52 2.23-.53 4.396-1.032 6.252-.652 2.442 1.216 3.413 1.595 5.24.177.886-1.13 1.98-.545 2.68.81.973 2.585-1.193 3.278-1.048 1.79.38-.194 2.736.177 3.528.396.868 3.044.736 3.423 1.602.69 1.653-1.714 4.61-1.024 6.255.612 1.453 2.966-.05 2.798 2.51-.064 1.07-2.338 2.47-1.767 4.525.558 2.103 2.582-.237 3.382.706.363.45-1.25 5.32-1.03 6.257.83 3.355 2.98 5.66 3.188 9.57.13 2.628-1.728 5.737-1.616 8.048.094 1.595 3.49 3.11 4.418 6.85 40.252-1.076 80.278-4.08 120.33-8.314 10.713-1.142 21.297-2.54 31.93-4.36 3.06-.51 10.395-1.85 10.438-1.785 2.264 3.515 4.34 5.864 7.863 8.062 1.93 1.21 2.12 2.477 4.43 3.378.395.158 1.193.466 1.193.466 6.45-.69-.93-8.646-.36-9.737 1.25-2.434 9.797-5.38 10.163-6.44 1.003-3.033.834-6.176 1.695-9.083.793-2.654 4.076-4.912 4.558-7.63 1.61-9.205-11.977-9.49-6.005-23.35.788-1.814 11.653-2.333 13.71-3.35 1.665-.815 2.596-3.113 4.202-4.05 2.254-1.31 6.866-1.822 8.163-4.543 1.17-2.438-.297-6.34.92-9.02.7-1.544 2.828-2.447 3.518-4 .927-2.098 1.673-7.692 1.432-9.98-.874-8.16-7.783-6.906-12.065-11.91-1.61-1.89-.806-4.424-3.158-5.863-1.824-1.12-8.76-4.06-7.516-6.243-1.615-13.794-15.103-4.73-18.363-11.263-.91-1.81-.498-4.25-1.346-6.09-.434-.95-1.74-1.495-2.23-2.43-1.33-2.56-2.832-7.464-3.097-10.344-.287-3.053 3.594-6.514 2.88-9.238-.798-3.062-3.374-2.15-4.972-3.903-1.6-1.754-1.42-6.98-1.42-6.98l-1.56.176c-2.083.23-4.152.45-6.234.673-4.672.502-9.354.993-14.038 1.47-15.11 1.56-30.243 2.994-45.374 4.326-44.426 3.896-88.938 6.828-133.49 8.82-1.064.052-5.733-.412-6.42.282"/><path class="state" data-x="39" data-y="12" data-scale="29.5" data-active="0" fill="#E2BE7D" d="M389.644 226.526c-.433-1.112-1.643-2.106-1.932-3.248-.12-.485 0-.99 0-1.477.013-.5.013-.984.013-1.476 0-.496.16-1.02 0-1.483-1.05-2.815-5.235-5.29-6.895-7.812-1.605-2.445 2.533-3.075 2.756-4.86.21-1.496-2.99-3.36-2.868-4.876.13-1.654 3.324-2.104 3.703-3.233.934-2.744-2.49-16.357-3.06-20.006-5.262-34.434-10.54-68.87-15.81-103.304l.03-.092c-5.715-3.416-5.426-11.944-8.966-17.25-.646-.96-2.207-.975-3.068-1.64-2.078-1.582-4.534-6.7-4.996-9.166-.587-3.125.082-5.988-.24-9.184-.037-.315-.113-.642-.156-.96h-.02c-37.014 4.992-74.094 9.63-111.184 13.926-1.256 2.167 5.733 5.09 7.57 6.205 2.37 1.43 1.56 3.95 3.185 5.83 4.312 4.972 11.273 3.725 12.15 11.836.246 2.27-.502 7.836-1.437 9.918-.695 1.542-2.84 2.44-3.545 3.98-1.227 2.66.252 6.54-.926 8.967-1.308 2.703-5.953 3.21-8.224 4.515-1.62.93-2.557 3.215-4.235 4.027-2.072 1.01-13.02 1.526-13.814 3.33-6.018 13.778 7.673 14.06 6.05 23.21-.483 2.703-3.796 4.945-4.59 7.586-.866 2.886-.696 6.015-1.707 9.03-.37 1.053-8.983 3.977-10.24 6.397-.575 1.087 6.862 8.993.36 9.68 0 0-1.008.548-1.258 1.016-1.334 2.428-.837 6.275-.77 8.904.11 3.568.49 7.102 2.155 10.366.562 1.114 2.06 2.107 2.427 3.275.334 1.063-.635 2.51-.303 3.566.372 1.196 1.894 2.135 2.43 3.27.59 1.24.387 3.16 1.156 4.296 2.632 3.843 9.184 5.808 12.75 8.32 1.363.966 1.94 3.004 3.232 4.06 3.895 3.167 10.752 4.118 12.937 9.14.807 1.844.507 4.213 1.404 6.01.324.667 1.356.88 1.594 1.592.88 2.72-.613 9.037 4.8 10.9 3.116 1.09 4.79-3.924 7.105-5.233 1.2-.676 12.234 4.1 13.36 5.457 1.5 1.822-1.927 4.703-2.036 6.423-.074 1.39 1.325 2.87 1.247 4.266-.38 6.358-9.962 15.143-5.122 21.777 1.437 1.97 4.406 4.954 6.47 6.272 1.05.665 2.757.547 3.734 1.31.79.615.976 1.783 1.73 2.43 1.566 1.37 6.514 1.4 7.473 2.61.93 1.163-1.348 2.19.443 3.47 2.394 1.72 2.23-1.486 4.11-1.39.764.024.994 1.177 1.64 1.55 1.064.63 2.783.55 3.75 1.287 1.51 1.168 1.948 3.75 3.508 4.847 1.43 1.023 4.81.597 5.983 1.873 1.194 1.322.21 5.276.93 6.93 1 2.383 4.327 3.958 5.17 6.386 1.31 3.74-3.047 4.243-2.505 8.26l2.247.587.35 2.593c.83 1.84 3.41 2.897 4.25 4.738.367.8-.172 1.89.35 2.59.27.38 4.2 2.134 4.628 2.03 2.45-.625-3.513-2.97-1.3-4.234 2.06-1.16 3.24 4.06 4.984 4.63 1.695.557 2.15-1.048 3.7.387 0 0-.563-.51-.838-.77-1.58-1.45-1.732-2.023-2.02-4.133-.064-.48 4.687-8.282 5.324-8.66 6.212-3.566 17.022 5.595 23.888 4.62.426-.06.362-.794.545-1.174 3.923-8.403-7.058-6.444-2.96-15.248.976-2.09 3.18-.604 4.835-1.585.007 0 1.157-1.923 1.157-1.923 2.413-2.01 6.21-1.77 8.932-3.07.506-.234 1.197-.526 1.283-1.074.64-3.747-4.73-4.227-4.7-7.265.033-2.977 3.31-6.645 4.33-9.465 0 0-3.928-2.764-3.04-4.267l2.257-.925c.01-.02-1.9-7.56-1.885-7.682.143-.852 1.98-.647 2.154-1.5.548-2.695-2.085.853-.895-2.003.43-1.023 2.357-1.414 2.85-2.415.12-.265.056-.64-.14-.858-2.135-2.57-3.186-2.187-1.623-5.96 1.033-2.5.864.427 2.094-.31.546-.327-.192-1.737.42-1.833.392-.06.567.507.844.756.275.26.525.978.838.76.427-.294.165-1.006.24-1.505.45-2.81 1.337-2.312 2.438-4.21.572-.983-.173-2.637.156-3.572.665-1.863 3.062-2.26 3.763-3.222.365-.496-1.39-2.728-1.23-3.36.203-.883 1.553-1.175 1.81-2.044l-.41-2.595c1.015-2.41 5.364-2.135 2.927-8.43"/><path class="state" data-x="-45" data-y="-70" data-scale="1.8" data-active="0" fill="#D8AB5E" d="M336.504 343.766c1.582-1.678-2.953-1.374-2.596-3.178.69-3.61 2.71-1.324 1.894-7.346-1.542-1.45-1.995.165-3.684-.396-1.734-.57-2.913-5.83-4.96-4.657-2.205 1.27 3.732 3.63 1.293 4.26-.425.103-4.336-1.66-4.604-2.04-.52-.71.017-1.807-.348-2.61-.837-1.855-3.405-2.918-4.232-4.77l-.348-2.607-2.237-.595c-.54-4.04 3.793-4.55 2.495-8.314-.84-2.444-4.153-4.03-5.15-6.428-.714-1.666.266-5.643-.922-6.977-1.17-1.285-4.535-.855-5.958-1.886-1.552-1.104-1.99-3.7-3.49-4.88-.972-.742-2.676-.656-3.735-1.294-.647-.372-.87-1.535-1.637-1.56-1.87-.096-1.707 3.132-4.09 1.4-1.78-1.288.486-2.318-.44-3.494-.956-1.212-5.878-1.248-7.44-2.62-.752-.656-.937-1.83-1.725-2.453-.974-.763-2.67-.645-3.718-1.318-2.055-1.327-5.008-4.33-6.443-6.314-4.82-6.674 4.722-15.52 5.096-21.92.083-1.4-1.31-2.893-1.234-4.294.1-1.728 3.52-4.63 2.023-6.46-1.122-1.368-12.11-6.174-13.302-5.497-2.302 1.32-3.97 6.366-7.07 5.27-5.39-1.877-3.903-8.234-4.78-10.977-.238-.717-1.264-.928-1.586-1.6-.896-1.81-.602-4.193-1.4-6.05-2.177-5.054-9.002-6.015-12.88-9.202-1.294-1.056-1.864-3.113-3.22-4.08-3.55-2.534-10.075-4.513-12.693-8.38-.77-1.14-.565-3.076-1.15-4.324-.533-1.143-2.05-2.088-2.42-3.286-.334-1.067.632-2.523.302-3.59-.367-1.18-1.857-2.178-2.416-3.3-1.662-3.287-2.04-6.838-2.152-10.43-.062-2.654-.56-6.525.77-8.97.25-.47 1.254-1.023 1.254-1.023s-.803-.304-1.196-.462c-2.316-.905-2.512-2.174-4.445-3.38-3.535-2.206-5.62-4.554-7.888-8.068-.044-.062-7.4 1.274-10.47 1.783-10.663 1.818-21.283 3.222-32.027 4.364-40.18 4.238-80.33 7.243-120.706 8.32.25 4.77 2.65 3.617 4.488 7.732.495 1.126 1.016 6.956 1.067 7.025.08.158 7.414 3.65 7.72 3.996l-.59 1.81c.512 1.622 3.163 2.587 3.657 4.212.27.878-1.004 3.79-.428 4.452.328.372 2.917.06 4.202 1.52.245.285.73.84.73.84s5.74 4.81 9.258 5.64c2.155.52 3.318-3.833 5.358-2.096l.162 2.65c.454.81 2.352.798 2.86 1.584.258.423.203.975.312 1.457.21.968.806 1.932.644 2.91-.35 2.024-3.47-.123-4.106.254-.787.474-.014 1.936-.516 2.684-.364.52-1.658.498-2.014 1.017-.796 1.17-.243 3.246-1.09 4.498-.316.444-1.11.46-1.326.956-1.342 3.05 8.082 7.888 8.865 9.173l-.576 1.812c.197 3.13 2.348 2.33 3.725 4.184.617.812.197 2.774.922 3.475 2.352 2.26 6.713.713 9.158 2.044.25.132-.43.33-.654.49-1.385 1.016-.33 5.064-.202 6.746.502 6.77.987 13.553 1.492 20.327 2.093 28.6 4.205 57.22 6.307 85.817.575 8.77 1.175 17.528 1.765 26.288 46.358-3.11 92.65-7.138 138.845-12.093 13.023-1.396 26.05-2.858 39.073-4.407 2.297-.278 12.51-2.355 14.04-1.698 1.207.51 1.893 3.088 2.697 4.093 2.915 3.63 4.422 6.57.572 10.533-.99 1.018-3.27 1.15-4.107 2.276-.54.73.093 1.932-.39 2.688l-2.066 1.133c-.42.563-3.05 7.04-2.772 7.41.332.414 5.57-.666 6.27-.76 7.307-.89 14.605-1.81 21.902-2.74 0 0 .29-.855.428-1.29.49-1.52.804-3.84 1.674-5.174.32-.486 2.645-1.572 2.662-2.107.016-1.27-3.258-2.524-3.426-3.803-.215-1.734 5.01-2.788 4.673-3.432-.582-1.105-3.25-1.09-3.93-2.15-1.464-2.23 3.857-1.667 3.964-3.167.185-2.507-3.58-7.117-2.688-9.396.104-.257.435-.346.646-.524 4.71-3.77-.837 8.872 6.255 3.17 0 0 .676-3.6.738-5.405.017-.524-.75-2.565.36-2.71 1.542-.206 3.355 3.097 5.464 2.807 1.433-.186 3.002-4.552 2.883-5.698-.136-1.144-1.685-2.15-1.913-3.287-.49-2.483 1.79-1.244 2.612-2.136"/><path class="state" data-x="-208" data-y="-110" data-scale="1.68" data-active="0" fill="#AE8F5B" d="M376.74 298.06c-.082.55-.778.844-1.28 1.078-2.715 1.31-6.502 1.068-8.91 3.087 0 0-1.147 1.933-1.154 1.933-1.65.985-3.854-.508-4.82 1.593-4.09 8.855 6.863 6.88 2.95 15.33-.18.38-.12 1.117-.544 1.18-6.845.98-17.633-8.226-23.83-4.644-.638.38-5.373 8.222-5.313 8.703.285 2.116.44 2.697 2.013 4.154.275.26.836.775.836.775.815 6.015-1.207 3.732-1.896 7.334-.358 1.8 4.185 1.5 2.6 3.176-.822.886-3.107-.348-2.613 2.133.223 1.13 1.775 2.137 1.91 3.278.12 1.15-1.45 5.51-2.89 5.697-2.11.29-3.928-3.01-5.474-2.803-1.11.142-.345 2.18-.36 2.7-.063 1.808-.74 5.402-.74 5.402 14.42-2.127 28.826-4.323 43.232-6.625 2.253-.356 14.305-1.51 15.412-2.497 2.474-2.226-3.144-7.846-2.15-9.433.333-.516 5.507-.305 6.276-.345 3.82-.218 2.473.996 4.12 1.444 2.846.77 9.03-1.687 11.982-2.237 6.082-1.148 37.74-7.912 41.342-7.18.385.085.494.817.862.755 0 0 1.848-2.09 1.854-2.09 3.12-1.54 24.213-2.667 29.268-3.26 10.055-1.146 19.446-3.47 29.34-5.344 10.89-2.064 22.057-3.094 33.004-4.895 6.99-1.157 13.98-2.28 20.992-3.314 2.44-.362 6.165-.237 8.208-1.593.415-.28 1.22-.814 1.22-.814s.595-.716.883-1.068c1.238-1.508 3.053-2.744 4.777-3.678 3.336-1.797 13.036-5.398 15.317-7.69 1.118-1.105.488-4.46 1.722-5.742 1.78-1.863 6.556-1.79 7.882-4.383.226-.44-.053-.978-.076-1.476-.02-.495-.053-.992-.086-1.487-.016-.488-.238-1.013-.062-1.475.7-1.876 4.202-2.757 4.85-4.65.543-1.52-1.583-2.862-.233-4.436 3.397-3.935 8.813-6.207 12.454-9.93 5.06-5.155 9.2-11.745 13.61-17.457-1.48-1.165-4.802 1.513-7.336-.147-.49-.316.02-1.282-.397-1.708-1.783-1.856-5.4-1.286-7.202-2.89-1.102-.97-1.264-2.99-2.358-3.977-1.005-.92-3.1-.82-4.04-1.803-.954-1.006-.716-3.123-1.647-4.143-.563-.613-2.746-.39-3.15-1.102-2.133-3.733 1.737-.72-3.217-4.69-3.343-2.69-6.155-5.737-5.048-9.705 0-.004 1.19-1.158 1.19-1.158.385-2.79-1.807-3.85-2.706-5.713-.152-.31.03-.686.04-1.022.01-.343.033-.686.043-1.03.02-.223.03-.67.03-.67-4.777-5.595-8.956-3.834-12.17-6.366-1.777-1.406-1.903-7.31-3.93-8.16-1.03-.43-8.065 5.612-8.646 6.345 0 .008-.817 2.874-.817 2.877-.445.463-2.94.62-3.596.76-.328.065-2.312 1.404-2.39 1.404-1.09-.06-2.227-1.73-3.284-2.014-.465-.126-.952-.004-1.44-.004-.474 0-.95 0-1.43-.004-.474 0-.978.146-1.425 0-.707-.22-.98-1.385-1.738-1.43-4.77-.335-4.835 7.244-10.423 4.833-1.85-.8-3.532-4.177-5.356-5.206-3.91-2.19-10.243 3.18-14.213.157-2.427-1.84-3.77-6.55-6.006-8.686-1.083-1.04-3.375-.917-4.61-1.795-.665-.476-1.955-2.95-2.724-3.058-1.56-.188-4.06 3.427-5.64 3.792-2.143.492-4.36-2.753-6.136-2.414-1.432.277-2.9 3.25-2.9 3.25-5.25 4.913 2.788 2.928.115 8.046-.02.046-1.07 1.563-.35 1.86.812.31 3.247-1.573 3.595.208 0 .01-.872 2.85-.872 2.86.054.91 1.612 1.647 1.19 2.46l-2.234-.463c-1.374.126-4.14 1.18-5.32 1.894-2.023 1.24-4.984 6.45-7.27 6.734-.915.112-5.704-5.21-10.798-.7-2.1 1.858 3.147 7.963 2.606 10.265-.426 1.737-6.087 4.712-6.81 5.705-1.585 2.19-.146 5.995-2.046 8.413-2.56 3.266-4.623.67-6.075 1.98-3.57 3.218.424 13.874-2.246 15.576 0 0-2.77.484-2.785.49 0 0-.807 1.475-.807 1.48-.638.192-10.487-2.743-11.095-3.884-.64-1.215-1.92-5.915-4.523-5.476-2.033.35 2.37 2.328 1.993 3.23-.732 1.71-4.756 1.77-4.908 2.027l1.326 2.154c-.212.96-2.81 1.4-3.19 2.326-.53 1.3 1.572 3.983.896 5.197-.007 0-2.647 1.325-2.657 1.332-.88 1.226.488 3.053-1.516 3.818-.44.17-1.038.55-1.387.237-.344-.304.09-.907.14-1.362.027-.452.458-1.052.116-1.355-.58-.527-3.395.977-4.184.696-1.084-.38-2.566-4.45-4.225-3.765-1.187.5-1.973 2.46-3.057 3.174-.988.666-3.287.676-4.053 1.557-1.79 2.053.02 5.974-3.06 7.616-.495.26-1.135-.268-1.54-.64-2.762-2.47-7.51-4.95-11.613-5.273-1.887-.152-5.296 2.783-6.855 1.955-2.76-1.454.815-1.022-1.983-1.698-.386-.087-.34.77-.26 1.157.497 2.325 3.383 3.338.12 5.32-3.755 2.266-.545-3.18-2.654-3.153-1.273.02-2.66 2.11-3.93 2.385-2.275.484-3.592-2.53-5.436-2.738-3.673-.408 3.543 6.857-.91 8.147-.92.256-2.816-1.44-3.453-1.13l-.186.784c-1.02 2.83-4.287 6.52-4.32 9.512-.03 3.055 5.324 3.537 4.69 7.303"/><path class="state" data-x="-140" data-y="-158" data-scale="1.41" data-active="0" fill="#DFB875" d="M655.725 291.917s-6.638 1.01-9.96 1.52c-1.882.276-1.263.606-2.627 1.377-3.98 2.287-11.074 2.518-15.584 3.532-18.842 4.21-37.74 8.264-56.663 12.178 0 0-.8.534-1.213.813-2.025 1.354-5.728 1.23-8.152 1.592-6.967 1.03-13.907 2.15-20.848 3.31-10.877 1.8-21.968 2.826-32.785 4.89-9.825 1.87-19.154 4.192-29.142 5.336-5.02.593-25.97 1.72-29.07 3.26-.006 0-1.837 2.085-1.837 2.085-.365.063-.477-.67-.855-.754-3.58-.73-35.025 6.03-41.063 7.176-2.934.548-9.077 3-11.903 2.234-1.638-.45-.298-1.667-4.09-1.446-.77.044-5.905-.17-6.238.347-.987 1.578 4.593 7.19 2.135 9.417-1.1.988-13.07 2.135-15.314 2.497-14.303 2.3-28.615 4.496-42.938 6.625-7.06 5.684-1.535-6.933-6.226-3.167-.21.175-.54.267-.646.524-.89 2.274 2.86 6.874 2.675 9.378-.103 1.49-5.402.932-3.946 3.155.68 1.055 3.334 1.038 3.914 2.142.343.646-4.862 1.693-4.65 3.427.17 1.275 3.425 2.527 3.412 3.792-.02.53-2.334 1.618-2.65 2.103-.87 1.33-1.182 3.64-1.663 5.157-.138.432-.43 1.285-.43 1.285.99.91 1.237 1.15 2.226 2.065 3.426 3.2-1.772.36-3.097 2.455-1.88 2.962 3.524 1.743 1.996 4.15-.337.53-2.472-.11-2.883.37-.6.683.09 1.935-.395 2.698-.816 1.273-5.13 1.217-6.27 2.548-2.17 2.518 4.35 1.994 5.592 3.7.56.765-3.73 2.722-4.002 3.146-.69 1.088 1.854 1.516 1.058 2.515-1.35 1.644-4.042-1.9-5.073.637-1.41 3.492 4.81 4.75 2.926 5.792-4.83 2.662-2.497-2.327-4.66-2.063-2.627.323-3.005 5.65-2.992 5.65 1.775-.224.194-1.788 1.967-2.01.607-.08 2.387 4.356 2.097 5.03-.382.878-3.23 1.264-3.426 2.176-.207 1.05 4.12 1.065 4.69 2.058.376.66.577 5.916.02 6.16-.922.41-2.1-.94-3.023-.508-1.027.484-.718 3.87-1.653 4.603-.656.518-3.162-.22-3.64.44-.268.35.108.86.16 1.3.044.428.152 1.304.152 1.304 30.9-3.76 61.736-7.92 92.528-12.48-.237-1.605 4.575-1.486 6.088-1.697 6.734-.91 13.468-1.83 20.188-2.783 28.595-4.023 57.032-8.768 85.443-13.904 18.87-3.12 37.707-6.39 56.52-9.812 0 0-1.85-8.8-1.1-13.122.73-4.218 8.14-.245 9.54-4.584.137-.45.005-.945.005-1.42.026-1.43.033-2.856.043-4.293 0-.464-.15-.97.008-1.413.695-1.922 8.393-9.21 10.597-10.18 1.302-.578 2.962-.325 4.29-.882.514-.224.685-1.206 1.24-1.156.01 0 1.776 1.42 1.776 1.42 2.78-.023 2.834-3.12 4.29-4.455.85-.79 2.625-.76 3.38-1.62.438-.464-.103-1.433.36-1.86.535-.484 1.557 0 2.14-.44 1.8-1.39 2.89-4.74 4.595-6.34 2.428-2.24 7.07-2.146 7.65-2.518 2.36-1.574 1.682-9.31 1.69-9.32 1.293-1.002 3.355.643 4.448-.07.563-.364.32-3.09.665-3.712.445-.808 4.062-4.544 4.908-4.67 3.71-.507 1.227 5.328 3.964 4.505 4.075-1.23 4.302-7.2 7.474-9.726 1.04-.808 4.66-3.64 5.78-3.984 2.37-.71 4.49 3.68 6.41 2.136 1.273-1.008 3.606-9.683 4.706-11.84.392-.752 2.065-3.873 2.734-4.22.78-.42 3.906.907 3.405-1.237-.885-3.853-1.09-8.44.832-12.324"/><path class="state" data-x="-102" data-y="-300" data-scale="1.94" data-active="0" fill="#BC9C64" d="M288.19 390.784c-.277-.36 2.345-6.747 2.765-7.3 0 0 2.044-1.112 2.06-1.122.483-.75-.147-1.932.39-2.656.837-1.105 3.112-1.236 4.1-2.244 3.842-3.908 2.34-6.808-.57-10.383-.803-.994-1.483-3.54-2.692-4.038-1.525-.652-11.718 1.4-14.003 1.674-13.003 1.527-26.003 2.968-39 4.342-46.096 4.89-92.29 8.86-138.552 11.925 0 0 .874 4.064 1.32 6.1.768 3.55 1.54 7.105 2.307 10.657 2.312 10.62 4.983 21.23 7.014 31.927 2.25 11.934 2.05 24.3 2.594 36.385.946 20.563 1.864 41.13 2.788 61.696.732.75.987 1.78 1.67 2.464.676.677 2.816.413 3.064.67.268.255-.707.516-.69.894.08 1.266 3.243.914 3.817.598 2.852-1.554-1.843-1.974 3.688-1.123.95.147 7.427-1.647 8.324.268 1.774 3.753 1.66 22.09 2.062 27.397 43.366-3.19 86.735-6.86 130.026-10.965 0 0 2.21-2.326 1.88-3.652-.1-.433-5.17-2.73-3.488-3.938.882-.632 3.83.306 4.516-.495.513-.593-.646-3.466-.472-4.264.157-.784 2.057-2.025 1.957-2.81-.2-1.8-5.3 3.665-4.888-2.918.088-1.404 4.276-4.04 3.177-5.528-2.012-2.693-2.09 5.195-6.467 3.29-1.09-.472 3.934-3.537 3.282-4.67-2.825-4.87-2.558 5.302-5.055 2.272-.314-.368 1.914-3.107 1.852-3.65-.885-7.987-.86 5.865-1.75-2.118-.218-1.93 1.92-.74 2.397-2.28.095-.284.365-.587.286-.887-.39-1.32-3.7-3.49-3.56-4.813.033-.39.704-.355 1.064-.545 1.154-.58 5.735 4.97 7.34 1.36.12-.282-.32-.543-.475-.816-1.37-2.365-3.956 1.82-4.58-3.818-.04-.29-.35-.688-.11-.85.37-.24 7.234.905 6.713-.74-.314-.993-2.94-1.247-3.267-2.225-.423-1.234 1.27-3.17 1-4.446-.18-.807-3.2-2.275-1.538-3.504.365-.268.805.34 1.197.514.743.323 7.943-3.642 6.794-6.394-.09-.202-5.71.14-4.756-2.056.89-2.032 6.808.24 6.58-1.612-.205-1.717-4.438-.554-5.387-1.12-3.28-1.994 2.58-1.056 2.867-1.187L279 481.6c.796-1.617 3.573-1.57 3.273-4.125l-.938-1.626c1.916-2.42 3.91 2.17 3.993 2.135.492-.17.75-3.116 1.073-3.586.58-.854 2.268-1.15 2.757-2.056.674-1.265-1.165-3.79-.63-5.132.584-1.403 2.13-1.084 1.92-2.82-.034-.293.09-.64-.098-.86-2.14-2.416-3.746-.603-2.464-4.922.09-.295-.05-.862.272-.89 1.43-.166.767 2.83 1.133 3.33.424.57 3.45-2.416 3.38-3-.195-1.584-3.18-.58-3.89-1.273-.708-.693-1.32-5.206.953-4.46 2.253.754-.564 3.08-.32 3.525.647 1.11 3.396-1.337 3.475-2.16.06-.718-2.566-5.077-1.46-5.897 2.61-1.975 1.024 2.064 1.77 2.395l2.316-1.428c1.843-1.154 1.49.483 2.718-.033 3.056-1.3.725-6.2-.21-7.795 0 0-.11-.862-.152-1.285-.053-.432-.43-.94-.165-1.284.482-.656 2.996.075 3.65-.437.937-.73.63-4.07 1.66-4.55.925-.428 2.104.903 3.032.5.558-.24.356-5.438-.02-6.09-.575-.98-4.91-.995-4.707-2.033.198-.9 3.056-1.28 3.438-2.147.292-.666-1.492-5.054-2.1-4.972-1.776.217-.195 1.764-1.972 1.983-.014 0 .366-5.265 3-5.58 2.165-.26-.17 4.67 4.672 2.036 1.893-1.032-4.346-2.276-2.933-5.728 1.034-2.508 3.732.998 5.083-.63.803-.988-1.75-1.41-1.057-2.485.27-.42 4.57-2.36 4.013-3.112-1.25-1.686-7.785-1.17-5.608-3.66 1.146-1.312 5.47-1.26 6.285-2.516.49-.754-.206-1.99.395-2.665.412-.48 2.55.155 2.882-.367 1.54-2.383-3.88-1.174-1.998-4.104 1.33-2.07 6.54.733 3.102-2.428-.99-.903-1.238-1.144-2.226-2.04-7.286.92-14.568 1.822-21.86 2.704-.693.085-5.922 1.154-6.252.744"/><path class="state" data-x="-350" data-y="-360" data-scale="2.21" data-active="0" fill="#C39547" d="M412.703 666.977c-.11-.3-.213-.604-.11-.74-3.418-17.412-6.82-34.838-10.212-52.27-1.592-8.13-3.904-16.443-4.796-24.672-1.06-9.736-.514-19.937-.78-29.733-.562-20.378-1.15-40.77-1.8-61.153-.502-15.726-1.013-31.448-1.573-47.17-.114-3.43.643-16.554-.67-18.898-.705-1.252-3.94-3.158-5.107-4.52-30.62 4.55-61.283 8.7-92.01 12.452.925 1.607 3.237 6.548.208 7.863-1.215.52-.867-1.132-2.695.032l-2.293 1.44c-.74-.334.834-4.41-1.76-2.418-1.095.828 1.513 5.23 1.45 5.953-.074.835-2.803 3.3-3.442 2.18-.25-.45 2.55-2.798.314-3.56-2.252-.75-1.646 3.803-.945 4.503.703.7 3.664-.315 3.86 1.285.068.59-2.936 3.606-3.354 3.027-.363-.503.295-3.53-1.12-3.36-.324.027-.184.6-.275.898-1.27 4.36.32 2.53 2.444 4.975.19.217.066.572.093.86.217 1.753-1.323 1.43-1.9 2.848-.53 1.355 1.298 3.9.63 5.18-.488.92-2.162 1.214-2.735 2.075-.32.474-.575 3.448-1.063 3.622-.083.033-2.064-4.602-3.96-2.16l.93 1.642c.3 2.575-2.454 2.53-3.247 4.166l-1.204 2.47c-.286.13-6.1-.816-2.845 1.192.942.57 5.143-.6 5.342 1.13.227 1.872-5.644-.42-6.524 1.63-.947 2.215 4.628 1.866 4.717 2.073 1.14 2.78-6 6.783-6.738 6.454-.39-.174-.826-.782-1.19-.52-1.647 1.24 1.347 2.722 1.527 3.537.27 1.29-1.413 3.24-.994 4.485.32.986 2.93 1.25 3.24 2.248.517 1.663-6.29.503-6.66.746-.235.165.07.565.105.86.62 5.686 3.187 1.464 4.546 3.86.154.27.59.53.472.82-1.592 3.64-6.132-1.96-7.28-1.38-.358.19-1.026.155-1.053.56-.144 1.325 3.142 3.515 3.528 4.85.082.302-.187.61-.285.894-.472 1.552-2.595.355-2.378 2.3.88 8.062.857-5.923 1.735 2.138.065.55-2.15 3.313-1.838 3.688 2.473 3.055 2.21-7.21 5.012-2.297.644 1.145-4.34 4.237-3.255 4.71 4.337 1.927 4.415-6.034 6.414-3.316 1.083 1.503-3.067 4.16-3.156 5.58-.41 6.643 4.648 1.126 4.852 2.944.1.797-1.788 2.047-1.945 2.84-.17.804.977 3.703.47 4.3-.68.81-3.6-.137-4.48.5-1.666 1.22 3.36 3.545 3.46 3.97.328 1.344-1.86 3.69-1.86 3.69-.563.82-3.243 3.734-1.03 4.47 4.738 1.563 1.47-5.502 4.88-4.02 3.075 1.33-3.175 9.694-2.61 10.73.615 1.177 5.31.102 5.53 1.99.345 3.14-5.974 2.81-3.84 6.523 1.69 2.93 5.39-4.698 6.67-1.614.69 1.662-2.665 2.776-2.63 3.776.014.404 4.475 2.305 3.4 3.097-.137.085-7.992-1.114-4.337 2.222 1.743 1.58 4.56-.645 6.132.175.42.227-1.05 3.484-.274 4.392.68.806 3.44.385 3.968 1.288.962 1.64-2.497 1.517-2.828 2.06l.288 2.57c-.433 1.062-9.188.628-7.842 5.227.963 3.317 5.74-2.202 6.813-.763.706.943-1.79 5.175-2.45 5.483-.558.267-3.57-.878-3.893-.43-.51.738 5.016 1.594 4.174 3.01-.817 1.368-3.27 1.835-4.264 3.084-1.435 1.748-2.49 4.934-3.102 6.847-.396 1.24-2.48-2.34-3.76.854-.16.408-.158.88-.24 1.325-.645 3.527 1.828-.2 2.353 1.614.402 1.386-2.62 1.722-3.08 2.36-.763 1.06.04 4.54-.97 5.305-.995.766-4.316-1.877-4.585.486-.313 2.78 3.392.66 4.007 1.315 1.437 1.513-3.11 3.094-3.45 3.84-1.05 2.255 2.19 4.018 2.155 5.825-.072 3.423-3.328-1.65-3.825.412-.674 2.755 3.5 3.978 2.93 5.746-.55 1.688-6 2.274-5.96 2.36.446 1.055 2.47 2.343 2.667 3.185.227.99-1.503 2.62-1.183 3.586.428 1.22 3.15 1.844 3.428 3.1.252 1.055-2.696 2.034-2.804 2.886-.04.39.478.684.852.776 3.655.953 14.102-1.51 18.307-1.963.508-.06 1.02-.108 1.526-.18 15.765-1.73 31.514-3.58 47.257-5.523 4.605-.565 15.765-3.433 19.797-2.505 2.834.667-4.12 14.717-3.22 17.764.013 0 1.756 1.5 1.763 1.5.53.864.412 2.458 1.198 3.313 1.647 1.72 4.494 2.38 6.073 4.407 3.37 4.336 3.094 9.06 6.406 13.014 1.46 1.737 1.467-.866 3.088.363.767-.697 1.537-1.224 2.34-1.078.383.065.53.884.896.746.504-.184.74-3.112 1.097-3.61.895-1.23 3.7-1.793 4.308-3.167 1.186-2.683-3.072-2.324-1.23-3.304.57-.3 3.506-.27 3.987.324l-.55 1.812c.228.345 3.006-.914 3.28-1.022 1.86-.68 11.026-3.81 11.956-4.82 1.196-1.294-.298-3.415 3.296-2.767 2.105.378 3.825 3.023 6 3.48 1.15.254 4.47-.73 5.29-1.613.44-.457-.075-1.937.53-1.818.977.217.97 1.982 1.907 2.327.004.014 3.106-.44 3.106-.44l1.782 1.473c.006 0 1.303-1.916 1.303-1.916.45-.25 1.117.08 1.543-.225l-.14-.967"/><path class="state" data-x="-121" data-y="-485" data-scale="2" data-active="0" fill="#D9B67B" d="M391.4 730.233c-.267.05-.63-.113-.79.112-.168.234.393.765.13.854-2.812 1.033-5.63-7.046-7.336-6.815-1.854.26-.27 1.774-2.126 2.02l-1.01-1.596c-.64-.21-5.43 1.36-5.618-.11-.12-.84 3.078-1.286 2.24-1.167-2.02.268-3.428-.41-5.3-.155-.713.08-3.926 1.007-4.293.123-.242-.57.535-2.904.397-3.083-1.575-2.07-6.39-.03-8.177-1.53-1.752-1.48-1.827-4.78-3.067-5.26-.275-.105-1.076-.145-.83-.32.34-.252.843.003 1.27.007.847.01 1.7.01 2.553.013.43.004 1.076.385 1.267.004 1.076-2.084-2.602-3.255-3.187-3.75-.275-.243.723.1 1.09.14.364.06.722.117 1.073.153.36.056.754-.003 1.08.148 1.698.775 4.222.855 6.266 1.213.102.013-.082-.22-.17-.27-.525-.355-.854-.55-1.087-.67-.374-.026-.68-.357 0 0 .29.017.584-.148.48-.99-.225-1.687-3.558 3.26-4.247-2.044-.15-1.183 3.436-1.11 3.8-1.375.544-.407 1.224-4.52 1.778-4.598 2.04-.26.84 3.837 4.25 2.056.468-.252 1.347.27 1.554-.205.41-.932-1.76-1.355-1.896-2.36-.1-.78 1.933-1.417 1.336-1.917-.395-.337-1.155.537-1.553.2-.692-.56 1.12-2.088.437-2.664-.64-.536-1.397 1.284-2.23 1.168l-.994-1.604c.18-2.06 1.8.554 3.1-.42.247-.17-.06-.565-.102-.844-.338-2.52-3.277.83-4.01-.338-.84-1.33 2.452-3.426 2.445-3.52-.105-.802-1.503-.52-2.228-.868-.876-.414-1.664-1.772-2.56-1.414-.827.364.01 1.906-.45 2.68-.547.95-2.365 1.17-2.89 2.13-1.723 3.157 1.397 10.055-5.97 6.003-1.807-.995-.353-2.326-.714-2.515-1.802-.996-6.684 2.185-6.67-2.628.003-2.486 9.383-.928 8.582-7.213-.304-2.34-3.23 2.17-3.674 2.228-1.85.238-.21-2.933-.44-3.43-1.275-2.853-1.114 4.26-1.79 4.588-2.067 1.008-2.77-4.226-5.1-2.825-1.082.642-3.297 5.527-5.485 6.788-3.77 2.18-23.753 1.688-19.73-6.27.456-.886 8.56-10.597 8.97-10.666 2.343-.38 8.046.455 9.738 2.266.004.004 1.094 2.476 1.094 2.476.388.264.926.015 1.39.03.924.038 1.85.064 2.775.094.46.017.937-.12 1.383.03 1.065.38 1.95 1.502 3.326 1.327.822-.11 1.49-1.57 2.217-1.164.48.268-.623 4.246 5.883 2.727.352-.1 3.95-1.502 1.61.212-.238.178-1 .426-.728.535 1.58.613 2.945-1.157 4.323-2.405-1.624-1.24-1.63 1.383-3.097-.368-3.317-3.98-3.04-8.737-6.41-13.1-1.583-2.045-4.434-2.707-6.084-4.445-.787-.857-.67-2.46-1.2-3.332-.007 0-1.752-1.507-1.766-1.507-.902-3.07 6.063-17.214 3.226-17.89-4.04-.933-15.217 1.957-19.83 2.523-15.77 1.96-31.544 3.82-47.335 5.56-.51.077-1.02.124-1.53.187-4.213.457-14.68 2.933-18.334 1.976-.38-.098-.893-.39-.856-.786.108-.86 3.062-1.844 2.812-2.903-.282-1.267-3.013-1.9-3.436-3.12-.325-.973 1.41-2.614 1.185-3.61-.203-.85-2.225-2.15-2.674-3.21-.043-.084 5.423-.673 5.968-2.374.578-1.78-3.604-3.012-2.933-5.785.507-2.08 3.76 3.03 3.837-.416.03-1.82-3.212-3.595-2.162-5.865.342-.756 4.897-2.344 3.456-3.866-.613-.66-4.327 1.476-4.01-1.327.267-2.38 3.594.28 4.59-.487 1.016-.773.21-4.274.976-5.34.464-.643 3.485-.98 3.085-2.377-.523-1.83-3 1.926-2.354-1.63.082-.442.08-.92.236-1.336 1.284-3.214 3.367.394 3.77-.854.61-1.927 1.67-5.137 3.105-6.895 1-1.258 3.454-1.724 4.274-3.104.844-1.427-4.694-2.288-4.18-3.03.32-.45 3.34.703 3.897.435.664-.316 3.164-4.57 2.456-5.525-1.073-1.45-5.86 4.11-6.828.765-1.346-4.623 7.428-4.187 7.857-5.255l-.287-2.59c.33-.544 3.796-.425 2.83-2.07-.527-.91-3.29-.485-3.976-1.3-.774-.914.695-4.19.28-4.422-1.58-.82-4.397 1.416-6.144-.176-3.664-3.36 4.21-2.147 4.34-2.237 1.08-.798-3.392-2.71-3.408-3.117-.03-1.007 3.333-2.13 2.64-3.804-1.28-3.106-4.992 4.572-6.686 1.63-2.133-3.74 4.193-3.41 3.852-6.57-.227-1.9-4.92-.82-5.548-2.008-.562-1.043 5.702-9.46 2.622-10.8-3.416-1.496-.142 5.62-4.886 4.048-2.222-.744.462-3.673 1.026-4.504-43.007 4.175-86.093 7.904-129.172 11.142.92 12.465 1.837 24.916 2.75 37.383.213 3.01-.07 13.417 1.14 15.55 1.222 2.15 5.553 3.705 7.328 5.545 2.307 2.417 4.02 6.063 4.544 9.24.256 1.557-.886 3.754-.367 5.253.676 1.93 3.645 2.106 4.626 3.4.298.394.44.94.366 1.423-.05.39-.72.548-.7.928.15 1.788 4.957 4.02 5.09 5.7.073.992-1.537 1.71-1.33 2.71.15.77 2.78 1.675 3.26 2.34.63.82.326 2.698 1.064 3.4.386.376 2.958.12 3.148.61.44 1.123-1.418 3.238-1.194 4.446.145.873 2.71 2.416 2.585 3.267l-2.245 1.043c-1.214 2.155 1.766 2.635 1.818 3.34 0 0-1.342 2.7-1.346 2.7-.643 3.294.224 7.342-1.502 10.56-.58 1.074-2.468 1.687-2.9 2.832l.2 2.585c-.378 1.042-2.27 1.015-2.133 2.77.114 1.53 2.257 3.336 1.968 5.04-.416 2.324-2.838 2.33-1.938 5.36 2.365 8.044 4.76 11.162-.105 19.062l-.097.14c.998.853 1.425 2.637 1.21 4.097-.074.49-.92 3.304-1.305 3.565-2.018 1.313-6.447.23-3.596 4.597.18.288 2.41 2.383 2.542 2.402 1.36.145 3.897-3.38 5.24-3.87 4.57-1.69 17.696-2.85 22.727-2.73 9.298.21 17.82 5.375 26.767 7.146 3.806.74 7.95.696 11.817 1.02 2.08.184 5.388 1.106 7.396.627 1.623-.397 2.9-2.456 4.475-3.032 1.503-.562 3.576.156 5.033-.51 3.787-1.728-.216-.258.303-1.754.053-.14 2.31-.11 2.362-.246.57-1.655-3.882.42-3.938.404-.256-.113-1.923-2.99-1.896-3.284.02-.774 1.98-1.34 1.4-1.863-.514-.455-3.184 1.523-3.84 1.25-.14-.06-1.175-3.314-1.123-3.357.365-.394 1.05-.105 1.568-.155.525-.06 1.09-.364 1.575-.152.525.216-.403 1.768.164 1.708.284-.023 6.42-3.727 6.718-4.13.345-.47-.508-1.265-.17-1.73.587-.77 1.933.81 2.44.627 1.237-.476 1.61-1.025 3.32-1.21.427-.033.93-.36 1.296-.133 2.835 1.73-3.05 1.186-1.125 4.45.29.505-.26 1.343.167 1.72.498.437 8.36-3.41 10.804-2.85 2.088.47-.202 3.568.103 4.746.765 2.91 3.137-.222 4.456.83 1.07.87.523 5.134.53 5.147.39.442 4.27-1.315 4.964-1.23 1.887.25 4.492 3.66 7.117 2.525.926-.41.984-8.155 2.65-6.687 2.387 2.086-2.71 4.098-.986 7.368 1.687 3.2 6.06 2.88 7.746 5.207.527.728 1.01 5.792-1.022 5.31-1.49-.35-.6-3.608-1.26-4.19-.45-.395-.922 1.25-1.48 1.032l-1.288-2.162c-2.27-1.84-2.195 1.36-3.488 2.244-.45.324-1.29-.686-1.624-.25-.246.34.43.727.66 1.084 1.434 2.428 11.49 5.737 13.593 5.14.904-.26.343-1.778 2.193-1.98.263-.036.762-.354.787-.093.078.778-1.703 1.173-1.392 1.894.09.2 2.857-.445 3.156-.366 1.134.312 2.3 2.125 3.447 2.21 3.28.24 1.03-2.39 1.283-2.75.36-.485 1.086.61 1.683.673.788.076 1.67-.665 2.376-.27.793.446.08 1.72-.595 1.8-.263.03-1-.08-.798.092.417.356 4.702.313 4.84.3.99-.11.77-2.276 1.283-2.743.57-.542 1.41 2.2 1.77 1.517.638-1.202-1.745-4.445.194-5.22.513-.215.766-.23.943-.186.065-.283.193-.647.488-1.293 1.05-2.25-2.4-1.072-.304-2.565.243-.17.45-.563.73-.517 1.896.268 2.656 1.423 4.155 1.244 1.025-.13 1.517-3.654 1.957-3.707 2.71-.334 1.77 3.15 2.312 3.767.432.486.852-1.065 1.44-1.337 1.68-.752 2.826 2.84 4.044 2.684.63-.072-.033-1.728.584-1.794.91-.12 1.27 1.924 1.104 2.463-.74 2.283.11 2.5 1.4 5.027.955 1.854-.823-.222-.583 1.8.147 1.15 2.08-1 3.01-1.667.005-.007 2.203-1.565 2.22-1.57.876-.77 2.19-1.99 2.825-2.96 1.877-2.864-2.444-.756-2.09-4.072.085-.9 1.46-2.58 2.148-2.004.197.176.525-.065.788-.105.066-.006.204.047.197-.016-.173-1.403-1.9-8.38-2.036-8.427-1.787-.637-3.838.82-5.61-.166-.305-.18-.68-1.436-.983-1.61-.1-.057-.15-.066-.235-.123-.45.546-1.757-.894 0 0 .106-.126.176-.328.133-.738-.013-.05-.68-.24-.213-1.716.064-.2 3.234.888 10.843 3.847.862.35 2.234-.645 3.137-.387l1.778 1.503c1.696-.213-.076-2.27.46-2.665.317-.215 2.545 1.093 2.574 1.41l-1.46 1.06c-.485 2.823 2.927.317 3.258.45l-.57 1.807c.13.223.535-.194.78-.098.364.14.762.4.89.753.476 1.288-3.38 1.722-2.8 2.966l2.612-.34c.532-.065 2.685.594 2.993.484.003-.01 2.132-2.013 2.136-2.013 2.695-1.61.763 3.16 2.13 4.06.814.536 3.075.14 4.054.33l1.673.65c.24-.17-.06-.567-.102-.855-.032-.287-.28-.625-.11-.854.153-.22.528-.065.78-.104.266-.024.755-.37.784-.107.053.39-.676.56-.673.96.063 2.355 4.48 3.72 4.503 3.742.516.63-.11 3.98 2.03 3.198 3.19-1.148.844-2.728 1.405-4.527.09-.297-.03-1 .286-.906.73.208.217 1.704.816 2.203 3.298 2.73-.317 2.15-1.617 3.98l.233 1.7c-.48 1.887-1.887 3.628-2.48 5.54-.263.82 1.69-.54 2.247-1.168.338-.37.42-.92.637-1.38 1.27-2.848 2.225-3.34 4.102-5.333.43-.455-.06-1.86.558-1.814 1.017.082 3.69 6.662 5.535 5.328.727-.536-1.016-1.56-1.127-2.452-.094-.686 1.248-3.65 1.897-3.74.397-.046.53.798.91.734.622-.075-1.21-.99-1.022-1.585.328-1.05 2.425 1.45 2.592 1.377l1.23-2.77c-.666-1.765-3.632.645-3.93.54-.273-.098-.083-.57-.122-.852-.114-.9 8.69-4.678 1.905-3.747"/></svg>