<svg class="scaling-svg" viewBox="0 0 655 750"><path class="state" data-x="38" data-y="28" data-scale="34" data-active="0" fill="#CBB082" d="M.555 15.75c-2.082 2.082 2.334 4.883 2.834 6.087.18.456.03.984.06 1.472.02.49.04.98.05 1.47.027.49.278 1.03.07 1.473-.26.585-2.877.56-1.854 1.852.322.41 1.13.35 1.32.83.147.338-.748.57-.6.92.12.297 4.53.21 4.792 5.99.08 1.74-2.46 3.135-2.393 4.54.035.995 1.596 3.064.84 4.4-.484.836-2.47 3.287-2.4 4.53.007.365.75.5.686.855l-1.91.97C1.59 51.82.52 56.7 1 57.39c.516.737 4.76 2.566 4.714 3.347-.023.524-1.29.42-1.27.944.034.52 1.023.42 1.35.826 1.054 1.31 1.71 3.565 2.19 5.224 0 0 3.527 1.104 3.382 2.503-.158 1.45-1.41 3.97-1.067 5.364.404 1.625 2.976 2.677 3.47 4.276.49 1.52-1.22 3.766-.41 5.335.716 1.36 2.696 2.046 3.45 3.387.564.986.206 2.558.83 3.505.866 1.344 3.426 1.915 4.112 3.354.58 1.213-.233 3.137.222 4.42.632 1.84 3.104 3.26 3.56 5.142.52 2.23-.53 4.395-1.032 6.25-.652 2.443 1.216 3.414 1.595 5.24.175.887-1.13 1.98-.547 2.68.81.974 2.586-1.192 3.28-1.047 1.79.38-.194 2.735.177 3.53.394.87 3.042.734 3.42 1.6.69 1.653-1.713 4.61-1.023 6.255.612 1.454 2.966-.05 2.798 2.51-.064 1.07-2.338 2.47-1.767 4.526.557 2.104 2.58-.236 3.38.707.364.45-1.25 5.32-1.03 6.256.83 3.354 2.98 5.66 3.19 9.57.13 2.627-1.73 5.736-1.617 8.047.094 1.596 3.49 3.11 4.42 6.85 40.25-1.075 80.28-4.08 120.33-8.313 10.712-1.143 21.296-2.54 31.93-4.36 3.06-.51 10.394-1.85 10.44-1.786 2.26 3.517 4.34 5.866 7.86 8.064 1.93 1.21 2.12 2.477 4.43 3.378.395.16 1.193.467 1.193.467 6.45-.69-.93-8.646-.36-9.737 1.25-2.433 9.797-5.38 10.163-6.44 1.003-3.032.834-6.175 1.695-9.082.793-2.65 4.076-4.91 4.56-7.63 1.61-9.202-11.978-9.49-6.006-23.35.788-1.81 11.653-2.33 13.71-3.35 1.665-.812 2.596-3.11 4.202-4.05 2.254-1.31 6.866-1.82 8.163-4.54 1.17-2.437-.296-6.34.92-9.02.7-1.543 2.83-2.446 3.52-4 .926-2.097 1.672-7.69 1.43-9.98-.873-8.16-7.78-6.905-12.064-11.91-1.61-1.89-.806-4.423-3.158-5.862-1.826-1.12-8.76-4.06-7.518-6.243-1.615-13.794-15.103-4.73-18.363-11.263-.91-1.81-.5-4.25-1.348-6.09-.435-.95-1.74-1.495-2.23-2.43-1.33-2.56-2.833-7.464-3.098-10.344-.287-3.053 3.594-6.514 2.88-9.238-.798-3.063-3.374-2.15-4.972-3.904-1.6-1.754-1.42-6.98-1.42-6.98l-1.56.176c-2.083.23-4.152.45-6.234.674-4.673.502-9.355.993-14.04 1.47-15.11 1.56-30.242 2.994-45.373 4.326-44.427 3.896-88.94 6.828-133.49 8.82-1.065.052-5.734-.412-6.42.282"/><path class="state" data-x="39" data-y="12" data-scale="29.5" data-active="0" fill="#E2BE7D" d="M389.644 226.526c-.433-1.112-1.643-2.106-1.932-3.248-.12-.485 0-.99 0-1.477.013-.5.013-.98.013-1.47 0-.497.16-1.02 0-1.484-1.05-2.815-5.235-5.29-6.895-7.812-1.605-2.444 2.533-3.074 2.756-4.86.21-1.495-2.99-3.36-2.868-4.875.13-1.655 3.324-2.105 3.703-3.234.94-2.743-2.49-16.356-3.06-20.005-5.26-34.434-10.54-68.87-15.81-103.304l.03-.09c-5.71-3.417-5.42-11.945-8.96-17.25-.647-.96-2.208-.976-3.07-1.64-2.08-1.583-4.534-6.7-4.996-9.167-.586-3.126.083-5.99-.24-9.185-.036-.316-.112-.643-.155-.96h-.02c-37.015 4.99-74.095 9.63-111.185 13.925-1.255 2.165 5.734 5.09 7.57 6.203 2.37 1.43 1.56 3.95 3.186 5.83 4.31 4.972 11.273 3.725 12.15 11.836.246 2.27-.502 7.834-1.437 9.916-.696 1.542-2.84 2.44-3.546 3.98-1.227 2.66.252 6.54-.926 8.967-1.307 2.704-5.952 3.21-8.223 4.516-1.62.93-2.557 3.214-4.235 4.026-2.07 1.01-13.02 1.526-13.812 3.33-6.018 13.778 7.673 14.06 6.05 23.21-.483 2.703-3.796 4.945-4.59 7.586-.866 2.885-.696 6.014-1.707 9.03-.37 1.052-8.983 3.976-10.24 6.396-.575 1.085 6.86 8.99.36 9.68 0 0-1.01.546-1.26 1.014-1.332 2.428-.835 6.275-.77 8.904.11 3.567.49 7.1 2.157 10.365.562 1.115 2.06 2.108 2.427 3.276.334 1.062-.635 2.51-.303 3.565.37 1.197 1.894 2.136 2.43 3.27.59 1.24.387 3.16 1.156 4.297 2.632 3.843 9.184 5.81 12.75 8.32 1.363.966 1.94 3.004 3.232 4.06 3.895 3.167 10.752 4.12 12.937 9.14.806 1.844.506 4.213 1.403 6.01.323.667 1.355.88 1.593 1.59.88 2.72-.613 9.04 4.8 10.9 3.116 1.09 4.79-3.92 7.105-5.23 1.2-.677 12.235 4.1 13.36 5.456 1.5 1.822-1.926 4.703-2.035 6.423-.07 1.39 1.328 2.87 1.25 4.264-.38 6.358-9.962 15.143-5.122 21.777 1.437 1.97 4.406 4.956 6.47 6.274 1.05.666 2.757.548 3.734 1.31.79.616.977 1.784 1.73 2.43 1.567 1.37 6.515 1.4 7.474 2.61.93 1.164-1.347 2.19.444 3.47 2.394 1.72 2.23-1.485 4.11-1.39.764.025.994 1.178 1.64 1.55 1.064.63 2.783.55 3.75 1.288 1.51 1.17 1.948 3.75 3.508 4.848 1.43 1.02 4.81.595 5.983 1.87 1.195 1.323.21 5.277.93 6.93 1 2.384 4.328 3.96 5.17 6.387 1.31 3.74-3.046 4.243-2.504 8.26l2.248.587.35 2.593c.83 1.84 3.41 2.897 4.25 4.738.366.8-.173 1.89.35 2.59.27.38 4.2 2.135 4.627 2.03 2.45-.624-3.514-2.97-1.3-4.233 2.06-1.16 3.24 4.06 4.983 4.63 1.697.557 2.15-1.048 3.7.387 0 0-.56-.51-.836-.77-1.58-1.45-1.732-2.024-2.02-4.134-.064-.48 4.687-8.282 5.324-8.66 6.214-3.566 17.024 5.595 23.89 4.62.426-.06.36-.794.545-1.174 3.925-8.404-7.056-6.445-2.96-15.25.978-2.09 3.18-.603 4.837-1.584.008 0 1.158-1.924 1.158-1.924 2.413-2.01 6.21-1.77 8.932-3.07.505-.234 1.196-.526 1.282-1.074.64-3.748-4.73-4.228-4.7-7.266.032-2.977 3.31-6.645 4.33-9.465 0 0-3.93-2.765-3.04-4.268l2.256-.926c.01-.02-1.9-7.56-1.887-7.683.14-.852 1.98-.647 2.152-1.5.548-2.695-2.085.853-.895-2.003.43-1.024 2.358-1.415 2.85-2.416.12-.265.057-.64-.14-.858-2.134-2.57-3.185-2.188-1.622-5.96 1.032-2.5.863.426 2.093-.31.545-.328-.193-1.738.42-1.834.39-.06.566.506.843.755.276.26.526.98.84.76.43-.292.166-1.004.24-1.503.45-2.81 1.34-2.312 2.44-4.21.57-.983-.174-2.637.155-3.572.665-1.862 3.062-2.26 3.763-3.22.365-.497-1.39-2.73-1.23-3.36.203-.884 1.553-1.176 1.81-2.045l-.41-2.595c1.015-2.41 5.364-2.135 2.927-8.43"/><path class="state" data-x="-45" data-y="-70" data-scale="1.8" data-active="0" fill="#D8AB5E" d="M336.504 343.766c1.582-1.678-2.953-1.374-2.596-3.178.69-3.61 2.71-1.324 1.894-7.346-1.542-1.45-1.995.165-3.684-.396-1.734-.57-2.913-5.83-4.96-4.657-2.205 1.27 3.732 3.63 1.293 4.26-.42.1-4.33-1.66-4.6-2.04-.52-.71.018-1.81-.35-2.61-.835-1.86-3.403-2.92-4.23-4.77l-.35-2.61-2.24-.597c-.54-4.04 3.796-4.55 2.498-8.314-.84-2.444-4.153-4.03-5.15-6.428-.714-1.666.266-5.643-.922-6.977-1.17-1.285-4.535-.855-5.958-1.886-1.552-1.104-1.99-3.7-3.49-4.88-.972-.74-2.676-.656-3.735-1.294-.645-.372-.87-1.535-1.635-1.56-1.87-.096-1.707 3.132-4.09 1.4-1.78-1.288.486-2.318-.44-3.494-.956-1.212-5.878-1.248-7.44-2.62-.752-.656-.937-1.83-1.725-2.453-.975-.763-2.67-.645-3.72-1.318-2.054-1.327-5.007-4.33-6.442-6.314-4.82-6.678 4.72-15.52 5.096-21.92.083-1.4-1.31-2.897-1.234-4.298.1-1.728 3.52-4.63 2.023-6.46-1.122-1.368-12.11-6.174-13.302-5.497-2.3 1.32-3.97 6.366-7.07 5.27-5.39-1.877-3.9-8.234-4.78-10.977-.236-.717-1.262-.928-1.584-1.6-.897-1.81-.603-4.193-1.4-6.05-2.178-5.054-9.003-6.015-12.88-9.2-1.295-1.058-1.865-3.115-3.22-4.08-3.55-2.536-10.076-4.515-12.694-8.38-.77-1.14-.565-3.078-1.15-4.326-.533-1.143-2.05-2.088-2.42-3.286-.334-1.07.632-2.525.302-3.59-.367-1.18-1.857-2.18-2.416-3.3-1.664-3.29-2.04-6.84-2.154-10.43-.062-2.656-.56-6.527.77-8.97.25-.47 1.254-1.025 1.254-1.025s-.804-.304-1.197-.46c-2.316-.906-2.512-2.175-4.445-3.38-3.536-2.207-5.62-4.555-7.89-8.07-.043-.06-7.4 1.275-10.47 1.784-10.662 1.817-21.282 3.22-32.026 4.363-40.18 4.24-80.33 7.243-120.706 8.32.25 4.77 2.65 3.617 4.487 7.732.495 1.125 1.016 6.955 1.067 7.024.08.158 7.414 3.65 7.72 3.996l-.59 1.81c.512 1.623 3.163 2.588 3.657 4.213.27.878-1.005 3.79-.43 4.452.327.372 2.916.06 4.2 1.52.246.285.73.84.73.84s5.74 4.81 9.26 5.64c2.154.52 3.317-3.833 5.357-2.096l.163 2.65c.453.81 2.35.8 2.86 1.583.257.423.202.975.31 1.457.21.97.807 1.933.645 2.91-.35 2.025-3.47-.122-4.108.255-.787.473-.014 1.935-.516 2.683-.362.52-1.656.497-2.012 1.016-.796 1.17-.243 3.246-1.09 4.498-.316.444-1.11.46-1.326.956-1.34 3.05 8.083 7.89 8.866 9.174l-.575 1.812c.198 3.13 2.35 2.33 3.726 4.183.617.81.197 2.772.922 3.473 2.35 2.26 6.712.713 9.157 2.044.25.132-.43.33-.653.49-1.385 1.016-.33 5.064-.202 6.746.502 6.77.987 13.553 1.492 20.327 2.093 28.6 4.205 57.22 6.307 85.818.575 8.77 1.175 17.528 1.765 26.288 46.356-3.11 92.65-7.138 138.843-12.093 13.024-1.396 26.05-2.858 39.074-4.407 2.297-.278 12.51-2.355 14.04-1.698 1.207.51 1.893 3.088 2.697 4.093 2.916 3.63 4.423 6.57.573 10.535-.99 1.018-3.27 1.15-4.107 2.276-.54.73.09 1.93-.39 2.69l-2.068 1.13c-.42.564-3.05 7.04-2.773 7.41.332.415 5.57-.665 6.27-.76 7.307-.89 14.605-1.81 21.902-2.74 0 0 .29-.854.428-1.29.49-1.52.806-3.84 1.676-5.173.32-.486 2.645-1.57 2.662-2.107.016-1.27-3.258-2.522-3.426-3.8-.214-1.733 5.01-2.787 4.674-3.43-.582-1.106-3.25-1.09-3.93-2.15-1.464-2.23 3.857-1.668 3.964-3.168.185-2.507-3.58-7.117-2.688-9.396.104-.257.435-.346.646-.524 4.71-3.77-.837 8.872 6.255 3.17 0 0 .677-3.6.74-5.405.016-.524-.75-2.565.36-2.71 1.54-.206 3.354 3.097 5.463 2.807 1.433-.186 3.002-4.552 2.883-5.698-.138-1.144-1.687-2.15-1.915-3.287-.49-2.486 1.79-1.247 2.612-2.14"/><path class="state" data-x="-208" data-y="-110" data-scale="1.68" data-active="0" fill="#AE8F5B" d="M376.74 298.06c-.082.55-.778.844-1.28 1.078-2.715 1.31-6.502 1.068-8.91 3.087 0 0-1.147 1.933-1.154 1.933-1.65.985-3.854-.508-4.82 1.593-4.09 8.86 6.863 6.88 2.95 15.33-.18.38-.12 1.12-.544 1.18-6.845.98-17.633-8.22-23.83-4.64-.638.38-5.373 8.22-5.313 8.704.28 2.117.44 2.698 2.01 4.155.273.26.834.774.834.774.815 6.014-1.207 3.73-1.896 7.333-.358 1.8 4.185 1.5 2.6 3.176-.82.885-3.107-.35-2.613 2.13.222 1.13 1.774 2.14 1.91 3.28.12 1.15-1.45 5.51-2.89 5.697-2.11.29-3.93-3.01-5.475-2.804-1.11.142-.345 2.18-.36 2.7-.063 1.808-.74 5.402-.74 5.402 14.42-2.127 28.826-4.323 43.232-6.625 2.253-.354 14.305-1.51 15.412-2.495 2.473-2.226-3.145-7.846-2.15-9.433.332-.514 5.506-.303 6.275-.343 3.82-.22 2.473.995 4.12 1.443 2.846.77 9.03-1.686 11.982-2.236 6.082-1.15 37.74-7.914 41.342-7.18.384.083.493.815.86.753 0 0 1.85-2.09 1.855-2.09 3.12-1.54 24.214-2.668 29.27-3.26 10.054-1.147 19.445-3.47 29.34-5.345 10.89-2.065 22.056-3.095 33.003-4.896 6.99-1.158 13.98-2.28 20.992-3.315 2.44-.363 6.164-.238 8.207-1.594.415-.28 1.22-.814 1.22-.814s.595-.717.883-1.07c1.238-1.507 3.053-2.743 4.777-3.677 3.336-1.797 13.036-5.398 15.317-7.69 1.116-1.105.486-4.46 1.72-5.742 1.78-1.862 6.556-1.79 7.882-4.382.226-.44-.053-.98-.076-1.476-.02-.493-.053-.99-.086-1.485-.013-.49-.235-1.014-.06-1.476.7-1.876 4.2-2.757 4.85-4.65.544-1.52-1.582-2.862-.232-4.436 3.398-3.935 8.814-6.207 12.455-9.93 5.06-5.155 9.2-11.745 13.61-17.457-1.48-1.166-4.8 1.512-7.335-.148-.49-.32.02-1.285-.398-1.71-1.784-1.857-5.4-1.287-7.203-2.89-1.102-.97-1.264-2.99-2.358-3.978-1.008-.92-3.1-.82-4.04-1.803-.957-1.006-.72-3.123-1.65-4.143-.563-.613-2.746-.39-3.15-1.102-2.133-3.733 1.737-.72-3.217-4.69-3.343-2.69-6.155-5.737-5.048-9.705 0-.002 1.19-1.156 1.19-1.156.385-2.79-1.807-3.85-2.706-5.713-.153-.31.03-.684.04-1.02.01-.343.032-.686.042-1.03.02-.223.03-.67.03-.67-4.777-5.595-8.956-3.834-12.17-6.366-1.777-1.406-1.903-7.31-3.93-8.16-1.03-.43-8.065 5.612-8.646 6.345 0 .007-.816 2.873-.816 2.876-.443.46-2.94.62-3.594.76-.328.063-2.312 1.402-2.39 1.402-1.09-.06-2.227-1.73-3.284-2.015-.464-.126-.95-.004-1.44-.004-.473 0-.95 0-1.43-.004-.473 0-.977.147-1.424 0-.708-.22-.98-1.384-1.74-1.43-4.77-.334-4.834 7.245-10.422 4.834-1.85-.8-3.532-4.178-5.356-5.207-3.91-2.19-10.243 3.18-14.213.157-2.428-1.84-3.77-6.55-6.007-8.686-1.083-1.04-3.375-.917-4.61-1.795-.665-.48-1.955-2.95-2.724-3.06-1.56-.19-4.06 3.426-5.64 3.79-2.144.493-4.36-2.752-6.137-2.413-1.434.278-2.9 3.25-2.9 3.25-5.25 4.914 2.786 2.93.113 8.047-.02.046-1.07 1.563-.35 1.86.813.31 3.248-1.573 3.596.208 0 .01-.873 2.85-.873 2.86.055.91 1.613 1.648 1.19 2.46l-2.233-.462c-1.373.126-4.14 1.18-5.32 1.894-2.022 1.24-4.983 6.45-7.27 6.734-.914.113-5.703-5.21-10.797-.7-2.1 1.86 3.146 7.964 2.605 10.266-.425 1.738-6.086 4.713-6.81 5.706-1.584 2.19-.145 5.996-2.045 8.414-2.56 3.266-4.624.67-6.076 1.98-3.57 3.22.424 13.874-2.246 15.576 0 0-2.77.484-2.785.49 0 0-.808 1.475-.808 1.48-.637.192-10.486-2.743-11.094-3.884-.64-1.215-1.92-5.915-4.523-5.476-2.032.35 2.37 2.328 1.994 3.23-.73 1.71-4.755 1.77-4.907 2.027l1.327 2.153c-.212.96-2.81 1.4-3.19 2.327-.53 1.3 1.57 3.983.896 5.197-.007 0-2.647 1.326-2.657 1.333-.88 1.226.49 3.053-1.517 3.818-.44.17-1.038.55-1.387.24-.344-.305.09-.908.14-1.363.027-.452.458-1.052.116-1.355-.58-.526-3.395.978-4.184.697-1.084-.38-2.566-4.45-4.225-3.766-1.187.5-1.973 2.46-3.057 3.175-.99.666-3.288.676-4.054 1.557-1.79 2.052.02 5.973-3.06 7.615-.494.26-1.134-.27-1.54-.64-2.76-2.47-7.51-4.95-11.612-5.273-1.888-.152-5.297 2.783-6.856 1.955-2.76-1.454.815-1.02-1.983-1.698-.385-.088-.34.77-.26 1.156.498 2.324 3.384 3.337.12 5.32-3.754 2.265-.544-3.18-2.653-3.154-1.273.02-2.66 2.11-3.93 2.384-2.275.484-3.59-2.53-5.436-2.738-3.67-.408 3.546 6.857-.91 8.147-.92.256-2.813-1.44-3.45-1.13l-.186.784c-1.02 2.83-4.287 6.52-4.32 9.51-.03 3.056 5.324 3.538 4.69 7.304"/><path class="state" data-x="-140" data-y="-158" data-scale="1.41" data-active="0" fill="#DFB875" d="M655.725 291.917s-6.638 1.01-9.96 1.52c-1.882.276-1.263.606-2.627 1.377-3.98 2.287-11.074 2.518-15.584 3.532-18.842 4.21-37.74 8.264-56.663 12.178 0 0-.8.534-1.21.813-2.023 1.354-5.73 1.23-8.15 1.592-6.967 1.03-13.907 2.15-20.85 3.31-10.876 1.8-21.97 2.82-32.784 4.89-9.825 1.87-19.154 4.19-29.142 5.33-5.02.594-25.97 1.72-29.07 3.26-.005 0-1.836 2.086-1.836 2.086-.365.062-.477-.67-.855-.755-3.58-.73-35.024 6.03-41.062 7.177-2.933.55-9.076 3-11.902 2.234-1.638-.45-.298-1.666-4.09-1.445-.77.043-5.905-.17-6.238.346-.988 1.58 4.592 7.19 2.134 9.418-1.1.99-13.07 2.135-15.313 2.497-14.302 2.3-28.614 4.497-42.94 6.626-7.06 5.685-1.533-6.932-6.224-3.166-.21.173-.54.265-.646.522-.89 2.273 2.86 6.873 2.674 9.377-.102 1.49-5.4.933-3.945 3.156.68 1.055 3.332 1.04 3.912 2.142.343.646-4.862 1.693-4.65 3.427.17 1.274 3.425 2.526 3.41 3.79-.02.53-2.332 1.62-2.65 2.104-.87 1.33-1.18 3.64-1.66 5.157-.14.433-.43 1.286-.43 1.286.99.91 1.236 1.15 2.225 2.064 3.426 3.2-1.772.36-3.097 2.456-1.88 2.96 3.525 1.742 1.997 4.15-.337.53-2.472-.11-2.883.37-.6.682.09 1.934-.394 2.697-.817 1.273-5.13 1.217-6.27 2.548-2.17 2.52 4.35 1.996 5.59 3.7.56.767-3.73 2.724-4 3.148-.69 1.09 1.853 1.517 1.057 2.516-1.35 1.642-4.042-1.9-5.073.635-1.41 3.492 4.81 4.75 2.927 5.792-4.83 2.663-2.494-2.326-4.66-2.062-2.624.323-3.002 5.65-2.99 5.65 1.776-.224.195-1.788 1.968-2.01.608-.08 2.388 4.356 2.098 5.03-.382.878-3.23 1.264-3.426 2.176-.208 1.05 4.12 1.066 4.69 2.06.375.66.576 5.915.02 6.16-.923.41-2.1-.94-3.024-.51-1.027.485-.72 3.87-1.653 4.604-.656.518-3.162-.22-3.64.44-.268.35.108.86.16 1.3.044.428.152 1.304.152 1.304 30.9-3.76 61.735-7.92 92.527-12.48-.236-1.605 4.576-1.486 6.09-1.697 6.733-.91 13.467-1.83 20.187-2.78 28.593-4.024 57.03-8.77 85.44-13.905 18.87-3.12 37.708-6.39 56.52-9.812 0 0-1.85-8.8-1.1-13.122.73-4.217 8.14-.244 9.54-4.583.138-.45.006-.945.006-1.42.027-1.43.034-2.856.044-4.293 0-.464-.15-.97.008-1.413.696-1.92 8.394-9.21 10.598-10.18 1.302-.58 2.962-.326 4.29-.88.514-.227.685-1.21 1.24-1.16.01 0 1.776 1.42 1.776 1.42 2.78-.023 2.835-3.12 4.29-4.455.85-.79 2.626-.76 3.38-1.62.44-.464-.102-1.433.36-1.86.536-.484 1.558 0 2.14-.44 1.8-1.39 2.89-4.74 4.596-6.34 2.428-2.24 7.07-2.146 7.65-2.518 2.36-1.576 1.68-9.31 1.69-9.32 1.293-1.004 3.355.64 4.448-.07.563-.366.32-3.09.665-3.714.446-.808 4.06-4.544 4.91-4.67 3.71-.507 1.227 5.328 3.964 4.505 4.075-1.23 4.302-7.2 7.474-9.725 1.04-.808 4.66-3.64 5.78-3.984 2.37-.71 4.49 3.68 6.41 2.136 1.272-1.008 3.605-9.683 4.705-11.84.393-.752 2.066-3.873 2.735-4.22.78-.42 3.905.907 3.404-1.237-.885-3.85-1.09-8.44.83-12.323"/><path class="state" data-x="-102" data-y="-300" data-scale="1.94" data-active="0" fill="#BC9C64" d="M288.19 390.784c-.277-.36 2.345-6.747 2.765-7.3 0 0 2.044-1.112 2.06-1.122.483-.75-.147-1.932.39-2.656.837-1.105 3.112-1.236 4.1-2.244 3.842-3.908 2.34-6.808-.57-10.383-.803-1-1.483-3.54-2.692-4.04-1.525-.65-11.718 1.4-14.003 1.67-13.003 1.528-26.003 2.97-39 4.343-46.096 4.89-92.29 8.86-138.552 11.925 0 0 .874 4.064 1.32 6.1.768 3.55 1.54 7.105 2.307 10.657 2.312 10.62 4.983 21.23 7.014 31.926 2.25 11.935 2.05 24.3 2.59 36.386.945 20.562 1.863 41.13 2.79 61.695.73.75.985 1.78 1.67 2.465.674.677 2.814.413 3.062.67.268.255-.707.516-.69.894.08 1.266 3.243.914 3.817.6 2.852-1.556-1.843-1.976 3.69-1.125.95.146 7.425-1.648 8.322.267 1.774 3.753 1.66 22.09 2.062 27.397 43.366-3.19 86.735-6.86 130.026-10.966 0 0 2.21-2.327 1.88-3.653-.1-.432-5.17-2.73-3.486-3.937.882-.633 3.83.305 4.516-.496.512-.593-.647-3.466-.473-4.264.157-.782 2.057-2.023 1.957-2.81-.2-1.8-5.3 3.667-4.888-2.916.088-1.404 4.276-4.04 3.177-5.528-2.012-2.694-2.09 5.194-6.467 3.29-1.09-.473 3.934-3.538 3.282-4.67-2.827-4.87-2.56 5.3-5.057 2.27-.31-.367 1.917-3.106 1.855-3.65-.885-7.986-.86 5.866-1.75-2.117-.218-1.93 1.92-.74 2.397-2.28.096-.285.366-.588.287-.888-.39-1.32-3.7-3.49-3.56-4.813.03-.39.702-.358 1.062-.548 1.154-.58 5.735 4.97 7.34 1.36.12-.282-.32-.543-.475-.816-1.37-2.366-3.956 1.82-4.58-3.82-.04-.29-.35-.69-.11-.85.37-.24 7.234.905 6.713-.74-.314-.993-2.94-1.247-3.267-2.225-.42-1.234 1.27-3.17 1-4.446-.18-.81-3.2-2.277-1.536-3.506.365-.266.805.34 1.197.516.744.32 7.944-3.644 6.795-6.396-.09-.202-5.71.14-4.757-2.056.89-2.033 6.81.24 6.58-1.613-.205-1.715-4.438-.552-5.387-1.12-3.28-1.992 2.58-1.054 2.867-1.185l1.22-2.45c.796-1.618 3.573-1.57 3.273-4.126l-.938-1.627c1.916-2.42 3.91 2.17 3.993 2.134.49-.17.75-3.117 1.073-3.587.58-.853 2.27-1.15 2.758-2.055.675-1.265-1.164-3.79-.63-5.132.585-1.403 2.13-1.084 1.92-2.82-.033-.293.09-.64-.097-.86-2.14-2.416-3.746-.603-2.464-4.922.09-.293-.05-.86.27-.89 1.43-.164.768 2.83 1.134 3.33.427.57 3.45-2.414 3.38-3-.192-1.582-3.18-.58-3.89-1.27-.705-.694-1.32-5.207.956-4.46 2.253.753-.564 3.08-.32 3.524.647 1.11 3.396-1.338 3.475-2.16.06-.72-2.566-5.078-1.46-5.898 2.61-1.975 1.024 2.064 1.77 2.395l2.316-1.426c1.844-1.154 1.49.483 2.72-.033 3.055-1.3.724-6.2-.21-7.794 0 0-.11-.862-.153-1.285-.05-.43-.43-.94-.163-1.283.48-.656 2.994.075 3.65-.437.935-.73.63-4.07 1.66-4.55.923-.428 2.102.903 3.03.5.56-.24.356-5.438-.02-6.09-.575-.98-4.91-.995-4.707-2.033.2-.9 3.058-1.28 3.44-2.147.29-.665-1.492-5.053-2.1-4.97-1.776.216-.195 1.763-1.972 1.982-.012 0 .368-5.265 3-5.58 2.167-.26-.17 4.67 4.674 2.036 1.892-1.032-4.347-2.276-2.934-5.728 1.034-2.508 3.73.998 5.083-.63.8-.988-1.75-1.41-1.06-2.485.27-.42 4.57-2.36 4.013-3.11-1.25-1.687-7.785-1.17-5.608-3.66 1.144-1.313 5.47-1.26 6.283-2.517.49-.754-.206-1.99.395-2.665.41-.48 2.55.155 2.88-.367 1.54-2.382-3.88-1.173-2-4.103 1.33-2.07 6.54.735 3.104-2.426-.99-.902-1.24-1.143-2.227-2.04-7.286.92-14.568 1.823-21.86 2.705-.693.085-5.922 1.154-6.252.744"/><path class="state" data-x="-350" data-y="-360" data-scale="2.21" data-active="0" fill="#C39547" d="M412.703 666.977c-.11-.3-.213-.604-.11-.74-3.418-17.412-6.82-34.838-10.212-52.27-1.59-8.13-3.9-16.443-4.79-24.672-1.06-9.736-.515-19.937-.78-29.733-.563-20.378-1.15-40.77-1.8-61.153-.503-15.73-1.014-31.45-1.574-47.17-.114-3.43.643-16.56-.67-18.9-.705-1.25-3.94-3.16-5.107-4.52-30.62 4.55-61.284 8.7-92.01 12.45.924 1.606 3.236 6.55.207 7.862-1.215.52-.867-1.132-2.695.032l-2.293 1.44c-.74-.334.833-4.41-1.76-2.418-1.096.827 1.512 5.23 1.45 5.952-.075.834-2.804 3.3-3.443 2.18-.25-.45 2.55-2.8.314-3.56-2.252-.75-1.646 3.802-.945 4.502.703.7 3.664-.315 3.86 1.285.068.59-2.936 3.607-3.354 3.028-.364-.503.294-3.53-1.12-3.36-.325.027-.185.6-.276.898-1.27 4.36.32 2.53 2.444 4.976.19.22.066.573.093.86.22 1.754-1.32 1.43-1.9 2.85-.53 1.354 1.3 3.9.63 5.18-.486.92-2.16 1.213-2.733 2.074-.32.474-.575 3.448-1.063 3.622-.083.033-2.064-4.602-3.96-2.16l.93 1.642c.3 2.574-2.454 2.53-3.247 4.165l-1.204 2.47c-.285.13-6.1-.816-2.844 1.192.94.57 5.142-.6 5.34 1.13.228 1.872-5.643-.42-6.523 1.63-.947 2.215 4.628 1.866 4.717 2.073 1.14 2.78-6 6.782-6.737 6.453-.39-.174-.826-.78-1.19-.52-1.647 1.24 1.347 2.722 1.527 3.537.27 1.29-1.413 3.24-.994 4.485.32.986 2.93 1.25 3.24 2.248.514 1.664-6.29.504-6.66.747-.238.163.07.563.102.86.62 5.684 3.188 1.462 4.547 3.86.153.27.59.53.47.82-1.592 3.64-6.132-1.96-7.28-1.38-.36.19-1.026.153-1.053.56-.146 1.323 3.14 3.513 3.526 4.85.082.3-.187.61-.285.892-.473 1.55-2.596.353-2.38 2.3.88 8.06.86-5.925 1.736 2.136.065.55-2.15 3.314-1.838 3.69 2.472 3.054 2.21-7.21 5.01-2.298.645 1.144-4.34 4.236-3.254 4.71 4.337 1.926 4.415-6.035 6.414-3.317 1.083 1.504-3.067 4.16-3.156 5.58-.41 6.644 4.648 1.127 4.852 2.945.1.797-1.788 2.047-1.945 2.84-.17.804.98 3.703.47 4.3-.68.81-3.6-.137-4.48.5-1.665 1.22 3.36 3.545 3.46 3.97.33 1.344-1.86 3.69-1.86 3.69-.56.82-3.24 3.734-1.03 4.47 4.74 1.563 1.47-5.502 4.88-4.02 3.076 1.33-3.174 9.694-2.61 10.73.616 1.177 5.31.102 5.53 1.99.346 3.14-5.973 2.81-3.84 6.523 1.69 2.93 5.39-4.698 6.67-1.614.69 1.66-2.664 2.774-2.63 3.774.015.404 4.476 2.305 3.4 3.097-.136.086-7.99-1.113-4.336 2.223 1.744 1.58 4.56-.645 6.133.175.42.227-1.05 3.484-.274 4.39.68.808 3.44.387 3.97 1.29.96 1.64-2.5 1.517-2.83 2.06l.29 2.57c-.435 1.06-9.19.628-7.844 5.227.96 3.317 5.74-2.2 6.81-.763.707.944-1.79 5.176-2.45 5.484-.557.268-3.57-.877-3.892-.43-.51.74 5.014 1.595 4.172 3.01-.816 1.37-3.27 1.836-4.263 3.085-1.436 1.748-2.49 4.934-3.103 6.847-.396 1.24-2.48-2.34-3.76.854-.16.41-.158.88-.24 1.325-.645 3.527 1.828-.2 2.353 1.614.403 1.385-2.62 1.72-3.08 2.36-.762 1.06.04 4.54-.97 5.304-.994.765-4.315-1.878-4.584.485-.314 2.78 3.39.66 4.006 1.316 1.437 1.513-3.11 3.094-3.45 3.84-1.05 2.255 2.19 4.02 2.155 5.825-.07 3.425-3.327-1.65-3.824.414-.674 2.755 3.5 3.98 2.93 5.746-.55 1.687-6 2.273-5.96 2.36.446 1.054 2.47 2.342 2.667 3.184.227.99-1.503 2.62-1.183 3.588.428 1.22 3.15 1.844 3.428 3.1.252 1.055-2.696 2.034-2.804 2.886-.04.39.48.684.854.776 3.655.952 14.102-1.51 18.307-1.964.51-.06 1.02-.11 1.526-.18 15.766-1.73 31.515-3.58 47.258-5.525 4.605-.562 15.765-3.43 19.797-2.502 2.835.668-4.12 14.718-3.22 17.765.014 0 1.757 1.5 1.764 1.5.53.865.41 2.46 1.197 3.314 1.648 1.72 4.495 2.38 6.074 4.407 3.37 4.337 3.096 9.06 6.408 13.015 1.46 1.734 1.468-.87 3.09.36.766-.697 1.536-1.224 2.34-1.078.382.066.53.885.895.747.505-.186.74-3.114 1.098-3.61.896-1.23 3.7-1.795 4.31-3.17 1.186-2.683-3.07-2.324-1.23-3.304.57-.3 3.506-.27 3.987.323l-.55 1.812c.228.346 3.006-.913 3.28-1.02 1.86-.68 11.026-3.81 11.956-4.82 1.195-1.294-.3-3.415 3.295-2.767 2.104.378 3.824 3.023 6 3.48 1.15.254 4.47-.73 5.29-1.613.44-.456-.076-1.936.53-1.817.976.217.97 1.982 1.906 2.327.002.014 3.104-.44 3.104-.44l1.782 1.473c.006 0 1.303-1.916 1.303-1.916.45-.25 1.116.08 1.542-.227l-.14-.965"/><path class="state" data-x="-121" data-y="-485" data-scale="2" data-active="0" fill="#D9B67B" d="M391.4 730.233c-.267.05-.63-.113-.79.112-.168.234.393.765.13.854-2.812 1.03-5.63-7.05-7.336-6.82-1.854.26-.27 1.774-2.126 2.02l-1.01-1.596c-.64-.21-5.43 1.36-5.618-.11-.12-.84 3.078-1.286 2.24-1.167-2.02.27-3.428-.41-5.3-.155-.713.08-3.926 1.007-4.293.123-.242-.57.535-2.906.397-3.085-1.575-2.07-6.39-.03-8.177-1.53-1.752-1.48-1.827-4.78-3.067-5.26-.275-.104-1.076-.144-.83-.32.34-.25.843.004 1.27.008.847.01 1.7.01 2.553.013.43.006 1.076.387 1.267.006 1.076-2.085-2.602-3.256-3.187-3.75-.275-.244.723.1 1.09.14.364.06.722.116 1.073.152.36.055.754-.004 1.08.147 1.698.776 4.222.856 6.266 1.214.102.013-.082-.22-.17-.27-.525-.355-.854-.55-1.087-.67-.374-.026-.68-.357 0 0 .29.017.584-.148.48-.99-.225-1.687-3.558 3.26-4.247-2.044-.15-1.183 3.436-1.11 3.8-1.375.544-.406 1.224-4.52 1.778-4.597 2.04-.26.84 3.837 4.25 2.056.468-.253 1.347.27 1.554-.206.41-.932-1.76-1.355-1.896-2.36-.1-.78 1.933-1.417 1.336-1.917-.395-.335-1.155.54-1.553.2-.692-.56 1.12-2.086.437-2.662-.64-.536-1.397 1.284-2.23 1.168l-.994-1.604c.18-2.06 1.8.554 3.1-.42.247-.17-.06-.565-.102-.844-.338-2.52-3.277.83-4.01-.34-.84-1.33 2.452-3.426 2.445-3.52-.105-.802-1.503-.52-2.228-.87-.876-.412-1.664-1.77-2.56-1.412-.827.364.01 1.906-.45 2.68-.547.95-2.365 1.17-2.89 2.13-1.723 3.157 1.397 10.055-5.97 6.003-1.807-.994-.353-2.325-.714-2.514-1.8-.996-6.68 2.185-6.67-2.628.008-2.486 9.388-.928 8.587-7.213-.304-2.34-3.23 2.17-3.674 2.23-1.85.24-.21-2.933-.44-3.43-1.275-2.853-1.114 4.26-1.79 4.59-2.067 1.01-2.77-4.227-5.1-2.826-1.082.642-3.297 5.527-5.485 6.788-3.77 2.18-23.753 1.688-19.73-6.27.456-.886 8.56-10.597 8.97-10.666 2.343-.38 8.046.455 9.738 2.266.004.004 1.094 2.476 1.094 2.476.387.262.925.013 1.39.03.923.036 1.85.062 2.774.092.46.017.94-.12 1.385.03 1.063.38 1.95 1.502 3.324 1.327.823-.11 1.49-1.57 2.218-1.166.48.268-.622 4.246 5.884 2.727.353-.1 3.95-1.502 1.61.21-.237.18-1 .428-.727.537 1.58.612 2.944-1.158 4.322-2.406-1.624-1.24-1.63 1.384-3.097-.367-3.318-3.98-3.04-8.737-6.41-13.1-1.584-2.045-4.435-2.707-6.085-4.445-.786-.856-.67-2.46-1.2-3.33-.006 0-1.75-1.508-1.765-1.508-.903-3.07 6.062-17.215 3.225-17.89-4.04-.934-15.217 1.956-19.83 2.522-15.77 1.96-31.544 3.82-47.335 5.56-.51.077-1.02.124-1.53.187-4.214.455-14.68 2.93-18.335 1.974-.38-.1-.893-.39-.856-.788.107-.86 3.06-1.844 2.81-2.903-.28-1.268-3.012-1.9-3.435-3.12-.327-.974 1.41-2.615 1.183-3.61-.204-.85-2.226-2.15-2.675-3.21-.044-.085 5.422-.674 5.967-2.375.578-1.78-3.604-3.013-2.933-5.786.508-2.08 3.76 3.03 3.838-.415.03-1.82-3.212-3.596-2.162-5.866.342-.755 4.897-2.343 3.456-3.865-.613-.66-4.327 1.477-4.01-1.326.267-2.38 3.594.28 4.59-.488 1.016-.773.21-4.274.976-5.34.464-.643 3.485-.98 3.085-2.377-.523-1.83-3 1.926-2.354-1.63.08-.442.08-.92.234-1.336 1.284-3.215 3.367.393 3.77-.855.61-1.927 1.67-5.137 3.105-6.895 1-1.258 3.453-1.724 4.273-3.104.845-1.427-4.693-2.288-4.18-3.03.32-.45 3.34.703 3.898.435.666-.317 3.166-4.57 2.458-5.526-1.074-1.45-5.86 4.11-6.83.764-1.347-4.624 7.427-4.188 7.856-5.256l-.287-2.59c.33-.544 3.794-.425 2.83-2.07-.53-.91-3.29-.485-3.978-1.3-.774-.914.695-4.19.28-4.422-1.58-.82-4.397 1.416-6.144-.176-3.666-3.36 4.21-2.147 4.34-2.237 1.08-.8-3.394-2.71-3.41-3.117-.03-1.008 3.333-2.13 2.64-3.805-1.28-3.106-4.99 4.572-6.686 1.63-2.133-3.74 4.193-3.41 3.852-6.57-.227-1.9-4.92-.82-5.548-2.008-.563-1.043 5.7-9.46 2.62-10.8-3.415-1.496-.14 5.62-4.885 4.048-2.22-.744.46-3.673 1.025-4.504-43.007 4.177-86.093 7.906-129.17 11.144.92 12.464 1.835 24.915 2.75 37.382.21 3.01-.07 13.415 1.14 15.55 1.22 2.15 5.55 3.703 7.326 5.543 2.308 2.416 4.02 6.062 4.545 9.24.257 1.556-.885 3.753-.366 5.252.676 1.93 3.645 2.105 4.626 3.4.3.393.44.94.367 1.422-.05.39-.72.548-.7.928.15 1.788 4.957 4.02 5.09 5.7.073.992-1.537 1.71-1.33 2.71.15.77 2.78 1.675 3.26 2.34.63.82.326 2.698 1.064 3.4.387.376 2.96.12 3.15.61.44 1.123-1.42 3.238-1.195 4.446.146.873 2.71 2.416 2.586 3.267l-2.245 1.043c-1.213 2.156 1.767 2.636 1.82 3.34 0 0-1.343 2.7-1.347 2.7-.643 3.295.224 7.343-1.502 10.56-.58 1.075-2.466 1.688-2.9 2.833l.2 2.586c-.376 1.044-2.27 1.017-2.13 2.77.114 1.53 2.257 3.338 1.97 5.04-.418 2.326-2.84 2.33-1.94 5.36 2.365 8.046 4.76 11.164-.105 19.064l-.097.14c.997.854 1.424 2.638 1.21 4.098-.075.49-.92 3.304-1.306 3.565-2.017 1.314-6.446.23-3.595 4.598.18.29 2.41 2.384 2.542 2.403 1.36.145 3.896-3.38 5.24-3.87 4.57-1.69 17.695-2.85 22.726-2.73 9.3.21 17.82 5.375 26.768 7.146 3.807.74 7.95.695 11.818 1.02 2.08.183 5.39 1.105 7.398.626 1.623-.397 2.9-2.456 4.475-3.032 1.5-.56 3.574.157 5.03-.51 3.788-1.727-.215-.257.304-1.753.052-.14 2.31-.11 2.36-.245.57-1.655-3.88.42-3.937.404-.256-.115-1.923-2.99-1.896-3.286.02-.775 1.98-1.34 1.4-1.864-.513-.455-3.183 1.523-3.84 1.25-.14-.06-1.174-3.314-1.122-3.357.365-.395 1.05-.106 1.57-.156.524-.06 1.09-.364 1.574-.152.524.216-.404 1.768.163 1.708.283-.022 6.42-3.726 6.717-4.13.345-.47-.508-1.264-.17-1.73.587-.77 1.933.81 2.44.628 1.237-.474 1.61-1.023 3.32-1.21.427-.03.93-.36 1.296-.13 2.835 1.73-3.05 1.185-1.125 4.45.29.504-.26 1.342.167 1.72.498.436 8.36-3.41 10.804-2.85 2.09.47-.2 3.567.104 4.745.766 2.91 3.138-.222 4.457.83 1.07.87.523 5.134.53 5.147.39.44 4.27-1.316 4.964-1.23 1.887.25 4.492 3.66 7.117 2.524.927-.41.985-8.155 2.65-6.687 2.388 2.085-2.71 4.1-.985 7.37 1.688 3.2 6.06 2.88 7.747 5.204.526.728 1.01 5.792-1.023 5.31-1.49-.35-.6-3.608-1.26-4.19-.45-.395-.922 1.25-1.48 1.032l-1.288-2.162c-2.27-1.84-2.196 1.36-3.49 2.244-.45.323-1.29-.687-1.624-.25-.247.34.43.726.66 1.083 1.433 2.428 11.49 5.737 13.592 5.14.904-.26.343-1.78 2.193-1.98.264-.036.763-.354.788-.093.08.78-1.703 1.174-1.39 1.895.09.2 2.855-.444 3.154-.365 1.134.31 2.3 2.123 3.447 2.21 3.28.24 1.03-2.39 1.284-2.75.36-.487 1.086.61 1.683.67.79.077 1.67-.664 2.377-.27.793.447.08 1.72-.595 1.8-.265.03-1-.08-.8.093.417.355 4.702.312 4.84.3.99-.11.77-2.277 1.283-2.744.57-.54 1.41 2.2 1.77 1.518.638-1.202-1.745-4.445.194-5.22.513-.215.766-.23.943-.186.066-.283.194-.647.49-1.293 1.05-2.25-2.4-1.074-.305-2.567.243-.17.45-.563.73-.517 1.896.27 2.656 1.424 4.155 1.245 1.024-.13 1.516-3.653 1.956-3.706 2.71-.336 1.77 3.15 2.312 3.765.43.488.85-1.063 1.44-1.335 1.68-.75 2.825 2.84 4.043 2.684.63-.073-.03-1.73.587-1.795.91-.12 1.27 1.922 1.104 2.46-.74 2.284.11 2.5 1.4 5.028.956 1.853-.822-.223-.582 1.8.146 1.15 2.08-1 3.01-1.668.004-.007 2.202-1.565 2.22-1.57.875-.77 2.19-1.99 2.824-2.96 1.878-2.864-2.443-.756-2.09-4.072.086-.9 1.46-2.58 2.15-2.003.197.177.525-.064.79-.104.064-.005.202.048.195-.015-.173-1.403-1.9-8.38-2.036-8.427-1.787-.637-3.84.82-5.61-.166-.305-.18-.68-1.437-.983-1.61-.1-.058-.15-.067-.236-.124-.45.546-1.756-.894 0 0 .107-.126.177-.328.134-.738-.013-.05-.68-.24-.213-1.716.065-.2 3.235.888 10.844 3.847.862.35 2.234-.645 3.137-.387l1.78 1.503c1.695-.213-.077-2.27.46-2.665.316-.214 2.544 1.094 2.573 1.41l-1.46 1.06c-.485 2.824 2.927.318 3.258.45l-.57 1.808c.13.223.536-.194.78-.098.365.14.763.4.89.752.477 1.288-3.38 1.722-2.8 2.966l2.613-.34c.532-.065 2.685.594 2.993.484.002-.01 2.13-2.013 2.135-2.013 2.696-1.61.764 3.16 2.13 4.06.815.536 3.076.14 4.055.33l1.672.65c.24-.17-.06-.567-.102-.855-.032-.287-.28-.625-.11-.854.153-.22.528-.063.78-.102.266-.025.755-.37.784-.108.052.39-.677.56-.674.96.06 2.354 4.48 3.72 4.5 3.74.518.63-.11 3.98 2.03 3.198 3.19-1.148.846-2.728 1.407-4.527.09-.294-.03-1 .286-.903.73.207.216 1.703.815 2.202 3.296 2.73-.32 2.15-1.62 3.98l.234 1.7c-.48 1.885-1.888 3.626-2.48 5.54-.264.82 1.69-.54 2.246-1.17.34-.37.42-.92.638-1.38 1.27-2.85 2.224-3.34 4.1-5.334.43-.456-.06-1.86.56-1.815 1.016.083 3.69 6.663 5.534 5.33.728-.536-1.015-1.56-1.126-2.45-.093-.688 1.25-3.65 1.898-3.74.398-.048.53.796.91.732.623-.075-1.21-.99-1.02-1.585.327-1.05 2.424 1.45 2.59 1.378l1.23-2.77c-.665-1.765-3.63.645-3.93.54-.272-.098-.082-.57-.12-.852-.115-.9 8.69-4.678 1.904-3.747"/></svg>