<?xml version="1.0" encoding="utf-8"?>
<!-- Generator: Adobe Illustrator 15.0.0, SVG Export Plug-In . SVG Version: 6.00 Build 0)  -->
<!DOCTYPE svg PUBLIC "-//W3C//DTD SVG 1.1//EN" "http://www.w3.org/Graphics/SVG/1.1/DTD/svg11.dtd">
<svg version="1.1" id="Layer_1" xmlns="http://www.w3.org/2000/svg" xmlns:xlink="http://www.w3.org/1999/xlink" x="0px" y="0px"
	 width="236.796px" height="190.398px" viewBox="0 0 236.796 190.398" enable-background="new 0 0 236.796 190.398"
	 xml:space="preserve">
<g id="missouri">
	<path id="MO" opacity="0.75" fill="#D8AB5E" d="M236.528,152.08c1.266-1.343-2.362-1.099-2.077-2.542
		c0.552-2.889,2.169-1.06,1.516-5.877c-1.233-1.16-1.596,0.132-2.947-0.317c-1.387-0.457-2.33-4.664-3.969-3.726
		c-1.763,1.017,2.986,2.907,1.035,3.409c-0.343,0.084-3.471-1.329-3.686-1.633c-0.416-0.565,0.014-1.443-0.278-2.087
		c-0.67-1.482-2.725-2.333-3.386-3.816l-0.278-2.084l-1.789-0.476c-0.433-3.232,3.033-3.639,1.996-6.65
		c-0.673-1.955-3.323-3.224-4.119-5.142c-0.572-1.332,0.211-4.514-0.739-5.581c-0.935-1.028-3.628-0.684-4.767-1.509
		c-1.241-0.883-1.591-2.96-2.793-3.903c-0.776-0.594-2.14-0.525-2.986-1.036c-0.516-0.298-0.695-1.229-1.308-1.25
		c-1.496-0.077-1.366,2.505-3.272,1.12c-1.425-1.03,0.389-1.854-0.353-2.795c-0.764-0.97-4.702-0.999-5.951-2.095
		c-0.602-0.526-0.75-1.464-1.38-1.963c-0.779-0.61-2.136-0.516-2.974-1.054c-1.644-1.062-4.006-3.464-5.155-5.051
		c-3.854-5.341,3.779-12.417,4.078-17.535c0.066-1.123-1.048-2.317-0.987-3.438c0.082-1.382,2.816-3.705,1.62-5.169
		c-0.897-1.094-9.688-4.938-10.642-4.397c-1.842,1.057-3.177,5.095-5.657,4.217c-4.312-1.5-3.122-6.586-3.823-8.781
		c-0.19-0.574-1.011-0.742-1.269-1.279c-0.717-1.448-0.481-3.355-1.119-4.841c-1.742-4.043-7.202-4.812-10.306-7.361
		c-1.034-0.846-1.49-2.491-2.576-3.266c-2.838-2.026-8.059-3.61-10.153-6.704c-0.617-0.912-0.453-2.46-0.922-3.458
		c-0.425-0.914-1.639-1.67-1.935-2.628c-0.267-0.854,0.506-2.019,0.242-2.873c-0.293-0.943-1.485-1.742-1.933-2.64
		c-1.33-2.628-1.631-5.469-1.722-8.345c-0.05-2.122-0.447-5.218,0.615-7.173c0.201-0.376,1.004-0.819,1.004-0.819
		s-0.642-0.243-0.956-0.37c-1.853-0.724-2.01-1.739-3.556-2.703c-2.827-1.766-4.495-3.644-6.31-6.455
		c-0.034-0.05-5.92,1.019-8.375,1.426c-8.53,1.454-17.026,2.577-25.622,3.49C64.42,8.309,32.301,10.712,0,11.574
		c0.201,3.816,2.121,2.894,3.59,6.186c0.396,0.901,0.813,5.565,0.854,5.62c0.065,0.124,5.932,2.917,6.176,3.194l-0.471,1.448
		c0.409,1.298,2.53,2.07,2.925,3.37c0.217,0.703-0.802,3.033-0.341,3.562c0.262,0.298,2.333,0.05,3.361,1.218
		c0.196,0.227,0.583,0.671,0.583,0.671s4.593,3.848,7.407,4.513c1.724,0.416,2.655-3.068,4.287-1.678l0.129,2.119
		c0.363,0.649,1.882,0.639,2.288,1.268c0.207,0.338,0.163,0.78,0.25,1.166c0.168,0.774,0.645,1.546,0.516,2.327
		c-0.279,1.62-2.776-0.098-3.286,0.204c-0.629,0.381-0.011,1.55-0.412,2.149c-0.291,0.415-1.327,0.398-1.611,0.813
		c-0.637,0.936-0.194,2.595-0.872,3.597c-0.252,0.356-0.887,0.37-1.061,0.766c-1.074,2.439,6.465,6.311,7.092,7.338
		c0,0.002-0.461,1.451-0.461,1.451c0.158,2.505,1.878,1.865,2.98,3.348c0.493,0.649,0.157,2.219,0.737,2.78
		c1.882,1.807,5.371,0.571,7.327,1.636c0.2,0.106-0.344,0.264-0.524,0.393c-1.108,0.812-0.265,4.05-0.162,5.396
		c0.401,5.415,0.789,10.841,1.193,16.261c1.674,22.881,3.364,45.777,5.046,68.654c0.46,7.016,0.94,14.022,1.413,21.03
		c37.086-2.489,74.121-5.71,111.076-9.675c10.418-1.115,20.84-2.285,31.258-3.523c1.837-0.223,10.009-1.885,11.232-1.358
		c0.966,0.407,1.515,2.47,2.158,3.274c2.332,2.904,3.538,5.255,0.458,8.426c-0.792,0.814-2.616,0.92-3.286,1.82
		c-0.431,0.583,0.075,1.546-0.313,2.15c-0.013,0.008-1.652,0.906-1.652,0.906c-0.336,0.451-2.438,5.634-2.217,5.93
		c0.266,0.33,4.456-0.533,5.016-0.607c5.846-0.714,11.685-1.449,17.521-2.193c0,0,0.231-0.684,0.343-1.03
		c0.391-1.219,0.643-3.073,1.339-4.141c0.257-0.39,2.116-1.258,2.13-1.687c0.013-1.015-2.606-2.018-2.741-3.041
		c-0.172-1.387,4.009-2.23,3.739-2.746c-0.467-0.885-2.601-0.871-3.146-1.719c-1.17-1.783,3.086-1.335,3.172-2.535
		c0.148-2.006-2.864-5.693-2.15-7.517c0.085-0.206,0.35-0.278,0.519-0.42c3.769-3.017-0.669,7.098,5.004,2.536
		c0,0,0.541-2.879,0.591-4.324c0.015-0.42-0.599-2.053,0.289-2.168c1.233-0.166,2.684,2.477,4.371,2.244
		c1.146-0.148,2.401-3.641,2.306-4.558c-0.108-0.915-1.348-1.72-1.53-2.629C234.047,151.802,235.872,152.793,236.528,152.08"/>
	<path fill="#FFFFFF" d="M100.239,123.512l8.01-20.483l0.073-0.005l-2.057,14.047c-0.097,0.676-0.219,1.164-0.367,1.465
		c-0.148,0.301-0.385,0.527-0.712,0.679c-0.327,0.153-0.847,0.297-1.558,0.434l-0.508,3.704l12.582-0.698l0.362-3.695
		c-0.675-0.072-1.166-0.188-1.473-0.348c-0.308-0.16-0.472-0.416-0.491-0.769c-0.016-0.292,0.026-0.854,0.126-1.689l1.731-13.315
		c0.073-0.65,0.287-1.162,0.637-1.535c0.352-0.374,1.013-0.587,1.986-0.641l0.417-3.698l-12.509,0.693l-4.309,10.697l-0.073,0.004
		l-0.96-10.405l-12.801,0.709l-0.508,3.703c0.788,0.127,1.336,0.286,1.645,0.476c0.309,0.19,0.475,0.492,0.498,0.905
		c0.02,0.352-0.031,0.855-0.153,1.508l-1.776,12.532c-0.146,1.093-0.405,1.809-0.777,2.145c-0.372,0.338-1.046,0.583-2.026,0.734
		l-0.49,3.702l8.954-0.496l0.508-3.703c-0.761-0.08-1.308-0.208-1.641-0.384c-0.333-0.177-0.512-0.497-0.538-0.958
		c-0.021-0.388,0.034-1.026,0.168-1.91l1.731-13.316l0.073-0.003l2.469,20.121L100.239,123.512z"/>
	<path fill="#FFFFFF" d="M129.996,116.845c-0.675-0.87-1.055-2.087-1.142-3.654c-0.117-2.124,0.059-4.208,0.53-6.249
		c0.47-2.041,1.246-3.741,2.327-5.098c1.081-1.356,2.422-2.079,4.023-2.168c1.14-0.062,2.023,0.278,2.648,1.022
		c0.625,0.745,0.989,2.028,1.09,3.849c0.073,1.336,0.01,2.77-0.191,4.303c-0.2,1.533-0.564,2.988-1.09,4.362
		c-0.526,1.375-1.233,2.507-2.12,3.396c-0.888,0.889-1.968,1.369-3.242,1.439C131.615,118.116,130.671,117.715,129.996,116.845z
		 M139.181,120.568c2.109-0.971,3.88-2.224,5.312-3.76c1.433-1.536,2.492-3.252,3.18-5.15c0.687-1.896,0.977-3.818,0.869-5.762
		c-0.076-1.361-0.393-2.678-0.951-3.951c-0.558-1.273-1.361-2.405-2.41-3.396c-1.048-0.99-2.379-1.763-3.995-2.319
		s-3.486-0.777-5.612-0.659c-2.103,0.117-4.129,0.597-6.081,1.443c-1.953,0.847-3.683,2.006-5.191,3.479
		c-1.509,1.473-2.668,3.204-3.478,5.193c-0.81,1.99-1.152,4.114-1.027,6.374c0.086,1.556,0.461,2.992,1.125,4.308
		c0.664,1.317,1.557,2.428,2.68,3.335c1.123,0.906,2.404,1.579,3.842,2.017c1.438,0.438,2.971,0.613,4.599,0.523
		C134.691,122.096,137.071,121.537,139.181,120.568z"/>
</g>
</svg>
