<svg xmlns="http://www.w3.org/2000/svg" width="236.796" height="190.398" viewBox="0 0 236.796 190.398"><path opacity=".75" fill="#D8AB5E" d="M236.528 152.08c1.266-1.343-2.362-1.1-2.077-2.542.553-2.89 2.17-1.06 1.517-5.877-1.233-1.16-1.596.133-2.947-.316-1.387-.457-2.33-4.664-3.97-3.726-1.762 1.017 2.987 2.907 1.036 3.41-.343.083-3.47-1.33-3.686-1.634-.416-.565.014-1.443-.278-2.087-.67-1.482-2.725-2.333-3.386-3.816l-.278-2.083-1.79-.476c-.432-3.23 3.034-3.638 1.997-6.65-.673-1.954-3.323-3.223-4.12-5.14-.57-1.333.212-4.515-.738-5.582-.935-1.028-3.628-.684-4.767-1.51-1.24-.882-1.59-2.96-2.793-3.902-.776-.594-2.14-.525-2.986-1.036-.515-.298-.694-1.23-1.307-1.25-1.496-.077-1.366 2.505-3.272 1.12-1.424-1.03.39-1.854-.352-2.795-.764-.97-4.702-1-5.95-2.095-.603-.526-.75-1.464-1.38-1.963-.78-.61-2.137-.516-2.975-1.054-1.644-1.062-4.006-3.464-5.155-5.05-3.854-5.342 3.78-12.418 4.078-17.536.066-1.123-1.048-2.317-.987-3.438.08-1.383 2.815-3.706 1.62-5.17-.898-1.094-9.69-4.938-10.643-4.397-1.842 1.057-3.177 5.095-5.657 4.217-4.312-1.5-3.122-6.586-3.823-8.78-.19-.575-1.01-.743-1.27-1.28-.716-1.448-.48-3.355-1.118-4.84-1.743-4.044-7.203-4.813-10.307-7.362-1.034-.846-1.49-2.49-2.576-3.266-2.838-2.026-8.06-3.61-10.153-6.704-.617-.912-.453-2.46-.922-3.458-.425-.914-1.64-1.67-1.935-2.628-.267-.854.506-2.02.242-2.873-.294-.944-1.486-1.743-1.934-2.64-1.33-2.63-1.63-5.47-1.722-8.346-.05-2.122-.447-5.218.615-7.173.2-.375 1.003-.818 1.003-.818s-.642-.243-.956-.37c-1.853-.724-2.01-1.74-3.556-2.703-2.826-1.767-4.494-3.645-6.31-6.456-.033-.05-5.92 1.02-8.374 1.426-8.53 1.454-17.026 2.577-25.622 3.49C64.42 8.31 32.3 10.712 0 11.574c.2 3.816 2.12 2.894 3.59 6.186.396.9.813 5.565.854 5.62.065.124 5.932 2.917 6.176 3.194l-.47 1.448c.408 1.298 2.53 2.07 2.924 3.37.217.703-.802 3.033-.34 3.562.26.298 2.332.05 3.36 1.218.196.227.583.67.583.67s4.593 3.85 7.407 4.514c1.724.416 2.655-3.068 4.287-1.678l.13 2.12c.363.648 1.882.638 2.288 1.267.207.338.163.78.25 1.166.168.775.645 1.547.516 2.328-.28 1.62-2.776-.098-3.286.204-.63.38-.01 1.55-.412 2.15-.29.414-1.327.397-1.61.812-.638.936-.195 2.595-.873 3.597-.252.357-.887.37-1.06.767-1.075 2.44 6.464 6.31 7.09 7.338l-.46 1.45c.158 2.506 1.878 1.866 2.98 3.35.493.648.157 2.218.737 2.78 1.882 1.806 5.37.57 7.327 1.635.2.106-.344.264-.524.393-1.108.812-.265 4.05-.162 5.396.402 5.414.79 10.84 1.194 16.26 1.674 22.88 3.364 45.777 5.046 68.654.46 7.016.94 14.022 1.413 21.03 37.086-2.49 74.12-5.71 111.076-9.675 10.417-1.116 20.84-2.286 31.257-3.524 1.837-.223 10.01-1.885 11.232-1.358.965.407 1.514 2.47 2.157 3.274 2.332 2.904 3.538 5.255.458 8.426-.792.814-2.616.92-3.286 1.82-.432.583.074 1.546-.314 2.15l-1.652.906c-.336.45-2.438 5.634-2.217 5.93.266.33 4.456-.533 5.016-.607 5.846-.714 11.685-1.45 17.52-2.193 0 0 .232-.684.344-1.03.39-1.22.643-3.073 1.34-4.14.256-.39 2.115-1.26 2.13-1.688.012-1.015-2.607-2.018-2.742-3.04-.172-1.388 4.01-2.23 3.74-2.747-.468-.886-2.602-.872-3.147-1.72-1.17-1.783 3.086-1.335 3.172-2.535.148-2.006-2.864-5.693-2.15-7.517.085-.206.35-.278.52-.42 3.768-3.017-.67 7.098 5.003 2.536 0 0 .54-2.88.59-4.324.016-.42-.598-2.053.29-2.168 1.233-.166 2.684 2.477 4.37 2.244 1.147-.148 2.402-3.64 2.307-4.558-.108-.915-1.348-1.72-1.53-2.63-.393-1.986 1.432-.995 2.088-1.708"/><path fill="#FFF" d="M100.24 123.512l8.01-20.483.072-.006-2.057 14.047c-.097.677-.22 1.165-.367 1.466-.148.3-.385.527-.712.68-.327.152-.847.296-1.558.433l-.508 3.703 12.582-.698.362-3.695c-.675-.072-1.166-.188-1.473-.348-.307-.16-.47-.416-.49-.77-.016-.29.026-.853.126-1.688l1.73-13.315c.074-.65.288-1.163.638-1.536.352-.374 1.013-.587 1.986-.64l.417-3.7-12.51.694-4.308 10.697-.074.004-.96-10.406-12.8.71-.51 3.702c.79.127 1.337.286 1.646.476.31.19.475.492.498.905.02.352-.03.855-.153 1.508l-1.776 12.532c-.145 1.093-.404 1.81-.776 2.145-.372.338-1.046.583-2.026.734l-.49 3.702 8.954-.496.508-3.703c-.76-.08-1.308-.21-1.64-.385-.334-.177-.513-.497-.54-.958-.02-.388.035-1.026.17-1.91l1.73-13.316.073-.002 2.47 20.12 3.756-.206zM129.996 116.845c-.675-.87-1.055-2.087-1.142-3.654-.117-2.123.06-4.207.53-6.248.47-2.04 1.246-3.74 2.327-5.098 1.082-1.356 2.423-2.08 4.024-2.168 1.14-.062 2.023.278 2.648 1.022.625.745.99 2.028 1.09 3.85.073 1.335.01 2.77-.19 4.302-.2 1.533-.565 2.988-1.09 4.362-.527 1.375-1.234 2.507-2.12 3.396-.89.89-1.97 1.37-3.243 1.44-1.215.068-2.16-.333-2.834-1.203zm9.185 3.723c2.11-.97 3.88-2.224 5.313-3.76 1.433-1.536 2.492-3.252 3.18-5.15.687-1.896.977-3.818.87-5.762-.077-1.36-.394-2.678-.952-3.95-.557-1.274-1.36-2.406-2.41-3.397-1.047-.99-2.378-1.764-3.994-2.32s-3.486-.777-5.612-.66c-2.103.118-4.13.598-6.08 1.444-1.954.847-3.684 2.006-5.192 3.48-1.51 1.472-2.668 3.203-3.478 5.192-.81 1.99-1.152 4.114-1.027 6.374.086 1.556.46 2.992 1.125 4.308.664 1.317 1.557 2.428 2.68 3.335 1.123.906 2.404 1.58 3.842 2.017 1.438.438 2.97.613 4.6.523 2.647-.147 5.027-.706 7.137-1.675z"/></svg>