<?xml version="1.0" encoding="utf-8"?>
<!-- Generator: Adobe Illustrator 15.0.2, SVG Export Plug-In . SVG Version: 6.00 Build 0)  -->
<!DOCTYPE svg PUBLIC "-//W3C//DTD SVG 1.1//EN" "http://www.w3.org/Graphics/SVG/1.1/DTD/svg11.dtd">
<svg version="1.1" id="Layer_1" xmlns="http://www.w3.org/2000/svg" xmlns:xlink="http://www.w3.org/1999/xlink" x="0px" y="0px"
	 width="295.996px" height="237.998px" viewBox="0 0 295.996 237.998" enable-background="new 0 0 295.996 237.998"
	 xml:space="preserve">
<path opacity="0.75" fill="#D8AB5E" d="M295.66,190.1c1.582-1.678-2.953-1.374-2.596-3.178c0.688-3.61,2.711-1.324,1.894-7.346
	c-1.542-1.451-1.995,0.164-3.684-0.396c-1.734-0.571-2.913-5.83-4.961-4.657c-2.204,1.271,3.732,3.634,1.294,4.261
	c-0.428,0.105-4.339-1.66-4.607-2.041c-0.52-0.707,0.018-1.804-0.348-2.609c-0.837-1.853-3.405-2.916-4.232-4.77l-0.348-2.605
	l-2.237-0.594c-0.54-4.041,3.793-4.55,2.495-8.313c-0.84-2.444-4.152-4.03-5.148-6.429c-0.715-1.664,0.265-5.642-0.924-6.976
	c-1.169-1.284-4.534-0.854-5.957-1.886c-1.553-1.104-1.989-3.7-3.491-4.879c-0.971-0.743-2.676-0.657-3.734-1.295
	c-0.645-0.373-0.869-1.536-1.635-1.563c-1.869-0.096-1.707,3.133-4.09,1.4c-1.781-1.288,0.486-2.318-0.441-3.494
	c-0.955-1.212-5.877-1.248-7.439-2.619c-0.752-0.656-0.937-1.83-1.725-2.454c-0.973-0.763-2.67-0.646-3.717-1.317
	c-2.055-1.328-5.008-4.33-6.443-6.314c-4.818-6.676,4.723-15.521,5.098-21.919c0.082-1.403-1.312-2.896-1.234-4.297
	c0.104-1.728,3.521-4.631,2.025-6.461c-1.123-1.367-12.11-6.173-13.303-5.496c-2.303,1.321-3.971,6.368-7.072,5.271
	c-5.389-1.876-3.901-8.233-4.778-10.976c-0.238-0.717-1.265-0.928-1.586-1.599c-0.896-1.81-0.603-4.194-1.399-6.051
	c-2.178-5.054-9.003-6.015-12.882-9.202c-1.293-1.057-1.862-3.114-3.22-4.082c-3.549-2.533-10.074-4.512-12.692-8.38
	c-0.771-1.14-0.565-3.075-1.151-4.323c-0.532-1.143-2.049-2.088-2.42-3.286c-0.334-1.067,0.633-2.523,0.303-3.591
	c-0.367-1.179-1.857-2.177-2.416-3.3c-1.662-3.286-2.039-6.837-2.152-10.431c-0.063-2.652-0.559-6.523,0.77-8.967
	c0.25-0.47,1.254-1.024,1.254-1.024s-0.801-0.304-1.194-0.462c-2.315-0.905-2.512-2.174-4.444-3.379
	c-3.535-2.207-5.619-4.555-7.888-8.069c-0.043-0.062-7.399,1.274-10.469,1.783c-10.663,1.817-21.283,3.221-32.027,4.363
	C80.525,10.386,40.377,13.391,0,14.468c0.251,4.77,2.651,3.617,4.488,7.732c0.495,1.126,1.016,6.956,1.067,7.025
	c0.081,0.155,7.415,3.646,7.72,3.993l-0.589,1.81c0.512,1.622,3.163,2.587,3.657,4.212c0.271,0.878-1.003,3.791-0.427,4.452
	c0.328,0.373,2.917,0.062,4.202,1.522c0.245,0.284,0.729,0.839,0.729,0.839s5.741,4.81,9.259,5.642
	c2.155,0.519,3.318-3.835,5.358-2.098l0.162,2.649c0.454,0.812,2.352,0.799,2.86,1.585c0.258,0.423,0.203,0.975,0.312,1.457
	c0.21,0.968,0.806,1.932,0.644,2.909c-0.349,2.025-3.47-0.122-4.107,0.255c-0.786,0.476-0.013,1.938-0.515,2.686
	c-0.364,0.52-1.658,0.498-2.014,1.017c-0.796,1.17-0.243,3.244-1.09,4.496c-0.316,0.445-1.109,0.462-1.326,0.957
	c-1.342,3.049,8.082,7.888,8.865,9.173c0,0.003-0.576,1.813-0.576,1.813c0.197,3.131,2.348,2.331,3.725,4.185
	c0.617,0.812,0.197,2.774,0.922,3.475c2.352,2.259,6.713,0.714,9.158,2.045c0.25,0.132-0.43,0.33-0.655,0.491
	c-1.385,1.015-0.331,5.063-0.202,6.745c0.501,6.768,0.986,13.552,1.491,20.326c2.093,28.601,4.205,57.222,6.307,85.817
	c0.576,8.769,1.176,17.527,1.766,26.287c46.358-3.11,92.651-7.137,138.845-12.092c13.023-1.395,26.051-2.856,39.073-4.406
	c2.297-0.277,12.511-2.354,14.04-1.697c1.207,0.509,1.893,3.088,2.697,4.093c2.914,3.63,4.422,6.569,0.571,10.533
	c-0.989,1.017-3.27,1.149-4.106,2.274c-0.539,0.729,0.093,1.933-0.391,2.688c-0.018,0.011-2.065,1.134-2.065,1.134
	c-0.421,0.563-3.048,7.041-2.771,7.411c0.332,0.413,5.57-0.667,6.271-0.76c7.307-0.892,14.604-1.812,21.901-2.741
	c0,0,0.289-0.855,0.429-1.288c0.488-1.522,0.804-3.842,1.674-5.176c0.321-0.485,2.645-1.571,2.662-2.106
	c0.016-1.27-3.258-2.523-3.427-3.803c-0.215-1.734,5.011-2.787,4.674-3.432c-0.583-1.105-3.25-1.09-3.933-2.15
	c-1.463-2.229,3.858-1.668,3.965-3.168c0.186-2.507-3.581-7.117-2.688-9.396c0.105-0.258,0.437-0.346,0.647-0.524
	c4.711-3.771-0.837,8.872,6.256,3.171c0,0,0.676-3.6,0.737-5.406c0.019-0.524-0.748-2.565,0.361-2.709
	c1.542-0.207,3.355,3.096,5.464,2.805c1.434-0.186,3.002-4.551,2.883-5.697c-0.136-1.143-1.685-2.15-1.913-3.286
	C292.56,189.752,294.839,190.993,295.66,190.1"/>
</svg>
