<svg xmlns="http://www.w3.org/2000/svg" width="236.796" height="190.398" viewBox="0 0 236.796 190.398"><path opacity=".75" fill="#D8AB5E" d="M236.528 152.08c1.266-1.343-2.362-1.1-2.077-2.542.56-2.89 2.17-1.06 1.52-5.877-1.23-1.16-1.593.14-2.944-.31-1.386-.457-2.33-4.664-3.97-3.726-1.76 1.017 2.988 2.907 1.037 3.41-.343.083-3.47-1.33-3.686-1.634-.415-.566.015-1.444-.277-2.088-.67-1.482-2.726-2.333-3.387-3.816l-.277-2.083-1.79-.477c-.433-3.23 3.033-3.638 1.996-6.65-.674-1.954-3.324-3.223-4.12-5.14-.57-1.333.21-4.515-.74-5.582-.934-1.026-3.627-.682-4.766-1.51-1.24-.88-1.59-2.96-2.792-3.9-.774-.594-2.14-.525-2.984-1.036-.515-.298-.694-1.23-1.307-1.25-1.496-.077-1.366 2.505-3.272 1.12-1.422-1.03.39-1.854-.35-2.795-.763-.97-4.7-1-5.95-2.096-.602-.526-.75-1.464-1.38-1.963-.78-.61-2.136-.515-2.974-1.053-1.643-1.06-4.005-3.462-5.154-5.05-3.852-5.34 3.78-12.416 4.08-17.534.066-1.122-1.05-2.316-.987-3.437.08-1.384 2.815-3.707 1.62-5.17-.898-1.095-9.69-4.94-10.643-4.398-1.843 1.058-3.178 5.096-5.658 4.218-4.313-1.5-3.123-6.586-3.824-8.78-.19-.575-1.01-.743-1.27-1.28-.717-1.448-.48-3.355-1.12-4.84-1.742-4.044-7.202-4.813-10.306-7.362-1.034-.845-1.49-2.49-2.576-3.265-2.837-2.025-8.06-3.61-10.152-6.703-.617-.91-.453-2.46-.922-3.457-.425-.914-1.64-1.67-1.935-2.628-.267-.854.506-2.02.242-2.873-.294-.94-1.486-1.74-1.934-2.64-1.33-2.63-1.63-5.47-1.723-8.344-.05-2.123-.447-5.22.615-7.174.2-.375 1.002-.818 1.002-.818s-.642-.243-.956-.37c-1.852-.724-2.01-1.74-3.555-2.703-2.83-1.77-4.5-3.65-6.314-6.46-.033-.05-5.92 1.02-8.374 1.426-8.53 1.454-17.024 2.577-25.62 3.49C64.42 8.31 32.3 10.713 0 11.573c.2 3.817 2.12 2.895 3.59 6.187.396.9.813 5.57.854 5.62.065.13 5.932 2.92 6.176 3.2l-.47 1.447c.408 1.298 2.53 2.07 2.924 3.37.217.703-.802 3.033-.34 3.562.26.297 2.332.05 3.36 1.217.196.227.583.67.583.67s4.593 3.85 7.407 4.514c1.724.416 2.655-3.07 4.287-1.68l.13 2.12c.37.65 1.888.64 2.29 1.268.21.338.167.78.25 1.166.17.776.65 1.548.52 2.33-.28 1.62-2.776-.1-3.286.203-.63.38-.01 1.55-.412 2.15-.29.414-1.326.397-1.61.812-.637.935-.194 2.594-.872 3.596-.252.357-.887.37-1.06.767-1.075 2.44 6.464 6.31 7.09 7.34l-.46 1.45c.158 2.505 1.878 1.865 2.98 3.35.493.647.157 2.217.737 2.78 1.884 1.805 5.37.57 7.33 1.634.2.106-.345.264-.525.393-1.11.81-.266 4.05-.163 5.394.4 5.415.79 10.84 1.193 16.26 1.675 22.88 3.365 45.778 5.047 68.655.46 7.014.94 14.02 1.413 21.03 37.085-2.49 74.12-5.71 111.075-9.677 10.418-1.116 20.84-2.286 31.258-3.524 1.837-.224 10.01-1.886 11.232-1.36.965.41 1.514 2.47 2.157 3.275 2.33 2.904 3.538 5.255.458 8.426-.792.816-2.616.92-3.286 1.82-.432.585.074 1.548-.314 2.15l-1.652.908c-.335.45-2.437 5.632-2.216 5.93.267.33 4.457-.535 5.017-.61 5.847-.714 11.686-1.45 17.52-2.193 0 0 .233-.684.345-1.03.39-1.22.643-3.073 1.34-4.14.256-.39 2.115-1.26 2.13-1.688.01-1.016-2.607-2.02-2.742-3.04-.172-1.39 4.01-2.23 3.74-2.748-.468-.886-2.602-.87-3.147-1.72-1.17-1.783 3.087-1.335 3.173-2.535.146-2.007-2.866-5.694-2.15-7.518.083-.207.35-.28.52-.42 3.766-3.018-.67 7.097 5 2.535 0 0 .54-2.88.59-4.324.017-.42-.597-2.052.29-2.17 1.234-.163 2.685 2.48 4.37 2.247 1.148-.15 2.403-3.64 2.308-4.56-.11-.914-1.35-1.72-1.53-2.63-.393-1.985 1.43-.994 2.088-1.707"/><path fill="#FFF" d="M100.24 123.512l8.01-20.483.072-.01-2.057 14.045c-.097.676-.22 1.164-.367 1.465-.148.3-.385.528-.712.68-.327.153-.847.297-1.558.434l-.508 3.702 12.582-.698.362-3.696c-.675-.073-1.166-.19-1.473-.35-.3-.16-.47-.415-.49-.77-.01-.29.03-.852.13-1.687l1.73-13.315c.076-.65.29-1.163.64-1.536.35-.375 1.013-.588 1.986-.64l.418-3.7-12.51.693-4.307 10.696-.074.004-.96-10.405-12.8.71-.51 3.703c.79.128 1.337.287 1.646.477.31.19.474.49.497.904.02.35-.03.854-.153 1.51l-1.776 12.53c-.144 1.092-.403 1.81-.775 2.144-.373.337-1.047.582-2.027.733l-.49 3.7 8.953-.495.507-3.704c-.76-.08-1.307-.21-1.64-.385-.333-.178-.512-.498-.54-.96-.02-.39.036-1.026.17-1.91l1.73-13.316h.074l2.47 20.12 3.757-.207zm29.756-6.667c-.675-.87-1.055-2.087-1.142-3.654-.117-2.12.06-4.2.53-6.242.47-2.04 1.246-3.74 2.327-5.098 1.088-1.357 2.43-2.08 4.03-2.17 1.14-.062 2.023.278 2.648 1.02s.99 2.03 1.09 3.85c.073 1.336.01 2.77-.19 4.3-.2 1.536-.565 2.99-1.09 4.365-.527 1.375-1.234 2.507-2.12 3.396-.89.89-1.97 1.37-3.243 1.44-1.214.068-2.16-.333-2.833-1.203zm9.185 3.723c2.11-.97 3.88-2.224 5.32-3.76 1.432-1.536 2.49-3.252 3.18-5.15.686-1.896.976-3.818.87-5.762-.078-1.36-.395-2.678-.953-3.95-.557-1.274-1.36-2.406-2.41-3.397-1.047-.99-2.378-1.77-3.994-2.32s-3.486-.78-5.612-.66c-2.102.112-4.13.592-6.08 1.44-1.953.845-3.683 2.004-5.19 3.48-1.51 1.47-2.67 3.2-3.48 5.19-.81 1.99-1.15 4.114-1.026 6.374.086 1.555.46 2.99 1.125 4.307.663 1.318 1.556 2.43 2.68 3.336 1.122.905 2.403 1.58 3.84 2.016 1.44.437 2.97.612 4.6.522 2.648-.148 5.028-.707 7.138-1.676z"/></svg>