<svg xmlns="http://www.w3.org/2000/svg" width="236.796" height="190.398" viewBox="0 0 236.796 190.398"><path opacity=".75" fill="#D8AB5E" d="M236.528 152.08c1.266-1.343-2.362-1.1-2.077-2.542.556-2.89 2.17-1.06 1.52-5.877-1.233-1.16-1.596.136-2.947-.313-1.386-.457-2.33-4.664-3.97-3.726-1.76 1.017 2.988 2.907 1.037 3.41-.344.083-3.47-1.33-3.687-1.634-.415-.565.015-1.443-.277-2.087-.67-1.483-2.725-2.334-3.386-3.817l-.278-2.083-1.79-.478c-.433-3.23 3.033-3.638 1.996-6.65-.673-1.954-3.323-3.223-4.12-5.14-.57-1.333.212-4.515-.738-5.582-.935-1.027-3.628-.683-4.767-1.51-1.24-.88-1.59-2.96-2.792-3.9-.774-.595-2.14-.526-2.984-1.037-.515-.298-.694-1.23-1.307-1.25-1.497-.077-1.367 2.505-3.273 1.12-1.424-1.03.39-1.854-.352-2.795-.763-.97-4.7-1-5.95-2.095-.602-.526-.75-1.464-1.38-1.963-.78-.61-2.136-.516-2.974-1.054-1.643-1.062-4.005-3.464-5.154-5.05-3.853-5.342 3.78-12.418 4.08-17.536.065-1.123-1.05-2.317-.988-3.438.08-1.383 2.815-3.706 1.62-5.17-.898-1.094-9.69-4.938-10.643-4.397-1.843 1.057-3.178 5.095-5.658 4.217-4.312-1.5-3.122-6.586-3.823-8.78-.19-.575-1.01-.743-1.27-1.28-.717-1.448-.48-3.355-1.12-4.84-1.742-4.044-7.202-4.813-10.306-7.362-1.034-.846-1.49-2.49-2.576-3.266-2.837-2.026-8.06-3.61-10.152-6.704-.617-.912-.453-2.46-.922-3.458-.425-.914-1.64-1.67-1.935-2.628-.266-.854.507-2.02.243-2.873-.294-.94-1.486-1.74-1.934-2.64-1.33-2.63-1.63-5.47-1.723-8.343-.05-2.122-.448-5.218.614-7.173.2-.375 1.002-.818 1.002-.818s-.642-.243-.956-.37c-1.853-.724-2.01-1.74-3.556-2.703-2.826-1.766-4.494-3.644-6.31-6.455-.033-.05-5.92 1.02-8.374 1.426-8.53 1.455-17.026 2.578-25.622 3.49C64.42 8.31 32.3 10.714 0 11.574c.2 3.817 2.12 2.895 3.59 6.187.396.9.813 5.567.854 5.62.065.126 5.932 2.92 6.176 3.196l-.47 1.448c.408 1.298 2.53 2.07 2.924 3.37.217.703-.802 3.033-.34 3.562.26.298 2.332.05 3.36 1.218.196.227.583.67.583.67s4.593 3.85 7.407 4.514c1.724.416 2.655-3.068 4.287-1.678l.13 2.12c.366.647 1.885.637 2.29 1.266.208.338.164.78.25 1.166.17.776.646 1.548.517 2.33-.28 1.62-2.776-.1-3.286.203-.63.38-.01 1.55-.412 2.15-.29.414-1.327.397-1.61.812-.638.936-.195 2.595-.873 3.597-.252.357-.887.37-1.06.767-1.075 2.44 6.464 6.31 7.09 7.34l-.46 1.45c.158 2.505 1.878 1.865 2.98 3.35.493.647.157 2.217.737 2.78 1.884 1.805 5.37.57 7.33 1.634.2.106-.345.264-.525.393-1.108.812-.265 4.05-.162 5.396.402 5.415.79 10.84 1.194 16.26 1.673 22.88 3.363 45.778 5.045 68.655.46 7.016.94 14.022 1.413 21.03 37.086-2.49 74.12-5.71 111.076-9.675 10.418-1.116 20.84-2.286 31.258-3.524 1.837-.224 10.01-1.886 11.232-1.36.965.408 1.514 2.47 2.157 3.275 2.33 2.904 3.538 5.255.458 8.426-.792.815-2.616.92-3.286 1.82-.432.584.074 1.547-.314 2.15l-1.652.907c-.336.45-2.438 5.634-2.217 5.93.265.33 4.455-.533 5.015-.607 5.846-.715 11.685-1.45 17.52-2.194 0 0 .232-.684.344-1.03.39-1.22.642-3.073 1.34-4.14.255-.39 2.114-1.26 2.13-1.688.01-1.015-2.608-2.018-2.743-3.04-.172-1.388 4.01-2.23 3.74-2.747-.468-.885-2.602-.87-3.147-1.72-1.17-1.782 3.086-1.334 3.172-2.534.147-2.006-2.865-5.693-2.15-7.517.084-.207.35-.28.52-.42 3.767-3.018-.67 7.097 5.002 2.535 0 0 .54-2.88.59-4.324.016-.42-.598-2.053.29-2.17 1.233-.164 2.684 2.48 4.37 2.246 1.147-.148 2.402-3.64 2.307-4.558-.11-.915-1.35-1.72-1.53-2.63-.394-1.986 1.43-.995 2.087-1.708"/><path fill="#FFF" d="M100.24 123.512l8.01-20.483.072-.01-2.057 14.048c-.097.676-.22 1.164-.367 1.465-.148.3-.385.527-.712.68-.327.152-.847.296-1.558.433l-.508 3.702 12.582-.698.362-3.695c-.675-.073-1.166-.19-1.473-.35-.304-.16-.47-.415-.49-.77-.013-.29.03-.852.13-1.687l1.73-13.315c.073-.65.287-1.163.637-1.536.352-.375 1.013-.588 1.986-.64l.418-3.7-12.51.693-4.307 10.697-.074.004-.96-10.405-12.8.71-.51 3.703c.79.128 1.336.287 1.645.477.31.19.475.49.498.904.02.352-.03.855-.153 1.51l-1.777 12.53c-.144 1.093-.403 1.81-.775 2.145-.372.337-1.046.582-2.026.733l-.49 3.7 8.953-.495.508-3.704c-.76-.08-1.307-.21-1.64-.385-.333-.176-.512-.496-.54-.957-.02-.39.036-1.027.17-1.91l1.73-13.317h.074l2.47 20.12 3.756-.206zm29.756-6.667c-.675-.87-1.055-2.087-1.142-3.654-.117-2.12.06-4.204.53-6.245.47-2.04 1.246-3.74 2.327-5.098 1.085-1.356 2.426-2.08 4.027-2.168 1.14-.063 2.023.277 2.648 1.02s.99 2.028 1.09 3.85c.073 1.335.01 2.77-.19 4.3-.2 1.535-.565 2.99-1.09 4.364-.527 1.375-1.234 2.507-2.12 3.396-.89.89-1.97 1.37-3.243 1.44-1.214.066-2.16-.335-2.833-1.205zm9.185 3.723c2.11-.97 3.88-2.224 5.316-3.76 1.433-1.536 2.492-3.252 3.18-5.15.687-1.896.977-3.818.87-5.762-.077-1.36-.394-2.678-.952-3.95-.557-1.274-1.36-2.406-2.41-3.397-1.047-.99-2.378-1.767-3.994-2.32s-3.487-.78-5.613-.66c-2.103.115-4.13.595-6.08 1.44-1.954.848-3.684 2.007-5.192 3.48-1.51 1.473-2.668 3.204-3.478 5.193-.81 1.99-1.152 4.114-1.027 6.374.085 1.555.46 2.99 1.124 4.307.664 1.317 1.557 2.428 2.68 3.335 1.123.905 2.404 1.58 3.842 2.016 1.438.437 2.97.612 4.6.522 2.647-.148 5.027-.707 7.137-1.676z"/></svg>