<?xml version="1.0" encoding="utf-8"?>
<!-- Generator: Adobe Illustrator 15.0.0, SVG Export Plug-In . SVG Version: 6.00 Build 0)  -->
<!DOCTYPE svg PUBLIC "-//W3C//DTD SVG 1.1//EN" "http://www.w3.org/Graphics/SVG/1.1/DTD/svg11.dtd">
<svg version="1.1" id="Layer_1" xmlns="http://www.w3.org/2000/svg" xmlns:xlink="http://www.w3.org/1999/xlink" x="0px" y="0px"
	 width="124.797px" height="204.798px" viewBox="0 0 124.797 204.798" enable-background="new 0 0 124.797 204.798"
	 xml:space="preserve">
<g id="mississippi">
	<path id="MS" opacity="0.75" fill="#C39547" d="M124.686,191.323c-0.089-0.239-0.17-0.483-0.089-0.592
		c-2.733-13.931-5.456-27.871-8.168-41.816c-1.276-6.504-3.126-13.154-3.84-19.738c-0.849-7.788-0.411-15.949-0.623-23.786
		c-0.45-16.302-0.922-32.616-1.441-48.922c-0.401-12.579-0.81-25.156-1.258-37.735c-0.091-2.743,0.515-13.242-0.534-15.117
		c-0.565-1.001-3.152-2.526-4.087-3.616C80.15,3.641,55.62,6.961,31.039,9.962c0.739,1.286,2.588,5.238,0.166,6.29
		c-0.973,0.416-0.695-0.904-2.157,0.026l-1.834,1.151c-0.595-0.266,0.666-3.526-1.41-1.933c-0.876,0.662,1.21,4.184,1.161,4.763
		c-0.06,0.668-2.243,2.641-2.754,1.744c-0.199-0.36,2.039-2.238,0.251-2.849c-1.803-0.6-1.318,3.043-0.757,3.603
		c0.563,0.561,2.932-0.252,3.089,1.028c0.055,0.471-2.349,2.885-2.683,2.422c-0.291-0.402,0.236-2.824-0.896-2.688
		c-0.259,0.021-0.147,0.479-0.22,0.718c-1.017,3.487,0.257,2.022,1.955,3.979c0.152,0.174,0.052,0.458,0.074,0.689
		c0.173,1.401-1.059,1.144-1.52,2.277c-0.425,1.083,1.038,3.118,0.503,4.143c-0.391,0.733-1.729,0.971-2.188,1.659
		c-0.257,0.379-0.461,2.758-0.851,2.897c-0.066,0.026-1.65-3.682-3.168-1.728l0.744,1.313c0.239,2.062-1.962,2.024-2.597,3.334
		l-0.964,1.976c-0.228,0.104-4.88-0.652-2.275,0.954c0.754,0.458,4.115-0.479,4.274,0.905c0.182,1.498-4.515-0.337-5.219,1.304
		c-0.757,1.772,3.703,1.493,3.774,1.659c0.912,2.223-4.801,5.426-5.391,5.162c-0.312-0.139-0.66-0.625-0.951-0.416
		c-1.317,0.991,1.078,2.178,1.222,2.83c0.215,1.031-1.129,2.593-0.794,3.587c0.257,0.789,2.343,0.999,2.591,1.798
		c0.415,1.331-5.031,0.403-5.327,0.598c-0.188,0.132,0.055,0.451,0.083,0.686c0.498,4.551,2.549,1.173,3.637,3.088
		c0.123,0.216,0.472,0.426,0.377,0.656c-1.273,2.915-4.905-1.566-5.825-1.104c-0.286,0.154-0.82,0.125-0.842,0.447
		c-0.115,1.062,2.514,2.814,2.823,3.882c0.065,0.242-0.15,0.488-0.228,0.716c-0.378,1.241-2.076,0.284-1.902,1.841
		c0.705,6.448,0.686-4.739,1.389,1.709c0.052,0.439-1.719,2.65-1.47,2.951c1.978,2.442,1.769-5.77,4.009-1.839
		c0.517,0.916-3.47,3.39-2.603,3.769c3.47,1.541,3.532-4.827,5.131-2.653c0.867,1.202-2.453,3.327-2.524,4.463
		c-0.327,5.315,3.718,0.902,3.881,2.356c0.08,0.636-1.43,1.636-1.556,2.27c-0.137,0.645,0.781,2.964,0.374,3.442
		c-0.542,0.647-2.88-0.11-3.582,0.4c-1.333,0.976,2.688,2.835,2.767,3.177c0.262,1.073-1.488,2.95-1.488,2.95
		c-0.451,0.657-2.595,2.987-0.823,3.576c3.789,1.25,1.174-4.402,3.902-3.217c2.461,1.065-2.539,7.756-2.088,8.584
		c0.493,0.942,4.25,0.082,4.425,1.594c0.275,2.512-4.78,2.248-3.074,5.217c1.352,2.344,4.314-3.758,5.338-1.291
		c0.553,1.33-2.133,2.222-2.104,3.021c0.01,0.323,3.579,1.844,2.719,2.478c-0.11,0.068-6.394-0.891-3.47,1.778
		c1.395,1.265,3.648-0.517,4.906,0.14c0.336,0.182-0.841,2.787-0.219,3.514c0.545,0.645,2.751,0.308,3.173,1.03
		c0.771,1.311-1.997,1.213-2.261,1.647l0.23,2.056c-0.347,0.85-7.351,0.502-6.274,4.182c0.771,2.653,4.591-1.762,5.451-0.61
		c0.565,0.754-1.432,4.14-1.96,4.387c-0.445,0.213-2.856-0.703-3.113-0.345c-0.409,0.591,4.013,1.275,3.339,2.409
		c-0.655,1.094-2.616,1.467-3.413,2.467c-1.148,1.396-1.991,3.944-2.481,5.475c-0.317,0.991-1.983-1.872-3.009,0.684
		c-0.128,0.326-0.126,0.705-0.191,1.06c-0.516,2.822,1.462-0.16,1.882,1.291c0.322,1.11-2.097,1.379-2.463,1.889
		c-0.611,0.85,0.031,3.632-0.776,4.244c-0.796,0.613-3.454-1.501-3.668,0.39c-0.251,2.225,2.713,0.528,3.205,1.051
		c1.15,1.21-2.489,2.476-2.759,3.072c-0.841,1.804,1.75,3.214,1.724,4.66c-0.058,2.739-2.663-1.318-3.06,0.331
		c-0.54,2.204,2.798,3.183,2.342,4.597c-0.44,1.351-4.801,1.82-4.769,1.888c0.358,0.845,1.976,1.875,2.135,2.549
		c0.182,0.791-1.203,2.096-0.946,2.869c0.341,0.976,2.518,1.476,2.741,2.48c0.202,0.844-2.157,1.627-2.243,2.309
		c-0.032,0.312,0.383,0.548,0.682,0.621c2.924,0.763,11.282-1.207,14.646-1.57c0.407-0.048,0.816-0.087,1.221-0.145
		c12.613-1.384,25.212-2.864,37.806-4.418c3.684-0.452,12.612-2.746,15.838-2.004c2.267,0.533-3.296,11.773-2.576,14.211
		c0.011,0,1.404,1.2,1.41,1.2c0.424,0.691,0.33,1.967,0.959,2.65c1.317,1.378,3.595,1.904,4.858,3.526
		c2.693,3.469,2.474,7.248,5.123,10.411c1.169,1.389,1.173-0.693,2.47,0.29c0.614-0.558,1.23-0.979,1.872-0.863
		c0.307,0.053,0.425,0.708,0.717,0.598c0.404-0.148,0.593-2.491,0.879-2.888c0.716-0.986,2.961-1.436,3.446-2.535
		c0.949-2.146-2.458-1.859-0.983-2.644c0.456-0.239,2.804-0.216,3.188,0.261l-0.439,1.449c0.184,0.276,2.405-0.731,2.625-0.817
		c1.488-0.545,8.82-3.049,9.564-3.855c0.957-1.036-0.238-2.732,2.637-2.214c1.685,0.302,3.061,2.418,4.8,2.783
		c0.92,0.204,3.575-0.583,4.233-1.29c0.351-0.365-0.062-1.55,0.424-1.454c0.78,0.173,0.776,1.585,1.524,1.861
		c0.003,0.011,2.484-0.352,2.484-0.352l1.426,1.178c0.005,0,1.042-1.532,1.042-1.532c0.361-0.2,0.894,0.062,1.234-0.182
		L124.686,191.323"/>
	<path fill="#FFFFFF" d="M49.898,109.77l7.965-20.366l0.073-0.004l-2.045,13.966c-0.097,0.673-0.218,1.158-0.365,1.457
		s-0.383,0.524-0.708,0.676c-0.324,0.151-0.841,0.295-1.549,0.431l-0.505,3.683l12.51-0.693l0.36-3.674
		c-0.671-0.072-1.159-0.188-1.465-0.347c-0.307-0.158-0.469-0.412-0.488-0.764c-0.016-0.29,0.025-0.85,0.125-1.679l1.722-13.24
		c0.073-0.646,0.284-1.155,0.634-1.526c0.35-0.37,1.008-0.583,1.975-0.637l0.415-3.677l-12.438,0.689l-4.285,10.637l-0.072,0.004
		l-0.956-10.346l-12.727,0.705l-0.505,3.683c0.783,0.126,1.328,0.284,1.635,0.472c0.309,0.189,0.474,0.49,0.496,0.9
		c0.02,0.351-0.032,0.85-0.153,1.499l-1.765,12.46c-0.146,1.088-0.403,1.799-0.773,2.134c-0.369,0.336-1.041,0.579-2.015,0.73
		l-0.486,3.681l8.902-0.493l0.505-3.683c-0.756-0.078-1.3-0.206-1.631-0.382c-0.331-0.176-0.509-0.493-0.534-0.952
		c-0.022-0.387,0.034-1.02,0.167-1.899l1.722-13.24l0.072-0.004l2.455,20.007L49.898,109.77z"/>
	<path fill="#FFFFFF" d="M86.576,82.775c-0.929-0.251-1.82-0.423-2.674-0.515c-0.853-0.092-1.66-0.117-2.422-0.075
		c-1.812,0.101-3.413,0.446-4.805,1.039c-1.391,0.591-2.565,1.365-3.524,2.32s-1.656,1.996-2.091,3.122
		c-0.434,1.127-0.621,2.244-0.559,3.355c0.058,1.038,0.255,1.921,0.592,2.646c0.337,0.727,0.801,1.327,1.391,1.803
		c0.59,0.477,1.314,0.879,2.176,1.206c0.86,0.328,1.873,0.617,3.038,0.867l3.661,0.797c1.264,0.28,2.177,0.578,2.739,0.892
		c0.562,0.314,0.86,0.755,0.892,1.322c0.049,0.881-0.335,1.562-1.15,2.043c-0.815,0.481-1.918,0.76-3.308,0.837
		c-1.039,0.058-2.122-0.085-3.25-0.428c-1.128-0.344-2.146-0.953-3.056-1.829c-0.908-0.875-1.529-2.019-1.861-3.429l-3.425,0.189
		l0.395,9.753l2.664-0.147l0.708-1.977c2.724,1.468,5.8,2.107,9.231,1.917c2.066-0.115,3.864-0.518,5.396-1.209
		c1.53-0.69,2.753-1.552,3.665-2.585c0.911-1.032,1.571-2.151,1.977-3.356c0.406-1.204,0.577-2.374,0.515-3.511
		c-0.055-0.991-0.275-1.9-0.66-2.727c-0.386-0.828-1.152-1.604-2.302-2.328c-1.148-0.725-2.819-1.293-5.011-1.705l-3.305-0.598
		c-1.139-0.203-1.986-0.468-2.544-0.794c-0.557-0.326-0.852-0.768-0.882-1.322c-0.028-0.507,0.206-0.968,0.705-1.383
		c0.498-0.416,1.327-0.654,2.486-0.719c1.716-0.096,3.21,0.191,4.482,0.859c1.448,0.755,2.378,1.896,2.79,3.423l3.334-0.185
		l-0.328-8.54l-2.482,0.138l-0.685,1.747C88.342,83.332,87.504,83.027,86.576,82.775z"/>
</g>
</svg>
