<svg xmlns="http://www.w3.org/2000/svg" width="124.797" height="204.798" viewBox="0 0 124.797 204.798"><path opacity=".75" fill="#C39547" d="M124.686 191.323c-.09-.24-.17-.483-.09-.592-2.732-13.93-5.455-27.87-8.167-41.81-1.28-6.503-3.13-13.153-3.84-19.74-.85-7.79-.418-15.95-.63-23.784-.45-16.3-.92-32.615-1.44-48.92-.4-12.58-.81-25.157-1.26-37.736-.09-2.744.516-13.243-.533-15.118-.565-1-3.15-2.526-4.087-3.616C80.15 3.64 55.62 6.96 31.04 9.964c.738 1.285 2.587 5.237.165 6.29-.973.415-.695-.905-2.157.025l-1.834 1.15c-.595-.27.666-3.53-1.41-1.938-.876.662 1.21 4.184 1.16 4.763-.06.666-2.242 2.64-2.753 1.742-.192-.36 2.04-2.24.258-2.85-1.803-.6-1.318 3.043-.757 3.603.563.56 2.93-.25 3.09 1.03.054.47-2.35 2.885-2.684 2.422-.29-.402.237-2.824-.895-2.688-.26.02-.147.477-.22.716-1.017 3.488.257 2.023 1.955 3.98.152.174.052.458.074.69.172 1.4-1.06 1.143-1.52 2.276-.426 1.083 1.037 3.12.502 4.143-.39.73-1.73.97-2.19 1.66-.254.375-.46 2.754-.85 2.893-.064.026-1.65-3.68-3.17-1.728l.748 1.313c.24 2.062-1.962 2.024-2.597 3.334l-.964 1.975c-.23.103-4.88-.653-2.276.953.753.457 4.114-.48 4.273.904.182 1.498-4.515-.337-5.22 1.304-.756 1.77 3.704 1.49 3.775 1.658.912 2.22-4.8 5.424-5.39 5.16-.313-.14-.66-.626-.952-.417-1.317.99 1.078 2.18 1.222 2.83.215 1.03-1.13 2.593-.794 3.587.257.79 2.343 1 2.59 1.8.416 1.33-5.03.403-5.326.598-.188.132.055.45.083.686.5 4.55 2.55 1.174 3.64 3.09.122.217.47.427.376.657-1.28 2.923-4.91-1.56-5.83-1.097-.286.155-.82.126-.842.448-.115 1.062 2.514 2.814 2.823 3.882.067.242-.15.488-.226.716-.378 1.24-2.076.284-1.902 1.84.706 6.45.687-4.738 1.39 1.71.05.44-1.72 2.65-1.47 2.95 1.978 2.443 1.77-5.77 4.01-1.838.516.916-3.47 3.39-2.604 3.77 3.47 1.54 3.532-4.828 5.13-2.654.868 1.202-2.452 3.327-2.523 4.463-.327 5.31 3.718.9 3.88 2.35.08.637-1.43 1.637-1.555 2.27-.137.646.78 2.965.374 3.443-.54.647-2.88-.11-3.58.4-1.33.976 2.69 2.835 2.77 3.177.26 1.074-1.49 2.95-1.49 2.95-.45.658-2.594 2.988-.822 3.577 3.79 1.25 1.174-4.403 3.902-3.218 2.46 1.063-2.54 7.754-2.09 8.582.493.942 4.25.082 4.425 1.594.274 2.513-4.78 2.25-3.075 5.218 1.354 2.344 4.316-3.758 5.34-1.29.553 1.33-2.133 2.22-2.104 3.02.01.323 3.58 1.844 2.72 2.478-.11.068-6.395-.89-3.47 1.778 1.394 1.266 3.647-.516 4.905.14.334.183-.843 2.788-.22 3.515.544.647 2.75.31 3.17 1.03.77 1.31-1.995 1.215-2.26 1.65l.23 2.055c-.346.85-7.35.503-6.273 4.183.77 2.655 4.59-1.76 5.45-.61.567.756-1.43 4.14-1.96 4.39-.443.213-2.854-.703-3.11-.345-.41.59 4.012 1.275 3.34 2.41-.657 1.093-2.618 1.466-3.415 2.466-1.146 1.397-1.99 3.945-2.48 5.476-.316.99-1.982-1.872-3.01.684-.126.326-.124.705-.19 1.06-.515 2.822 1.46-.16 1.88 1.29.325 1.11-2.094 1.38-2.46 1.89-.61.85.03 3.632-.776 4.244-.796.613-3.454-1.5-3.67.39-.25 2.225 2.715.528 3.207 1.05 1.15 1.21-2.487 2.477-2.757 3.073-.84 1.802 1.75 3.212 1.723 4.66-.058 2.74-2.663-1.32-3.06.33-.54 2.203 2.798 3.182 2.342 4.596-.44 1.35-4.8 1.82-4.77 1.888.36.848 1.976 1.878 2.135 2.55.182.79-1.203 2.098-.946 2.87.34.978 2.517 1.478 2.74 2.48.202.846-2.157 1.63-2.243 2.31-.03.31.385.55.684.62 2.923.765 11.28-1.205 14.645-1.57.406-.046.815-.085 1.22-.143 12.613-1.385 25.212-2.865 37.806-4.42 3.688-.45 12.616-2.745 15.84-2.003 2.27.533-3.294 11.773-2.574 14.21.01 0 1.405 1.2 1.41 1.2.425.692.33 1.968.96 2.65 1.317 1.38 3.595 1.905 4.858 3.527 2.694 3.47 2.475 7.25 5.124 10.41 1.17 1.39 1.172-.69 2.47.29.613-.555 1.23-.98 1.87-.86.307.053.425.708.717.598.404-.148.593-2.49.88-2.888.715-.99 2.96-1.44 3.445-2.538.95-2.146-2.457-1.86-.982-2.644.456-.24 2.804-.217 3.188.26l-.44 1.45c.186.275 2.407-.73 2.627-.818 1.488-.544 8.82-3.05 9.564-3.854.958-1.036-.237-2.732 2.638-2.214 1.685.302 3.06 2.418 4.8 2.783.92.203 3.575-.584 4.233-1.29.35-.366-.06-1.55.425-1.455.78.173.776 1.585 1.524 1.86.003.012 2.484-.35 2.484-.35l1.426 1.177c.005 0 1.042-1.534 1.042-1.534.36-.2.893.062 1.233-.182l-.11-.77"/><path fill="#FFF" d="M49.898 109.77l7.965-20.366.073-.004-2.045 13.966c-.09.673-.21 1.158-.36 1.457s-.38.524-.71.676c-.32.15-.84.29-1.55.43l-.5 3.68 12.51-.696.36-3.675c-.67-.07-1.16-.188-1.466-.347-.307-.16-.47-.413-.49-.765-.014-.29.027-.85.127-1.68l1.72-13.24c.074-.646.285-1.155.635-1.526.35-.37 1.008-.583 1.975-.637l.413-3.678-12.438.69L51.83 94.7l-.073.004L50.8 84.36l-12.726.705-.505 3.683c.78.126 1.32.284 1.63.472.31.19.472.49.494.9.02.35-.033.85-.154 1.5l-1.764 12.46c-.146 1.087-.403 1.798-.773 2.133-.37.336-1.042.58-2.016.73l-.486 3.68 8.904-.492.505-3.68c-.757-.08-1.3-.202-1.63-.38-.33-.174-.51-.49-.536-.95-.022-.387.034-1.02.167-1.9l1.723-13.24.07-.003 2.456 20.008 3.732-.207zm36.678-26.995c-.93-.25-1.82-.423-2.674-.515-.853-.092-1.66-.117-2.422-.075-1.812.1-3.413.446-4.805 1.04-1.39.59-2.565 1.364-3.524 2.32s-1.65 1.995-2.09 3.12c-.43 1.128-.62 2.245-.56 3.356.06 1.04.26 1.928.6 2.65.336.73.8 1.33 1.39 1.806.59.478 1.314.88 2.176 1.207.86.328 1.874.617 3.04.867l3.66.796c1.264.28 2.177.58 2.74.893.56.312.86.753.89 1.32.05.88-.334 1.56-1.15 2.042-.814.48-1.917.76-3.307.84-1.04.057-2.123-.086-3.25-.43-1.13-.343-2.147-.952-3.057-1.83-.91-.873-1.53-2.017-1.86-3.427l-3.426.19.396 9.75 2.662-.146.707-1.98c2.723 1.468 5.8 2.107 9.23 1.917 2.066-.115 3.864-.518 5.396-1.21 1.53-.69 2.753-1.55 3.665-2.584.91-1.033 1.57-2.152 1.977-3.357.406-1.204.577-2.374.515-3.51-.052-.992-.272-1.9-.66-2.728-.383-.83-1.15-1.606-2.3-2.33-1.15-.727-2.82-1.295-5.01-1.707l-3.305-.597c-1.14-.203-1.986-.468-2.544-.794s-.852-.767-.882-1.32c-.027-.508.207-.97.706-1.384.5-.416 1.328-.654 2.487-.72 1.714-.095 3.21.192 4.48.86 1.447.755 2.377 1.896 2.79 3.423l3.333-.186-.328-8.54-2.482.138-.685 1.75c-.75-.357-1.586-.66-2.514-.914z"/></svg>