<?xml version="1.0" encoding="utf-8"?>
<!-- Generator: Adobe Illustrator 15.0.2, SVG Export Plug-In . SVG Version: 6.00 Build 0)  -->
<!DOCTYPE svg PUBLIC "-//W3C//DTD SVG 1.1//EN" "http://www.w3.org/Graphics/SVG/1.1/DTD/svg11.dtd">
<svg version="1.1" id="Layer_1" xmlns="http://www.w3.org/2000/svg" xmlns:xlink="http://www.w3.org/1999/xlink" x="0px" y="0px"
	 width="155.997px" height="255.995px" viewBox="0 0 155.997 255.995" enable-background="new 0 0 155.997 255.995"
	 xml:space="preserve">
<path opacity="0.75" fill="#C39547" d="M155.858,239.152c-0.111-0.299-0.213-0.604-0.111-0.738
	c-3.417-17.414-6.819-34.84-10.211-52.271c-1.595-8.131-3.907-16.443-4.799-24.672c-1.061-9.736-0.514-19.938-0.779-29.732
	c-0.563-20.379-1.151-40.771-1.802-61.154c-0.501-15.723-1.012-31.445-1.572-47.168c-0.113-3.43,0.644-16.553-0.668-18.896
	c-0.707-1.252-3.939-3.158-5.108-4.52c-30.62,4.549-61.283,8.701-92.009,12.451c0.924,1.607,3.236,6.549,0.207,7.863
	c-1.216,0.52-0.868-1.131-2.696,0.033l-2.293,1.439c-0.743-0.332,0.832-4.408-1.762-2.416c-1.095,0.828,1.513,5.229,1.451,5.953
	c-0.075,0.834-2.804,3.301-3.443,2.18c-0.249-0.451,2.549-2.799,0.314-3.563c-2.253-0.748-1.647,3.805-0.946,4.506
	c0.704,0.699,3.665-0.316,3.862,1.283c0.068,0.59-2.936,3.607-3.354,3.027c-0.363-0.502,0.295-3.529-1.12-3.359
	c-0.324,0.027-0.184,0.6-0.275,0.898c-1.271,4.359,0.321,2.527,2.443,4.973c0.19,0.219,0.065,0.572,0.092,0.861
	c0.217,1.752-1.323,1.43-1.899,2.848c-0.531,1.354,1.297,3.898,0.629,5.178c-0.488,0.918-2.162,1.213-2.735,2.074
	c-0.321,0.475-0.576,3.447-1.064,3.621c-0.082,0.033-2.063-4.602-3.96-2.158l0.93,1.641c0.299,2.578-2.453,2.531-3.246,4.168
	l-1.205,2.469c-0.285,0.131-6.1-0.814-2.844,1.193c0.943,0.572,5.144-0.6,5.343,1.131c0.227,1.873-5.644-0.42-6.524,1.631
	c-0.947,2.215,4.628,1.867,4.717,2.074c1.14,2.777-6.001,6.781-6.738,6.453c-0.39-0.176-0.825-0.783-1.189-0.521
	c-1.647,1.24,1.347,2.723,1.527,3.537c0.269,1.289-1.412,3.242-0.993,4.484c0.321,0.986,2.929,1.25,3.239,2.248
	c0.518,1.664-6.289,0.504-6.658,0.746c-0.236,0.166,0.068,0.564,0.104,0.857c0.622,5.689,3.187,1.467,4.546,3.859
	c0.154,0.27,0.59,0.533,0.472,0.82c-1.592,3.645-6.132-1.959-7.281-1.379c-0.357,0.193-1.025,0.156-1.052,0.559
	c-0.144,1.328,3.142,3.518,3.528,4.852c0.082,0.303-0.187,0.611-0.285,0.896c-0.472,1.551-2.595,0.354-2.378,2.301
	c0.881,8.061,0.858-5.924,1.736,2.137c0.065,0.549-2.149,3.313-1.838,3.688c2.473,3.055,2.211-7.211,5.012-2.297
	c0.646,1.145-4.337,4.236-3.253,4.711c4.337,1.926,4.415-6.035,6.414-3.318c1.084,1.504-3.066,4.16-3.155,5.58
	c-0.409,6.643,4.648,1.127,4.852,2.945c0.099,0.795-1.788,2.045-1.945,2.836c-0.171,0.807,0.976,3.705,0.468,4.303
	c-0.678,0.809-3.6-0.137-4.478,0.5c-1.667,1.221,3.361,3.545,3.459,3.971c0.328,1.342-1.86,3.689-1.86,3.689
	c-0.563,0.822-3.243,3.732-1.028,4.471c4.736,1.563,1.467-5.504,4.877-4.021c3.076,1.332-3.174,9.693-2.61,10.729
	c0.616,1.178,5.313,0.104,5.532,1.992c0.344,3.141-5.975,2.811-3.842,6.521c1.689,2.93,5.392-4.697,6.672-1.613
	c0.691,1.664-2.666,2.777-2.63,3.777c0.013,0.404,4.474,2.305,3.399,3.098c-0.137,0.084-7.992-1.115-4.337,2.221
	c1.743,1.582,4.56-0.645,6.132,0.176c0.42,0.227-1.051,3.484-0.274,4.393c0.681,0.805,3.439,0.385,3.967,1.287
	c0.963,1.639-2.496,1.516-2.827,2.059l0.288,2.57c-0.433,1.063-9.188,0.629-7.842,5.227c0.963,3.318,5.739-2.201,6.813-0.762
	c0.707,0.941-1.789,5.174-2.45,5.482c-0.557,0.268-3.57-0.879-3.892-0.432c-0.511,0.74,5.016,1.596,4.174,3.012
	c-0.819,1.367-3.27,1.834-4.266,3.084c-1.435,1.744-2.489,4.932-3.102,6.844c-0.396,1.238-2.479-2.34-3.761,0.854
	c-0.16,0.408-0.157,0.883-0.239,1.326c-0.645,3.525,1.828-0.201,2.353,1.613c0.402,1.387-2.621,1.723-3.079,2.359
	c-0.764,1.063,0.039,4.541-0.97,5.307c-0.996,0.766-4.317-1.877-4.586,0.486c-0.314,2.781,3.391,0.66,4.006,1.314
	c1.438,1.512-3.111,3.094-3.449,3.84c-1.052,2.254,2.188,4.018,2.155,5.824c-0.072,3.426-3.328-1.646-3.825,0.414
	c-0.675,2.756,3.498,3.979,2.928,5.746c-0.55,1.689-6.001,2.275-5.961,2.359c0.448,1.057,2.47,2.344,2.669,3.188
	c0.227,0.988-1.503,2.619-1.183,3.586c0.427,1.219,3.148,1.844,3.427,3.1c0.252,1.055-2.696,2.035-2.804,2.887
	c-0.04,0.389,0.478,0.684,0.852,0.775c3.655,0.953,14.102-1.508,18.307-1.963c0.508-0.061,1.02-0.107,1.526-0.18
	c15.766-1.73,31.515-3.58,47.258-5.523c4.604-0.564,15.765-3.432,19.797-2.504c2.834,0.666-4.12,14.717-3.221,17.764
	c0.014,0,1.757,1.5,1.764,1.5c0.529,0.863,0.412,2.457,1.197,3.313c1.647,1.723,4.494,2.381,6.073,4.408
	c3.367,4.336,3.092,9.061,6.404,13.014c1.461,1.736,1.467-0.867,3.088,0.363c0.767-0.697,1.537-1.225,2.339-1.078
	c0.384,0.064,0.531,0.883,0.897,0.746c0.505-0.186,0.739-3.113,1.098-3.609c0.895-1.234,3.701-1.795,4.308-3.17
	c1.187-2.684-3.071-2.324-1.229-3.303c0.57-0.301,3.505-0.271,3.986,0.324l-0.551,1.813c0.229,0.344,3.008-0.914,3.281-1.023
	c1.861-0.68,11.026-3.811,11.956-4.818c1.196-1.295-0.298-3.416,3.296-2.768c2.105,0.377,3.825,3.023,6,3.48
	c1.15,0.254,4.469-0.73,5.291-1.613c0.438-0.457-0.076-1.938,0.53-1.818c0.976,0.217,0.97,1.982,1.906,2.326
	c0.003,0.016,3.104-0.439,3.104-0.439l1.782,1.473c0.006,0,1.303-1.916,1.303-1.916c0.452-0.25,1.117,0.08,1.543-0.227
	L155.858,239.152"/>
</svg>
