<svg xmlns="http://www.w3.org/2000/svg" width="124.797" height="204.798" viewBox="0 0 124.797 204.798"><path opacity=".75" fill="#C39547" d="M124.686 191.323c-.09-.24-.17-.483-.09-.592-2.732-13.93-5.455-27.87-8.167-41.815-1.277-6.504-3.127-13.154-3.84-19.738-.85-7.788-.412-15.95-.624-23.786-.45-16.3-.922-32.615-1.44-48.92-.402-12.58-.81-25.157-1.26-37.736-.09-2.743.516-13.242-.533-15.117-.565-1-3.152-2.526-4.087-3.616C80.15 3.64 55.62 6.96 31.04 9.963c.738 1.286 2.587 5.238.165 6.29-.973.416-.695-.904-2.157.026l-1.834 1.15c-.595-.265.666-3.525-1.41-1.932-.876.662 1.21 4.184 1.16 4.763-.06.667-2.242 2.64-2.753 1.743-.198-.36 2.04-2.238.252-2.85-1.803-.6-1.318 3.044-.757 3.604.563.56 2.932-.252 3.09 1.028.054.47-2.35 2.885-2.684 2.422-.29-.402.237-2.824-.895-2.688-.26.02-.147.478-.22.717-1.017 3.487.257 2.022 1.955 3.98.152.173.052.457.074.688.173 1.4-1.06 1.144-1.52 2.277-.425 1.083 1.038 3.118.503 4.143-.39.733-1.73.97-2.188 1.66-.258.378-.462 2.757-.852 2.896-.066.027-1.65-3.68-3.168-1.727l.744 1.313c.24 2.062-1.962 2.024-2.597 3.334l-.964 1.976c-.228.104-4.88-.652-2.275.954.754.458 4.115-.48 4.274.905.182 1.498-4.515-.337-5.22 1.304-.756 1.77 3.704 1.492 3.775 1.658.912 2.223-4.8 5.426-5.39 5.162-.313-.14-.66-.625-.952-.416-1.317.99 1.078 2.178 1.222 2.83.215 1.03-1.13 2.593-.794 3.587.257.79 2.343 1 2.59 1.8.416 1.33-5.03.402-5.326.597-.188.132.055.45.083.686.498 4.55 2.55 1.173 3.637 3.088.123.217.472.427.377.657C9.71 70.502 6.08 66.02 5.16 66.483c-.287.154-.82.125-.843.447-.115 1.062 2.514 2.814 2.823 3.882.065.242-.15.488-.228.716-.378 1.24-2.076.284-1.902 1.84.705 6.45.686-4.738 1.39 1.71.05.44-1.72 2.65-1.47 2.95 1.977 2.443 1.768-5.77 4.008-1.838.517.916-3.47 3.39-2.603 3.77 3.47 1.54 3.532-4.828 5.13-2.654.868 1.202-2.452 3.327-2.523 4.463-.327 5.314 3.718.9 3.88 2.355.08.636-1.43 1.636-1.555 2.27-.137.645.78 2.964.374 3.442-.54.647-2.88-.11-3.58.4-1.334.976 2.687 2.835 2.766 3.177.262 1.073-1.488 2.95-1.488 2.95-.45.657-2.595 2.987-.823 3.576 3.79 1.25 1.174-4.402 3.902-3.217 2.46 1.065-2.54 7.756-2.088 8.584.492.942 4.25.082 4.424 1.594.275 2.513-4.78 2.25-3.074 5.218 1.352 2.344 4.314-3.758 5.338-1.29.553 1.33-2.133 2.22-2.104 3.02.01.323 3.58 1.844 2.72 2.478-.11.068-6.395-.89-3.47 1.778 1.394 1.265 3.647-.517 4.905.14.335.182-.842 2.787-.22 3.514.545.645 2.75.308 3.173 1.03.77 1.31-1.997 1.213-2.26 1.647l.23 2.056c-.348.85-7.352.503-6.275 4.183.77 2.653 4.59-1.762 5.45-.61.566.754-1.43 4.14-1.96 4.387-.444.213-2.855-.703-3.112-.345-.41.59 4.013 1.275 3.34 2.41-.656 1.093-2.617 1.466-3.414 2.466-1.148 1.397-1.99 3.945-2.48 5.476-.318.99-1.984-1.872-3.01.684-.128.326-.126.705-.19 1.06-.517 2.822 1.46-.16 1.88 1.29.323 1.11-2.096 1.38-2.462 1.89-.61.85.03 3.632-.776 4.244-.796.613-3.454-1.5-3.668.39-.25 2.225 2.713.528 3.205 1.05 1.15 1.21-2.488 2.477-2.758 3.073-.84 1.804 1.75 3.214 1.724 4.66-.058 2.74-2.663-1.318-3.06.33-.54 2.205 2.798 3.184 2.342 4.598-.44 1.35-4.8 1.82-4.77 1.888.36.845 1.977 1.875 2.136 2.55.182.79-1.203 2.095-.946 2.868.34.977 2.518 1.477 2.74 2.48.203.845-2.156 1.628-2.242 2.31-.032.312.383.548.682.62 2.924.764 11.282-1.206 14.646-1.57.407-.047.816-.086 1.22-.144 12.614-1.384 25.213-2.864 37.807-4.418 3.685-.452 12.613-2.746 15.84-2.004 2.266.533-3.297 11.773-2.577 14.21.01 0 1.404 1.2 1.41 1.2.424.692.33 1.968.96 2.65 1.316 1.38 3.594 1.905 4.857 3.527 2.693 3.47 2.474 7.25 5.123 10.412 1.17 1.39 1.173-.693 2.47.29.614-.558 1.23-.98 1.872-.863.307.052.425.707.717.597.404-.148.593-2.49.88-2.888.715-.987 2.96-1.437 3.445-2.536.95-2.146-2.458-1.86-.983-2.644.456-.24 2.804-.216 3.188.26l-.44 1.45c.185.276 2.406-.73 2.626-.817 1.488-.545 8.82-3.05 9.564-3.855.957-1.036-.238-2.732 2.637-2.214 1.684.302 3.06 2.418 4.8 2.783.92.204 3.574-.583 4.232-1.29.35-.365-.062-1.55.424-1.454.78.173.776 1.585 1.524 1.86.003.012 2.484-.35 2.484-.35l1.426 1.177c.005 0 1.042-1.532 1.042-1.532.36-.2.894.062 1.234-.182l-.11-.773"/><path fill="#FFF" d="M49.898 109.77l7.965-20.366.073-.004-2.045 13.966c-.096.673-.217 1.158-.364 1.457s-.383.524-.708.676c-.324.15-.84.294-1.55.43l-.504 3.683 12.51-.693.36-3.674c-.67-.072-1.16-.188-1.465-.347-.308-.16-.47-.413-.49-.765-.015-.29.026-.85.126-1.68l1.722-13.24c.073-.645.284-1.154.634-1.525.35-.37 1.008-.583 1.975-.637l.415-3.677-12.438.69L51.83 94.7l-.073.004L50.8 84.36l-12.726.705-.505 3.683c.782.126 1.327.284 1.634.472.31.19.474.49.496.9.02.35-.032.85-.153 1.5l-1.765 12.46c-.146 1.087-.403 1.798-.773 2.133-.37.336-1.042.58-2.016.73l-.486 3.68 8.902-.492.505-3.682c-.756-.078-1.3-.206-1.63-.382-.332-.176-.51-.493-.535-.952-.022-.387.034-1.02.167-1.9l1.722-13.24.07-.003 2.456 20.008 3.732-.208zM86.576 82.775c-.93-.25-1.82-.423-2.674-.515-.853-.092-1.66-.117-2.422-.075-1.812.1-3.413.446-4.805 1.04-1.39.59-2.565 1.364-3.524 2.32s-1.655 1.995-2.09 3.12c-.434 1.128-.62 2.245-.56 3.356.06 1.04.256 1.922.593 2.647.337.727.8 1.327 1.39 1.803.59.477 1.315.88 2.177 1.206.86.328 1.873.617 3.038.867l3.66.797c1.265.28 2.178.578 2.74.892.562.314.86.755.892 1.322.05.88-.335 1.562-1.15 2.043-.815.48-1.918.76-3.308.837-1.04.058-2.122-.085-3.25-.428-1.128-.344-2.146-.953-3.056-1.83-.908-.874-1.53-2.018-1.86-3.428l-3.426.19.395 9.752 2.664-.147.707-1.977c2.724 1.468 5.8 2.107 9.23 1.917 2.067-.115 3.865-.518 5.397-1.21 1.53-.69 2.753-1.55 3.665-2.584.91-1.033 1.57-2.152 1.976-3.357.406-1.204.577-2.374.515-3.51-.054-.992-.274-1.9-.66-2.728-.385-.828-1.15-1.604-2.3-2.328-1.15-.725-2.82-1.293-5.012-1.705l-3.305-.598c-1.14-.203-1.986-.468-2.544-.794s-.853-.768-.883-1.322c-.028-.507.206-.968.705-1.383.498-.416 1.327-.654 2.486-.72 1.716-.095 3.21.192 4.482.86 1.448.755 2.378 1.896 2.79 3.423l3.334-.185-.328-8.54-2.482.138-.685 1.748c-.748-.356-1.586-.66-2.514-.913z"/></svg>