<svg xmlns="http://www.w3.org/2000/svg" width="124.797" height="204.798" viewBox="0 0 124.797 204.798"><path opacity=".75" fill="#C39547" d="M124.686 191.323c-.09-.24-.17-.483-.09-.592-2.732-13.93-5.455-27.87-8.167-41.812-1.28-6.504-3.13-13.154-3.84-19.738-.85-7.79-.415-15.95-.627-23.787-.45-16.3-.922-32.615-1.44-48.92-.402-12.58-.81-25.157-1.26-37.736-.09-2.743.516-13.242-.533-15.117-.564-1-3.15-2.527-4.086-3.617C80.15 3.64 55.62 6.96 31.04 9.963c.738 1.286 2.587 5.238.165 6.29-.973.416-.695-.904-2.157.026l-1.834 1.15c-.595-.268.666-3.528-1.41-1.935-.876.662 1.21 4.184 1.16 4.763-.06.666-2.242 2.64-2.753 1.742-.195-.36 2.04-2.238.255-2.85-1.803-.6-1.318 3.044-.757 3.604.563.56 2.932-.252 3.09 1.028.054.47-2.35 2.885-2.684 2.422-.29-.402.237-2.824-.895-2.688-.26.02-.148.477-.22.716-1.018 3.487.256 2.022 1.954 3.98.152.173.052.457.074.688.173 1.4-1.06 1.144-1.52 2.277-.425 1.083 1.038 3.12.503 4.143-.39.733-1.73.97-2.19 1.66-.256.378-.46 2.757-.85 2.896-.066.026-1.65-3.68-3.17-1.728l.746 1.313c.24 2.063-1.962 2.025-2.597 3.335l-.965 1.975c-.228.104-4.88-.652-2.275.954.752.457 4.113-.48 4.272.904.182 1.498-4.515-.337-5.22 1.304-.756 1.77 3.704 1.49 3.775 1.657.912 2.222-4.8 5.425-5.39 5.16-.313-.14-.66-.625-.952-.416-1.317.99 1.078 2.178 1.222 2.83.215 1.03-1.13 2.593-.794 3.587.257.79 2.343 1 2.59 1.8.416 1.33-5.03.403-5.326.598-.188.132.055.45.083.686.5 4.55 2.55 1.173 3.638 3.088.123.218.472.428.377.658-1.275 2.922-4.905-1.56-5.825-1.097-.287.154-.82.125-.843.447-.115 1.062 2.514 2.814 2.823 3.882.065.242-.15.488-.228.716-.378 1.24-2.076.284-1.902 1.84.705 6.45.686-4.738 1.39 1.71.05.44-1.72 2.65-1.47 2.95 1.977 2.443 1.768-5.77 4.008-1.838.517.916-3.47 3.39-2.603 3.77 3.47 1.54 3.532-4.828 5.13-2.654.868 1.202-2.452 3.327-2.523 4.463-.327 5.31 3.718.9 3.88 2.352.08.636-1.43 1.636-1.555 2.27-.137.645.78 2.964.374 3.442-.54.647-2.88-.11-3.58.4-1.33.976 2.69 2.835 2.77 3.177.26 1.074-1.49 2.95-1.49 2.95-.45.658-2.595 2.988-.823 3.577 3.79 1.25 1.174-4.403 3.902-3.218 2.46 1.064-2.54 7.755-2.09 8.583.493.942 4.25.082 4.425 1.594.275 2.513-4.78 2.25-3.074 5.218 1.353 2.344 4.315-3.758 5.34-1.29.552 1.33-2.134 2.22-2.105 3.02.01.323 3.58 1.844 2.72 2.478-.11.068-6.395-.89-3.47 1.778 1.394 1.266 3.647-.516 4.905.14.333.183-.844 2.788-.22 3.515.543.645 2.75.308 3.17 1.03.77 1.31-1.996 1.213-2.26 1.647l.23 2.056c-.347.85-7.35.503-6.274 4.183.77 2.654 4.59-1.76 5.45-.61.566.755-1.43 4.14-1.96 4.388-.444.214-2.855-.702-3.112-.344-.41.59 4.013 1.275 3.34 2.41-.656 1.093-2.617 1.466-3.414 2.466-1.147 1.397-1.99 3.945-2.48 5.476-.317.99-1.983-1.872-3.01.684-.127.326-.125.705-.19 1.06-.516 2.822 1.46-.16 1.88 1.29.324 1.11-2.095 1.38-2.46 1.89-.61.85.03 3.632-.777 4.244-.796.613-3.454-1.5-3.668.39-.25 2.225 2.713.528 3.205 1.05 1.15 1.21-2.488 2.477-2.758 3.073-.84 1.802 1.75 3.212 1.724 4.66-.058 2.74-2.663-1.32-3.06.33-.54 2.203 2.798 3.182 2.342 4.596-.44 1.35-4.8 1.82-4.77 1.888.36.846 1.977 1.876 2.136 2.55.182.79-1.203 2.096-.946 2.87.34.976 2.518 1.476 2.74 2.48.203.844-2.156 1.627-2.242 2.31-.032.31.383.547.682.62 2.924.763 11.282-1.207 14.646-1.57.407-.048.816-.087 1.22-.145 12.614-1.385 25.213-2.865 37.807-4.42 3.688-.45 12.616-2.745 15.84-2.003 2.27.533-3.294 11.773-2.574 14.21.01 0 1.404 1.2 1.41 1.2.424.692.33 1.968.96 2.65 1.316 1.38 3.594 1.905 4.857 3.527 2.694 3.47 2.475 7.25 5.124 10.41 1.17 1.39 1.173-.692 2.47.29.614-.557 1.23-.98 1.872-.862.306.053.424.708.716.598.404-.148.593-2.49.88-2.888.715-.987 2.96-1.437 3.445-2.536.95-2.146-2.457-1.86-.982-2.644.456-.24 2.804-.216 3.188.26l-.44 1.45c.185.276 2.406-.73 2.626-.817 1.488-.544 8.82-3.05 9.564-3.854.957-1.036-.238-2.732 2.637-2.214 1.685.302 3.06 2.418 4.8 2.783.92.203 3.575-.584 4.233-1.29.35-.366-.062-1.55.424-1.455.78.173.776 1.585 1.524 1.86.004.012 2.485-.35 2.485-.35l1.425 1.177c.006 0 1.043-1.533 1.043-1.533.36-.2.894.062 1.234-.182l-.11-.773"/><path fill="#FFF" d="M49.898 109.77l7.965-20.366.073-.004-2.045 13.966c-.093.673-.214 1.158-.36 1.457s-.384.524-.71.676c-.324.15-.84.29-1.55.43l-.504 3.68 12.51-.693.36-3.675c-.67-.072-1.16-.188-1.465-.347-.307-.16-.47-.413-.49-.765-.014-.29.027-.85.127-1.68l1.722-13.24c.072-.644.283-1.153.633-1.524.35-.37 1.008-.583 1.975-.637l.415-3.678-12.438.69L51.83 94.7l-.073.004L50.8 84.36l-12.726.705-.505 3.683c.78.126 1.324.284 1.63.472.31.19.475.49.497.9.02.35-.033.85-.154 1.5l-1.765 12.46c-.146 1.087-.403 1.798-.773 2.133-.37.336-1.042.58-2.016.73l-.486 3.68 8.902-.492.505-3.68c-.755-.08-1.3-.205-1.63-.38-.33-.177-.51-.494-.534-.953-.022-.387.034-1.02.167-1.9l1.722-13.24.07-.003 2.456 20.008 3.733-.207zm36.678-26.995c-.93-.25-1.82-.423-2.674-.515-.853-.092-1.66-.117-2.422-.075-1.812.1-3.413.446-4.805 1.04-1.39.59-2.565 1.364-3.524 2.32s-1.652 1.995-2.09 3.12c-.43 1.128-.62 2.245-.56 3.356.06 1.04.26 1.925.596 2.65.337.727.8 1.327 1.39 1.803.59.478 1.315.88 2.177 1.207.86.327 1.874.616 3.04.866l3.66.797c1.264.28 2.177.58 2.74.893.56.314.86.755.89 1.322.05.88-.334 1.562-1.15 2.043-.814.48-1.917.76-3.307.84-1.04.057-2.122-.086-3.25-.43-1.128-.343-2.146-.952-3.056-1.83-.91-.873-1.53-2.017-1.86-3.427l-3.427.19.396 9.75 2.662-.146.707-1.977c2.723 1.467 5.8 2.106 9.23 1.916 2.066-.115 3.864-.518 5.396-1.21 1.53-.69 2.753-1.55 3.665-2.584.91-1.033 1.57-2.152 1.976-3.357.406-1.204.577-2.374.515-3.51-.053-.992-.273-1.9-.66-2.728-.384-.828-1.15-1.604-2.3-2.328-1.15-.727-2.82-1.295-5.01-1.707l-3.306-.598c-1.14-.203-1.986-.468-2.544-.794s-.853-.767-.883-1.32c-.028-.508.206-.97.705-1.384.5-.416 1.328-.654 2.487-.72 1.714-.095 3.21.192 4.48.86 1.447.755 2.377 1.896 2.79 3.423l3.333-.186-.328-8.54-2.482.138-.685 1.75c-.75-.357-1.587-.66-2.515-.914z"/></svg>