<?xml version="1.0" encoding="utf-8"?>
<!-- Generator: Adobe Illustrator 15.0.2, SVG Export Plug-In . SVG Version: 6.00 Build 0)  -->
<!DOCTYPE svg PUBLIC "-//W3C//DTD SVG 1.1//EN" "http://www.w3.org/Graphics/SVG/1.1/DTD/svg11.dtd">
<svg version="1.1" id="Layer_1" xmlns="http://www.w3.org/2000/svg" xmlns:xlink="http://www.w3.org/1999/xlink" x="0px" y="0px"
	 width="356.998px" height="148.001px" viewBox="0 0 356.998 148.001" enable-background="new 0 0 356.998 148.001"
	 xml:space="preserve">
<path opacity="0.75" fill="#DFB875" d="M356.998,0c0,0-6.638,1.009-9.961,1.52c-1.881,0.276-1.262,0.606-2.626,1.377
	c-3.979,2.287-11.073,2.518-15.584,3.532c-18.842,4.211-37.738,8.264-56.663,12.178c0,0-0.804,0.534-1.216,0.813
	c-2.024,1.354-5.728,1.229-8.151,1.592c-6.968,1.031-13.907,2.154-20.849,3.312c-10.877,1.799-21.968,2.827-32.785,4.89
	c-9.825,1.871-19.154,4.193-29.143,5.337c-5.021,0.593-25.97,1.72-29.069,3.259c-0.007,0-1.838,2.086-1.838,2.086
	c-0.366,0.062-0.478-0.669-0.855-0.755c-3.581-0.731-35.025,6.029-41.063,7.176c-2.935,0.548-9.078,2.999-11.904,2.234
	c-1.637-0.451-0.297-1.667-4.091-1.446c-0.768,0.043-5.902-0.172-6.235,0.346c-0.987,1.578,4.593,7.189,2.135,9.417
	c-1.102,0.988-13.07,2.135-15.313,2.497c-14.303,2.3-28.614,4.494-42.938,6.623c-7.06,5.684-1.535-6.933-6.227-3.167
	c-0.211,0.175-0.54,0.267-0.646,0.524c-0.89,2.273,2.858,6.873,2.675,9.377c-0.103,1.492-5.402,0.933-3.946,3.156
	c0.68,1.055,3.333,1.037,3.913,2.142c0.343,0.646-4.861,1.692-4.65,3.427c0.172,1.275,3.426,2.527,3.413,3.793
	c-0.021,0.529-2.333,1.617-2.648,2.102c-0.87,1.332-1.183,3.642-1.664,5.16c-0.138,0.432-0.431,1.285-0.431,1.285
	c0.99,0.908,1.237,1.149,2.227,2.064c3.426,3.2-1.771,0.359-3.097,2.455c-1.881,2.962,3.523,1.742,1.996,4.15
	c-0.336,0.53-2.472-0.111-2.882,0.369c-0.601,0.684,0.092,1.936-0.394,2.699c-0.815,1.271-5.129,1.215-6.271,2.547
	c-2.168,2.518,4.352,1.994,5.593,3.699c0.561,0.766-3.731,2.723-4.002,3.146c-0.691,1.088,1.854,1.516,1.058,2.514
	c-1.351,1.646-4.042-1.896-5.073,0.641c-1.409,3.492,4.813,4.75,2.927,5.791c-4.829,2.664-2.497-2.326-4.661-2.063
	c-2.626,0.324-3.004,5.652-2.991,5.652c1.775-0.227,0.194-1.789,1.967-2.01c0.605-0.08,2.385,4.354,2.095,5.029
	c-0.382,0.877-3.231,1.264-3.426,2.176c-0.207,1.047,4.121,1.063,4.69,2.057c0.376,0.658,0.577,5.914,0.021,6.156
	c-0.923,0.41-2.102-0.938-3.023-0.506c-1.027,0.482-0.718,3.867-1.653,4.602c-0.656,0.518-3.162-0.221-3.641,0.441
	c-0.267,0.35,0.109,0.859,0.162,1.299c0.043,0.428,0.151,1.305,0.151,1.305c30.901-3.76,61.736-7.92,92.528-12.48
	c-0.237-1.604,4.575-1.484,6.088-1.695c6.732-0.91,13.466-1.832,20.186-2.785c28.596-4.023,57.032-8.768,85.443-13.904
	c18.871-3.119,37.706-6.389,56.52-9.811c0,0-1.85-8.801-1.102-13.123c0.729-4.218,8.14-0.244,9.539-4.584
	c0.139-0.451,0.007-0.945,0.007-1.42c0.026-1.43,0.033-2.855,0.043-4.293c0-0.465-0.15-0.972,0.008-1.414
	c0.694-1.921,8.393-9.208,10.597-10.178c1.301-0.579,2.961-0.326,4.289-0.883c0.514-0.224,0.685-1.206,1.241-1.156
	c0.01,0,1.774,1.42,1.774,1.42c2.78-0.022,2.833-3.12,4.289-4.454c0.851-0.791,2.625-0.758,3.38-1.621
	c0.438-0.462-0.103-1.431,0.362-1.858c0.533-0.484,1.555,0,2.138-0.441c1.799-1.391,2.89-4.738,4.596-6.34
	c2.428-2.24,7.068-2.145,7.648-2.517c2.361-1.575,1.683-9.312,1.692-9.321c1.292-1.002,3.354,0.643,4.446-0.069
	c0.563-0.365,0.319-3.091,0.665-3.713c0.445-0.808,4.063-4.544,4.908-4.669c3.709-0.508,1.227,5.327,3.963,4.504
	c4.075-1.229,4.303-7.202,7.475-9.727c1.038-0.807,4.661-3.638,5.78-3.983c2.369-0.711,4.49,3.678,6.41,2.135
	c1.271-1.008,3.604-9.683,4.704-11.841c0.393-0.751,2.065-3.872,2.734-4.218c0.78-0.422,3.905,0.906,3.405-1.238
	C355.281,8.471,355.074,3.884,356.998,0"/>
</svg>
