<svg xmlns="http://www.w3.org/2000/svg" width="285.599" height="118.401" viewBox="0 0 285.599 118.401"><path opacity=".75" fill="#DFB875" d="M285.6 0s-5.312.807-7.97 1.216c-1.505.22-1.01.485-2.1 1.102-3.185 1.83-8.86 2.015-12.47 2.826-15.072 3.37-30.19 6.61-45.33 9.743 0 0-.643.427-.972.65-1.62 1.083-4.583.983-6.52 1.273-5.575.825-11.127 1.723-16.68 2.65-8.702 1.438-17.574 2.26-26.228 3.91-7.86 1.498-15.324 3.355-23.314 4.27-4.017.476-20.776 1.377-23.256 2.608-.006 0-1.47 1.668-1.47 1.668-.293.05-.383-.535-.686-.604-2.864-.585-28.02 4.823-32.85 5.74-2.35.44-7.263 2.4-9.523 1.788-1.31-.36-.237-1.333-3.272-1.157-.614.034-4.722-.138-4.988.277-.79 1.262 3.674 5.75 1.708 7.533-.88.79-10.456 1.708-12.25 1.998-11.443 1.84-22.893 3.596-34.35 5.3-5.648 4.547-1.23-5.546-4.982-2.534-.17.14-.432.213-.517.42-.713 1.817 2.286 5.498 2.14 7.5-.083 1.194-4.322.747-3.157 2.525.543.845 2.666.832 3.13 1.715.274.517-3.89 1.354-3.72 2.742.137 1.02 2.74 2.02 2.73 3.033-.017.424-1.866 1.295-2.118 1.683-.696 1.065-.946 2.913-1.33 4.127-.11.346-.346 1.028-.346 1.028.79.728.99.92 1.78 1.652 2.74 2.56-1.417.287-2.478 1.964-1.505 2.37 2.82 1.395 1.597 3.32-.27.424-1.978-.09-2.307.295-.48.546.074 1.548-.314 2.158-.654 1.018-4.105.973-5.018 2.037-1.734 2.015 3.48 1.596 4.475 2.96.45.612-2.985 2.178-3.202 2.517-.553.87 1.483 1.213.846 2.013-1.08 1.316-3.232-1.52-4.057.51-1.127 2.795 3.85 3.802 2.34 4.635-3.862 2.13-1.997-1.86-3.728-1.65-2.1.26-2.403 4.522-2.393 4.522 1.42-.18.155-1.43 1.573-1.608.484-.063 1.908 3.484 1.676 4.024-.305.702-2.584 1.01-2.74 1.74-.166.838 3.297.85 3.752 1.646.3.526.46 4.73.017 4.926-.74.327-1.683-.75-2.42-.406-.822.388-.575 3.095-1.323 3.683-.524.415-2.53-.177-2.913.353-.214.28.087.688.13 1.04.034.342.12 1.043.12 1.043 24.72-3.008 49.39-6.336 74.022-9.984-.19-1.284 3.66-1.19 4.87-1.357 5.386-.728 10.773-1.466 16.15-2.228 22.875-3.218 45.625-7.015 68.353-11.123 15.096-2.496 30.164-5.11 45.214-7.85 0 0-1.48-7.04-.88-10.498.582-3.374 6.512-.195 7.63-3.667.112-.36.006-.756.006-1.136.02-1.143.026-2.283.035-3.434 0-.372-.12-.777.005-1.13.557-1.538 6.715-7.368 8.48-8.144 1.04-.463 2.367-.26 3.43-.707.41-.18.548-.965.993-.925.008 0 1.42 1.136 1.42 1.136 2.224-.018 2.267-2.496 3.43-3.563.682-.633 2.102-.606 2.705-1.296.35-.37-.082-1.145.29-1.487.426-.387 1.244 0 1.71-.353 1.44-1.113 2.312-3.79 3.676-5.072 1.942-1.792 5.655-1.716 6.12-2.013 1.89-1.26 1.346-7.45 1.353-7.457 1.033-.802 2.683.515 3.558-.055.45-.292.255-2.473.53-2.97.357-.646 3.25-3.635 3.928-3.735 2.967-.406.98 4.262 3.17 3.603 3.26-.983 3.442-5.762 5.98-7.78.83-.647 3.73-2.912 4.625-3.188 1.896-.57 3.592 2.942 5.128 1.708 1.017-.807 2.883-7.747 3.763-9.473.313-.6 1.65-3.098 2.187-3.375.624-.338 3.125.725 2.725-.99-.707-3.083-.872-6.753.667-9.86"/><path fill="#FFF" d="M107.75 60.865c1.098-.98 2.36-1.583 3.79-1.81l-2.018 16.3c-.07.71-.33 1.25-.78 1.627-.446.377-1.203.62-2.27.728l-.44 3.744 14.157-.785.438-3.744c-.94-.06-1.62-.222-2.042-.488-.422-.267-.65-.707-.684-1.322-.017-.308.038-.983.165-2.026l1.767-14.494c2.532.094 4.367 1.966 5.507 5.616l3.114-1.21-2.023-8.49-21.64 1.198-3.24 8.562 2.907 1.097c1.097-2.023 2.193-3.525 3.292-4.505zM152.185 78.896l2.37-20.023c.104-.77.326-1.33.665-1.674.34-.347 1.022-.573 2.053-.68l.44-3.743-9.48.525-.416 3.52c1.52.04 2.312.663 2.38 1.868.036.664.02 1.245-.052 1.742l-.91 7.637-.072.004-5.54-14.516-12.654.7-.44 3.745c1.47.03 2.226.456 2.27 1.28.03.54-.032 1.29-.188 2.25L131.13 74.16c-.074.694-.334 1.233-.78 1.616-.45.383-1.206.628-2.273.735l-.44 3.746 9.593-.532.44-3.743c-.796-.09-1.382-.27-1.76-.54s-.582-.637-.607-1.104c-.015-.258.018-.778.098-1.56l1.6-13.542.075-.003 7.754 20.074 7.355-.408z"/></svg>