<svg xmlns="http://www.w3.org/2000/svg" width="285.599" height="118.401" viewBox="0 0 285.599 118.401"><path opacity=".75" fill="#DFB875" d="M285.6 0s-5.312.807-7.97 1.216c-1.505.22-1.01.485-2.1 1.102-3.185 1.83-8.86 2.015-12.47 2.826-15.072 3.37-30.19 6.61-45.33 9.743 0 0-.643.427-.972.65-1.62 1.083-4.583.983-6.52 1.273-5.575.825-11.127 1.723-16.68 2.65-8.702 1.438-17.574 2.26-26.228 3.91-7.86 1.498-15.324 3.355-23.314 4.27-4.017.476-20.776 1.377-23.256 2.608-.006 0-1.47 1.668-1.47 1.668-.293.05-.383-.535-.686-.604-2.864-.585-28.02 4.823-32.85 5.74-2.35.44-7.263 2.4-9.523 1.788-1.31-.36-.233-1.333-3.27-1.157-.612.034-4.72-.138-4.99.277-.79 1.262 3.678 5.75 1.71 7.533-.88.79-10.454 1.708-12.25 1.998-11.44 1.84-22.89 3.6-34.35 5.3-5.65 4.55-1.23-5.542-4.98-2.53-.17.14-.432.213-.517.42-.712 1.817 2.287 5.498 2.14 7.5-.082 1.194-4.32.747-3.156 2.525.543.845 2.666.832 3.13 1.715.274.516-3.89 1.353-3.72 2.74.137 1.02 2.74 2.02 2.73 3.033-.017.424-1.866 1.295-2.118 1.683-.697 1.065-.947 2.913-1.33 4.127-.11.346-.347 1.028-.347 1.028.79.73.99.92 1.78 1.654 2.74 2.56-1.418.287-2.48 1.964-1.504 2.37 2.82 1.395 1.598 3.32-.27.424-1.977-.09-2.306.295-.48.548.076 1.55-.312 2.16-.653 1.018-4.104.973-5.017 2.037-1.735 2.014 3.48 1.595 4.474 2.96.45.61-2.986 2.177-3.203 2.516-.553.87 1.483 1.213.846 2.013-1.08 1.314-3.23-1.52-4.056.51-1.125 2.793 3.85 3.8 2.34 4.633-3.86 2.13-1.995-1.86-3.726-1.65-2.1.26-2.402 4.523-2.392 4.523 1.42-.18.156-1.43 1.574-1.608.483-.064 1.907 3.483 1.675 4.023-.306.7-2.585 1.01-2.74 1.74-.167.84 3.296.85 3.75 1.647.3.525.46 4.73.018 4.925-.74.328-1.683-.75-2.42-.405-.822.388-.575 3.095-1.323 3.683-.524.415-2.53-.177-2.913.353-.215.28.086.69.13 1.04.033.343.12 1.044.12 1.044 24.72-3.008 49.39-6.336 74.02-9.984-.19-1.284 3.66-1.19 4.87-1.357 5.386-.73 10.773-1.467 16.15-2.23 22.875-3.217 45.625-7.014 68.353-11.122 15.096-2.496 30.164-5.11 45.214-7.85 0 0-1.48-7.04-.88-10.498.584-3.374 6.514-.195 7.63-3.667.114-.36.008-.757.008-1.137.02-1.142.026-2.282.035-3.433 0-.37-.12-.776.004-1.13.557-1.537 6.715-7.367 8.48-8.143 1.04-.462 2.367-.26 3.43-.706.41-.18.548-.964.993-.924.01 0 1.42 1.136 1.42 1.136 2.225-.018 2.268-2.496 3.43-3.563.683-.635 2.103-.608 2.706-1.298.35-.37-.082-1.145.29-1.487.426-.387 1.244 0 1.71-.353 1.44-1.113 2.312-3.79 3.676-5.072 1.94-1.792 5.654-1.716 6.12-2.013 1.89-1.26 1.345-7.45 1.352-7.458 1.033-.803 2.683.514 3.558-.056.45-.29.256-2.473.53-2.97.358-.646 3.25-3.635 3.93-3.735 2.966-.407.98 4.26 3.17 3.602 3.26-.984 3.44-5.763 5.98-7.78.83-.648 3.73-2.913 4.624-3.19 1.896-.57 3.592 2.943 5.128 1.71 1.017-.808 2.883-7.748 3.763-9.474.313-.6 1.65-3.098 2.187-3.375.624-.338 3.125.725 2.725-.99-.707-3.083-.872-6.753.667-9.86"/><path fill="#FFF" d="M107.75 60.865c1.098-.98 2.36-1.583 3.79-1.81l-2.018 16.3c-.07.71-.33 1.25-.78 1.627-.446.377-1.203.62-2.27.728l-.44 3.744 14.157-.785.434-3.748c-.94-.06-1.62-.222-2.042-.488-.422-.267-.65-.707-.684-1.322-.017-.308.04-.983.165-2.026l1.767-14.495c2.532.095 4.367 1.967 5.507 5.617l3.113-1.21-2.023-8.49-21.64 1.2-3.24 8.56 2.91 1.097c1.096-2.023 2.192-3.525 3.29-4.505zm44.435 18.03l2.37-20.022c.104-.77.326-1.33.665-1.674.34-.35 1.022-.577 2.053-.68l.44-3.747-9.48.525-.416 3.52c1.52.04 2.312.663 2.38 1.87.036.662.02 1.243-.052 1.74l-.91 7.637-.072.004-5.54-14.516-12.654.7-.44 3.745c1.47.03 2.222.457 2.27 1.28.03.54-.036 1.29-.19 2.25l-1.48 12.63c-.077.694-.337 1.233-.78 1.616-.45.383-1.21.628-2.276.735l-.44 3.748 9.593-.534.44-3.743c-.797-.09-1.383-.27-1.76-.54s-.583-.636-.608-1.103c-.016-.26.017-.78.097-1.56l1.6-13.543.076-.003 7.754 20.075 7.355-.41z"/></svg>