<?xml version="1.0" encoding="utf-8"?>
<!-- Generator: Adobe Illustrator 15.0.0, SVG Export Plug-In . SVG Version: 6.00 Build 0)  -->
<!DOCTYPE svg PUBLIC "-//W3C//DTD SVG 1.1//EN" "http://www.w3.org/Graphics/SVG/1.1/DTD/svg11.dtd">
<svg version="1.1" id="Layer_1" xmlns="http://www.w3.org/2000/svg" xmlns:xlink="http://www.w3.org/1999/xlink" x="0px" y="0px"
	 width="285.599px" height="118.401px" viewBox="0 0 285.599 118.401" enable-background="new 0 0 285.599 118.401"
	 xml:space="preserve">
<g id="tennessee">
	<path id="TN" opacity="0.75" fill="#DFB875" d="M285.599,0c0,0-5.311,0.807-7.969,1.216c-1.505,0.221-1.01,0.485-2.101,1.102
		c-3.184,1.83-8.859,2.015-12.468,2.826c-15.073,3.369-30.191,6.611-45.33,9.743c0,0-0.644,0.427-0.973,0.65
		c-1.62,1.083-4.583,0.983-6.521,1.273c-5.574,0.825-11.126,1.723-16.679,2.649c-8.702,1.439-17.574,2.262-26.228,3.912
		c-7.861,1.497-15.324,3.354-23.314,4.27c-4.017,0.475-20.776,1.376-23.256,2.607c-0.006,0-1.471,1.668-1.471,1.668
		c-0.292,0.05-0.382-0.535-0.685-0.604c-2.864-0.585-28.02,4.823-32.851,5.741c-2.348,0.438-7.262,2.399-9.522,1.787
		c-1.31-0.361-0.238-1.333-3.273-1.157c-0.614,0.034-4.722-0.138-4.988,0.277c-0.79,1.262,3.674,5.751,1.708,7.533
		c-0.881,0.791-10.456,1.708-12.251,1.998c-11.442,1.84-22.892,3.595-34.35,5.299c-5.647,4.547-1.229-5.546-4.981-2.534
		c-0.169,0.14-0.432,0.213-0.517,0.419c-0.712,1.818,2.287,5.499,2.14,7.502c-0.082,1.193-4.321,0.746-3.156,2.524
		c0.543,0.844,2.666,0.831,3.13,1.714c0.274,0.517-3.889,1.354-3.72,2.742c0.137,1.02,2.741,2.021,2.73,3.033
		c-0.017,0.424-1.866,1.295-2.118,1.683c-0.696,1.065-0.946,2.913-1.331,4.127c-0.11,0.346-0.345,1.028-0.345,1.028
		c0.792,0.728,0.99,0.92,1.781,1.652c2.741,2.56-1.417,0.287-2.478,1.964c-1.505,2.369,2.819,1.395,1.597,3.32
		c-0.269,0.424-1.977-0.09-2.306,0.295c-0.479,0.547,0.074,1.549-0.314,2.159c-0.653,1.018-4.104,0.973-5.017,2.037
		c-1.734,2.015,3.481,1.596,4.475,2.96c0.449,0.612-2.985,2.178-3.202,2.517c-0.553,0.871,1.483,1.213,0.846,2.013
		c-1.081,1.316-3.233-1.519-4.058,0.511c-1.127,2.794,3.85,3.801,2.341,4.634c-3.863,2.131-1.998-1.86-3.729-1.649
		c-2.101,0.258-2.403,4.521-2.393,4.521c1.42-0.18,0.155-1.431,1.573-1.608c0.484-0.063,1.908,3.484,1.676,4.024
		c-0.306,0.702-2.585,1.011-2.741,1.74c-0.166,0.838,3.297,0.851,3.752,1.646c0.301,0.526,0.461,4.731,0.017,4.926
		c-0.738,0.327-1.682-0.751-2.419-0.406c-0.822,0.388-0.575,3.095-1.323,3.683c-0.524,0.415-2.529-0.177-2.913,0.353
		c-0.214,0.28,0.087,0.688,0.129,1.039c0.035,0.343,0.121,1.044,0.121,1.044c24.72-3.008,49.389-6.336,74.022-9.984
		c-0.189-1.283,3.66-1.188,4.871-1.356c5.385-0.728,10.772-1.466,16.148-2.228c22.876-3.218,45.626-7.015,68.354-11.123
		c15.097-2.496,30.165-5.111,45.215-7.85c0,0-1.479-7.04-0.881-10.498c0.583-3.374,6.513-0.195,7.632-3.667
		c0.111-0.36,0.005-0.756,0.005-1.136c0.021-1.144,0.026-2.284,0.035-3.435c0-0.372-0.121-0.777,0.005-1.131
		c0.557-1.537,6.715-7.367,8.479-8.143c1.04-0.463,2.368-0.261,3.431-0.707c0.411-0.179,0.548-0.965,0.993-0.925
		c0.008,0,1.42,1.136,1.42,1.136c2.224-0.018,2.267-2.496,3.431-3.563c0.681-0.633,2.101-0.606,2.704-1.296
		c0.351-0.37-0.082-1.145,0.29-1.487c0.426-0.387,1.244,0,1.71-0.353c1.439-1.113,2.312-3.791,3.676-5.072
		c1.942-1.792,5.655-1.716,6.119-2.013c1.89-1.26,1.347-7.45,1.354-7.457c1.033-0.802,2.683,0.515,3.558-0.055
		c0.45-0.292,0.255-2.473,0.531-2.97c0.356-0.646,3.25-3.635,3.927-3.735c2.967-0.406,0.98,4.262,3.171,3.603
		c3.26-0.983,3.441-5.762,5.979-7.781c0.83-0.646,3.729-2.911,4.625-3.187c1.896-0.569,3.592,2.942,5.128,1.708
		c1.017-0.807,2.883-7.747,3.763-9.473c0.314-0.601,1.652-3.098,2.188-3.375c0.624-0.338,3.125,0.725,2.725-0.991
		C284.225,6.777,284.06,3.107,285.599,0"/>
	<path fill="#FFFFFF" d="M107.749,60.865c1.099-0.979,2.362-1.583,3.791-1.811l-2.018,16.302c-0.071,0.708-0.331,1.25-0.779,1.626
		c-0.447,0.377-1.204,0.619-2.271,0.728l-0.439,3.744l14.156-0.785l0.439-3.743c-0.939-0.06-1.621-0.222-2.042-0.488
		c-0.422-0.267-0.649-0.707-0.684-1.322c-0.017-0.308,0.038-0.983,0.165-2.026l1.767-14.494c2.532,0.094,4.367,1.966,5.507,5.616
		l3.113-1.209l-2.023-8.492l-21.641,1.199l-3.241,8.562l2.908,1.097C105.554,63.347,106.65,61.845,107.749,60.865z"/>
	<path fill="#FFFFFF" d="M152.185,78.896l2.369-20.023c0.105-0.771,0.327-1.329,0.666-1.674c0.339-0.346,1.022-0.572,2.053-0.678
		l0.44-3.744l-9.48,0.525l-0.416,3.521c1.52,0.039,2.312,0.662,2.379,1.867c0.037,0.664,0.02,1.245-0.051,1.742l-0.909,7.637
		l-0.073,0.005l-5.541-14.516l-12.653,0.701l-0.44,3.744c1.47,0.029,2.227,0.456,2.272,1.279c0.03,0.542-0.033,1.292-0.189,2.25
		l-1.483,12.628c-0.073,0.694-0.333,1.233-0.78,1.616c-0.448,0.383-1.205,0.628-2.272,0.735l-0.439,3.745l9.592-0.532l0.439-3.743
		c-0.795-0.092-1.381-0.272-1.76-0.541s-0.581-0.637-0.606-1.104c-0.015-0.258,0.018-0.778,0.098-1.56l1.6-13.542l0.074-0.003
		l7.754,20.073L152.185,78.896z"/>
</g>
</svg>
