<svg xmlns="http://www.w3.org/2000/svg" preserveAspectRatio="xMidYMid" width="382.904" height="906.562" viewBox="0 0 382.904 906.562"><defs><style>.cls-1 { stroke: #fbfaf8; stroke-width: 4px; fill: none; fill-rule: evenodd; }</style></defs><path d="M6.093-19.878c.707 2.304 1.485 5.737 2.14 7.85.657 2.115-.9 7.493 2.142 11.42 3.042 3.93 4.196 2.583 5.708 4.998 1.512 2.414 1.862 6.426 4.995 9.992 3.134 3.566 4.728 3.744 11.417 7.138 6.69 3.393 14.61 3.464 15.7 4.996 1.088 1.53 4.093 5.847 6.42 8.565 2.33 2.72 1.743 8.11 4.996 7.852 3.254-.258 6.18-1.483 7.85 0 1.672 1.484 4.995 3.57 4.995 3.57s3.25 2.222 5.71 2.854c2.458.632 6.41 5.32 10.703 7.85 4.29 2.533 6.737 2.586 12.13 4.997 5.393 2.41 11.06 6.246 12.845 8.566 1.784 2.318 4.995 4.816 7.135 6.422 2.14 1.606 8.563 3.747 10.704 4.283 2.14.535 7.492 3.747 8.563 4.996 1.07 1.25 1.427 6.96 2.854 8.566 1.426 1.606 1.07 3.212 1.426 4.996.357 1.785-.892 4.104 0 5.71.892 1.606 3.21 5.175 4.282 7.138 1.07 1.963 2.14 3.212 2.14 5.71 0 2.498-1.427 3.57-1.427 5.71s1.785 4.818 2.142 6.424c.357 1.606-.238 6.66 2.14 9.28 2.38 2.616 4.52 6.66 7.85 6.422 3.33-.238 3.568-.238 7.136 2.142s5.47 2.38 5.708 4.282c.238 1.903 0 3.57 2.855 5.71s7.136 4.045 8.564 6.424c1.427 2.38 7.135 7.613 8.562 7.85 1.428.24 2.38 2.38 2.14 3.57-.237 1.19-.95 2.855-.712 6.424.237 3.568-3.093 7.375-3.568 10.706-.476 3.33-.476 6.9-2.14 9.28-1.666 2.378-3.093 5.233-6.423 4.995-3.33-.24-9.04-.953-12.13 1.426-3.093 2.38-6.9 5.473-6.423 7.852.476 2.38 2.14 4.996 2.14 4.996s-1.426.714-.713 2.14c.714 1.43 3.092 3.332 3.568 4.998.476 1.665 1.665.237.713 2.855-.95 2.617-.237 3.092-2.14 7.137s-1.903 4.758-2.854 5.71c-.952.952.237 1.19-.714 2.855-.95 1.664-.95 1.19-2.854 2.854-1.903 1.666-2.617 1.903-4.282 2.855-1.665.95-2.14.237-2.14 2.14 0 1.904-.238 2.617.713 4.283.95 1.665 1.903 3.093.714 6.424-1.19 3.33-2.14 2.617-2.854 4.996-.713 2.38-2.14 1.903-1.427 4.996.713 3.092.237 7.375.713 9.278.475 1.903.238 4.996 3.568 8.565 3.33 3.57 7.85 12.848 12.13 14.99 4.283 2.14 6.9 2.14 12.132 6.423 5.233 4.282 6.66 3.568 7.85 8.565 1.19 4.997 3.805 10.23 4.994 12.134 1.19 1.904 2.617 6.186 4.995 4.997 2.38-1.19 2.856-4.282 4.283-4.282 1.427 0 5.708-.714 7.136.714 1.426 1.427 1.188 1.903 3.566 2.855 2.38.952 2.617.238 2.855 2.855.24 2.617-1.664 9.04-2.854 13.56-1.19 4.522-4.52 14.276-2.854 17.13 1.665 2.856 3.568 3.808 8.563 5.71 4.995 1.905 9.514 2.856 11.417 4.284 1.903 1.427 2.855 2.617 4.282 4.282 1.427 1.666 6.66 5.948 8.562 7.138 1.903 1.19 7.374 2.14 8.563 5.71 1.19 3.57 3.567 9.28 3.567 12.134 0 2.855-2.378 4.52 0 7.85 2.38 3.332 2.617 5.235 5.71 6.425 3.09 1.19 7.135 3.568 9.275 4.996 2.14 1.428 3.568 6.187 3.568 9.993 0 3.807-1.665 10.707-3.568 11.42-1.903.714-4.498-.713-6.422 1.428-1.924 2.142-4.863 4.042-4.995 7.14-.132 3.095-2.314 10.71-2.854 14.274-.54 3.563.23 4.5-.713 8.565-.944 4.065-1.623 6.224-2.854 8.564-1.23 2.34-.943 3.492-2.854 5.71-1.913 2.217-3.316 1.334-2.856 3.568.46 2.235 1.187 2.416 1.428 4.283.24 1.867-2.01 6.867-4.996 11.42-2.986 4.553-4.837 6.067-2.854 7.85 1.983 1.786 3.99 4.45 2.14 7.14-1.848 2.686-3.337 4.346-4.994 6.423-1.658 2.076-3.508 3.025-2.854 4.282.653 1.257 3.62 2.678 1.427 4.996-2.193 2.318-1.928 1.862-4.28 4.283-2.353 2.42-4.86 3.132-4.996 4.995-.136 1.863.892 4.162 0 5.71s-1.176 3.937-1.427 5.71c-.25 1.773 4.487 1.014.714 4.283-3.772 3.268-1.866 1.676-4.994 4.996-3.13 3.32-4.665 4.933-5.71 6.424-1.043 1.49 0 4.282 0 4.282s2.488 2.846-.712 3.57c-3.2.722-3.776.635-5.71 2.854-1.932 2.22.568 1.32-1.426 7.138-1.994 5.816-4.417 8.86-3.568 11.42.85 2.56.925 4.613 2.14 5.71 1.216 1.096 1.76 3.205 1.428 4.996-.333 1.79-1.02 2.562.713 4.996 1.734 2.434 2.95 1.816 2.856 5.71-.094 3.894.675 3.297.713 5.71.037 2.414-.756 5.544 0 6.424 2.718 3.168 3.654 3.578 3.567 5.71-.086 2.132-.737 3.37-.713 4.996.023 1.627 0 3.57 0 3.57-.363 4.49-3.09 5.443-1.428 6.423 1.663.98 4.282 2.855 4.282 2.855l3.568 4.996s4.358 3.985 4.28 5.71c-.076 1.725 0 7.85 0 7.85s-3.644 2.98-3.567 4.284c.076 1.304 2.067 2.492 0 4.282-2.068 1.79-2.516 3.817-4.996 5.71-2.48 1.893-7.61 5.446-9.276 9.993-1.665 4.546-1.983 9.417-2.14 12.134-.16 2.717-.99 2.438 0 4.997.99 2.558 1.91 3.24 0 5.71-1.91 2.47-3.444 4.564-3.57 5.71-.123 1.146-2.88 1.414-1.426 2.855 1.453 1.44 2.564.51 2.854 3.57.29 3.057-.524 4.114.714 5.71 1.24 1.594 2.272 1.382 3.568 3.568 1.296 2.185 2.11 2.43 2.14 5.71.032 3.28-1.164 5.023 1.428 4.282 2.59-.74 5.026-2.48 6.422-2.14 1.395.338 2.69 7.043 3.568 7.85.878.807 2.028 1.63 3.568 3.57 1.54 1.937 1.525 2.92 1.427 5.71-.098 2.788 3.565 5.324 4.996 7.136 1.43 1.813 7.803 6.11 10.703 7.138 2.9 1.027 7.012 3.046 9.276 2.855 2.264-.19 6.422-2.854 6.422-2.854s4.488 2.003 8.563 2.855c4.076.853 6.86.663 11.418.715 4.56.052 8.043-.505 9.276 0 1.234.504.926.49 1.428 2.855.5 2.366-2.143 4.654-.714 5.71 5.346 3.95 7.414 6.934 10.704 8.565 3.29 1.63 3.384 1.904 5.708 4.282 2.324 2.378 6.992 7.616 12.845 9.993 5.852 2.376 8.13-1.905 11.417 3.57 3.286 5.472 5.08 8.542 8.563 12.846 3.483 4.304 6.127 5.78 9.276 10.706 3.15 4.928 28.154 27.218 37.82 45.68" class="cls-1"/></svg>