<svg xmlns="http://www.w3.org/2000/svg" preserveAspectRatio="xMidYMid" width="382.904" height="906.562" viewBox="0 0 382.904 906.562"><defs><style>.cls-1 { stroke: #fbfaf8; stroke-width: 4px; fill: none; fill-rule: evenodd; }</style></defs><path d="M6.093-19.878c.707 2.304 1.485 5.737 2.14 7.85.657 2.115-.9 7.493 2.142 11.42 3.042 3.93 4.196 2.583 5.708 4.998 1.512 2.414 1.862 6.426 4.995 9.992 3.134 3.566 4.728 3.744 11.417 7.138 6.69 3.393 14.61 3.464 15.7 4.996 1.088 1.53 4.093 5.847 6.42 8.565 2.33 2.72 1.743 8.11 4.996 7.854 3.256-.258 6.18-1.483 7.85 0 1.674 1.484 4.997 3.57 4.997 3.57s3.25 2.222 5.71 2.854c2.458.632 6.41 5.32 10.703 7.85 4.29 2.533 6.736 2.586 12.13 4.997 5.392 2.41 11.06 6.246 12.844 8.566 1.784 2.32 4.995 4.817 7.135 6.423 2.14 1.606 8.56 3.747 10.702 4.283 2.14.535 7.492 3.747 8.563 4.996 1.07 1.25 1.427 6.96 2.854 8.567 1.425 1.605 1.07 3.21 1.425 4.995.357 1.785-.892 4.104 0 5.71.892 1.606 3.21 5.175 4.282 7.138 1.07 1.964 2.14 3.213 2.14 5.71 0 2.5-1.427 3.57-1.427 5.71s1.786 4.82 2.143 6.425c.357 1.606-.238 6.66 2.14 9.28 2.38 2.616 4.52 6.66 7.85 6.422 3.33-.238 3.568-.238 7.136 2.142s5.47 2.38 5.706 4.28c.238 1.904 0 3.57 2.855 5.71s7.137 4.046 8.565 6.425c1.427 2.38 7.135 7.613 8.562 7.85 1.428.24 2.38 2.38 2.14 3.57-.237 1.19-.95 2.855-.712 6.424.237 3.568-3.093 7.375-3.568 10.706-.476 3.33-.476 6.9-2.14 9.28-1.666 2.378-3.093 5.233-6.423 4.995-3.33-.24-9.04-.952-12.13 1.427-3.093 2.38-6.9 5.473-6.423 7.852.477 2.38 2.14 4.995 2.14 4.995s-1.425.714-.712 2.14c.713 1.43 3.09 3.332 3.567 4.998.476 1.665 1.665.237.713 2.855-.95 2.617-.237 3.092-2.14 7.137s-1.903 4.758-2.854 5.71c-.952.952.237 1.19-.714 2.855-.95 1.663-.95 1.19-2.854 2.853-1.903 1.666-2.617 1.903-4.282 2.855-1.665.95-2.14.237-2.14 2.14 0 1.904-.238 2.617.713 4.283.95 1.667 1.902 3.095.713 6.426-1.19 3.33-2.14 2.617-2.854 4.996-.714 2.38-2.14 1.904-1.428 4.997.713 3.09.237 7.374.713 9.277.476 1.903.24 4.996 3.57 8.565 3.33 3.57 7.85 12.848 12.13 14.99 4.282 2.14 6.9 2.14 12.13 6.423 5.234 4.282 6.66 3.568 7.85 8.565 1.19 4.997 3.806 10.23 4.995 12.134 1.19 1.904 2.616 6.186 4.994 4.997 2.38-1.19 2.855-4.282 4.282-4.282s5.708-.714 7.136.714c1.426 1.428 1.188 1.904 3.566 2.856 2.38.952 2.616.238 2.854 2.855.24 2.618-1.664 9.04-2.854 13.56-1.19 4.523-4.52 14.277-2.854 17.13 1.665 2.857 3.568 3.81 8.563 5.71 4.994 1.906 9.513 2.857 11.416 4.285 1.902 1.427 2.854 2.617 4.28 4.282 1.428 1.666 6.66 5.948 8.563 7.138 1.903 1.19 7.374 2.14 8.563 5.71 1.19 3.57 3.567 9.28 3.567 12.134 0 2.854-2.378 4.52 0 7.85 2.38 3.33 2.617 5.234 5.71 6.424 3.09 1.19 7.135 3.568 9.275 4.996 2.14 1.428 3.568 6.187 3.568 9.993 0 3.807-1.665 10.707-3.568 11.42-1.903.714-4.498-.713-6.422 1.428-1.924 2.143-4.863 4.043-4.995 7.14-.13 3.096-2.313 10.71-2.853 14.275-.54 3.563.23 4.5-.713 8.565-.943 4.065-1.622 6.224-2.853 8.564-1.23 2.34-.942 3.492-2.853 5.71-1.913 2.217-3.316 1.334-2.856 3.568.46 2.235 1.188 2.416 1.43 4.283.24 1.867-2.01 6.867-4.997 11.42s-4.838 6.067-2.855 7.85c1.983 1.786 3.99 4.45 2.14 7.14-1.848 2.686-3.337 4.346-4.994 6.423-1.657 2.077-3.507 3.026-2.853 4.283.654 1.257 3.62 2.678 1.428 4.996-2.193 2.317-1.928 1.86-4.28 4.282-2.353 2.42-4.86 3.13-4.996 4.994-.136 1.863.892 4.162 0 5.71s-1.176 3.937-1.427 5.71c-.25 1.773 4.488 1.014.715 4.283-3.772 3.267-1.866 1.675-4.994 4.995-3.13 3.32-4.664 4.933-5.71 6.424-1.042 1.49 0 4.28 0 4.28s2.49 2.846-.71 3.57c-3.2.72-3.777.635-5.71 2.854-1.933 2.22.567 1.32-1.427 7.138-1.995 5.817-4.418 8.86-3.57 11.42.85 2.56.926 4.614 2.14 5.71 1.217 1.097 1.76 3.206 1.43 4.997-.334 1.79-1.02 2.56.712 4.995 1.734 2.434 2.95 1.816 2.856 5.71-.094 3.894.675 3.297.713 5.71.038 2.414-.755 5.544 0 6.424 2.72 3.167 3.655 3.577 3.568 5.71-.086 2.13-.737 3.37-.713 4.995.022 1.627 0 3.57 0 3.57-.364 4.49-3.09 5.443-1.43 6.423 1.664.98 4.283 2.855 4.283 2.855l3.568 4.997s4.36 3.985 4.28 5.71c-.075 1.725 0 7.85 0 7.85s-3.643 2.98-3.566 4.284c.076 1.305 2.067 2.493 0 4.283-2.068 1.79-2.516 3.817-4.996 5.71-2.48 1.893-7.61 5.446-9.276 9.993-1.665 4.546-1.983 9.417-2.14 12.134-.16 2.717-.99 2.438 0 4.997.99 2.56 1.91 3.24 0 5.71-1.91 2.47-3.444 4.565-3.57 5.71-.123 1.147-2.88 1.415-1.426 2.856 1.453 1.44 2.564.51 2.854 3.57.29 3.057-.524 4.114.714 5.71 1.24 1.594 2.272 1.382 3.568 3.568 1.296 2.185 2.11 2.43 2.14 5.71.032 3.28-1.164 5.023 1.428 4.282 2.59-.74 5.026-2.48 6.422-2.14 1.395.338 2.69 7.043 3.568 7.85.878.807 2.028 1.63 3.568 3.57 1.54 1.937 1.525 2.92 1.427 5.71-.097 2.788 3.566 5.324 4.997 7.136 1.43 1.813 7.804 6.11 10.704 7.138 2.9 1.027 7.013 3.046 9.277 2.855 2.264-.19 6.422-2.853 6.422-2.853s4.487 2.003 8.562 2.855c4.076.853 6.86.663 11.418.715 4.56.052 8.043-.505 9.276 0 1.233.504.925.49 1.427 2.855.5 2.366-2.143 4.654-.714 5.71 5.345 3.95 7.413 6.934 10.703 8.565 3.29 1.63 3.384 1.904 5.708 4.282 2.325 2.377 6.993 7.615 12.846 9.992 5.852 2.376 8.13-1.905 11.417 3.57 3.286 5.472 5.08 8.542 8.563 12.846 3.483 4.304 6.127 5.78 9.276 10.706 3.15 4.928 28.154 27.218 37.82 45.68" class="cls-1"/></svg>